<?xml version="1.0" encoding="utf-8"?>
<!-- Generator: Adobe Illustrator 24.2.0, SVG Export Plug-In . SVG Version: 6.00 Build 0)  -->
<svg version="1.1" xmlns="http://www.w3.org/2000/svg" xmlns:xlink="http://www.w3.org/1999/xlink" x="0px" y="0px"
	 viewBox="0 0 750 500" style="enable-background:new 0 0 750 500;" xml:space="preserve">
<style type="text/css">
	.st0{fill:#F5F5F5;}
	.st1{fill:#E0E0E0;}
	.st2{fill:#FAFAFA;}
	.st3{fill:#263238;}
	.st4{fill:#455A64;}
	.st5{fill:#FF725E;}
	.st6{opacity:0.3;}
	.st7{fill:#FFBE9D;}
	.st8{fill:#FFFFFF;}
	.st9{fill:#EB996E;}
	.st10{fill:#B77153;}
	.st11{fill:#995037;}
	.st12{fill:#E8505B;}
	.st13{fill:none;stroke:#4E585D;stroke-miterlimit:10;}
	.st14{opacity:0.2;}
</style>
<g id="Background_Complete">
	<g>
		<path class="st0" d="M475,200.8v44.1c0,7.7,6.5,14.1,14.4,14.1h158.1c8,0,14.4-6.5,14.4-14.4v-37.3l19.7-20.7l-192.2-0.6
			C481.4,186.1,475,192.5,475,200.8z"/>
		<g>
			<polygon class="st1" points="638.7,212.8 495.2,212.1 495.2,207.7 638.7,208.4 			"/>
		</g>
		<g>
			<polygon class="st1" points="638.7,227.3 495.2,226.6 495.2,222.2 638.7,222.9 			"/>
		</g>
		<g>
			
				<rect x="608.1" y="210.7" transform="matrix(4.919567e-03 -1 1 4.919567e-03 368.1771 848.1992)" class="st1" width="4.4" height="56.8"/>
		</g>
	</g>
	<g>
		<g>
			<g>
				<g>
					<path class="st0" d="M205.5,425.6c22.1-15.4,27.1-44.1,26.3-69.9c-0.1-4.3,0.3-8.8-1.7-12.6c-2-3.8-6.8-6.4-10.7-4.5
						c-3.2,1.5-4.6,5.2-6.4,8.3c-2.4,4.1-5.9,7.5-10.1,9.6c-2.7,1.4-6.1,2.3-8.8,0.8c-3.7-2-4.1-7.2-4.1-11.5c0.1-8,0.1-16,0.1-23.9
						c0-4.3,0-8.6-1.3-12.7c-1.3-4.1-4.3-7.8-8.3-9c-4.1-1.1-9.1,1.2-10,5.4c-0.4,1.7,0,3.6-0.1,5.3c-0.1,1.8-0.9,3.7-2.6,4.2
						c-1.7,0.5-3.4-0.7-4.7-2c-4.4-4.3-7.4-9.9-10.2-15.4s-5.5-11.2-9.5-15.9c-4-4.7-9.6-8.4-15.7-8.8c-6.1-0.3-12.7,3.4-14.2,9.5
						c-1.6,6,2,12.2,5.8,17c5.7,7.2,12.4,13.7,19.9,19c1.3,1,2.8,2,3.3,3.6c0.9,2.9-1.8,5.7-4.6,6.6c-3.2,1.1-6.7,0.7-10,1.1
						c-3.3,0.4-7,1.9-8.2,5c-1.8,4.4,1.9,9,5.5,12c7.2,6,15.4,10.8,24.2,14c3.1,1.2,6.5,2.2,9,4.4c2.5,2.2,4.1,6.1,2.5,9.1
						c-1.5,3-5.5,4-8.8,3.4c-3.3-0.6-6.2-2.4-9.4-3.6c-5.9-2.2-13.5-1.8-17.2,3.3c-2.5,3.3-2.7,8-1.4,12c1.3,4,3.8,7.4,6.5,10.6
						c9.4,11.1,21.5,20,35.1,24.7C179.3,429.3,191.9,430.6,205.5,425.6"/>
				</g>
			</g>
		</g>
		<g>
			<g>
				<g>
					<g>
						<path class="st1" d="M205.8,444.7c-0.9-10.2-3.2-22.3-7-35.3c-3.8-13-9.1-26.9-15.2-41.3c-1.5-3.6-3.1-7.1-4.5-10.6
							c-1.5-3.5-3-6.9-4.7-10.2c-3.3-6.6-7-12.7-10.6-18.3c-3.7-5.7-7.4-10.9-10.8-15.8c-3.5-4.9-6.8-9.4-10.1-13.3
							c-6.4-7.9-12.3-13.7-16.6-17.5c-2.1-1.9-3.8-3.3-5-4.3c-0.6-0.5-1-0.8-1.3-1.1c-0.3-0.2-0.5-0.4-0.5-0.3c0,0,0.1,0.1,0.4,0.4
							c0.3,0.3,0.7,0.7,1.3,1.1c1.1,1,2.8,2.5,4.9,4.4c4.2,3.9,10,9.7,16.3,17.6c3.2,4,6.5,8.5,10,13.3c3.5,4.9,7.1,10.1,10.8,15.8
							c3.6,5.7,7.3,11.7,10.6,18.3c1.6,3.3,3.1,6.7,4.6,10.2c1.5,3.5,3,7,4.5,10.6c6.1,14.3,11.4,28.2,15.2,41.2
							c3.8,12.9,6.1,24.9,7.1,35.1"/>
					</g>
				</g>
			</g>
		</g>
		<g>
			<g>
				<g>
					<g>
						<path class="st1" d="M174.2,347.3c0.1,0,0.2-0.6,0.4-1.8c0.2-1.2,0.5-2.9,0.8-5c0.6-4.3,1.2-10.2,1.9-16.7
							c0.7-6.5,1.4-12.4,2.1-16.6c0.3-2.1,0.6-3.8,0.8-5c0.2-1.2,0.3-1.8,0.2-1.9c-0.1,0-0.2,0.6-0.5,1.8c-0.3,1.2-0.7,2.9-1.1,5
							c-0.8,4.2-1.6,10.1-2.3,16.7c-0.6,6.4-1.2,12.3-1.7,16.7c-0.2,2-0.4,3.7-0.5,5.1C174.2,346.6,174.1,347.3,174.2,347.3z"/>
					</g>
				</g>
			</g>
		</g>
		<g>
			<g>
				<g>
					<g>
						<path class="st1" d="M119.2,337c0,0.1,0.8,0.1,2.2,0.3c1.4,0.1,3.5,0.3,6,0.6c5,0.5,12,1.5,19.6,3c7.6,1.4,14.4,3,19.3,4.3
							c2.5,0.6,4.4,1.2,5.8,1.6c1.4,0.4,2.1,0.6,2.1,0.5c0-0.1-0.7-0.3-2.1-0.8c-1.3-0.5-3.3-1.1-5.7-1.8
							c-4.9-1.4-11.7-3.1-19.3-4.6c-7.6-1.4-14.6-2.3-19.7-2.7c-2.5-0.2-4.6-0.3-6-0.3C119.9,337,119.2,337,119.2,337z"/>
					</g>
				</g>
			</g>
		</g>
		<g>
			<g>
				<g>
					<g>
						<path class="st1" d="M198.1,408.4c0,0,0.2-0.2,0.4-0.7c0.3-0.5,0.6-1.2,0.9-2c0.8-1.7,1.9-4.3,3.2-7.4
							c2.7-6.3,6-15.1,9.7-24.9c3.6-9.8,6.9-18.6,9.4-25c1.2-3.1,2.3-5.6,3-7.5c0.3-0.8,0.6-1.5,0.8-2c0.2-0.5,0.3-0.7,0.2-0.7
							c0,0-0.2,0.2-0.4,0.7c-0.3,0.5-0.6,1.2-0.9,2c-0.8,1.7-1.9,4.3-3.2,7.4c-2.7,6.3-6,15.1-9.7,24.9c-3.6,9.8-6.9,18.6-9.4,25
							c-1.2,3.1-2.3,5.6-3,7.5c-0.3,0.8-0.6,1.5-0.8,2C198.2,408.2,198.1,408.4,198.1,408.4z"/>
					</g>
				</g>
			</g>
		</g>
		<g>
			<g>
				<g>
					<g>
						<path class="st1" d="M125,384.9c0,0,0.2,0.1,0.7,0.3c0.6,0.2,1.3,0.4,2.1,0.7c2,0.6,4.6,1.5,7.8,2.5
							c6.6,2.1,15.7,5.2,25.8,8.6c10,3.4,19.2,6.4,25.8,8.4c3.3,1,6,1.8,7.9,2.3c0.9,0.2,1.6,0.4,2.2,0.6c0.5,0.1,0.8,0.2,0.8,0.1
							c0,0-0.2-0.1-0.7-0.3c-0.6-0.2-1.3-0.4-2.1-0.7c-2-0.6-4.6-1.5-7.8-2.5c-6.6-2.1-15.7-5.2-25.8-8.6c-10-3.4-19.2-6.4-25.8-8.4
							c-3.3-1-6-1.8-7.9-2.3c-0.9-0.2-1.6-0.4-2.2-0.6C125.3,384.9,125,384.8,125,384.9z"/>
					</g>
				</g>
			</g>
		</g>
	</g>
	<g>
		<path class="st1" d="M256.5,155.2v34.2c0,6.2-5,11.2-11.2,11.2H122.8c-6.2,0-11.2-5-11.2-11.2v-28.9l-15.3-16l148.9-0.5
			C251.5,144,256.5,149,256.5,155.2z"/>
		<g>
			<polygon class="st2" points="129.6,164.7 240.8,164.2 240.8,160.8 129.6,161.3 			"/>
		</g>
		<g>
			<polygon class="st2" points="129.6,176 240.8,175.4 240.8,172 129.6,172.5 			"/>
		</g>
		<g>
			
				<rect x="129.6" y="183.4" transform="matrix(1 -4.921614e-03 4.921614e-03 1 -0.9092 0.7485)" class="st2" width="44" height="3.4"/>
		</g>
	</g>
</g>
<g id="Floor">
	<g>
		<path class="st3" d="M669.2,464.8c0,0.1-129,0.3-288.1,0.3c-159.2,0-288.2-0.1-288.2-0.3c0-0.1,129-0.3,288.2-0.3
			C540.2,464.6,669.2,464.7,669.2,464.8z"/>
	</g>
</g>
<g id="Device">
	<g>
		<path class="st3" d="M566.9,218.3v235c0,6.4-5.2,11.5-11.5,11.5H208c-6.4,0-11.5-5.2-11.5-11.5v-235c0-6.4,5.2-11.5,11.5-11.5
			h347.3C561.7,206.7,566.9,211.9,566.9,218.3z"/>
	</g>
	<g>
		<defs>
			
				<rect id="SVGID_1_" x="255.5" y="181.1" transform="matrix(6.123234e-17 -1 1 6.123234e-17 40.6841 712.2255)" width="241.8" height="309.3"/>
		</defs>
		<clipPath id="SVGID_2_">
			<use xlink:href="#SVGID_1_"  style="overflow:visible;"/>
		</clipPath>
		<g style="clip-path:url(#SVGID_2_);">
			
				<image style="overflow:visible;" width="1405" height="899" xlink:href="Screen for 2nd scroll.PNG"  transform="matrix(0.2293 0 0 0.2293 215.5519 232.0173)">
			</image>
		</g>
	</g>
	<g>
		
			<ellipse transform="matrix(0.2288 -0.9735 0.9735 0.2288 95.9447 792.6478)" class="st4" cx="548.2" cy="335.8" rx="9.9" ry="9.9"/>
	</g>
	<g>
		<path class="st4" d="M211.2,298.1v75.3c0,0.7-0.5,1.2-1.2,1.2h-1.7c-0.7,0-1.2-0.5-1.2-1.2v-75.3c0-0.7,0.5-1.2,1.2-1.2h1.7
			C210.7,296.9,211.2,297.4,211.2,298.1z"/>
	</g>
	<g id="freepik--Character--inject-18">
		<path class="st3" d="M656.3,480.2c33.9-11.2,10.7-56.1,10.7-56.1l-148.3,14c-11.8-0.1-21.5,9.4-21.6,21.3c0,0.1,0,0.1,0,0.2l0,0
			c0,11.9,9.6,21.5,21.5,21.5L656.3,480.2"/>
		<path class="st3" d="M691,480.2c33.1-11.2,10.3-56.1,10.3-56.1l-144.6,13.6c-14.1,0.2-21,7-21,21.4l0,0c0,11.8,4.4,21.8,21,21.5
			L691,480.2"/>
		<path class="st4" d="M657.4,431.7H657h-1.2l-4.6,0.2l-17,0.8l-56.1,3.1c-2.8,0.1-5.4,0.4-8.1,0.4c-2.7,0-5.3,0.2-7.9,0.3
			s-5.1,0.4-7.6,0.6c-2.5,0.2-4.9,0.7-7.2,1.5c-2.2,0.9-4.3,2.2-6,3.9c-1.6,1.7-2.9,3.7-3.6,5.8c-0.7,2-1.2,4.2-1.5,6.3
			c-0.3,2-0.4,4-0.4,6c-0.1,3.4,0.6,6.9,1.9,10.1c1,2.4,2.5,4.5,4.5,6.1c1.2,1,2.6,1.8,4.1,2.3c1,0.3,1,0.2,0-0.1
			c-1.5-0.6-2.8-1.4-3.9-2.4c-1.9-1.7-3.3-3.7-4.3-6.1c-1.2-3.1-1.8-6.5-1.8-9.8c0-2,0.2-3.9,0.4-5.9c0.3-2.1,0.8-4.2,1.5-6.2
			c0.8-2.1,2-4,3.5-5.6c1.7-1.6,3.6-2.9,5.8-3.7c2.3-0.8,4.6-1.3,7-1.4c2.5-0.3,5-0.4,7.6-0.6c2.6-0.2,5.2-0.3,7.9-0.3
			c2.7,0,5.4-0.3,8.1-0.4l56.1-3.3l17-1.1l4.6-0.3l1.2-0.1C657.1,431.8,657.3,431.7,657.4,431.7z"/>
		<path class="st4" d="M690.1,445.8c-0.3,0.3-0.7,0.5-1.2,0.6c-1.1,0.4-2.3,0.7-3.5,0.7c-7.6,0.6-14.1-5.1-14.7-12.6
			c-0.1-0.8-0.1-1.6,0-2.4c0.1-1.2,0.4-2.4,0.8-3.5c0.3-0.8,0.6-1.2,0.6-1.2c-0.4,1.5-0.7,3.1-0.9,4.7c-0.5,7.5,5.2,14,12.7,14.5
			c0.5,0,0.9,0,1.4,0C686.9,446.5,688.5,446.2,690.1,445.8z"/>
		<path class="st5" d="M646.5,302.3c-18.4,2.1-21.4,14.6-30,26.9l-12.4,22.9l22.8,14l-0.8,35.1l-9.3,31.1l85.9-4.8l-9.6-29.5
			l11.4-45.1c0.9-6.2,3.2-17.6,1.6-23.6c-5-18.9-24.7-24.4-38.2-27.9c-2.8-0.7-16.2-0.7-18.6-0.1"/>
		<path class="st2" d="M636.9,398.5c1.1-0.2,2.2,0,3.1,0.7c1.1,0.6,1.9,1.5,2.4,2.6c0.7,1.4,0.8,2.9,0.3,4.4
			c-0.4,1.5-1.4,2.7-2.7,3.5c-1.1,0.6-2.3,0.9-3.5,0.8c-1.1,0-2.2-0.4-3-1.2c1,0.4,2,0.6,3,0.7c1.1,0,2.2-0.3,3.1-0.9
			c2.3-1.5,3.2-4.5,2.1-7c-0.5-1-1.2-1.8-2.1-2.4C638.8,399,637.9,398.7,636.9,398.5z"/>
		<path class="st3" d="M657.4,360.5c0,0.1,8.8,3.2,19.7,6.8c10.9,3.6,19.8,6.4,19.9,6.3c0.1-0.1-8.8-3.2-19.7-6.8
			C666.3,363.2,657.4,360.4,657.4,360.5z"/>
		<g class="st6">
			<path d="M692.7,379.4c-1.6,7.5-3.7,14.8-6.3,22c-1.6,4.6-4,8.9-6.9,12.7c-4.4,5-10.2,8.6-16.6,10.1c-6.4,1.6-13.1,1.9-19.7,1
				l32.7-18.5l8.7-30.2L692.7,379.4z"/>
		</g>
		<path class="st3" d="M626.2,400.2c0.1-0.8,0.2-1.6,0.2-2.4c0.1-1.7,0.2-4,0.3-6.8c0.3-5.7,0.5-13.7,0.8-22.5
			c0.3-8.8,0.5-16.7,0.6-22.5c0-2.8,0-5.1,0.1-6.8c0-0.8,0-1.7-0.1-2.5c-0.1,0.8-0.2,1.7-0.2,2.5c-0.1,1.7-0.2,4-0.3,6.8
			c-0.2,5.7-0.5,13.7-0.8,22.5s-0.5,16.7-0.6,22.5c0,2.8,0,5.1-0.1,6.8C626.1,398.6,626.1,399.4,626.2,400.2z"/>
		<path class="st3" d="M607.5,346c3.1,2.3,6.3,4.3,9.6,6.1c3.2,2,6.6,3.9,10,5.4c-3.1-2.3-6.3-4.3-9.6-6.1
			C614.4,349.4,611,347.5,607.5,346z"/>
		<path class="st2" d="M650.5,331.7c-0.6,0.9-1.6,1.6-2.7,1.8c-3.2,0.9-6.6-1-7.6-4.2c-0.3-1-0.3-2-0.1-2.9c0.3-1.2,0.9-2.3,1.7-3.1
			c0.7-0.8,1.8-1.3,2.9-1.4c-0.9,0.4-1.8,1-2.5,1.7c-0.7,0.8-1.3,1.8-1.5,2.8c-0.2,1.3,0,2.7,0.7,3.8c0.6,1.2,1.7,2.1,3,2.5
			c1,0.3,2.2,0.4,3.2,0.2C648.6,332.7,649.6,332.3,650.5,331.7z"/>
		<path class="st2" d="M632.4,355.9c-0.7-0.9-0.9-2-0.8-3.1c0.3-3.4,3.2-5.8,6.6-5.6c1,0.1,2,0.4,2.8,1c1,0.7,1.8,1.7,2.2,2.8
			c0.5,1,0.6,2.1,0.2,3.2c-0.1-1-0.3-2-0.7-3c-0.5-1-1.2-1.8-2.1-2.4c-2.4-1.4-5.4-0.9-7.2,1.1c-0.7,0.9-1.1,1.9-1.3,3
			C632,353.9,632.1,354.9,632.4,355.9z"/>
		<path class="st2" d="M632.4,386.9c-0.7-0.9-0.9-2-0.8-3.1c0.3-3.4,3.2-5.8,6.6-5.6c1,0.1,2,0.4,2.8,1c1,0.7,1.8,1.7,2.2,2.8
			c0.5,1,0.6,2.1,0.2,3.2c-0.1-1-0.3-2-0.7-3c-0.5-1-1.2-1.8-2.1-2.4c-2.4-1.4-5.4-0.9-7.2,1.1c-0.7,0.9-1.1,1.9-1.3,3
			C632.1,384.9,632.1,385.9,632.4,386.9z"/>
		<path class="st2" d="M659.5,348.3c-1.1,0-2.2-0.4-3-1.1c-1-0.8-1.7-1.8-2-2.9c-0.4-1.4-0.3-3,0.4-4.4c0.6-1.4,1.8-2.5,3.2-3
			c1.1-0.4,2.4-0.5,3.6-0.3c1.1,0.1,2.1,0.7,2.8,1.6c-0.9-0.5-1.8-0.9-2.8-1.1c-1.1-0.2-2.2,0-3.2,0.4c-2.5,1.1-3.8,3.9-3.1,6.6
			c0.3,1.1,0.9,2,1.7,2.7C657.7,347.4,658.6,347.9,659.5,348.3z"/>
		<path class="st2" d="M648.5,360.7c1,0.6,1.7,1.5,1.9,2.6c1.1,3.2-0.6,6.6-3.8,7.7c-2.2,0.7-4.6,0.2-6.2-1.5
			c-0.8-0.7-1.4-1.7-1.5-2.8c0.5,0.9,1.1,1.8,1.8,2.5c0.8,0.7,1.8,1.2,2.9,1.4c2.7,0.4,5.3-1.2,6.2-3.9c0.3-1.1,0.3-2.2,0-3.2
			C649.6,362.4,649.1,361.5,648.5,360.7z"/>
		<path class="st2" d="M626.2,318.6c1.1-0.2,2.2,0,3.1,0.7c1.1,0.6,1.9,1.5,2.5,2.6c1.5,3,0.2,6.6-2.8,8.1c-0.9,0.5-2,0.7-3,0.6
			c-1.1,0-2.2-0.4-3-1.2c1,0.4,2,0.6,3,0.6c1.1,0,2.2-0.3,3.1-0.9c1.1-0.7,1.9-1.8,2.3-3.1c0.4-1.3,0.3-2.7-0.2-3.9
			c-0.5-1-1.2-1.8-2.1-2.4C628.2,319.1,627.2,318.8,626.2,318.6z"/>
		<path class="st2" d="M664.9,355.8c-0.6-1-0.7-2.1-0.4-3.2c0.2-1.2,0.8-2.3,1.6-3.2c1.1-1.1,2.5-1.7,4-1.8c2.8-0.2,5.4,1.6,6.1,4.3
			c0.4,1,0.4,2.2-0.1,3.2c0-1-0.1-2.1-0.4-3.1c-0.4-1-1-1.9-1.9-2.6c-2.2-1.6-5.3-1.5-7.3,0.4c-0.8,0.8-1.3,1.7-1.6,2.8
			C664.8,353.7,664.8,354.8,664.9,355.8z"/>
		<path class="st2" d="M651,378.6c1.1-0.2,2.2,0,3.1,0.7c1.1,0.6,1.9,1.5,2.5,2.6c1.3,2.8,0.3,6.2-2.4,7.9c-1.1,0.6-2.3,0.9-3.5,0.8
			c-1.1,0-2.2-0.4-3-1.2c1,0.4,2,0.6,3,0.6c1.1,0,2.2-0.3,3.1-0.9c2.3-1.5,3.2-4.5,2.1-7c-0.5-1-1.2-1.8-2.1-2.4
			C653,379.2,652,378.8,651,378.6z"/>
		<path class="st2" d="M673.4,419.2c0-1.1,0.4-2.2,1.2-3c2.2-2.5,6.1-2.8,8.6-0.6c0.8,0.7,1.3,1.5,1.7,2.4c0.4,1.1,0.5,2.4,0.2,3.6
			c-0.2,1.1-0.8,2.1-1.7,2.7c0.5-0.9,0.9-1.8,1.2-2.8c0.2-1.1,0.1-2.2-0.3-3.2c-1.1-2.5-3.8-3.9-6.5-3.3c-1.1,0.3-2,0.8-2.8,1.6
			C674.4,417.4,673.8,418.3,673.4,419.2z"/>
		<path class="st2" d="M689.7,396.9c1.1,0.1,2.1,0.7,2.8,1.6c1.9,2.1,2.1,5.2,0.5,7.5c-0.8,1.3-2.1,2.1-3.6,2.5
			c-1.2,0.3-2.4,0.2-3.6-0.3c-1.1-0.3-2-1.1-2.5-2c0.8,0.7,1.7,1.2,2.7,1.5c1,0.3,2.2,0.4,3.2,0.1c2.6-0.7,4.4-3.3,4.1-6
			c-0.1-1.1-0.6-2.1-1.3-3C691.4,398,690.6,397.4,689.7,396.9z"/>
		<path class="st2" d="M689.7,353.9c1.1,0.2,2.1,0.7,2.8,1.6c0.8,0.9,1.3,2,1.5,3.2c0.4,3.1-1.6,6-4.7,6.7c-1.2,0.3-2.4,0.2-3.6-0.3
			c-1.1-0.3-2-1.1-2.5-2.1c0.8,0.7,1.7,1.2,2.7,1.6c1,0.3,2.2,0.4,3.2,0.1c2.7-0.7,4.4-3.3,4.1-6c-0.1-1.1-0.6-2.1-1.3-3
			C691.4,355,690.6,354.4,689.7,353.9z"/>
		<path class="st2" d="M698.9,346c-1.1,0.1-2.2-0.3-3.1-1c-1-0.7-1.7-1.7-2.2-2.8c-1-3,0.4-6.2,3.2-7.6c1.1-0.5,2.4-0.7,3.6-0.4
			c1.1,0.1,2.1,0.6,2.8,1.5c-0.9-0.5-1.9-0.8-2.9-1c-1.1-0.1-2.2,0.1-3.2,0.5c-2.4,1.3-3.6,4.1-2.8,6.7c0.4,1,1,2,1.8,2.7
			C697,345.2,698,345.7,698.9,346z"/>
		<path class="st2" d="M683.3,322.3c-1.1,0.1-2.2-0.3-3-1c-1-0.7-1.7-1.7-2.2-2.8c-1-3,0.4-6.2,3.2-7.6c1.1-0.5,2.4-0.7,3.6-0.4
			c1.1,0.1,2.1,0.6,2.8,1.5c-0.9-0.5-1.9-0.8-2.9-1c-1.1-0.1-2.2,0.1-3.2,0.5c-2.4,1.3-3.6,4.1-2.8,6.7c0.4,1,1,2,1.8,2.7
			C681.4,321.5,682.3,322,683.3,322.3z"/>
		<path class="st2" d="M620.8,349.6c-1.1,0.1-2.2-0.3-3-1c-2.3-1.6-3.1-4.6-2-7.2c0.6-1.4,1.7-2.5,3-3.2c1.1-0.5,2.4-0.7,3.6-0.4
			c1.1,0.1,2.1,0.6,2.8,1.5c-0.9-0.5-1.9-0.8-2.9-1c-1.1-0.1-2.2,0.1-3.2,0.5c-2.4,1.3-3.6,4.1-2.8,6.7c0.4,1,1,2,1.8,2.7
			C618.9,348.8,619.8,349.2,620.8,349.6z"/>
		<path class="st2" d="M683.5,327.7c1.1,0.1,2.1,0.7,2.8,1.6c0.8,0.9,1.4,2,1.5,3.2c0.4,3.1-1.6,6-4.7,6.7c-1.2,0.3-2.4,0.2-3.6-0.3
			c-1.1-0.3-2-1.1-2.5-2.1c0.8,0.7,1.7,1.2,2.7,1.6c1,0.3,2.2,0.4,3.2,0.1c1.3-0.3,2.4-1.1,3.2-2.2c0.8-1.1,1.1-2.4,1-3.8
			c-0.1-1.1-0.6-2.1-1.3-3C685.2,328.9,684.4,328.2,683.5,327.7z"/>
		<path class="st3" d="M703.2,352.5c-0.1,0.2-0.1,0.3-0.2,0.5c-0.1,0.4-0.3,0.8-0.5,1.4c-0.4,1.3-1,3.2-1.8,5.5l-6.3,20.1l0.3-0.1
			l-38.2-14.1l-1-0.4l0.2,0.3c2.3-8.6,5.3-17,8.9-25.1c2.8-6.7,6.7-12.9,11.4-18.4c1.8-2.1,4-3.8,6.4-5.2c1.8-1,3.8-1.6,5.9-1.8
			c0.4,0,0.8,0,1.2,0l1.1,0.1c0.3,0,0.6,0,0.9,0.1l0.7,0.2l1,0.3l0.3,0.1l-0.3-0.1l-1-0.3l-0.7-0.2c-0.3-0.1-0.6-0.1-0.9-0.1
			l-1.1-0.1c-0.4,0-0.8,0-1.2,0c-2.1,0.1-4.2,0.7-6.1,1.7c-2.5,1.3-4.7,3.1-6.6,5.2c-4.8,5.5-8.7,11.8-11.5,18.5
			c-3.7,8.1-6.7,16.6-9,25.2v0.2l0.2,0.1l1,0.4c14.3,5.4,27.6,10.1,38.2,14.1l0.2,0.1l0.1-0.2l6.1-20.1c0.7-2.4,1.3-4.2,1.6-5.6
			c0.2-0.6,0.3-1.1,0.4-1.5C703.2,352.8,703.2,352.7,703.2,352.5z"/>
		<path class="st7" d="M631.1,375.5l-7.4,23.1c-2.9,9.6-10.9,16.8-20.8,18.6l-49.4,9.3l-13.5-0.4l13.5-16.6l37.1-12.6
			c3.6-0.8,6.5-3.5,7.5-7.1l14.8-32.2l18.7,11.5L631.1,375.5z"/>
		<path class="st7" d="M688.9,377.7l-8.1,26.4c-2.8,9.7-10.8,16.9-20.7,18.8l-49.4,9.4l-13.4-0.4l4.6-11.5l46-18.2
			c3.6-0.8,6.5-3.6,7.5-7.2l6.9-26.5L688.9,377.7z"/>
		<polygon class="st4" points="645.1,432.6 644.7,429.4 606.8,427.9 588.1,381 517.2,385.8 541.1,437.9 		"/>
		<path class="st8" d="M560.2,411.4c1.1,1.7,3.4,2.3,5.1,1.2c1.7-1.1,2.3-3.4,1.2-5.1c-1.1-1.7-3.4-2.3-5.1-1.2c0,0,0,0,0,0
			C559.6,407.4,559.1,409.7,560.2,411.4z"/>
		<path class="st3" d="M667,220.7c11.4,0.8,21.2,8.2,25.1,18.9c0.7,2,1.1,4,2,5.9c0.8,2,2.2,3.6,4.1,4.5c1.4,0.6,3,0.7,4.4,1.2
			c2.4,1,4.3,3.1,4.9,5.6c0.6,2.6,0.1,5.2-1.3,7.4c-0.8,1-1.4,2.2-1.7,3.5c0.1,0.9,0.2,1.7,0.5,2.6c0.9,3.8-1.4,7.6-5.2,8.5
			c-2.3,0.5-4.6-0.1-6.4-1.6c-0.7,2.2-2.2,4.1-4.2,5.4c-2.1,1-5.2,0.1-5.6-2.2c-1.4,2.8-4.8,3.8-7.6,2.4c-1.7-0.9-2.8-2.5-3-4.4"/>
		<path class="st5" d="M633.3,255.3c-4.6-5.4-4.7-13.8-1.4-20c3.2-6.3,9.4-10.6,15.9-13.1c8.9-3.5,19.6-3.9,27.6,1.4
			c10.9,7.4,13.8,22.2,6.4,33.1c-2.5,3.6-5.9,6.5-9.9,8.4"/>
		<path class="st2" d="M686.2,242.2c-1.1,0.3-2.2,0.4-3.3,0.4c-1.1,0.2-2.2,0.3-3.3,0.3C681.6,241.7,684,241.5,686.2,242.2z"/>
		<path class="st2" d="M681.9,230.5c-1,0.3-1.9,0.6-3,0.7c-1.6,0.4-2.8,0.9-3,0.7c0.7-0.8,1.7-1.3,2.8-1.4
			C679.8,230.1,680.9,230.1,681.9,230.5z"/>
		<path class="st2" d="M673.5,222.7c0,0.2-1.9,0.5-4.2,1.2c-1.3,0.6-2.7,1.1-4,1.5c1-1.1,2.4-1.8,3.8-2.2
			C670.5,222.6,672,222.4,673.5,222.7z"/>
		<path class="st2" d="M659.5,219.6c0,0.2-1.7,0.8-3.6,2.1c-1.8,1.3-2.9,2.8-3.1,2.7c0.5-1.4,1.4-2.6,2.7-3.3
			C656.7,220.1,658.1,219.6,659.5,219.6z"/>
		<path class="st2" d="M643.4,224.7c0.1,0.2-0.5,0.7-1,1.5c-0.4,0.5-0.6,1.1-0.8,1.4l-0.3,0.5v-0.5c0-0.2,0-0.3,0.1-0.3
			s0.2,0,0.3,0.2h-0.3c0-0.6,0.1-1.2,0.5-1.7C642.4,224.9,643.3,224.5,643.4,224.7z"/>
		<path class="st2" d="M683.3,254.5c0,0.2-1.3,0.3-2.7-0.1s-2.4-1.3-2.3-1.4c0.1-0.1,1.2,0.3,2.6,0.7
			C682.1,254.1,683.3,254.3,683.3,254.5z"/>
		<path class="st3" d="M705.4,243.2c0,0-0.3,0.9-1.7,1.4c-0.9,0.3-1.8,0.2-2.7-0.3c-1.1-0.7-1.7-1.8-1.8-3c-0.1-1.5,0.7-3,2-3.8
			c1.5-0.9,3.3-1,4.9-0.2c1.7,0.8,3,2.4,3.3,4.3c0.3,2-0.2,4-1.4,5.6c-1.3,1.6-3.3,2.4-5.3,2.3c-1.8-0.1-3.6-0.6-5.2-1.7
			c-2.4-1.8-4.5-4.1-6.1-6.6c-1.1-1.7-2.3-3.3-3.7-4.8c-1-1-1.6-1.5-1.5-1.6c0,0,0.2,0.1,0.5,0.3c0.4,0.3,0.9,0.7,1.3,1.1
			c1.4,1.4,2.7,3,3.9,4.7c1.6,2.5,3.7,4.6,6,6.4c1.4,0.9,3.1,1.5,4.8,1.5c1.8,0.1,3.6-0.7,4.7-2.1c1.1-1.4,1.6-3.3,1.3-5.1
			c-0.3-1.7-1.4-3.1-2.9-3.8c-1.3-0.7-2.9-0.6-4.2,0.1c-1.2,0.6-1.9,1.9-1.8,3.2c0,1.1,0.5,2.1,1.4,2.7c0.7,0.4,1.6,0.6,2.4,0.4
			C704.3,244.1,704.9,243.7,705.4,243.2z"/>
		<path class="st7" d="M673.1,235.8c2.6,0.3,4.5,2.5,4.4,5l0,0l-2.8,67.1c-0.1,7.9-14.5,17.3-23,17.1l0,0c-8.6-0.2-6-9.3-6.2-16.9
			c-0.2-12.6-0.2-17.3-0.2-17.2c0,0.1-10.8-1.8-13.1-15.9c-1.1-7-0.8-18.5-0.2-28c0.5-8.4,6.1-18.9,14.6-18L673.1,235.8z"/>
		<path class="st3" d="M635.9,256.2c0,1,0.8,1.8,1.7,1.8c1,0.1,1.8-0.6,1.9-1.6c0,0,0,0,0-0.1c0-1-0.8-1.8-1.8-1.8
			C636.7,254.5,635.9,255.3,635.9,256.2z"/>
		<path class="st3" d="M634.7,253c0.2,0.2,1.6-0.8,3.6-0.8s3.4,1,3.6,0.7s-0.1-0.5-0.7-1c-0.8-0.6-1.9-0.9-2.9-0.9
			c-1,0-2,0.3-2.8,0.9C634.8,252.5,634.6,253,634.7,253z"/>
		<path class="st3" d="M654.9,256.2c0,1,0.8,1.8,1.7,1.8c1,0.1,1.8-0.6,1.9-1.6c0,0,0,0,0-0.1c0-1-0.8-1.8-1.7-1.8
			C655.8,254.5,655,255.2,654.9,256.2C654.9,256.2,654.9,256.2,654.9,256.2z"/>
		<path class="st3" d="M653.8,253.4c0.2,0.2,1.6-0.8,3.6-0.8s3.4,1,3.6,0.7s-0.1-0.5-0.7-1c-0.8-0.6-1.9-0.9-2.9-0.9
			c-1,0-2,0.3-2.8,0.9C653.9,252.9,653.7,253.3,653.8,253.4z"/>
		<path class="st3" d="M646.8,267.9c-1-0.3-2.1-0.5-3.2-0.6c-0.5,0-1-0.2-1.1-0.5c0-0.5,0.1-1,0.3-1.5l1.4-3.8
			c2.1-5.4,3.5-9.8,3.3-9.9c-1.6,3.1-3,6.3-4.1,9.6l-1.4,3.8c-0.3,0.6-0.4,1.3-0.2,2c0.1,0.4,0.5,0.6,0.8,0.7
			c0.3,0.1,0.6,0.1,0.8,0.1C644.6,268,645.7,268,646.8,267.9z"/>
		<path class="st9" d="M645.4,291c6.7,0.1,13.2-1.7,19-5.1c0,0-4.6,9.7-18.7,8.4L645.4,291z"/>
		<path class="st9" d="M647.6,272.6c0.8-0.9,1.9-1.4,3.1-1.3c0.9,0.1,1.7,0.5,2.2,1.2c0.5,0.7,0.6,1.6,0.2,2.3
			c-0.6,0.7-1.7,1-2.6,0.6c-0.9-0.3-1.8-0.8-2.5-1.5c-0.2-0.2-0.4-0.3-0.5-0.6C647.3,273.1,647.3,272.8,647.6,272.6"/>
		<path class="st3" d="M652.5,269.2c-0.3,0-0.3,2.1-2.1,3.6c-1.8,1.5-4.1,1.3-4.1,1.6s0.5,0.4,1.4,0.4c1.2,0,2.4-0.4,3.4-1.2
			c0.9-0.8,1.5-1.8,1.6-3C652.9,269.7,652.6,269.2,652.5,269.2z"/>
		<path class="st3" d="M653,250c0.2,0.5,2.1,0.3,4.4,0.5c2.3,0.3,4.1,0.9,4.4,0.4c0.1-0.2-0.2-0.7-0.9-1.2c-1-0.6-2.1-1-3.3-1.2
			c-1.2-0.1-2.4,0-3.5,0.4C653.3,249.3,652.9,249.8,653,250z"/>
		<path class="st3" d="M635.4,247.4c0.4,0.4,1.7,0,3.3,0c1.6,0,3,0.3,3.3-0.2c0.1-0.2-0.1-0.7-0.7-1.1c-1.6-1-3.7-0.9-5.3,0.2
			C635.4,246.7,635.2,247.2,635.4,247.4z"/>
		<path class="st7" d="M676,258.3c1.2-0.6,2.6-0.6,3.7,0.2c3.1,1.8,4.2,5.8,2.4,9c-1.3,2.3-3.9,3.5-6.5,3.2"/>
		<path class="st3" d="M653.8,224.4c-4.8,0.2-9.5,1.7-13.6,4.2c-4.6,2.4-8.1,6.5-9.7,11.5c-0.4,1-0.4,2.2,0.1,3.2
			c0.9,1.2,2.5,1.5,3.9,0.8c1.3-0.7,2.3-1.7,3.1-2.9c0.8,3.2,4.2,5.2,7.4,4.3c2.2-0.6,3.8-2.3,4.3-4.4c0.2,2.8,2.6,4.9,5.4,4.8
			c2.8-0.3,5.1-2.1,6-4.7c0.3,2.4,1.2,4.8,2.5,6.9c1.4,2.1,3.9,3.2,6.4,2.6c-0.5,2.1-0.5,4.2,0.1,6.3c0.7,2,3,3.6,5,2.9s2.7-3,3.2-5
			c1-3.9,1.5-7.8,1.5-11.8c0.3-8.5-5.7-15.9-14-17.6c-4-0.9-8.2-1.3-12.3-1.1"/>
		<path class="st9" d="M677,266.5c0-0.1,0.5,0.1,1.2-0.2c0.8-0.5,1.3-1.4,1.2-2.4c0-1-0.6-1.9-1.5-2.3c-0.7-0.3-1.2-0.2-1.3-0.3
			c0-0.1,0.5-0.4,1.4-0.2c0.6,0.1,1,0.4,1.4,0.9c0.4,0.5,0.7,1.2,0.7,1.9c0.1,1.3-0.6,2.5-1.8,2.9
			C677.4,267.1,676.9,266.5,677,266.5z"/>
		<path class="st5" d="M682.4,267.2c0.2,0,0.4,0.1,0.6,0.2c0.5,0.2,1.1,0.4,1.6,0.7c1.9,1,3.5,2.5,4.6,4.3c0.8,1.3,1.2,2.7,1.3,4.2
			c0,1.7-0.4,3.4-1.2,4.9c-0.9,1.7-2.2,3.1-3.8,4.2c-1.7,1.2-3.7,1.8-5.8,1.9c-4-0.1-7.7-2.4-9.5-6c-0.8-1.5-1.1-3.3-1-5
			c0.2-1.5,0.6-2.9,1.4-4.2c1.1-1.9,2.7-3.3,4.7-4.2c0.5-0.2,1.1-0.4,1.6-0.5c0.2,0,0.4,0,0.6,0c0,0.1-0.8,0.2-2.1,0.8
			c-3.1,1.6-5.2,4.7-5.6,8.3c-0.1,1.6,0.2,3.2,1,4.6c1.7,3.3,5.2,5.5,8.9,5.5c3.8-0.2,7.2-2.3,8.9-5.6c1.5-2.7,1.5-6,0-8.6
			c-1-1.8-2.5-3.3-4.3-4.4C683.1,267.5,682.3,267.3,682.4,267.2z"/>
	</g>
</g>
<g id="Character">
	<g>
		<g>
			<g>
				<g>
					<path class="st4" d="M339.7,208.3c0,0-2.1-4.8-2.5-5.8c-1.1-2.9-8-22.1-6.3-25c7.7-13.5,13.6-23,28.8-23l26.7-0.2
						c0,0,25.3-5.2,43.2,52.4L339.7,208.3z"/>
					<path class="st4" d="M283.3,213.2l35-7.5l41.1-21.6l0.2-29.5c-6.2-1.7-18,2.6-39.3,13.4l-31.6,16.3
						C277.9,189.8,275.3,204,283.3,213.2L283.3,213.2z"/>
				</g>
				<g>
					<g>
						<g>
							<path class="st10" d="M362.1,270.3c-0.5-1.7-0.2-2.7,2.3-1.9c5.3,1.8,10.1,1.2,11.3,0.2c1.2-1,0.1-3-1.6-2.9
								c-1.4,0.1-3.8-0.3-5.6-0.8c-1.5-0.4-2.9-0.9-4.2-1.8c-1.1-0.7-2.1-1.4-2.9-2c0,0-4.9-3.6-6.5-6.4l-16.9,7.2l2.7,8.5
								c0,0,0.9,5,5.7,6.6c4.8,1.6,12.5,1,12.5,1c1.4-0.9,6.8,6.9,8.5,9.7c1.6,2.7,3.6,3.1,4.2,1.4c0.4-1.2-4.4-9.8-6.1-12.5
								C364.5,275.2,362.7,272.3,362.1,270.3"/>
						</g>
						<g>
							<path class="st11" d="M350.6,278c0,0.1-0.4,0-1-0.2c-0.6-0.3-1.3-0.9-1.8-1.7c-0.5-0.9-0.6-1.8-0.5-2.4c0.1-0.6,0.3-1,0.3-1
								c0.2,0-0.2,1.6,0.7,3.1C349.2,277.4,350.7,277.9,350.6,278z"/>
						</g>
						<g>
							<path class="st11" d="M356,278.2c0,0.1-0.4,0-0.9-0.3c-0.5-0.3-1.2-0.9-1.6-1.7c-0.4-0.8-0.6-1.7-0.5-2.3
								c0.1-0.6,0.2-1,0.3-0.9c0.2,0-0.1,1.5,0.7,3C354.7,277.6,356,278.1,356,278.2z"/>
						</g>
					</g>
					<g>
						<path class="st4" d="M282.3,212c0,0,53.6,61.6,53.6,60.6c-0.1-1,24-19,24-19L307.3,191L282.3,212z"/>
						<g>
							<path class="st3" d="M314.8,199.9c0,0,0.1,0.1,0.4,0.4c0.3,0.3,0.6,0.7,1,1.1c0.9,1,2.1,2.4,3.6,4.2c3,3.5,7.2,8.4,11.7,13.9
								c4.6,5.4,8.7,10.4,11.6,14c1.4,1.8,2.6,3.2,3.5,4.3c0.4,0.5,0.7,0.9,0.9,1.2c0.2,0.3,0.3,0.4,0.3,0.4c0,0-0.1-0.1-0.4-0.4
								c-0.3-0.3-0.6-0.7-1-1.1c-0.9-1-2.1-2.4-3.6-4.2c-3-3.5-7.2-8.4-11.7-13.9c-4.6-5.4-8.7-10.4-11.6-14
								c-1.4-1.8-2.6-3.2-3.5-4.3c-0.4-0.5-0.7-0.9-0.9-1.2C314.9,200.1,314.8,199.9,314.8,199.9z"/>
						</g>
					</g>
				</g>
				<g>
					<path class="st3" d="M409.7,207c-0.1,0,0.6-1.5,0.6-3.9c0-1.2-0.2-2.7-0.7-4.2c-0.5-1.5-1.5-3.1-2.8-4.4
						c-1.3-1.4-2.7-2.5-3.8-3.8c-1.1-1.2-2-2.5-2.4-3.7c-0.5-1.2-0.5-2.3-0.4-3c0.1-0.7,0.3-1.1,0.3-1.1c0.1,0-0.5,1.6,0.5,3.9
						c0.5,1.1,1.3,2.4,2.4,3.5c1.1,1.2,2.5,2.4,3.9,3.8c1.3,1.4,2.4,3,2.9,4.6c0.5,1.6,0.7,3.1,0.6,4.4c-0.1,1.3-0.3,2.3-0.6,2.9
						C409.9,206.7,409.7,207,409.7,207z"/>
				</g>
				<g>
					<path class="st3" d="M337.4,159.6c0,0,0.3-0.1,0.8-0.4c0.5-0.2,1.3-0.5,2.3-0.8c1-0.3,2.3-0.6,3.8-0.8c1.5-0.1,3.3-0.1,5.2,0.5
						c1.9,0.6,3.7,1.7,5.3,3.4c1.6,1.7,2.6,4,3.2,6.5c0.5,2.5,0.8,5.2,0.5,8c-0.3,2.8-1.2,5.6-3,8c-1.7,2.4-4.1,4.2-6.4,5.7
						c-2.3,1.5-4.7,2.7-6.9,3.9c-4.5,2.3-8.5,4.5-11.9,6.3c-3.4,1.7-6.1,3.2-8,4.2c-0.9,0.5-1.7,0.8-2.2,1.1
						c-0.5,0.2-0.8,0.4-0.8,0.4c0,0,0.2-0.2,0.7-0.5c0.5-0.3,1.3-0.7,2.2-1.2c1.9-1,4.6-2.5,8-4.3c3.4-1.8,7.4-4,11.8-6.3
						c2.2-1.2,4.6-2.4,6.9-3.9c2.3-1.5,4.6-3.2,6.3-5.6c1.7-2.3,2.6-5.1,2.9-7.8c0.3-2.7,0-5.4-0.5-7.8c-0.5-2.4-1.5-4.7-3-6.3
						c-1.5-1.6-3.3-2.8-5.1-3.3c-1.8-0.6-3.5-0.6-5-0.5c-1.5,0.1-2.8,0.4-3.8,0.7c-1,0.3-1.8,0.6-2.3,0.7
						C337.7,159.5,337.4,159.6,337.4,159.6z"/>
				</g>
				<g>
					<path class="st3" d="M320.7,205.6c-0.2,0-0.6-3.5-3-7.1c-2.3-3.6-5.4-5.5-5.3-5.7c0-0.1,0.8,0.3,2,1.2c1.1,0.9,2.6,2.3,3.8,4.1
						c1.2,1.9,1.9,3.7,2.2,5.1C320.8,204.7,320.8,205.6,320.7,205.6z"/>
				</g>
				<g>
					<path class="st2" d="M399.5,198.9c0,0-0.4,0.2-1.1,0.3c-0.8,0.2-1.9,0.3-3.4,0.1c-1.5-0.1-3.3-0.6-5.1-1.7
						c-1.8-1.1-3.6-2.8-4.7-5.3c-1.1-2.4-1.5-5.5-0.6-8.5c0.5-1.5,1.4-3,2.8-3.9c0.7-0.5,1.7-0.7,2.6-0.5c0.9,0.2,1.7,0.8,2.2,1.5
						c2,3,2.4,7,1.2,10.7c-0.6,1.8-1.6,3.6-3,5c-1.4,1.4-3.2,2.4-5.2,2.9c-3.9,1-8.3,0.1-11.1-2.6c-2.8-2.7-3.9-6.7-3.3-10.2
						c0.3-1.8,1-3.4,2-4.7c0.5-0.6,1.2-1.2,2-1.5c0.8-0.3,1.7-0.3,2.5,0c1.5,0.7,2.4,2.2,2.6,3.6c0.2,1.5-0.3,2.9-0.8,4.1
						c-1.2,2.4-2.7,4.3-4.3,5.7c-1.5,1.4-3.1,2.4-4.4,3.1c-1.3,0.7-2.4,1.1-3.1,1.3c-0.4,0.1-0.7,0.2-0.8,0.2
						c-0.2,0-0.3,0.1-0.3,0.1c0,0,0.1,0,0.3-0.1c0.2-0.1,0.5-0.1,0.8-0.3c0.7-0.3,1.8-0.7,3.1-1.4c1.3-0.7,2.8-1.7,4.3-3.1
						c1.5-1.4,3-3.3,4.1-5.6c0.5-1.2,0.9-2.5,0.7-3.9c-0.2-1.3-1-2.7-2.4-3.3c-0.7-0.3-1.4-0.3-2.1,0c-0.7,0.3-1.3,0.8-1.8,1.4
						c-1,1.3-1.7,2.8-1.9,4.5c-0.5,3.3,0.5,7.2,3.2,9.7c2.7,2.6,6.9,3.5,10.6,2.5c1.9-0.5,3.6-1.5,5-2.8c1.4-1.3,2.3-3,2.9-4.8
						c0.6-1.8,0.8-3.6,0.6-5.4c-0.1-0.9-0.3-1.7-0.6-2.6c-0.3-0.8-0.6-1.6-1.1-2.3c-0.5-0.7-1.2-1.2-1.9-1.3c-0.8-0.2-1.6,0-2.2,0.5
						c-1.3,0.8-2.2,2.2-2.6,3.6c-0.9,2.9-0.5,5.9,0.6,8.2c1,2.4,2.7,4.1,4.5,5.2c1.8,1.1,3.5,1.5,5,1.7
						C398,199.4,399.5,198.8,399.5,198.9z"/>
				</g>
				<g>
					<g>
						<path class="st11" d="M403.6,138.9c-1.1-1.4-2-3-2.4-4.8c-0.1-0.6-0.2-1.2-0.1-1.7c0.2-0.6,0.7-1,1.3-1c0.6,0.1,1,0.6,1.3,1.1
							c0.9,1.5,1.9,3,2.5,4.7c0.2,0.5,0.3,0.9,0.3,1.4c0,0.5-0.3,1-0.7,1.2c-0.5,0.2-1.1,0.1-1.5-0.2c-0.4-0.3-0.7-0.8-1-1.2"/>
						<path class="st11" d="M406.2,137.8c-0.9-1.8-1.8-3.7-2.6-5.5c-0.3-0.5-0.5-1.1-0.5-1.7s0.3-1.3,0.9-1.5c0.5-0.2,1.1,0,1.5,0.4
							c0.4,0.4,0.6,0.8,0.9,1.3c0.4,0.8,0.8,1.6,1.2,2.4c0.3,0.7,0.7,1.3,0.8,2.1c0.1,0.7,0,1.5-0.4,2.1c-0.5,0.6-1.3,0.8-2,0.5"/>
						<path class="st10" d="M394.4,154.9c0,0-3.7-4.8-4-7.3c-0.3-2.5,2.8-7,9.4-8c3.5-0.5,5.6-1.5,6.8-2.3c0.8-0.6,1.2-1.6,0.8-2.6
							c-0.9-2.1-2.4-6-2.3-6.5c0.3-1.3,1.2-1.3,3.5,2c2.3,3.3,4.9,6.7,4.4,8.3c-0.5,1.5-8.6,6.3-8.6,6.3l2.2,3.6L394.4,154.9z"/>
					</g>
					<path class="st4" d="M416.3,203.9l-25.4-49.7l16.3-9.2l34.3,54.4c0,0,1.8,3.5,4.3,7.5h-28.8"/>
				</g>
			</g>
			<g>
				<path class="st3" d="M407,145.1c0,0-0.1,0.1-0.3,0.2c-0.2,0.1-0.5,0.3-0.9,0.5c-0.8,0.5-1.9,1.1-3.3,1.9
					c-2.9,1.7-6.9,4-11.8,6.7l0.1-0.3c2.5,5,5.7,10.9,8.9,17.2c4.8,9.4,9,17.9,11.9,24.2c1.5,3.1,2.6,5.7,3.4,7.4
					c0.4,0.8,0.7,1.5,0.9,2c0.2,0.5,0.3,0.7,0.3,0.7c0,0-0.1-0.2-0.4-0.7c-0.2-0.5-0.6-1.2-1-2c-0.9-1.8-2.1-4.3-3.6-7.3
					c-3-6.2-7.2-14.7-12-24.1c-3.2-6.3-6.4-12.2-8.8-17.2l-0.1-0.2l0.2-0.1c4.9-2.7,9-4.9,11.9-6.6c1.4-0.8,2.5-1.4,3.3-1.8
					c0.4-0.2,0.7-0.3,0.9-0.5C406.8,145.1,407,145.1,407,145.1z"/>
			</g>
			<g>
				<path class="st3" d="M339.7,208.3c-0.1,0.1-1.5-2.4-2.7-5.6c-1.2-3.3-1.6-6-1.5-6.1c0.2,0,0.8,2.7,2,5.9
					C338.6,205.8,339.8,208.3,339.7,208.3z"/>
			</g>
		</g>
		<g>
			<path class="st3" d="M395.6,135.1c4,1.6,8.9,0.2,11.6-3.2c2.6-3.4,2.7-8.5,0.3-12c5.7-1.4,9.3-8.1,8.1-13.9
				c-1.2-5.8-6.3-10.3-12.1-11.6c-2.2-0.5-4.6-0.5-6.7,0.2c-2.1,0.7-4.1,2.2-5,4.3"/>
			<g>
				<path class="st12" d="M394.8,122.1c0,0.1-0.7,0.2-2,0.8c-1.2,0.6-2.8,1.9-3.8,4.1c-0.5,1.1-0.8,2.4-0.7,3.8
					c0.1,1.4,0.5,2.9,1.4,4.2c0.4,0.7,1,1.3,1.6,1.8c0.6,0.5,1.3,1,2.1,1.3c1.6,0.7,3.4,0.9,5.2,0.5c1.8-0.4,3.4-1.4,4.5-2.7
					c0.6-0.6,1-1.4,1.3-2.1c0.3-0.8,0.6-1.5,0.6-2.3c0.2-1.6-0.1-3.1-0.6-4.4c-0.5-1.3-1.4-2.4-2.3-3.1c-1.9-1.6-3.9-2-5.2-2.1
					C395.5,122,394.8,122.2,394.8,122.1c0,0,0.2-0.1,0.5-0.1c0.4-0.1,0.9-0.2,1.6-0.2c1.4,0,3.5,0.4,5.5,2c1,0.8,1.9,1.9,2.5,3.2
					c0.6,1.4,0.9,3,0.7,4.6c-0.1,0.8-0.3,1.7-0.7,2.5c-0.3,0.8-0.8,1.6-1.4,2.3c-1.2,1.4-2.9,2.4-4.8,2.9c-1.9,0.4-3.9,0.2-5.5-0.5
					c-0.8-0.4-1.6-0.8-2.3-1.4c-0.7-0.6-1.2-1.2-1.7-1.9c-0.9-1.4-1.3-3-1.4-4.5c-0.1-1.5,0.3-2.9,0.8-4c1.1-2.3,2.8-3.6,4.1-4.2
					c0.6-0.3,1.1-0.5,1.5-0.5C394.6,122.1,394.8,122.1,394.8,122.1z"/>
			</g>
			<path class="st3" d="M399.1,106.4c4.1-0.2,8-3.4,9-7.4c1-4-0.8-8.6-4.3-10.8c1.7-4.8,0-10.6-4-13.7c-4-3.1-10-3.4-14.3-0.6
				c-3.2-5.7-10.2-9-16.6-8c-6.5,1-12,6.4-13.3,12.8c-5.8-2.4-13-0.9-17.4,3.7c-4.3,4.6-5.5,11.9-2.7,17.5
				c-6.3,0.5-11.6,6.8-11,13.1c0.5,6.3,6.8,11.6,13.1,11.1c-1.3,4.2,0.3,9.1,3.9,11.7c3.5,2.6,8.7,2.7,12.4,0.3
				c2.3,3.8,6.9,6,11.3,5.5c4.4-0.5,8.3-3.7,9.8-7.9"/>
			<g>
				<g>
					<g>
						<path class="st10" d="M387.1,153.3c0.2-4.9,0.5-9.3,0.5-9.3s10.9-1.4,11.4-12.5c0.5-11.1-0.6-36.7-0.6-36.7l-20-9.6
							l-21.6,17.4l3.4,51c0.5,7.4,6.8,13,14.1,12.6l0,0C381.2,165.9,386.8,160.3,387.1,153.3z"/>
					</g>
					<g>
						<g>
							<g>
								<path class="st3" d="M397.7,113.8c-0.2,0.2-1.2-0.7-2.7-0.7c-1.5-0.1-2.6,0.7-2.8,0.5c-0.1-0.1,0.1-0.4,0.6-0.8
									c0.5-0.4,1.3-0.7,2.2-0.6c0.9,0,1.7,0.4,2.1,0.8C397.7,113.4,397.8,113.8,397.7,113.8z"/>
							</g>
						</g>
					</g>
					<g>
						<g>
							<g>
								<path class="st3" d="M381.2,113.8c-0.2,0.2-1.2-0.7-2.7-0.7c-1.5-0.1-2.6,0.7-2.8,0.5c-0.1-0.1,0.1-0.4,0.6-0.8
									c0.5-0.4,1.3-0.7,2.2-0.6c0.9,0,1.7,0.4,2.1,0.8C381.1,113.4,381.3,113.8,381.2,113.8z"/>
							</g>
						</g>
					</g>
					<g>
						<g>
							<path class="st3" d="M386.8,125c0-0.1,0.9-0.2,2.4-0.4c0.4,0,0.7-0.1,0.8-0.4c0.1-0.3-0.1-0.7-0.2-1.2
								c-0.3-1-0.7-2.1-1.1-3.2c-1.5-4.5-2.6-8.2-2.4-8.2c0.2-0.1,1.5,3.5,3,8c0.4,1.1,0.7,2.2,1,3.2c0.1,0.5,0.4,1,0.2,1.6
								c-0.1,0.3-0.4,0.5-0.6,0.6c-0.2,0.1-0.5,0.1-0.6,0.1C387.8,125.2,386.8,125.1,386.8,125z"/>
						</g>
					</g>
					<g>
						<path class="st11" d="M387.5,144c0,0-7.3,0.2-14.4-4.7c0,0,3.4,8.1,14.2,7.4L387.5,144z"/>
					</g>
				</g>
			</g>
			<path class="st3" d="M372.1,85.8c-3.6,4.9-3.5,12.2,0.2,17c1.6,2.1,4.1,3.9,6.7,3.8c2.7-0.1,5.3-2.6,4.7-5.2
				c-1,3.3,1.7,7.1,5.2,7.2c3.4,0.1,6.3-3.7,5.4-7c0.3,1.2,0.6,2.4,1.2,3.4c0.7,1,1.9,1.8,3.1,1.6c1.7-0.2,2.6-2,3-3.7
				c1.1-4.9-0.7-10.3-4.3-13.8c-3.6-3.5-8.8-5.2-13.9-4.9c-5,0.3-9.9,2.6-13.6,6"/>
			<path class="st3" d="M373.5,89.7c1.3,3.2,2.3,6.5,2.2,10c0,3.4-1.2,6.9-3.6,9.4c-2.4,2.4-6.3,3.5-9.4,2.3c0.8,3,0.5,6.4-1.4,8.9
				c-1.9,2.5-5.5,3.7-8.2,2.2c-2.5-1.3-3.5-4.3-3.9-7.1c-0.8-6.7,1.6-13.8,6.3-18.6c4.7-4.8,11.7-7.4,18.4-6.8"/>
			<g>
				<g>
					<path class="st10" d="M359.8,116.2c-1.5-0.9-3.5-0.2-4.7,1.1c-1.9,2-2.2,5.3-0.8,7.6c1.4,2.3,4.5,3.6,7.1,2.9"/>
					<g>
						<path class="st11" d="M359.4,124.5c0,0.1-0.5,0.1-1.3-0.1c-0.7-0.2-1.9-0.8-2.3-2c-0.2-0.6-0.2-1.3,0.1-1.8
							c0.2-0.5,0.6-0.9,0.9-1.1c0.7-0.5,1.2-0.4,1.2-0.4c0,0.1-0.4,0.2-1,0.7c-0.5,0.4-1.1,1.4-0.7,2.4c0.3,1,1.3,1.6,1.9,1.9
							C359,124.3,359.4,124.4,359.4,124.5z"/>
					</g>
				</g>
			</g>
			<g>
				<path class="st3" d="M382.1,109.2c-0.1,0.4-1.8,0.3-3.7,0.4c-1.9,0.1-3.5,0.3-3.7-0.1c-0.2-0.4,1.4-1.4,3.7-1.5
					C380.6,107.9,382.3,108.8,382.1,109.2z"/>
			</g>
			<g>
				<path class="st13" d="M377.8,108.4"/>
			</g>
			<g>
				<path class="st3" d="M397.7,108.9c-0.2,0.2-0.5,0.1-0.9,0c-0.4-0.1-0.8-0.1-1.4-0.1c-0.6,0.1-1.2,0.2-1.7,0.2
					c-0.5,0-0.8-0.1-0.9-0.3c-0.1-0.2,0.2-0.5,0.6-0.8c0.4-0.3,1-0.6,1.9-0.7c0.9-0.1,1.8,0.3,2.1,0.8
					C397.8,108.4,397.8,108.8,397.7,108.9z"/>
			</g>
			<path class="st11" d="M384.2,127.9c0.8-0.5,1.9-0.7,2.8-0.4c0.9,0.3,1.6,1.3,1.4,2.3c-0.1,0.5-0.5,1-0.9,1.3
				c-0.7,0.5-1.5,0.7-2.3,0.6c-0.8-0.2-1.5-0.8-1.7-1.6c-0.2-0.8,0.2-1.7,0.9-2.1"/>
			<g>
				<path class="st3" d="M389.7,129.1c0,0.1-0.4,0.3-1.1,0.5c-0.7,0.2-1.8,0.2-2.8-0.3c-1-0.4-1.8-1.2-2.2-1.8
					c-0.4-0.6-0.5-1.1-0.4-1.1c0.1,0,0.3,0.4,0.7,0.9c0.4,0.5,1.1,1.1,2.1,1.5c0.9,0.4,1.9,0.4,2.6,0.4
					C389.2,129.1,389.6,129,389.7,129.1z"/>
			</g>
			<g>
				<path class="st12" d="M367.1,134.4c-0.1,0,0-0.8-0.4-2.1c-0.3-1.3-1.2-3.2-3.2-4.6c-1-0.7-2.2-1.3-3.6-1.6
					c-1.4-0.2-2.9-0.2-4.4,0.4c-0.7,0.3-1.5,0.7-2.1,1.2c-0.7,0.5-1.3,1.1-1.8,1.8c-1,1.4-1.6,3.1-1.6,5c0,1.8,0.6,3.6,1.6,5
					c0.5,0.7,1.1,1.3,1.8,1.8c0.7,0.5,1.4,0.9,2.1,1.2c1.5,0.6,3,0.6,4.4,0.4c1.4-0.2,2.6-0.8,3.6-1.6c1.9-1.5,2.8-3.4,3.2-4.6
					C367.1,135.1,367.1,134.4,367.1,134.4c0,0,0,0.2,0,0.6c0,0.4,0,0.9-0.2,1.6c-0.3,1.3-1.1,3.3-3.1,4.9c-1,0.8-2.3,1.4-3.7,1.7
					c-1.5,0.3-3.1,0.2-4.7-0.4c-0.8-0.3-1.6-0.7-2.3-1.2c-0.7-0.5-1.4-1.1-1.9-1.9c-1.1-1.5-1.7-3.3-1.7-5.3c0-1.9,0.6-3.8,1.7-5.3
					c0.5-0.7,1.2-1.4,1.9-1.9c0.7-0.5,1.5-0.9,2.3-1.2c1.6-0.6,3.2-0.6,4.7-0.4c1.5,0.3,2.7,0.9,3.7,1.7c2,1.6,2.8,3.6,3.1,4.9
					c0.2,0.7,0.2,1.2,0.2,1.6C367.2,134.2,367.1,134.4,367.1,134.4z"/>
			</g>
			<g>
				<path class="st4" d="M397.7,84.7c0,0,0.1,0,0.3,0.1c0.2,0.1,0.4,0.2,0.7,0.4c0.5,0.5,1.1,1.5,0.9,2.9c-0.2,1.4-1.6,2.7-3.5,3.1
					c-1.9,0.4-4-0.3-5.9-1.4l-2.1-1.2l2.3,0.7c0.8,0.3,1.3,1,1.5,1.8c0.2,0.8,0.1,1.7-0.3,2.4c-0.4,0.7-1.2,1.2-2,1.4
					c-0.8,0.2-1.7,0.2-2.5-0.1c-2-0.6-3.3-2.3-4.4-3.8l-1.4-2.1l1.8,1.8c1,1,1.3,2.5,1,3.8c-0.3,1.3-1.2,2.3-2.2,2.8
					c-2.1,1-4.4,0.4-5.7-0.7c-1.3-1.1-1.9-2.4-2.2-3.2c-0.1-0.4-0.2-0.8-0.2-1c0-0.2,0-0.4,0-0.4c0,0,0.1,0.5,0.4,1.3
					c0.3,0.8,0.9,2,2.2,3c1.2,1,3.4,1.5,5.3,0.6c1-0.5,1.7-1.4,2-2.5c0.3-1.1,0-2.4-0.9-3.3l0.4-0.3c1,1.4,2.3,3,4.1,3.5
					c1.5,0.4,3.2,0.1,4-1.1c0.7-1.2,0.3-3-0.9-3.4l0.2-0.4c1.8,1.1,3.8,1.8,5.5,1.4c1.7-0.3,3-1.5,3.2-2.7c0.3-1.2-0.2-2.3-0.7-2.7
					C398.1,84.8,397.7,84.7,397.7,84.7z"/>
			</g>
			<g>
				<path class="st4" d="M371,102.5c0,0,0,0.1-0.1,0.2c-0.1,0.1-0.2,0.3-0.5,0.5c-0.4,0.4-1.2,1-2.2,1.3c-1.1,0.4-2.5,0.6-4,0.1
					c-1.5-0.5-3.1-1.6-4-3.4l0.4-0.1c-0.4,2.3-2.3,4.7-5,5.3c-2.7,0.6-6-0.8-7.3-3.7c-1.1-2.6-0.4-5.6,1.4-7.3l0.3,0.4
					c-1.2,1-2.8,1.5-4.2,1.5c-1.5,0-2.8-0.4-3.9-1.1c-1.1-0.7-1.9-1.7-2.4-2.8c-0.4-1.1-0.6-2.1-0.5-3.1c0.1-1.9,1-3.3,1.6-4.1
					c0.7-0.8,1.2-1,1.2-1c0,0-0.5,0.3-1.1,1.1c-0.6,0.8-1.4,2.1-1.5,4c0,0.9,0.1,1.9,0.5,2.9c0.4,1,1.2,1.9,2.2,2.6
					c1,0.6,2.3,1,3.7,1c1.4,0,2.8-0.5,3.9-1.4l0.3,0.4c-1.6,1.6-2.3,4.4-1.3,6.7c1.1,2.6,4.2,4,6.7,3.4c2.5-0.6,4.3-2.7,4.7-4.9
					l0.1-0.7l0.3,0.6c0.8,1.7,2.3,2.8,3.7,3.3c1.4,0.5,2.8,0.4,3.9,0c1-0.3,1.8-0.8,2.2-1.2C370.8,102.7,371,102.5,371,102.5z"/>
			</g>
			<g>
				<path class="st4" d="M351.2,120.3c0,0-0.3,0.3-0.9,0.5c-0.6,0.3-1.6,0.5-2.8,0.4c-1.2-0.1-2.7-0.6-3.8-1.9
					c-1.1-1.2-1.8-3.1-1.5-5.1l0.5,0.2c-0.9,1.2-2.2,2.3-3.8,3.1c-1.2,0.5-2.4,0.8-3.6,0.8c-1.2,0-2.4-0.4-3.4-0.9
					c-2-1.1-3.1-3-3.2-4.7c-0.1-1.7,0.5-3,1-3.8c0.3-0.4,0.6-0.6,0.7-0.8c0.2-0.1,0.3-0.2,0.3-0.2c0,0-0.4,0.3-0.9,1.1
					c-0.5,0.7-1,2-0.8,3.6c0.1,1.6,1.2,3.4,3,4.3c1.8,1,4.3,1.2,6.5,0.1c1.5-0.7,2.7-1.7,3.6-2.9l0.6-0.8l-0.2,1
					c-0.3,1.8,0.3,3.6,1.3,4.7c1,1.2,2.4,1.7,3.5,1.8c1.1,0.1,2.1-0.1,2.7-0.3C350.9,120.5,351.2,120.3,351.2,120.3z"/>
			</g>
			<g>
				<path class="st4" d="M407.8,98.7c0.1,0,0.3,0.7,0.2,1.8c-0.1,1.1-0.6,2.8-1.8,4.1c-1.3,1.3-2.9,1.9-4,2
					c-1.2,0.1-1.9-0.1-1.9-0.1c0-0.1,0.7,0,1.8-0.2c1.1-0.2,2.5-0.8,3.7-2c1.2-1.2,1.7-2.7,1.8-3.8
					C407.9,99.4,407.7,98.7,407.8,98.7z"/>
			</g>
			<g>
				<path class="st4" d="M414,109.1c0,0,0.2,0.2,0.3,0.8c0.1,0.5,0.1,1.3-0.2,2.2c-0.3,0.9-1.1,1.9-2.4,2.2c-0.6,0.1-1.4,0.1-2-0.2
					c-0.7-0.3-1.3-0.8-1.6-1.5l0.5-0.2c0.1,0.3,0.1,0.6,0.1,1c0,1.7-1.2,3.1-2.5,3.6c-0.7,0.2-1.4,0.2-2,0.1
					c-0.6-0.2-1.1-0.5-1.5-0.8c-0.8-0.7-1.1-1.5-1.2-2.1c-0.1-0.6,0-0.9,0-0.9c0,0,0,0.3,0.2,0.8c0.1,0.5,0.5,1.3,1.3,1.9
					c0.7,0.6,1.9,1,3.1,0.6c1.1-0.4,2.1-1.7,2.1-3.1c0-0.3,0-0.6-0.1-0.8l0.5-0.2c0.5,1.2,2,1.7,3,1.4c1.1-0.2,1.9-1.1,2.2-1.9
					c0.3-0.8,0.4-1.5,0.3-2C414,109.4,413.9,109.1,414,109.1z"/>
			</g>
			<g>
				<path class="st3" d="M383.5,124c0.1,0,0.1,0.2,0,0.6c-0.1,0.3-0.3,0.8-0.7,1.1c-0.4,0.3-0.9,0.5-1.2,0.5c-0.3,0-0.6-0.1-0.6-0.1
					c0-0.2,0.8-0.2,1.5-0.8C383.1,124.7,383.3,124,383.5,124z"/>
			</g>
		</g>
	</g>
</g>
<g id="Plant">
	<g>
		<g>
			<path class="st12" d="M621.8,410.8c-2.5,3.6-7.3,2.4-9.6,0.2c-2.2-2.2-3.2-5.3-4.1-8.3c-2-6.9-4-14.1-2.5-21.1
				c0.4-2.1,1.2-4.2,2.7-5.7c1.5-1.6,3.7-2.5,5.8-1.9c2.4,0.6,4,3,5.1,5.3c3.2,6.7,4.9,14.1,5,21.6
				C624.2,404.3,623.8,407.9,621.8,410.8"/>
		</g>
		<g class="st14">
			<path d="M621.8,410.8c-2.5,3.6-7.3,2.4-9.6,0.2c-2.2-2.2-3.2-5.3-4.1-8.3c-2-6.9-4-14.1-2.5-21.1c0.4-2.1,1.2-4.2,2.7-5.7
				c1.5-1.6,3.7-2.5,5.8-1.9c2.4,0.6,4,3,5.1,5.3c3.2,6.7,4.9,14.1,5,21.6C624.2,404.3,623.8,407.9,621.8,410.8"/>
		</g>
		<g>
			<path class="st12" d="M612.5,428.8c-4.1-2.1-8.9-2.4-13.4-1.6c-2.4,0.4-5,1.1-6.6,3c-1.7,1.8-2,5-0.1,6.6
				c1.1,0.9,2.7,1.1,4.2,1.1c3.5,0,7.5-0.7,10.3,1.5c1.6,1.2,2.7,3.2,4.6,3.8c1.9,0.6,4-0.5,5-2.2c1-1.7,1-3.8,0.6-5.8
				C617.1,435.2,616.6,431,612.5,428.8z"/>
		</g>
		<g>
			<path class="st12" d="M628.7,415.9c-2.7-3.2-3.2-7.9-2-11.9c1.2-4,3.9-7.5,7.1-10.3c3.7-3.3,8-5.8,12.7-7.5
				c1.8-0.6,3.8-1.2,5.7-1c1.9,0.2,3.9,1.2,4.8,2.9c1.3,2.5,0.1,5.6-1.3,8.1c-2.4,4.4-5.2,8.7-8.3,12.7c-2.5,3.2-5.3,6.4-9.1,7.8
				c-3.8,1.5-7.7,1.3-9.8-1.4"/>
		</g>
		<g>
			<g>
				<path class="st3" d="M622,464.6c0,0-0.1-0.6-0.2-1.6c-0.1-1.2-0.3-2.7-0.4-4.4c-0.2-1.9-0.5-4.1-1-6.5c-0.5-2.4-1.3-5-2.4-7.7
					c-1.1-2.6-2.4-5-3.9-6.9c-1.5-1.9-3.3-3.3-4.9-4.1c-1.7-0.8-3.1-1.1-4.2-1.3c-1-0.1-1.6-0.2-1.6-0.2c0,0,0.6-0.1,1.6,0
					c1.1,0.1,2.6,0.3,4.3,1.1c1.7,0.8,3.6,2.2,5.2,4.1c1.6,2,3,4.4,4.1,7.1c1.1,2.7,1.8,5.3,2.3,7.8c0.5,2.5,0.7,4.7,0.9,6.6
					c0.1,1.9,0.2,3.4,0.2,4.4C622,464,622,464.6,622,464.6z"/>
			</g>
		</g>
		<g>
			<g>
				<path class="st3" d="M621.7,461.2c0,0,0-0.3,0-0.8c0-0.6,0-1.3,0-2.1c0-1.9,0-4.6-0.1-7.9c-0.2-6.7-0.7-15.9-1.8-26
					c-1.1-10.1-2.6-19.2-3.9-25.8c-0.3-1.6-0.6-3.1-0.9-4.4c-0.3-1.3-0.5-2.4-0.8-3.3c-0.2-0.8-0.4-1.5-0.5-2.1
					c-0.1-0.5-0.2-0.7-0.1-0.7c0,0,0.1,0.2,0.3,0.7c0.2,0.5,0.4,1.2,0.6,2.1c0.3,0.9,0.6,2,0.9,3.3c0.3,1.3,0.7,2.8,1,4.4
					c1.5,6.5,3,15.6,4.1,25.8c1.1,10.1,1.6,19.4,1.7,26.1c0,3.3,0,6-0.1,7.9c-0.1,0.9-0.1,1.6-0.1,2.1
					C621.7,460.9,621.7,461.2,621.7,461.2z"/>
			</g>
		</g>
		<g>
			<g>
				<path class="st3" d="M621.6,443.4c0,0,0-0.8,0-2.2c0.1-1.4,0.3-3.5,0.7-6.1c0.4-2.5,1-5.6,2-8.9c0.9-3.3,2.1-6.9,3.7-10.5
					c3.1-7.3,7.3-13.3,10.9-17c0.9-1,1.8-1.7,2.6-2.4c0.4-0.3,0.7-0.7,1.1-0.9c0.4-0.2,0.7-0.5,1-0.7c1.2-0.8,1.9-1.2,1.9-1.2
					c0.1,0.1-2.7,1.8-6.2,5.5c-3.5,3.7-7.6,9.7-10.6,16.9c-1.6,3.6-2.8,7.1-3.7,10.4c-1,3.3-1.6,6.3-2.1,8.8c-0.5,2.5-0.7,4.6-0.9,6
					C621.8,442.6,621.7,443.4,621.6,443.4z"/>
			</g>
		</g>
	</g>
</g>
<g id="Speech_Bubble">
	<g>
		<g>
			<g>
				<path class="st3" d="M270.4,41.6c0,0-0.2,0-0.7,0.1c-0.5,0-1.2,0.1-2,0.2c-0.9,0-2,0.2-3.3,0.5c-0.6,0.1-1.4,0.2-2.1,0.4
					c-0.7,0.2-1.5,0.4-2.3,0.7c-3.2,1.1-7.1,2.7-11,5.6c-3.9,2.9-7.7,6.9-10.7,12.2c-1.6,2.6-2.7,5.6-3.7,8.7
					c-0.8,3.2-1.5,6.6-1.5,10.2c-0.1,1.8,0.1,3.6,0.2,5.4c0.1,0.9,0.3,1.8,0.4,2.8c0.1,0.9,0.3,1.9,0.6,2.8
					c0.8,3.7,2.4,7.3,4.3,10.8c3.9,7,10.4,13,18.4,16.4c4,1.7,8.4,2.6,12.9,2.7c4.5,0.2,9.1-0.5,13.4-2.1l1.3-0.5l0.2-0.1l0.2,0.1
					c6.5,3.2,12.8,6.3,19,9.4l-0.6,0.5c-2.1-6.2-4.1-12.3-6.1-18.1l-0.1-0.2l0.2-0.2c4.7-4.8,8-10.7,9.7-16.6c1.8-6,2-12,1.2-17.6
					c-0.8-5.6-2.7-10.6-5.1-14.8c-2.5-4.2-5.5-7.7-8.6-10.3c-3.2-2.7-6.4-4.4-9.3-5.8c-3-1.2-5.7-2-7.9-2.4
					c-1.1-0.2-2.1-0.3-2.9-0.5c-0.8,0-1.6-0.1-2.2-0.1c-0.6,0-1-0.1-1.3-0.1C270.6,41.6,270.4,41.6,270.4,41.6c0,0,0.2,0,0.5,0
					c0.3,0,0.8,0,1.3,0c0.6,0,1.3,0,2.2,0.1c0.9,0.1,1.9,0.3,3,0.4c2.2,0.4,4.9,1.1,8,2.3c3,1.3,6.3,3.1,9.5,5.8
					c3.2,2.7,6.3,6.1,8.8,10.4c2.5,4.3,4.5,9.4,5.3,15c0.8,5.6,0.6,11.8-1.2,17.9c-1.8,6.1-5.1,12-9.9,16.9l0.1-0.4
					c2,5.8,4,11.8,6.1,18.1l0.3,0.9l-0.9-0.4c-6.2-3-12.5-6.2-19-9.4l0.3,0l-1.3,0.5c-4.4,1.6-9.1,2.4-13.7,2.1
					c-4.6-0.1-9.1-1.1-13.2-2.8c-8.2-3.5-14.8-9.6-18.8-16.7c-2-3.5-3.6-7.3-4.4-11c-0.3-0.9-0.4-1.9-0.6-2.8
					c-0.1-0.9-0.3-1.9-0.4-2.8c-0.1-1.9-0.3-3.7-0.1-5.5c0-3.6,0.8-7.1,1.6-10.3c1-3.2,2.2-6.2,3.8-8.9c3.1-5.3,7-9.4,11-12.3
					c4-2.9,7.9-4.5,11.2-5.5c0.8-0.2,1.6-0.4,2.3-0.6c0.7-0.2,1.4-0.3,2.1-0.4c1.3-0.2,2.4-0.4,3.3-0.4c0.9,0,1.6-0.1,2-0.1
					C270.2,41.6,270.4,41.6,270.4,41.6z"/>
			</g>
		</g>
		<g>
			<g>
				<path class="st12" d="M279.3,76.5l-2.8,0l-6.1-8.4l-0.1-5.5c0,0-4.3-0.2-3.7,7c0.6,7.2,0,5.4,0,5.4s-9.1,0.1-9.8,0.9
					c-0.5,0.6-0.7,9.6-0.7,14.5c0,2.5,1.5,4.7,3.8,5.3c0.3,0.1,0.7,0.1,1,0.1c2.3,0,13.8-2,13.8-2l4.8-0.1L279.3,76.5z"/>
			</g>
			<g>
				<polygon class="st12" points="287.2,74.9 285.8,93.8 281,93.9 280.8,75.3 				"/>
			</g>
		</g>
	</g>
</g>
</svg>
