<?xml version="1.0"?>
<svg xmlns="http://www.w3.org/2000/svg" viewBox="0 0 64 64" width="512" height="512"><g id="Management-Partner-Team-Network-Collaborate"><path d="M24.06,24.71,21,23.35V20.74A7.073,7.073,0,0,0,23.71,17H24a3,3,0,0,0,0-6V9A7,7,0,0,0,10,9v2a3,3,0,0,0,0,6h.29A7.073,7.073,0,0,0,13,20.74v2.61L9.93,24.71A10.01,10.01,0,0,0,4,33.85V39a1,1,0,0,0,1,1H18V38H6V33.85a8,8,0,0,1,4.33-7.09l.69,3.44a1,1,0,0,0,.64.74A.974.974,0,0,0,12,31a1,1,0,0,0,.62-.22l2.61-2.09.88,1.76a1,1,0,0,0,1.78,0l.88-1.76,2.61,2.09A1,1,0,0,0,22,31a.974.974,0,0,0,.34-.06,1,1,0,0,0,.64-.74l.69-3.44a7.9,7.9,0,0,1,3.07,2.78l1.69-1.08A10.019,10.019,0,0,0,24.06,24.71ZM24,13a1,1,0,0,1,0,2ZM10,15a1,1,0,0,1,0-2Zm2-6A5,5,0,0,1,22,9v.07A7.718,7.718,0,0,0,21,9a10.362,10.362,0,0,0-4.39,1.08A8.622,8.622,0,0,1,13,11a5.022,5.022,0,0,1-1-.09Zm0,6V12.93A7.718,7.718,0,0,0,13,13a10.362,10.362,0,0,0,4.39-1.08A8.622,8.622,0,0,1,21,11a5.022,5.022,0,0,1,1,.09V15a5,5,0,0,1-10,0Zm.66,13.19-.46-2.3,1.33-.59.78,1.57ZM19,23.76l-2,4-2-4V21.71a7.042,7.042,0,0,0,4,0Zm2.34,4.43-1.65-1.32.78-1.57,1.33.59Z"/><path d="M54.06,24.71,51,23.35V20.74A7.073,7.073,0,0,0,53.71,17H54a3,3,0,0,0,0-6V9A7,7,0,0,0,40,9v2a3,3,0,0,0,0,6h.29A7.073,7.073,0,0,0,43,20.74v2.61l-3.07,1.36a10.049,10.049,0,0,0-4.36,3.75l1.69,1.08a7.9,7.9,0,0,1,3.07-2.78l.69,3.44a1,1,0,0,0,.64.74A.974.974,0,0,0,42,31a1,1,0,0,0,.62-.22l2.61-2.09.88,1.76a1,1,0,0,0,1.78,0l.88-1.76,2.61,2.09A1,1,0,0,0,52,31a.974.974,0,0,0,.34-.06,1,1,0,0,0,.64-.74l.69-3.44A8,8,0,0,1,58,33.85V38H46v2H59a1,1,0,0,0,1-1V33.85A10,10,0,0,0,54.06,24.71ZM54,13a1,1,0,0,1,0,2ZM40,15a1,1,0,0,1,0-2Zm2-6A5,5,0,0,1,52,9v.07A7.718,7.718,0,0,0,51,9a10.362,10.362,0,0,0-4.39,1.08A8.622,8.622,0,0,1,43,11a5.022,5.022,0,0,1-1-.09Zm0,6V12.93A7.718,7.718,0,0,0,43,13a10.362,10.362,0,0,0,4.39-1.08A8.622,8.622,0,0,1,51,11a5.022,5.022,0,0,1,1,.09V15a5,5,0,0,1-10,0Zm.66,13.19-.46-2.3,1.33-.59.78,1.57ZM49,23.76l-2,4-2-4V21.71a7.042,7.042,0,0,0,4,0Zm2.34,4.43-1.65-1.32.78-1.57,1.33.59Z"/><path d="M47.16,43.01l-3.73-.62a11.922,11.922,0,0,0-.79-1.92l2.19-3.08a1,1,0,0,0-.1-1.29L41.9,33.27a1,1,0,0,0-1.29-.1l-3.08,2.19a11.922,11.922,0,0,0-1.92-.79l-.62-3.73A1,1,0,0,0,34,30H30a1,1,0,0,0-.99.84l-.62,3.73a11.922,11.922,0,0,0-1.92.79l-3.08-2.19a1,1,0,0,0-1.29.1L19.27,36.1a1,1,0,0,0-.1,1.29l2.19,3.08a11.922,11.922,0,0,0-.79,1.92l-3.73.62A1,1,0,0,0,16,44v4a1,1,0,0,0,.84.99l3.73.62a11.922,11.922,0,0,0,.79,1.92l-2.19,3.08a1,1,0,0,0,.1,1.29l2.83,2.83a1,1,0,0,0,1.29.1l3.08-2.19a11.922,11.922,0,0,0,1.92.79l.62,3.73A1,1,0,0,0,30,62h4a1,1,0,0,0,.99-.84l.62-3.73a11.922,11.922,0,0,0,1.92-.79l3.08,2.19a1,1,0,0,0,1.29-.1l2.83-2.83a1,1,0,0,0,.1-1.29l-2.19-3.08a11.922,11.922,0,0,0,.79-1.92l3.73-.62A1,1,0,0,0,48,48V44A1,1,0,0,0,47.16,43.01ZM46,47.15l-3.52.59a.971.971,0,0,0-.8.74,10.13,10.13,0,0,1-1.08,2.61.983.983,0,0,0,.04,1.09l2.07,2.9-1.63,1.63-2.9-2.07a.983.983,0,0,0-1.09-.04,10.13,10.13,0,0,1-2.61,1.08.971.971,0,0,0-.74.8L33.15,60h-2.3l-.59-3.52a.971.971,0,0,0-.74-.8,10.13,10.13,0,0,1-2.61-1.08.983.983,0,0,0-1.09.04l-2.9,2.07-1.63-1.63,2.07-2.9a.983.983,0,0,0,.04-1.09,10.13,10.13,0,0,1-1.08-2.61.971.971,0,0,0-.8-.74L18,47.15v-2.3l3.52-.59a.971.971,0,0,0,.8-.74,10.13,10.13,0,0,1,1.08-2.61.983.983,0,0,0-.04-1.09l-2.07-2.9,1.63-1.63,2.9,2.07a.983.983,0,0,0,1.09.04,10.13,10.13,0,0,1,2.61-1.08.971.971,0,0,0,.74-.8L30.85,32h2.3l.59,3.52a.971.971,0,0,0,.74.8,10.13,10.13,0,0,1,2.61,1.08.983.983,0,0,0,1.09-.04l2.9-2.07,1.63,1.63-2.07,2.9a.983.983,0,0,0-.04,1.09,10.13,10.13,0,0,1,1.08,2.61.971.971,0,0,0,.8.74l3.52.59Z"/><path d="M32,39a7,7,0,1,0,7,7A7.008,7.008,0,0,0,32,39Zm0,12a5,5,0,1,1,5-5A5.006,5.006,0,0,1,32,51Z"/></g></svg>
