<svg height="512" viewBox="0 0 64 64" width="512" xmlns="http://www.w3.org/2000/svg"><g id="Management-Partner-Team-Network-Collaborate"><path d="m56 14a2.006 2.006 0 0 1 -2 2h-2v-4h2a2.006 2.006 0 0 1 2 2z" fill="#ffb655"/><path d="m42 12v4h-2a2 2 0 0 1 0-4z" fill="#ffb655"/><path d="m44 24 1.57 3.14-3.57 2.86-.94-4.7z" fill="#1e81ce"/><path d="m52.94 25.3-.94 4.7-3.57-2.86 1.57-3.14z" fill="#1e81ce"/><path d="m59 33.85v5.15h-24v-5.15a9.006 9.006 0 0 1 5.34-8.23l.72-.32.94 4.7 3.57-2.86 1.43 2.86 1.43-2.86 3.57 2.86.94-4.7.72.32a9.006 9.006 0 0 1 5.34 8.23z" fill="#3d9ae2"/><path d="m53 9v1.37a4.646 4.646 0 0 0 -2-.37c-3.33 0-4.67 2-8 2a4.646 4.646 0 0 1 -2-.37v-2.63a6 6 0 0 1 6-6 6.009 6.009 0 0 1 6 6z" fill="#57565c"/><path d="m50 20v4l-3 6-3-6v-4z" fill="#ffc477"/><path d="m50 20v2.19a5.961 5.961 0 0 1 -6 0v-2.19z" fill="#ffb655"/><path d="m53 12v3a5.47 5.47 0 0 1 -.09 1 5.967 5.967 0 0 1 -2.91 4.19 5.961 5.961 0 0 1 -6 0 5.967 5.967 0 0 1 -2.91-4.19 5.47 5.47 0 0 1 -.09-1v-3.37a4.646 4.646 0 0 0 2 .37c3.33 0 4.67-2 8-2a4.646 4.646 0 0 1 2 .37z" fill="#ffc477"/><path d="m26 14a2.006 2.006 0 0 1 -2 2h-2v-4h2a2.006 2.006 0 0 1 2 2z" fill="#ffb655"/><path d="m12 12v4h-2a2 2 0 0 1 0-4z" fill="#ffb655"/><path d="m14 24 1.57 3.14-3.57 2.86-.94-4.7z" fill="#1e81ce"/><path d="m22.94 25.3-.94 4.7-3.57-2.86 1.57-3.14z" fill="#1e81ce"/><path d="m29 33.85v5.15h-24v-5.15a9.006 9.006 0 0 1 5.34-8.23l.72-.32.94 4.7 3.57-2.86 1.43 2.86 1.43-2.86 3.57 2.86.94-4.7.72.32a9.006 9.006 0 0 1 5.34 8.23z" fill="#3d9ae2"/><path d="m23 9v1.37a4.646 4.646 0 0 0 -2-.37c-3.33 0-4.67 2-8 2a4.646 4.646 0 0 1 -2-.37v-2.63a6 6 0 0 1 6-6 6.009 6.009 0 0 1 6 6z" fill="#57565c"/><path d="m20 20v4l-3 6-3-6v-4z" fill="#ffc477"/><path d="m20 20v2.19a5.961 5.961 0 0 1 -6 0v-2.19z" fill="#ffb655"/><path d="m23 12v3a5.47 5.47 0 0 1 -.09 1 5.967 5.967 0 0 1 -2.91 4.19 5.961 5.961 0 0 1 -6 0 5.967 5.967 0 0 1 -2.91-4.19 5.47 5.47 0 0 1 -.09-1v-3.37a4.646 4.646 0 0 0 2 .37c3.33 0 4.67-2 8-2a4.646 4.646 0 0 1 2 .37z" fill="#ffc477"/><path d="m42.65 48.73a11.514 11.514 0 0 1 -1.19 2.87l2.56 3.59-2.83 2.83-3.59-2.56a11.514 11.514 0 0 1 -2.87 1.19l-.73 4.35h-4l-.73-4.35a11.514 11.514 0 0 1 -2.87-1.19l-3.59 2.56-2.83-2.83 2.56-3.59a11.514 11.514 0 0 1 -1.19-2.87l-4.35-.73v-4l4.35-.73a11.514 11.514 0 0 1 1.19-2.87l-1-1.4-1.56-2.19 2.83-2.83 3.59 2.56a11.317 11.317 0 0 1 2.6-1.11 2.759 2.759 0 0 1 .27-.08l.73-4.35h4l.73 4.35a2.759 2.759 0 0 1 .27.08 11.317 11.317 0 0 1 2.6 1.11l3.59-2.56 2.83 2.83-1.56 2.19-1 1.4a11.514 11.514 0 0 1 1.19 2.87l4.35.73v4z" fill="#ff9811"/><circle cx="32" cy="46" fill="#ffd422" r="6"/><path d="m24.06 24.71-3.06-1.36v-2.61a7.073 7.073 0 0 0 2.71-3.74h.29a3 3 0 0 0 0-6v-2a7 7 0 0 0 -14 0v2a3 3 0 0 0 0 6h.29a7.073 7.073 0 0 0 2.71 3.74v2.61l-3.07 1.36a10.01 10.01 0 0 0 -5.93 9.14v5.15a1 1 0 0 0 1 1h13v-2h-12v-4.15a8 8 0 0 1 4.33-7.09l.69 3.44a1 1 0 0 0 .64.74.974.974 0 0 0 .34.06 1 1 0 0 0 .62-.22l2.61-2.09.88 1.76a1 1 0 0 0 1.78 0l.88-1.76 2.61 2.09a1 1 0 0 0 .62.22.974.974 0 0 0 .34-.06 1 1 0 0 0 .64-.74l.69-3.44a7.9 7.9 0 0 1 3.07 2.78l1.69-1.08a10.019 10.019 0 0 0 -4.37-3.75zm-.06-11.71a1 1 0 0 1 0 2zm-14 2a1 1 0 0 1 0-2zm2-6a5 5 0 0 1 10 0v.07a7.718 7.718 0 0 0 -1-.07 10.362 10.362 0 0 0 -4.39 1.08 8.622 8.622 0 0 1 -3.61.92 5.022 5.022 0 0 1 -1-.09zm0 6v-2.07a7.718 7.718 0 0 0 1 .07 10.362 10.362 0 0 0 4.39-1.08 8.622 8.622 0 0 1 3.61-.92 5.022 5.022 0 0 1 1 .09v3.91a5 5 0 0 1 -10 0zm.66 13.19-.46-2.3 1.33-.59.78 1.57zm6.34-4.43-2 4-2-4v-2.05a7.042 7.042 0 0 0 4 0zm2.34 4.43-1.65-1.32.78-1.57 1.33.59z"/><path d="m54.06 24.71-3.06-1.36v-2.61a7.073 7.073 0 0 0 2.71-3.74h.29a3 3 0 0 0 0-6v-2a7 7 0 0 0 -14 0v2a3 3 0 0 0 0 6h.29a7.073 7.073 0 0 0 2.71 3.74v2.61l-3.07 1.36a10.049 10.049 0 0 0 -4.36 3.75l1.69 1.08a7.9 7.9 0 0 1 3.07-2.78l.69 3.44a1 1 0 0 0 .64.74.974.974 0 0 0 .34.06 1 1 0 0 0 .62-.22l2.61-2.09.88 1.76a1 1 0 0 0 1.78 0l.88-1.76 2.61 2.09a1 1 0 0 0 .62.22.974.974 0 0 0 .34-.06 1 1 0 0 0 .64-.74l.69-3.44a8 8 0 0 1 4.33 7.09v4.15h-12v2h13a1 1 0 0 0 1-1v-5.15a10 10 0 0 0 -5.94-9.14zm-.06-11.71a1 1 0 0 1 0 2zm-14 2a1 1 0 0 1 0-2zm2-6a5 5 0 0 1 10 0v.07a7.718 7.718 0 0 0 -1-.07 10.362 10.362 0 0 0 -4.39 1.08 8.622 8.622 0 0 1 -3.61.92 5.022 5.022 0 0 1 -1-.09zm0 6v-2.07a7.718 7.718 0 0 0 1 .07 10.362 10.362 0 0 0 4.39-1.08 8.622 8.622 0 0 1 3.61-.92 5.022 5.022 0 0 1 1 .09v3.91a5 5 0 0 1 -10 0zm.66 13.19-.46-2.3 1.33-.59.78 1.57zm6.34-4.43-2 4-2-4v-2.05a7.042 7.042 0 0 0 4 0zm2.34 4.43-1.65-1.32.78-1.57 1.33.59z"/><path d="m47.16 43.01-3.73-.62a11.922 11.922 0 0 0 -.79-1.92l2.19-3.08a1 1 0 0 0 -.1-1.29l-2.83-2.83a1 1 0 0 0 -1.29-.1l-3.08 2.19a11.922 11.922 0 0 0 -1.92-.79l-.62-3.73a1 1 0 0 0 -.99-.84h-4a1 1 0 0 0 -.99.84l-.62 3.73a11.922 11.922 0 0 0 -1.92.79l-3.08-2.19a1 1 0 0 0 -1.29.1l-2.83 2.83a1 1 0 0 0 -.1 1.29l2.19 3.08a11.922 11.922 0 0 0 -.79 1.92l-3.73.62a1 1 0 0 0 -.84.99v4a1 1 0 0 0 .84.99l3.73.62a11.922 11.922 0 0 0 .79 1.92l-2.19 3.08a1 1 0 0 0 .1 1.29l2.83 2.83a1 1 0 0 0 1.29.1l3.08-2.19a11.922 11.922 0 0 0 1.92.79l.62 3.73a1 1 0 0 0 .99.84h4a1 1 0 0 0 .99-.84l.62-3.73a11.922 11.922 0 0 0 1.92-.79l3.08 2.19a1 1 0 0 0 1.29-.1l2.83-2.83a1 1 0 0 0 .1-1.29l-2.19-3.08a11.922 11.922 0 0 0 .79-1.92l3.73-.62a1 1 0 0 0 .84-.99v-4a1 1 0 0 0 -.84-.99zm-1.16 4.14-3.52.59a.971.971 0 0 0 -.8.74 10.13 10.13 0 0 1 -1.08 2.61.983.983 0 0 0 .04 1.09l2.07 2.9-1.63 1.63-2.9-2.07a.983.983 0 0 0 -1.09-.04 10.13 10.13 0 0 1 -2.61 1.08.971.971 0 0 0 -.74.8l-.59 3.52h-2.3l-.59-3.52a.971.971 0 0 0 -.74-.8 10.13 10.13 0 0 1 -2.61-1.08.983.983 0 0 0 -1.09.04l-2.9 2.07-1.63-1.63 2.07-2.9a.983.983 0 0 0 .04-1.09 10.13 10.13 0 0 1 -1.08-2.61.971.971 0 0 0 -.8-.74l-3.52-.59v-2.3l3.52-.59a.971.971 0 0 0 .8-.74 10.13 10.13 0 0 1 1.08-2.61.983.983 0 0 0 -.04-1.09l-2.07-2.9 1.63-1.63 2.9 2.07a.983.983 0 0 0 1.09.04 10.13 10.13 0 0 1 2.61-1.08.971.971 0 0 0 .74-.8l.59-3.52h2.3l.59 3.52a.971.971 0 0 0 .74.8 10.13 10.13 0 0 1 2.61 1.08.983.983 0 0 0 1.09-.04l2.9-2.07 1.63 1.63-2.07 2.9a.983.983 0 0 0 -.04 1.09 10.13 10.13 0 0 1 1.08 2.61.971.971 0 0 0 .8.74l3.52.59z"/><path d="m32 39a7 7 0 1 0 7 7 7.008 7.008 0 0 0 -7-7zm0 12a5 5 0 1 1 5-5 5.006 5.006 0 0 1 -5 5z"/></g></svg>