<svg id="Layer_3" enable-background="new 0 0 64 64" height="512" viewBox="0 0 64 64" width="512" xmlns="http://www.w3.org/2000/svg"><g><path d="m16 6h44v26h-44z" fill="#e7e4dd"/><circle cx="28" cy="16" fill="#78b75b" r="6"/><path d="m34 16h-6v-6c3.314 0 6 2.686 6 6z" fill="#e39854"/><path d="m22.854 19.087c-.542-.902-.854-1.958-.854-3.087 0-3.314 2.686-6 6-6v6z" fill="#f2c351"/><path d="m14 32h48v4h-48z" fill="#758190"/><path d="m14 32h48v4h-48z" fill="#758190"/><path d="m22 41h5.515c1.591 0 3.117-.632 4.243-1.757l8.207-8.207c.663-.663 1.562-1.036 2.5-1.036 1.952 0 3.535 1.583 3.535 3.536 0 .938-.372 1.837-1.036 2.5l-14.207 14.207c-1.125 1.125-1.757 2.651-1.757 4.242v7.515h-27v-13c0-4.418 3.582-8 8-8h4" fill="#e39854"/><path d="m21.874 39c.082.32.126.655.126 1 0 2.209-1.791 4-4 4s-4-1.791-4-4c0-.346.044-.681.126-1.001" fill="#efbe9a"/><circle cx="18" cy="32" fill="#fadfb2" r="8"/><path d="m44 37-5-5 .964-.964c.663-.663 1.562-1.036 2.5-1.036 1.953 0 3.536 1.583 3.536 3.536 0 .938-.372 1.837-1.036 2.5z" fill="#fadfb2"/><path d="m25.747 29.997c-2.583-.065-5.025-1.127-6.829-2.936.783-.575 1.486-1.266 2.082-2.061l.209-.33c2.225.975 3.921 2.934 4.538 5.327z" fill="#976947"/><path d="m10.582 29h2.418c3.148 0 6.111-1.482 8-4l.204-.333-.09-.039c-.957-.404-2.009-.628-3.114-.628-3.357 0-6.232 2.068-7.418 5z" fill="#c18e59"/><path d="m14 2h48v4h-48z" fill="#758190"/><path d="m14 2h48v4h-48z" fill="#758190"/><g><path d="m9 50h1.999v12h-1.999z" fill="#c16b3f"/></g><path d="m40 19h16v4h-16z" fill="#78b75b"/><g><path d="m40.999 9h1.999v10h-1.999z" fill="#96cc7f"/></g><g><path d="m44.999 11h1.999v8h-1.999z" fill="#96cc7f"/></g><g><path d="m48.999 13h1.999v6h-1.999z" fill="#96cc7f"/></g><g><path d="m52.999 15h1.999v4h-1.999z" fill="#96cc7f"/></g><g><path d="m46.999 26h9.999v2h-9.999z" fill="#669e4f"/></g><g><path d="m27.999 26h6.999v2h-6.999z" fill="#669e4f"/></g><path d="m23 54c-1.657 0-3-1.343-3-3v-3h6v3c0 1.657-1.343 3-3 3z" fill="#f5cf88"/><path d="m20 48v3c0 1.176.683 2.183 1.668 2.675 1.762-1.271 2.913-3.337 2.913-5.675z" fill="#fadfb2"/><g><path d="m61.999 6.999c.553 0 1-.447 1-1v-3.999c0-.553-.447-1-1-1h-47.999c-.553 0-1 .447-1 1v4c0 .553.447 1 1 1h1v16.526c-3.49 1.238-6 4.564-6 8.474 0 3.127 1.604 5.883 4.031 7.497-.016.166-.031.333-.031.503h-3c-4.963 0-9 4.037-9 9v13c0 .553.447 1 1 1h26.999c.553 0 1-.447 1-1v-7.515c0-1.335.521-2.591 1.465-3.535l13.95-13.95h16.585c.553 0 1-.447 1-1v-4c0-.553-.447-1-1-1h-1v-24h1zm-46.999-3.999h45.999v2h-45.999zm3 22c.53 0 1.044.064 1.541.177-1.687 1.782-4.065 2.823-6.541 2.823h-.736c1.266-1.811 3.363-3 5.736-3zm8.94 7.999h9.645l-2 2h-8.11c.226-.638.388-1.305.465-2zm17.316 2.329-.257.257-3.585-3.585.257-.257c.478-.48 1.115-.743 1.793-.743 1.397 0 2.535 1.137 2.535 2.535 0 .677-.264 1.314-.743 1.793zm-26.256 5.671c1.034 0 2.024-.184 2.949-.507-.237 1.419-1.464 2.508-2.949 2.508-1.486 0-2.713-1.088-2.95-2.507.926.322 1.916.506 2.95.506zm4.968-1.502c.992-.659 1.847-1.509 2.51-2.498h7.107l-1.536 1.536c-.944.944-2.199 1.465-3.534 1.465h-4.516c0-.169-.015-.336-.031-.503zm-1.465-13.548c1.161.675 2.11 1.672 2.725 2.871-1.376-.279-2.676-.884-3.784-1.751.378-.347.731-.72 1.059-1.12zm-10.503 6.051c0-.695.105-1.366.295-2h1.705c2.074 0 4.087-.606 5.816-1.683 1.71 1.472 3.852 2.401 6.094 2.628.053.345.088.696.088 1.055 0 3.859-3.14 7-6.999 7-3.859-.001-6.999-3.141-6.999-7zm19.049 17.535c-1.321 1.322-2.05 3.08-2.05 4.949v6.515h-17v-10.999h-1.999v11h-6v-12c0-3.859 3.14-7 7-7h3.424c.774 1.763 2.531 3 4.576 3s3.802-1.237 4.575-3h4.939c1.869 0 3.627-.729 4.949-2.05l6.535-6.535 3.586 3.585zm30.95-14.536h-14.26c.16-.467.26-.956.26-1.464 0-.183-.033-.358-.054-.535h14.054zm-1.999-3.999h-12.778c-.816-1.206-2.196-2-3.759-2-1.212 0-2.351.472-3.208 1.328l-.671.672h-11.644c-.499-4.493-4.316-8-8.94-8-.339 0-.672.023-1.001.059v-16.06h42.001z"/><path d="m28 22.999c3.859 0 6.999-3.14 6.999-7s-3.14-7-6.999-7c-3.86 0-7 3.14-7 7s3.14 7 7 7zm0-2c-1.456 0-2.756-.636-3.671-1.631l3.948-2.369h4.621c-.464 2.279-2.483 4-4.898 4zm4.898-5.999h-3.899v-3.899c1.956.398 3.5 1.942 3.899 3.899zm-5.899-3.899v4.332l-3.697 2.218c-.183-.519-.302-1.07-.302-1.651 0-2.415 1.72-4.435 3.999-4.899z"/><path d="m40 23.999h15.999c.553 0 1-.447 1-1v-4c0-.553-.447-1-1-1h-1v-3h-1.999v3h-2.001v-5h-1.999v5h-2.001v-7h-1.999v7h-2.001v-8.999h-1.999v9h-1c-.553 0-1 .447-1 1v4c0 .552.447.999 1 .999zm1-3.999h13.999v2h-13.999z"/><path d="m47 26h9.999v2h-9.999z"/><path d="m28 26h6.999v2h-6.999z"/><path d="m25.999 47h-5.999c-.553 0-1 .447-1 1v3c0 2.205 1.794 3.999 4 3.999 2.205 0 3.999-1.794 3.999-3.999v-3c0-.553-.447-1-1-1zm-1 4c0 1.102-.896 1.999-1.999 1.999h-.002c-1.102 0-1.998-.897-1.998-1.999v-2h3.999z"/></g></g></svg>