<?xml version="1.0"?>
<svg xmlns="http://www.w3.org/2000/svg" viewBox="0 0 512 512" width="512" height="512"><g id="Filled_outline" data-name="Filled outline"><path d="M456,145.52V120H400V304h56l8.243-19.234a69.161,69.161,0,0,0,3.906-42.446C460.984,210.469,456,178.167,456,145.52Z" style="fill:#8f4d2e"/><path d="M280,216h0a69.184,69.184,0,0,0-8.243,68.766L280,304h56V200l-16-32Z" style="fill:#8f4d2e"/><path d="M488,496V328a40,40,0,0,0-40-40H400V224H336v64H288a40,40,0,0,0-40,40V496" style="fill:#fec9a3"/><path d="M400,256.427V224H336v32.427a71.4,71.4,0,0,0,64,0Z" style="fill:#feb784"/><path d="M440,120v56a72,72,0,0,1-144,0V120a64,64,0,0,1,64-64h16A64,64,0,0,1,440,120Z" style="fill:#fec9a3"/><path d="M440,120v56a72.027,72.027,0,0,1-46.52,67.36A71.632,71.632,0,0,0,408,200V120a72.084,72.084,0,0,0-38.99-64H376A64,64,0,0,1,440,120Z" style="fill:#fec093"/><path d="M456,112v16H440a94.132,94.132,0,0,1-45.29-49.22L392,72l-9.5,4.22L357.56,87.31A63.264,63.264,0,0,0,320,145.1a63.258,63.258,0,0,1-14.66,40.49L280,216V112a79.961,79.961,0,0,1,80-80h16A80,80,0,0,1,456,112Z" style="fill:#95573a"/><path d="M440,128h8a24,24,0,0,1,24,24v0a24,24,0,0,1-24,24h-8a0,0,0,0,1,0,0V128A0,0,0,0,1,440,128Z" style="fill:#feb784"/><path d="M488,328V496H248V328a40,40,0,0,1,40-40l5.37,8.06a89.7,89.7,0,0,0,149.26,0L448,288a40.01,40.01,0,0,1,40,40Z" style="fill:#f59898"/><path d="M488,328V496H275.42c65.91-38.91,150.31-100.19,209.69-182.92A39.611,39.611,0,0,1,488,328Z" style="fill:#ec8c8c"/><path d="M456,112v16H440a94.115,94.115,0,0,1-45.29-49.22L392,72l-8,3.55-1.5.67a72.453,72.453,0,0,0-11.59-15.13,71.731,71.731,0,0,0-46.14-20.93A79.718,79.718,0,0,1,360,32h16q4.05,0,8,.39a79.139,79.139,0,0,1,16,3.28A80.019,80.019,0,0,1,456,112Z" style="fill:#8f4d2e"/><rect x="24" y="264" width="224" height="224" style="fill:#f35244"/><polygon points="248 280 40 488 248 488 248 280" style="fill:#ea4a3b"/><rect x="184" y="264" width="64" height="224" style="fill:#de4132"/><polygon points="120 400 72 400 72 320 96 304 120 320 120 400" style="fill:#ffb531"/><path d="M404,160a12,12,0,1,0-12-12A12.013,12.013,0,0,0,404,160Z"/><path d="M392,184H376a8,8,0,0,1-16,0H344a24,24,0,0,0,48,0Z"/><path d="M441.111,388.067c11.236,19.032,8.327,44.264-7.236,62.787A8,8,0,0,0,432,456v40h16V458.827c18.256-23.486,21.1-54.829,6.889-78.894Z"/><path d="M294.889,388.067l-13.778-8.134C266.9,404,269.744,435.341,288,458.827V496h16V456a8,8,0,0,0-1.875-5.146C286.562,432.331,283.653,407.1,294.889,388.067Z"/><path d="M472.16,286.55a77.168,77.168,0,0,0,3.8-46.006,490.122,490.122,0,0,1-10.3-61.875A31.968,31.968,0,0,0,464,124.305V104a7.943,7.943,0,0,0-.726-3.314A88.131,88.131,0,0,0,376,24H360a88.1,88.1,0,0,0-88,88V213.411a77.322,77.322,0,0,0-8.165,73.141A48.288,48.288,0,0,0,256,292.261V264a8,8,0,0,0-8-8H200V240a47.963,47.963,0,0,0-72-41.542A47.963,47.963,0,0,0,56,240v16H24a8,8,0,0,0-8,8V488a8,8,0,0,0,8,8H256V328a32.041,32.041,0,0,1,27.9-31.728l2.818,4.227a97.689,97.689,0,0,0,162.564,0l2.818-4.227A32.041,32.041,0,0,1,480,328V496h16V328A48.013,48.013,0,0,0,472.16,286.55ZM240,328V468.686l-16-16V272h16ZM208,452.686l-16,16V272h16Zm8,14.627L228.686,480H203.314ZM184,240v16H152V240a47.763,47.763,0,0,0-10.693-30.156A31.989,31.989,0,0,1,184,240Zm-80,78.948,8,5.333V392H80V324.281l8-5.333V328h16Zm24-100.08A31.862,31.862,0,0,1,136,240v16H120V240A31.862,31.862,0,0,1,128,218.868ZM72,240a31.988,31.988,0,0,1,42.692-30.156A47.768,47.768,0,0,0,104,240v16H72ZM32,272H56v16H72V272H88v27.719L67.562,313.344A8,8,0,0,0,64,320v80a8,8,0,0,0,8,8h48a8,8,0,0,0,8-8V320a8,8,0,0,0-3.562-6.656L104,299.719V272h32v16h16V272h24V480H32Zm428.352-27.939a61.264,61.264,0,0,1-3.16,36.832A48.016,48.016,0,0,0,448,280H408V245.257A79.4,79.4,0,0,0,447.6,184h.4c.706,0,1.4-.031,2.1-.076A512.931,512.931,0,0,0,460.352,244.061ZM339.54,233.307a63.726,63.726,0,0,1-32.414-37.3l4.4-5.3.058-.071a8.888,8.888,0,0,0,.715-.934,71.359,71.359,0,0,0,14.368-30.966,12,12,0,1,0,2.023-22.256,55.3,55.3,0,0,1,32.124-41.859l26.853-11.934A101.976,101.976,0,0,0,432,132.8V176a63.972,63.972,0,0,1-92.46,57.307ZM448,136a16,16,0,0,1,0,32Zm0-24v8h-6.067a86.015,86.015,0,0,1-39.792-44.188L400,70.46V44.128A72.114,72.114,0,0,1,448,112Zm-160,0a72.081,72.081,0,0,1,72-72s21.372.163,24,.455V66.8L354.311,80A71.308,71.308,0,0,0,312,145.1,55.354,55.354,0,0,1,299.2,180.47l-6.956,8.347c-.037.042-.071.085-.107.128L288,193.9Zm-1.727,108.969,9.211-11.029A79.678,79.678,0,0,0,328,245.261V280H288a47.959,47.959,0,0,0-9.195.894A61.272,61.272,0,0,1,286.273,220.969ZM368,328a81.506,81.506,0,0,1-64.837-32H336a8,8,0,0,0,8-8V252.3a79.7,79.7,0,0,0,48,0V288a8,8,0,0,0,8,8h32.837A81.506,81.506,0,0,1,368,328Z"/></g></svg>
