<svg height="512" viewBox="0 0 512 512" width="512" xmlns="http://www.w3.org/2000/svg"><g><path d="m496 64v416a16 16 0 0 1 -16 16h-448a16 16 0 0 1 -16-16v-416z" fill="#83d8f4"/><path d="m240.571 440h-200.571v-208h432v208h-200.571" fill="#e0e0e2"/><g><path d="m40 232h432v208h-432z" fill="#e0e0e2"/><circle cx="96" cy="392" fill="#ff9811" r="16"/><circle cx="200" cy="288" fill="#d80027" r="16"/><circle cx="304" cy="392" fill="#d80027" r="16"/><circle cx="408" cy="288" fill="#ff9811" r="16"/></g><path d="m496 32v32h-480v-32a16 16 0 0 1 16-16h448a16 16 0 0 1 16 16z" fill="#57565c"/><rect fill="#d80027" height="96" rx="16" width="112" x="40" y="104"/><g fill="#e0e0e2"><path d="m80 127v48l32-24z"/><path d="m176 104h296v96h-296z"/><circle cx="416" cy="143" r="16"/></g><path d="m376 104h96v96h-96z" fill="#ffda44"/><circle cx="416" cy="144" fill="#e0e0e2" r="16"/><g><path d="m480 8h-448a24.032 24.032 0 0 0 -24 24v448a24.032 24.032 0 0 0 24 24h448a24.032 24.032 0 0 0 24-24v-448a24.032 24.032 0 0 0 -24-24zm8 472a8.011 8.011 0 0 1 -8 8h-448a8.011 8.011 0 0 1 -8-8v-408h464zm0-424h-464v-24a8.011 8.011 0 0 1 8-8h448a8.011 8.011 0 0 1 8 8z"/><path d="m136 96h-80a24.032 24.032 0 0 0 -24 24v64a24.032 24.032 0 0 0 24 24h80a24.032 24.032 0 0 0 24-24v-64a24.032 24.032 0 0 0 -24-24zm8 88a8.011 8.011 0 0 1 -8 8h-80a8.011 8.011 0 0 1 -8-8v-64a8.011 8.011 0 0 1 8-8h80a8.011 8.011 0 0 1 8 8z"/><path d="m116.8 144.6-32-24a8 8 0 0 0 -12.8 6.4v48a8 8 0 0 0 12.8 6.4l32-24a8 8 0 0 0 0-12.8zm-28.8 14.4v-16l10.67 8z"/><path d="m472 96h-296a8 8 0 0 0 -8 8v96a8 8 0 0 0 8 8h296a8 8 0 0 0 8-8v-96a8 8 0 0 0 -8-8zm-288 96v-80h184v79a8.258 8.258 0 0 0 .07 1zm280 0h-80.07a8.258 8.258 0 0 0 .07-1v-79h80z"/><path d="m453.66 169.34-16-16h-.01a23.737 23.737 0 0 0 2.35-10.34 24 24 0 1 0 -24 24 23.737 23.737 0 0 0 10.34-2.35v.01l16 16a8 8 0 1 0 11.32-11.32zm-37.66-18.34a8 8 0 1 1 8-8 8.011 8.011 0 0 1 -8 8z"/><path d="m40 472h40a8 8 0 0 0 0-16h-40a8 8 0 0 0 0 16z"/><path d="m112 456h-8a8 8 0 0 0 0 16h8a8 8 0 0 0 0-16z"/><circle cx="40" cy="40" r="8"/><circle cx="65" cy="40" r="8"/><circle cx="89" cy="40" r="8"/><path d="m472 224h-432a8 8 0 0 0 -8 8v208a8 8 0 0 0 8 8h432a8 8 0 0 0 8-8v-208a8 8 0 0 0 -8-8zm-8 208h-416v-192h416z"/><path d="m408 264a24 24 0 0 0 -21.655 34.341l-72 72a23.947 23.947 0 0 0 -19.993-.311l-71.691-71.691a8.011 8.011 0 0 0 -.718-.63 24 24 0 1 0 -43.594.628l-72 72a24.008 24.008 0 1 0 11.314 11.314l72-72a23.941 23.941 0 0 0 21.367-.349c.1.118.2.238.317.351l71.335 71.347a24 24 0 1 0 42.973.663l72-72a24 24 0 1 0 10.345-45.663zm-312 136a8 8 0 1 1 8-8 8.009 8.009 0 0 1 -8 8zm104-104a8 8 0 1 1 8-8 8.009 8.009 0 0 1 -8 8zm104 104a8 8 0 1 1 8-8 8.009 8.009 0 0 1 -8 8zm104-104a8 8 0 1 1 8-8 8.009 8.009 0 0 1 -8 8z"/></g></g></svg>