<?xml version="1.0" encoding="utf-8"?>
<!-- Generator: Adobe Illustrator 24.2.0, SVG Export Plug-In . SVG Version: 6.00 Build 0)  -->
<svg version="1.1" xmlns="http://www.w3.org/2000/svg" xmlns:xlink="http://www.w3.org/1999/xlink" x="0px" y="0px"
	 viewBox="0 0 750 500" style="enable-background:new 0 0 750 500;" xml:space="preserve">
<style type="text/css">
	.st0{fill:#263238;}
	.st1{fill:#455A64;}
	.st2{fill:#FFBE9D;}
	.st3{fill:#EB996E;}
	.st4{fill:#FF725E;}
	.st5{opacity:0.3;}
	.st6{fill:#E8505B;}
	.st7{opacity:0.2;}
	.st8{fill:#FAFAFA;}
	.st9{opacity:0.4;}
	.st10{fill:#FFFFFF;}
</style>
<g id="Device">
	<g>
		<g>
			<path class="st0" d="M561.5,401.1H188.6c-8,0-14.6-6.5-14.6-14.6V149.8c0-8,6.5-14.6,14.6-14.6h372.9c8,0,14.6,6.5,14.6,14.6
				v236.7C576.1,394.6,569.5,401.1,561.5,401.1z"/>
		</g>
	</g>
	<g>
		<g>
			<path class="st0" d="M575,404.7H175c-9.8,0-17.8-8-17.8-17.8v-5.5h435.6v5.5C592.8,396.7,584.8,404.7,575,404.7z"/>
		</g>
	</g>
	<g>
		<defs>
			<rect id="SVGID_1_" x="184.8" y="145.8" width="379.3" height="224.5"/>
		</defs>
		<clipPath id="SVGID_2_">
			<use xlink:href="#SVGID_1_"  style="overflow:visible;"/>
		</clipPath>
		<g transform="matrix(1 0 0 1 0 0)" style="clip-path:url(#SVGID_2_);">
			
				<image style="overflow:visible;" width="1061" height="675" xlink:href="Screen for 3rd scroll.png"  transform="matrix(0.3368 0 0 0.3368 193.0155 157.1819)">
			</image>
		</g>
	</g>
	<g>
		<g>
			<polygon class="st1" points="335.4,381.4 340.8,390 416.9,390 421.9,381.4 			"/>
		</g>
	</g>
	<g>
		<g>
			<path class="st1" d="M572.6,381.4c0,0.1-89.2,0.3-199.3,0.3c-110.1,0-199.3-0.1-199.3-0.3c0-0.1,89.2-0.3,199.3-0.3
				C483.4,381.2,572.6,381.3,572.6,381.4z"/>
		</g>
	</g>
	<g id="freepik--Character--inject-218">
		<path class="st2" d="M458.6,204.7l4.4,5.7c0,0,2.1,3.3,0.5,4c-1.5,0.6-2.4-1.2-2.4-1.2s-0.9-4.2-2.8-3.2c-0.3,0.2,0.2,3.1,0.4,4.6
			c0.1,0.6,0.4,1.1,0.8,1.4l4.8,3.7c0.9,0.7,2,1.1,3.1,1.3l1.7,0.2l1.4,2.8l7.8-3.2l-6.2-8.1l-3.3-5.1c-0.5-0.4-1.2-0.6-1.8-0.4
			l-0.8,0.2l-0.6-0.6c-0.3-0.3-0.8-0.5-1.3-0.3l-0.5,0.1l-1.4-1.3c-0.4-0.4-3.4-3.2-4-3c-0.7,0.6-0.7,1.5-0.2,2.2
			C458.5,204.6,458.6,204.6,458.6,204.7z"/>
		<path class="st3" d="M467.5,210.1c-0.1-0.2-0.3-0.4-0.5-0.6c-0.4-0.5-1-0.8-1.6-0.9c-0.5-0.4-0.9-0.9-1.3-1.4
			c-0.2-0.2-0.3-0.4-0.4-0.7c0.2,0.2,0.3,0.4,0.5,0.6c0.4,0.5,0.8,0.9,1.3,1.4c0.2,0.1,0.3,0.1,0.5,0.2c0.4,0.2,0.8,0.4,1.1,0.8
			c0.1,0.2,0.2,0.3,0.3,0.5C467.5,210,467.5,210.1,467.5,210.1z"/>
		<path class="st3" d="M468.4,209c-0.1-0.1-0.2-0.2-0.3-0.3c-0.3-0.2-0.6-0.3-0.9-0.2h0l0,0l-0.1-0.1c-0.4-0.4-0.7-0.8-1-1.2
			c0.4,0.3,0.8,0.7,1.1,1.1l0.1,0.1h-0.1c0.4-0.1,0.8,0,1,0.2C468.4,208.8,468.4,209,468.4,209z"/>
		<polygon class="st4" points="459.4,454.6 456.7,479.9 470.3,481.7 473.2,456.3 		"/>
		<path class="st0" d="M463.5,479.8c0.1,0,0.8-5.5,1.4-12.4s1.1-12.4,1-12.4s-0.7,5.5-1.4,12.4S463.4,479.8,463.5,479.8z"/>
		<polygon class="st0" points="456.9,478.2 470.5,479.9 470.3,481.7 456.7,479.9 		"/>
		<path class="st0" d="M471.2,473.6c0,0-0.1-0.2-0.3-0.6c-0.3-0.5-0.7-1-1.1-1.4c-0.6-0.7-1.3-1.2-2.1-1.7c-2.7-1.7-6.3-1.4-8.7,0.7
			c-0.4,0.4-0.8,0.9-1.2,1.4c-0.2,0.4-0.3,0.6-0.3,0.6c0.5-0.6,1-1.2,1.6-1.8c1.5-1.2,3.4-1.8,5.3-1.6c1.9,0.3,3.7,1.2,5,2.6
			C470.7,472.8,471.2,473.6,471.2,473.6z"/>
		<g class="st5">
			<polygon points="472.3,463.5 472,466.3 458.4,464.5 458.6,462.4 			"/>
		</g>
		<polygon class="st4" points="439.8,456.2 440.9,481.7 454.6,481.4 453.6,455.9 		"/>
		<path class="st0" d="M447.6,480.6c0.1,0-0.1-5.6-0.5-12.5c-0.4-6.9-0.8-12.4-0.9-12.4s0.1,5.6,0.5,12.5
			C447.1,475,447.5,480.6,447.6,480.6z"/>
		<polygon class="st0" points="440.8,480 454.6,479.6 454.6,481.4 440.9,481.7 		"/>
		<path class="st0" d="M454.3,473.3c-0.1-0.2-0.2-0.4-0.4-0.5c-0.4-0.5-0.8-0.9-1.3-1.3c-0.7-0.6-1.5-1-2.3-1.4
			c-3-1.3-6.4-0.5-8.5,2c-0.4,0.5-0.7,1-0.9,1.5c-0.1,0.2-0.2,0.4-0.2,0.6c0.4-0.7,0.8-1.4,1.4-2c1.3-1.4,3.1-2.3,5-2.4
			c1.9,0,3.8,0.6,5.3,1.8C453.7,472.6,454.3,473.3,454.3,473.3z"/>
		<g class="st5">
			<polygon points="453.9,463.2 454,466 440.2,466.2 440.1,464.1 			"/>
		</g>
		<path class="st0" d="M455.2,400.2l-0.5-69.7h-27.1c0,0-2.1,17.3-1.1,24.3c1,7,8.2,45.5,8.2,45.5s2.3,51.2,3.5,64.3l16.9-1.5
			L455.2,400.2z"/>
		<path class="st0" d="M471.8,315.8c5.5,5.1,9.1,11.9,10.3,19.3c1.9,12.1-3.8,60.7-3.8,60.7l-4.8,67.3h-16.7l0.5-64.8l-2.9-48.3
			l-1.9-15.3L471.8,315.8z"/>
		<path class="st1" d="M457,394.9c0-0.1-0.1-0.3-0.1-0.4c0-0.3-0.1-0.7-0.1-1.2c-0.1-1.1-0.2-2.7-0.3-4.4c-0.2-3.7-0.5-8.9-0.8-14.6
			c-0.3-5.7-0.4-10.9-0.5-14.7c0-1.9,0-3.4,0-4.4v-1.2c0-0.1,0-0.3,0-0.4c0,0.1,0.1,0.3,0.1,0.4c0,0.3,0,0.7,0.1,1.2
			c0,1.1,0.1,2.7,0.2,4.4c0.2,3.8,0.4,9,0.6,14.6s0.5,10.8,0.7,14.6c0.1,1.8,0.1,3.3,0.2,4.4c0,0.5,0,0.9,0,1.2
			C457,394.6,457,394.7,457,394.9z"/>
		<path class="st1" d="M477.4,398.8c-0.8,0-1.6-0.1-2.4-0.2c-3.9-0.3-7.9,0.1-11.7,1.1c-0.8,0.3-1.6,0.5-2.4,0.6
			c0.7-0.4,1.5-0.7,2.3-0.9c3.8-1.2,7.8-1.6,11.8-1.1C475.8,398.4,476.6,398.6,477.4,398.8z"/>
		<path class="st1" d="M450.6,399.4c0,0.1-0.8-0.2-2.1-0.4c-1.7-0.3-3.4-0.3-5.1,0c-1.7,0.3-3.3,0.8-4.8,1.6c-1.2,0.6-1.8,1.1-1.9,1
			c0.5-0.5,1.1-1,1.7-1.3c1.5-0.9,3.2-1.5,4.9-1.8c1.7-0.3,3.5-0.3,5.2,0.1C449.3,398.9,450,399.1,450.6,399.4z"/>
		<path class="st1" d="M450.8,400.3c-1.6,0.9-3.2,1.5-5,1.8c-1.7,0.5-3.5,0.7-5.3,0.7c0-0.1,2.3-0.4,5.2-1.1
			C448.5,401,450.7,400.2,450.8,400.3z"/>
		<path class="st1" d="M456.1,352.8c-0.2,0.3-0.4,0.5-0.6,0.7c-0.2,0.2-0.5,0.5-0.8,0.8s-0.7,0.6-1.1,0.9c-1,0.8-2.1,1.5-3.2,2.1
			c-1.4,0.8-2.9,1.3-4.5,1.7l0,0l-0.8,0.2c-3,0.6-6.1,0.6-9.1,0c-0.9-0.2-1.8-0.5-2.7-0.8c-0.3-0.1-0.6-0.3-0.9-0.4
			c0-0.1,1.4,0.5,3.6,0.9c3,0.6,6,0.5,8.9-0.1l0.8-0.2l0,0c1.5-0.3,3-0.8,4.3-1.6c1.1-0.6,2.2-1.3,3.2-2
			C455.1,353.6,456,352.7,456.1,352.8z"/>
		<path class="st1" d="M461.8,335.6c0,0,0.1,0.3,0.2,0.8c0.1,0.5,0.2,1.2,0.4,2.1c0.3,1.8,0.8,4.4,1.4,7.4l-0.1-0.2l7.3,2.7
			l-0.3,0.1l3.7-4.8l0.9-1.1l0,0.2c-0.4-3.6-0.8-7-1.1-9.9l0.3,0.2c-1.6,0.8-3.3,1.3-5,1.6c-1.5,0.3-2.9,0.5-4,0.6
			c-1.1,0.1-2,0.2-2.6,0.3C462.4,335.6,462.1,335.6,461.8,335.6c0.3-0.1,0.6-0.2,0.9-0.2l2.6-0.4c1.1-0.2,2.4-0.4,4-0.7
			c1.7-0.3,3.3-0.9,4.9-1.6l0.3-0.2v0.3c0.4,3,0.8,6.3,1.2,9.9v0.1l-0.1,0.1l-0.9,1.1l-3.7,4.7l-0.1,0.1l-0.2-0.1
			c-2.7-1-5.1-2-7.2-2.8h-0.1v-0.1c-0.5-3.1-0.9-5.7-1.2-7.6c-0.1-0.9-0.2-1.5-0.3-2.1C461.8,336,461.8,335.8,461.8,335.6z"/>
		<path class="st1" d="M446.9,338c0,0.2,0,0.5,0,0.7c0,0.5,0,1.2-0.1,2.1c-0.1,1.9-0.2,4.5-0.4,7.7v0.1l-0.1,0.1l-6.9,3.6l-0.2,0.1
			l-0.1-0.1l-4.2-4.3l-1-1l-0.1-0.1v-0.1c0-3.6,0.1-7.1,0.1-10v-0.3l0.3,0.1c1.6,0.6,3.3,1,5,1.1c1.5,0.2,2.9,0.2,4,0.3l2.6,0.1
			C446.3,338,446.5,338,446.9,338c-0.3,0.1-0.6,0.1-0.9,0.1c-0.6,0-1.5,0-2.6,0s-2.5-0.1-4-0.2c-1.8-0.1-3.5-0.5-5.2-1.1l0.3-0.2
			c0,3,0,6.4,0,10l-0.1-0.2l1,1l4.2,4.3l-0.3,0l6.9-3.5l-0.1,0.2c0.2-3.1,0.4-5.7,0.6-7.5c0.1-0.9,0.1-1.6,0.2-2.1
			C446.8,338.5,446.8,338.3,446.9,338z"/>
		<path class="st1" d="M454.8,349.9c-0.3-0.6-0.4-1.3-0.5-2c-0.3-1.6-0.5-3.2-0.6-4.8c-0.1-1.6-0.1-3.3,0-4.9c0-0.7,0.1-1.4,0.3-2
			c0.1,0-0.1,3.1,0.1,6.9C454.3,346.8,454.9,349.8,454.8,349.9z"/>
		<path class="st1" d="M477.4,354.1c-0.2,0.1-0.4,0.3-0.7,0.3c-0.6,0.3-1.3,0.5-1.9,0.6c-2.2,0.6-4.4,0.9-6.6,0.9
			c-2.2,0-4.5-0.3-6.6-0.9c-0.7-0.2-1.3-0.4-1.9-0.7c-0.2-0.1-0.5-0.2-0.7-0.3c0-0.1,1,0.3,2.7,0.7c4.3,1,8.8,1,13.1,0
			C476.4,354.3,477.4,354,477.4,354.1z"/>
		<path class="st4" d="M435.2,243.7c0,0-12.2,6.7-15.8,8.2l4.9,23.3l7.7,27.9l-5.1,29.5c0,0,18.1,3.2,26.9,2c12.1-1.6,27.6-6,27.6-6
			l-12-35.9l3.1-24.8l-5.2-20.9l-12.6-1.5L435.2,243.7z"/>
		<g class="st5">
			<path d="M429.5,267c0.8,1.6,2.7,2.4,4.5,2.9s3.7,0.9,5,2c2.5,2.1,2.4,6.2,4.7,8.5c1.5,1.5,3.7,2.1,5.8,1.4
				c1.3-0.4,2.4-1.3,3.7-1.4c0.9-0.1,1.8,0.2,2.7,0.1c2.6-0.2,4.1-2.9,5.1-5.3s2.2-5,1.9-7.7c-0.4-4-3.7-7.2-4.2-11.2
				c-0.2-1.5,0-3-0.1-4.4c-0.1-1.4-0.8-3-2.2-3.7"/>
		</g>
		<path class="st4" d="M478.1,240.8l-9.4-18.9l7.6-4.9c0,0,9.5,9.8,11.3,11.7c0,0,10.9,10.1,8.1,14.9c-1.7,2.7-3.8,5.2-6.3,7.3
			L478.1,240.8z"/>
		<path class="st4" d="M419.4,251.9c-0.2,0.5-25.4,35.3-26.7,39.1c-0.1,0.2-0.1,0.4-0.2,0.6c-1.4,4.9-0.2,10.1,3.2,13.9l20.8,23.2
			l9.1-10.5l-14.5-25.5l13.8-15.2L419.4,251.9z"/>
		<path class="st2" d="M435.2,319.7c-0.9,0.1-2.4,1.2-3.1,1.8c-0.2,0.2-0.5,0.3-0.8,0.3l0,0c-0.5,0-0.9-0.4-1-0.8l-0.9-3
			c-0.9,0.1-1.7,0.6-2.2,1.4l-1,1.7l-1.8-1.7l-8.1,9.2c0,0,3.2,3.4,5.2,3.5c2,0.1,11.5-7.7,11.5-7.7l2.5-2.2
			C435.7,322.1,437.7,319.5,435.2,319.7z"/>
		<path class="st4" d="M461.4,246.3l7.2,0.3l10.2-7.8l14.4,8c0,0-6.5,6.9-12.6,14.1c-4.9,5.8-8.5,9.3-8.5,9.3L461.4,246.3z"/>
		<path class="st0" d="M468.2,307.7c-0.3,0.4-0.7,0.8-1,1.1c-0.7,0.7-1.7,1.6-3,2.8c-6.8,5.9-14.6,10.5-23,13.7
			c-1.6,0.6-2.9,1.1-3.8,1.3c-0.5,0.2-1,0.3-1.4,0.4c0.4-0.2,0.9-0.4,1.4-0.5c0.9-0.3,2.2-0.8,3.8-1.5c4.1-1.7,8.1-3.7,12-5.9
			c3.8-2.3,7.5-4.9,10.9-7.7c1.3-1.1,2.4-2,3.1-2.7C467.4,308.3,467.7,308,468.2,307.7z"/>
		<path class="st0" d="M443.1,303.6c0.1,0.1-2.4,4.2-5.7,9.2s-6,9-6.1,9c-0.1-0.1,2.4-4.2,5.7-9.2S443,303.5,443.1,303.6z"/>
		<path class="st0" d="M471.3,268.2c-0.1,0,0-1-0.1-2.7s-0.2-3.9-0.4-6.4c-0.2-2.5-0.5-4.8-0.8-6.4c-0.3-1.6-0.6-2.6-0.6-2.6
			c0.4,0.8,0.7,1.6,0.9,2.5c0.5,2.1,0.8,4.3,1,6.4c0.2,2.5,0.3,4.8,0.3,6.5C471.5,266.4,471.5,267.3,471.3,268.2z"/>
		<path class="st0" d="M488.6,239.5c-0.6-0.2-1.1-0.4-1.7-0.7c-1.3-0.5-2.7-0.8-4.1-0.9c-1.4-0.1-2.8,0.3-4.1,0.9
			c-0.9,0.6-1.4,1.1-1.4,1c0.3-0.5,0.7-1,1.3-1.3c1.3-0.8,2.7-1.2,4.3-1.1c1.5,0,2.9,0.4,4.3,1.1
			C487.6,238.8,488.2,239.1,488.6,239.5z"/>
		<path class="st0" d="M484,235.5c0,0.2-2-0.1-4,1.2c-2,1.3-2.6,3.2-2.8,3.1c0-0.4,0.2-0.8,0.4-1.2c0.5-0.9,1.2-1.7,2.1-2.3
			c0.9-0.6,1.9-0.9,2.9-1C483.2,235.3,483.6,235.4,484,235.5z"/>
		<g class="st5">
			<path d="M443.9,299.3c-0.1-0.8-0.7-1.7-1.5-1.8c-0.8-0.1-1.5,1-1.9,1.9l-8.8,20.9l-0.3,1.4c3.5-5.6,7.1-11,10.6-16.7
				C443.1,303.3,444.2,301.4,443.9,299.3z"/>
		</g>
		<g class="st5">
			<path d="M477.3,239.6c1.1-1.6,2-3.4,3.9-3.8c1.9-0.4,3.9,0,5.6,1c0.4,0.2,0.8,0.6,0.6,1c-0.1,0.3-0.4,0.5-0.7,0.5
				c-1.7,0.4-3.4-0.1-5.1-0.3c-1.6-0.2-3.2,0.5-4.2,1.8"/>
		</g>
		<path class="st0" d="M423.4,273.7c-0.4-0.8-0.8-1.6-1-2.4c-1.5-4-2.5-8.1-3-12.4c-0.1-0.9-0.2-1.8-0.2-2.7
			c0.2,0.8,0.4,1.7,0.5,2.6c0.3,1.6,0.7,3.8,1.2,6.2s1.2,4.6,1.7,6.1C423,272,423.2,272.8,423.4,273.7z"/>
		<path class="st2" d="M436.6,250.7l17.9,0.3l-1.7-16.2c0,0,1.3,0.7,1.6-6c0.3-6.6,0.9-17.9,0.9-17.9l0,0
			c-7.6-3.5-16.5-2.6-23.2,2.3l-1,0.7L436.6,250.7z"/>
		<path class="st2" d="M432.9,222.2c-0.1-0.1-4.5-1.5-4.5,3.1c0,4.5,4.6,3.6,4.6,3.4C433,228.6,432.9,222.2,432.9,222.2z"/>
		<path class="st2" d="M454.2,221.8c0.1,0,4.2-1,3.9,3.5c-0.3,4.6-4.8,3.3-4.8,3.2S454.2,221.8,454.2,221.8z"/>
		<path class="st0" d="M443.6,203.1c0,0-6.2-0.2-8.4,0.9c-3.7,1.9-6.5,7.1-6.6,13.6s2.9,15.2,7.6,19.5c4.7,4.3,8.5,5.1,8.5,5.1
			s10-5.5,11.2-13.5c1.1-8,1.9-15.7-1.2-19.6C451.5,205.2,445.9,203.1,443.6,203.1z"/>
		<path class="st0" d="M429.5,221.7c-0.4-4.1-0.7-8.3,0.6-12.2c1.3-3.9,4.6-7.4,8.8-7.6c1.3,0.1,2.6,0.1,3.9,0
			c1.1-0.3,2.2-0.7,3.2-1.2c1.8-0.8,3.8-0.9,5.7-0.4c1.9,0.6,3.3,2.3,3.4,4.3c-0.1,0.8-0.1,1.6,0.1,2.4c0.4,0.7,0.9,1.3,1.6,1.9
			c0.8,1.1,1.1,2.4,0.9,3.7c-0.2,1.3-0.5,2.5-1,3.7l-3.4,9"/>
		<path class="st0" d="M439.8,224c4-2,8.9-0.3,10.9,3.7c0.4,0.9,0.7,1.8,0.8,2.7c0.3,2.7,0.3,3.1,2,5.2c1.1,1.3,2.1,1.2,3.4,2.3
			c1.6,1.5,2.1,3.9,1.1,5.9c3.2-0.2,6.3-0.4,7.4,2.7c-4.8-1-9.7,3.5-14.5,2.5c-1.6-0.2-3-0.7-4.4-1.6c-1.4-1.1-2.2-2.8-2.9-4.4
			l-3.9-8.8c-0.9-2-1.8-4.1-1.8-6.2s1.3-4.5,3.4-5"/>
		<path class="st4" d="M437.9,226.9c-0.9-2.8,0-5.8,2.4-7.5c2.5-1.6,5.6-1.5,8,0.3c1.8,1.3,2.8,3.4,2.7,5.6c-0.2,2.1-1.9,3.8-4,4"/>
		<path class="st0" d="M448.5,222.5c-2.8-2.2-6.8-2-9.4,0.5c-2.3,2.3-2.5,7.1-1.8,10.3c0.8,3.4,2.9,6.8,2.2,10.2
			c-0.4,2.1-1.9,4.2-1,6.2c0.7,1.6,2.6,2.3,3.6,3.7c1.5,2.1,0.8,4.9-0.2,7.3c-1,2.3-2.3,4.9-1.6,7.3c0.5,1.9,2.1,3.3,3.4,4.8
			c1.3,1.5,2.3,3.6,1.4,5.4c2.2,1.7,5.4,1.2,7.1-1c0.9-1.2,1.2-2.6,0.9-4c1,1,1.6,2.4,1.7,3.9c4.5-0.4,7.8-4.3,7.4-8.8
			c-0.1-1.3-0.5-2.6-1.2-3.7c-1.1-1.7-2.9-3.1-3.2-5.1c-0.4-2.4,1.3-4.7,1.1-7.1c-0.2-2.2-1.9-3.9-3.7-5.2c-1.7-1.3-3.7-2.5-4.8-4.3
			c-1.8-3-1-6.8-0.3-10.3C450.6,229.1,451,225,448.5,222.5"/>
		<path class="st0" d="M438,224.6c-2.4,1.7-2.7,5.2-2.3,8.1c0.4,2.9,0.8,6.2-1,8.6c-1.2,1.6-3.3,2.5-4,4.4c-0.8,2.3,1.1,4.6,1.4,7.1
			c0,1.8-0.5,3.5-1.4,5c-0.9,1.5-1.7,3.1-2.2,4.7c-0.5,1.7,0,3.6,1.2,4.8c0.9,0.6,2,1,3.1,1.1c3.9,0.6,7.9,0.6,11.8,0
			c1.2-4.8,2.3-9.6,2.3-14.6c0-9.8-4.6-19.1-4.8-28.9"/>
		<path class="st1" d="M444.9,274.9c-0.1-0.1-0.3-0.3-0.4-0.4l-1.1-1.3c-1.4-1.6-2.7-3.3-3.8-5c-0.8-1.2-1.5-2.5-1.9-3.9
			c-0.5-1.6-0.5-3.4,0.1-5c0.7-1.7,1.5-3.4,2.5-4.9c0.9-1.6,1.8-3.5,1.5-5.5c-0.2-2-1.5-3.6-2.1-5.5c-0.2-0.5-0.2-1-0.3-1.5
			c0-0.5,0.1-1,0.2-1.4c0.4-0.9,0.9-1.6,1.5-2.3c0.6-0.6,1.1-1.3,1.6-2c0.4-0.7,0.6-1.4,0.6-2.2c0-1.4-0.3-2.8-0.8-4.2
			c-0.4-1.1-0.7-2.3-0.8-3.5c0-0.9,0.1-1.8,0.5-2.7c0.3-0.5,0.6-1,1.1-1.3c0.2-0.1,0.3-0.2,0.5-0.3c-0.6,0.4-1.2,1-1.5,1.7
			c-0.4,0.8-0.5,1.7-0.5,2.6c0.1,1.2,0.4,2.3,0.8,3.4c0.5,1.4,0.8,2.8,0.9,4.3c0,0.8-0.2,1.7-0.7,2.4c-0.5,0.7-1,1.4-1.6,2
			c-0.6,0.6-1.1,1.4-1.4,2.2c-0.1,0.4-0.2,0.9-0.2,1.3c0,0.4,0.1,0.9,0.2,1.3c0.5,1.8,1.9,3.4,2.1,5.5c0.1,1,0,2.1-0.4,3
			c-0.3,0.9-0.8,1.8-1.2,2.7c-1,1.5-1.8,3.2-2.5,4.9c-0.6,1.5-0.6,3.2-0.1,4.8c0.4,1.4,1,2.7,1.8,3.9c1.4,2.2,2.8,3.9,3.7,5.1
			c0.5,0.6,0.8,1.1,1,1.4C444.7,274.6,444.8,274.7,444.9,274.9z"/>
		<path class="st1" d="M435.3,240.8c0.4-1.1,0.8-2.2,0.9-3.3c0.2-1.2,0.2-2.5,0.2-3.7c0-1.4-0.1-3-0.1-4.6c0-1.6,0.4-3.1,1.1-4.5
			c0.6-1.1,1.5-2.1,2.7-2.7c0.8-0.4,1.7-0.7,2.5-0.6c0.2,0,0.5,0.1,0.7,0.1c0.1,0,0.2,0,0.2,0.1c-0.3,0-0.6,0-0.9,0
			c-0.8,0-1.6,0.3-2.4,0.7c-1,0.6-1.9,1.6-2.5,2.7c-0.7,1.4-1,2.9-1.1,4.4c-0.1,1.6,0,3.2,0,4.6c0,1.3,0,2.5-0.2,3.8
			c-0.1,0.9-0.4,1.7-0.8,2.5C435.7,240.4,435.5,240.6,435.3,240.8z"/>
		<path class="st1" d="M461.3,272.5c0-0.2,0-0.4,0.1-0.6c0-0.5,0-1.1,0-1.6c-0.2-2-0.7-3.9-1.4-5.8c-0.5-1.1-1.3-2.3-1.9-3.7
			c-0.3-0.7-0.6-1.5-0.7-2.3c-0.1-0.8-0.1-1.7,0-2.5c0.1-0.9,0.3-1.7,0.4-2.5c0.1-0.9,0.1-1.7-0.1-2.6c-0.3-1.8-1.2-3.5-2.6-4.8
			c-1.3-1.3-3.2-1.9-4.6-3.2c-1.3-1.3-2.1-2.9-2.4-4.7c-0.3-1.6-0.3-3.2-0.2-4.8c0.1-1.5,0.3-2.9,0.4-4.1c0.1-1.1,0.1-2.3,0-3.4
			c-0.1-0.8-0.4-1.6-0.9-2.3c-0.4-0.6-1.1-0.9-1.8-1.1c0.2,0,0.4,0,0.6,0.1c0.5,0.2,1,0.5,1.4,0.9c0.6,0.7,0.9,1.5,1.1,2.4
			c0.2,1.1,0.2,2.3,0.1,3.4c-0.1,1.3-0.2,2.7-0.3,4.1c-0.1,1.6-0.1,3.1,0.2,4.7c0.3,1.7,1.1,3.3,2.3,4.5c1.3,1.2,3.2,1.8,4.6,3.2
			c1.4,1.3,2.3,3.1,2.7,5c0.2,0.9,0.2,1.8,0.1,2.7c-0.1,0.9-0.3,1.7-0.4,2.5c-0.1,0.8-0.2,1.6-0.1,2.4c0.1,0.7,0.3,1.5,0.6,2.2
			c0.6,1.4,1.3,2.5,1.8,3.7c0.7,1.9,1.2,3.9,1.3,5.9c0,0.5,0,1.1-0.1,1.6c0,0.2-0.1,0.3-0.1,0.4
			C461.3,272.4,461.3,272.5,461.3,272.5z"/>
		<path class="st1" d="M457.8,247.5c0.1-0.4,0.3-0.7,0.4-1.1c0.2-1,0.2-2.1-0.2-3.1c-0.6-1.5-1.6-2.7-3-3.3
			c-0.9-0.3-1.7-0.9-2.4-1.6c-0.6-0.8-1.1-1.7-1.5-2.7c-0.6-1.9-0.9-3.9-0.7-5.8c0.1-1.6-0.1-3.1-0.6-4.6c-0.3-1-1-1.9-1.8-2.5
			c-0.3-0.2-0.6-0.4-1-0.6c0,0,0.1,0,0.3,0.1c0.3,0.1,0.5,0.2,0.8,0.4c0.9,0.6,1.6,1.5,2,2.6c0.5,1.5,0.8,3.1,0.7,4.8
			c-0.1,1.9,0.1,3.8,0.7,5.7c0.4,0.9,0.9,1.8,1.4,2.6c0.3,0.3,0.6,0.6,1,0.9c0.4,0.2,0.8,0.4,1.2,0.6c1.5,0.7,2.6,2,3.2,3.6
			c0.3,1.1,0.3,2.2,0,3.3c-0.1,0.3-0.2,0.6-0.4,0.8C457.9,247.5,457.8,247.5,457.8,247.5z"/>
		<path class="st1" d="M436.6,223.6c-0.6-0.3-1.2-0.6-1.8-1.1c-2.7-2.2-4.4-5.4-4.5-8.9c-0.1-0.7,0-1.4,0.2-2.1c0.1,0,0,0.8,0.1,2.1
			c0.3,3.3,1.9,6.5,4.4,8.7C436,223.1,436.7,223.5,436.6,223.6z"/>
		<path class="st1" d="M435.8,224.8c-1.1-0.3-2.2-0.9-3.1-1.6c-1-0.6-1.9-1.4-2.6-2.4c1,0.6,2,1.2,2.9,2
			C433.9,223.4,434.9,224.1,435.8,224.8z"/>
		<path class="st1" d="M455.2,213.2c-0.3,3.7-2.2,7.1-5.2,9.4c1.2-1.4,2.2-2.8,3.2-4.4C454,216.6,454.6,214.9,455.2,213.2z"/>
		<path class="st1" d="M456.6,216.7c-0.5,3-1.8,5.7-3.7,8c-0.1-0.1,0.9-1.8,2-4C455.9,218.6,456.5,216.7,456.6,216.7z"/>
		<path class="st1" d="M454.5,205.3c-0.3-0.5-0.6-1.1-0.9-1.7c-0.3-0.6-0.7-1.1-1.2-1.6c-0.6-0.5-1.4-0.8-2.1-0.8
			c-1.5,0.1-2.9,0.8-3.9,1.9c-0.4,0.5-0.9,0.9-1.4,1.3c0.3-0.6,0.7-1.1,1.1-1.5c0.5-0.5,1-1,1.6-1.4c0.7-0.5,1.6-0.7,2.5-0.8
			c0.9,0,1.8,0.3,2.4,1c0.5,0.5,0.9,1.1,1.2,1.8C454.2,204.1,454.4,204.7,454.5,205.3z"/>
		<path class="st1" d="M452.7,274.3c-0.2-0.1-0.3-0.2-0.4-0.4c-0.3-0.3-0.6-0.6-1.1-1.1c-0.6-0.6-1.1-1.3-1.5-2c-0.6-1-1-2-1.1-3.2
			c0-0.7,0.1-1.3,0.3-2c0.2-0.7,0.5-1.3,0.9-1.9c0.7-1.3,1.6-2.6,1.6-4.2c0-1.7-0.5-3.3-1.4-4.7c-0.9-1.5-2.1-2.9-3.1-4.5
			c-1.1-1.5-1.8-3.3-2.1-5.1c-0.2-1.7-0.3-3.4-0.1-5.2c0.3-3.3,1-6.1,1.1-8.6c0.2-1.9,0-3.9-0.6-5.7c-0.4-1.3-0.8-2-0.8-2
			c0.1,0.1,0.2,0.3,0.3,0.5c0.3,0.5,0.5,1,0.7,1.5c0.6,1.9,0.8,3.8,0.7,5.8c-0.1,2.5-0.7,5.4-1,8.6c-0.2,1.7-0.1,3.4,0.1,5
			c0.3,1.8,1,3.5,2,4.9c1,1.5,2.2,3,3.1,4.5c0.9,1.5,1.4,3.2,1.4,5c-0.1,1.8-1,3.1-1.8,4.3c-0.4,0.6-0.6,1.2-0.9,1.8
			c-0.2,0.6-0.3,1.2-0.3,1.8c0.1,1.1,0.4,2.1,1,3.1c0.4,0.7,0.9,1.4,1.5,2c0.4,0.5,0.8,0.9,1.1,1.2
			C452.5,274,452.6,274.2,452.7,274.3z"/>
	</g>
</g>
<g id="Plants">
	<g>
		<g>
			<g>
				<g>
					<path class="st6" d="M117.1,271.9c-5.7,0.9-8.2,7.9-7.7,13.6c0.5,5.7,2.8,11.3,2.2,17c-0.8,7.2-6.3,13.4-6.9,20.6
						c-0.8,8.6,5.3,16.2,7.1,24.6c0.9,4.1,0.8,8.4,2.3,12.3c2.6,6.6,10.1,10.8,17,9.5c6.9-1.2,12.5-7.8,12.7-14.8
						c0.1-6.6-3.9-12.8-3.4-19.3c0.4-4.8,3.2-9.4,2.6-14.3c-0.7-5.7-6-9.8-7.9-15.3c-1.9-5.5-0.1-11.5-0.7-17.2
						C133.2,278.3,127.5,271.1,117.1,271.9"/>
				</g>
			</g>
			<g>
				<path class="st6" d="M88.2,321.9c-1,9.6,3.3,20.8,8.2,29c4.9,8.2,12.5,14.9,21.4,18.6c1,0.4,2.2,0.8,3.1,0.1
					c0.7-0.6,0.8-1.6,0.8-2.5c0.1-10.1-3.2-20.1-9.2-28.2C106.5,330.8,97.8,324.7,88.2,321.9"/>
				<path class="st7" d="M88.2,321.9c-1,9.6,3.3,20.8,8.2,29c4.9,8.2,12.5,14.9,21.4,18.6c1,0.4,2.2,0.8,3.1,0.1
					c0.7-0.6,0.8-1.6,0.8-2.5c0.1-10.1-3.2-20.1-9.2-28.2C106.5,330.8,97.8,324.7,88.2,321.9"/>
			</g>
			<g>
				<g>
					<g>
						<path class="st0" d="M129.8,389.4c0,0-0.1-0.2-0.3-0.5c-0.2-0.4-0.4-0.9-0.7-1.6c-0.6-1.4-1.4-3.3-2.5-5.7
							c-2.2-4.8-5.4-11.4-9.5-18.4c-4.1-7-8.2-13-11.3-17.3c-1.6-2.1-2.9-3.8-3.8-5c-0.4-0.6-0.8-1-1-1.4c-0.2-0.3-0.3-0.5-0.3-0.5
							c0,0,0.2,0.1,0.4,0.4c0.3,0.3,0.7,0.8,1.1,1.3c1,1.1,2.3,2.8,3.9,4.9c3.2,4.2,7.4,10.2,11.5,17.2c4.1,7,7.3,13.6,9.4,18.5
							c1.1,2.4,1.9,4.4,2.4,5.8c0.2,0.6,0.4,1.2,0.6,1.6C129.8,389.2,129.8,389.4,129.8,389.4z"/>
					</g>
				</g>
			</g>
			<g>
				<g>
					<g>
						<path class="st0" d="M123.6,298.4c0,0,0.1,0.3,0.1,0.9c0,0.6,0.1,1.5,0.2,2.6c0.1,2.3,0.4,5.6,0.6,9.7
							c0.5,8.2,1.2,19.5,2.1,31.9c0.9,12.5,1.7,23.7,2.4,31.9c0.3,4,0.6,7.3,0.7,9.7c0.1,1.1,0.1,2,0.2,2.6c0,0.6,0,0.9,0,0.9
							c0,0-0.1-0.3-0.1-0.9c-0.1-0.6-0.2-1.5-0.3-2.6c-0.2-2.3-0.5-5.6-0.9-9.7c-0.7-8.2-1.7-19.4-2.5-31.9
							c-0.9-12.5-1.5-23.8-2-31.9c-0.2-4.1-0.3-7.4-0.5-9.7c0-1.1-0.1-2-0.1-2.6C123.6,298.7,123.6,298.4,123.6,298.4z"/>
					</g>
				</g>
			</g>
		</g>
		<g>
			<g>
				<path class="st1" d="M114.9,375.8h23.9v17.6c0,6.3-5.1,11.5-11.5,11.5l0,0c-6.1,0-11.1-4.8-11.5-10.9L114.9,375.8z"/>
			</g>
		</g>
	</g>
	<g>
		<path class="st6" d="M645.4,375.5c3.5-1.8,7.7-2.1,11.6-1.4c2.1,0.3,4.3,1,5.7,2.6c1.4,1.6,1.7,4.4,0.1,5.7
			c-1,0.8-2.3,0.9-3.6,0.9c-3.1,0-6.5-0.6-8.9,1.3c-1.4,1.1-2.3,2.8-4,3.3c-1.6,0.5-3.5-0.5-4.4-1.9c-0.9-1.5-0.9-3.3-0.5-5
			C641.4,381,641.8,377.4,645.4,375.5z"/>
		<path class="st6" d="M637.3,359.9c2.2,3.1,6.4,2.1,8.3,0.2c1.9-1.9,2.8-4.6,3.5-7.2c1.7-5.9,3.4-12.2,2.2-18.2
			c-0.4-1.8-1.1-3.6-2.3-5c-1.3-1.3-3.2-2.1-5-1.7c-2.1,0.6-3.4,2.6-4.4,4.6c-2.8,5.8-4.3,12.2-4.3,18.7
			C635.2,354.3,635.6,357.4,637.3,359.9"/>
		<path class="st6" d="M631.4,364.3c2.3-2.8,2.8-6.8,1.7-10.3c-1-3.5-3.4-6.5-6.1-8.9c-3.2-2.8-6.9-5.1-11-6.5
			c-1.6-0.6-3.3-1-4.9-0.8c-1.7,0.2-3.4,1-4.1,2.5c-1.2,2.2,0,4.9,1.1,7c2.1,3.8,4.5,7.5,7.2,11c2.2,2.8,4.6,5.5,7.9,6.8
			c3.3,1.3,6.7,1.1,8.4-1.2"/>
		<g>
			<path class="st0" d="M637.1,406.5c0,0,0.1-0.5,0.2-1.4c0.1-1,0.2-2.3,0.4-3.8c0.2-1.6,0.4-3.5,0.9-5.6c0.4-2.1,1.1-4.3,2-6.6
				c0.9-2.3,2.1-4.3,3.4-6c1.3-1.7,2.8-2.9,4.3-3.6c1.4-0.7,2.7-1,3.6-1.1c0.9-0.1,1.4-0.2,1.4-0.2c0,0-0.5,0-1.4,0
				c-0.9,0.1-2.2,0.3-3.8,1c-1.5,0.7-3.1,1.9-4.5,3.6c-1.4,1.7-2.6,3.8-3.5,6.1c-0.9,2.3-1.6,4.6-2,6.7c-0.4,2.1-0.6,4.1-0.7,5.7
				c-0.1,1.6-0.2,2.9-0.2,3.9C637.1,405.9,637.1,406.5,637.1,406.5z"/>
		</g>
		<g>
			<path class="st0" d="M637.4,403.5c0,0,0-0.2,0-0.7c0-0.5,0-1.1,0-1.9c0-1.6,0-4,0.1-6.8c0.1-5.8,0.6-13.7,1.6-22.5
				c1-8.8,2.2-16.6,3.4-22.3c0.3-1.4,0.6-2.7,0.8-3.8c0.2-1.1,0.5-2.1,0.7-2.9c0.2-0.7,0.3-1.3,0.4-1.8c0.1-0.4,0.1-0.6,0.1-0.6
				c0,0-0.1,0.2-0.2,0.6c-0.1,0.5-0.3,1.1-0.5,1.8c-0.2,0.8-0.5,1.7-0.8,2.8c-0.3,1.1-0.6,2.4-0.9,3.8c-1.3,5.6-2.6,13.5-3.6,22.3
				c-1,8.8-1.4,16.8-1.4,22.6c0,2.9,0,5.2,0.1,6.9c0,0.8,0.1,1.4,0.1,1.9C637.4,403.3,637.4,403.5,637.4,403.5z"/>
		</g>
		<g>
			<path class="st0" d="M637.4,388.1c0,0,0-0.7,0-1.9c-0.1-1.2-0.2-3.1-0.6-5.3c-0.4-2.2-0.9-4.8-1.7-7.7c-0.8-2.9-1.8-5.9-3.2-9.1
				c-2.7-6.3-6.3-11.5-9.4-14.7c-0.7-0.8-1.6-1.5-2.2-2.1c-0.3-0.3-0.6-0.6-0.9-0.8c-0.3-0.2-0.6-0.4-0.9-0.6c-1-0.7-1.6-1.1-1.6-1
				c-0.1,0.1,2.3,1.5,5.4,4.8c3,3.2,6.5,8.4,9.2,14.6c1.3,3.1,2.4,6.2,3.2,9c0.8,2.8,1.4,5.4,1.8,7.6c0.4,2.2,0.6,4,0.8,5.2
				C637.3,387.4,637.4,388.1,637.4,388.1z"/>
		</g>
	</g>
</g>
<g id="Pictures">
	<g>
		<g>
			<g>
				<g>
					<polygon class="st6" points="664.6,190.5 608.1,191.7 609.6,265.3 666.1,265.6 					"/>
				</g>
			</g>
		</g>
		<g>
			<g>
				<g>
					<polygon class="st8" points="660.9,193.2 611.5,194.2 612.9,261 662.3,261.7 					"/>
				</g>
			</g>
		</g>
		<g>
			<g>
				<g>
					<polygon class="st0" points="652.5,205.5 619.7,205 620.6,251.7 653.4,251 					"/>
				</g>
			</g>
		</g>
		<g>
			<g>
				<g>
					<polygon class="st1" points="620.6,251.7 652.9,227 619.7,205 					"/>
				</g>
			</g>
		</g>
	</g>
	<g>
		<g>
			<g>
				<g>
					<g>
						<polygon class="st1" points="645.3,129.5 606.6,130.3 607.6,180.8 646.4,181 						"/>
					</g>
				</g>
			</g>
			<g>
				<g>
					<g>
						<polygon class="st8" points="642.8,131.3 608.9,132 609.8,177.9 643.8,178.3 						"/>
					</g>
				</g>
			</g>
			<g>
				<g>
					<g>
						<polygon class="st6" points="637.1,139.8 614.5,139.4 615.2,171.4 637.7,171 						"/>
					</g>
				</g>
			</g>
		</g>
		<g>
			<g>
				<g>
					<path class="st0" d="M629.6,155c0,0,0.1-0.4,0.3-1c0.1-0.6,0.1-1.7-0.4-2.7c-0.5-1-1.7-2.1-3.2-2.2c-1.5-0.2-3.3,0.6-4.1,2.2
						c-0.8,1.6-0.4,3.5,0.6,4.6c1,1.1,2.6,1.5,3.7,1.3c1.2-0.2,2-0.8,2.4-1.3C629.4,155.3,629.6,155,629.6,155c0,0-0.1,0.4-0.5,0.9
						c-0.4,0.5-1.3,1.3-2.5,1.5c-1.2,0.3-2.9-0.1-4.1-1.3c-1.2-1.2-1.7-3.4-0.7-5.2c0.9-1.8,2.9-2.7,4.6-2.4c1.7,0.2,3,1.4,3.5,2.6
						c0.5,1.2,0.4,2.3,0.2,2.9C629.9,154.7,629.7,155,629.6,155z"/>
				</g>
			</g>
			<g>
				<g>
					<path class="st0" d="M631.5,164c-0.1,0.1-1.1-1.5-2.2-3.4c-1.1-1.9-1.9-3.6-1.7-3.7c0.1-0.1,1.1,1.5,2.2,3.4
						C630.9,162.3,631.6,163.9,631.5,164z"/>
				</g>
			</g>
		</g>
	</g>
</g>
<g id="Floor">
	<g>
		<g>
			<path class="st0" d="M665.6,404.7c0,0.1-126.5,0.3-282.6,0.3c-156.1,0-282.6-0.1-282.6-0.3s126.5-0.3,282.6-0.3
				C539.1,404.4,665.6,404.5,665.6,404.7z"/>
		</g>
	</g>
</g>
<g id="Character">
	<g>
		<path class="st2" d="M249.4,280.2c0,0-0.9-9.5-1.8-9.4c-0.9,0.1-1,1.8-0.9,2.6c0.1,0.8,0,4,0,4L249.4,280.2z"/>
		<g>
			<path class="st0" d="M168,272.5l4.5,32l-21,91.7l58,4.6l-25-147.7C184.5,253.1,168,251.2,168,272.5z"/>
		</g>
		<g>
			<g>
				<polygon class="st2" points="239.3,433.9 242.6,471.8 228.3,471.8 222,433.9 				"/>
			</g>
			<g>
				<g>
					<path class="st2" d="M242.6,471.8c0,0,9.7,1.2,11.4,2.5l-25.3-0.3l-0.4-2.2H242.6z"/>
				</g>
				<g>
					<polygon class="st6" points="254,474.3 254,475.3 227.9,475 227.9,473.9 					"/>
				</g>
				<g>
					<g>
						<path class="st6" d="M244.8,474.9c0.1,0.1,0.5-0.7,1.4-1.3c0.8-0.6,1.7-0.8,1.7-0.9c0-0.1-1-0.2-2,0.5
							C244.9,473.9,244.6,474.9,244.8,474.9z"/>
					</g>
				</g>
				<g>
					<g>
						<path class="st6" d="M228,471c0,0.1,1.7,0.5,3.7,1.4c2,0.9,3.4,2.1,3.5,1.9c0.1-0.1-1.2-1.4-3.3-2.4
							C229.8,471.1,228,470.9,228,471z"/>
					</g>
				</g>
				<g>
					<g>
						<path class="st6" d="M228.6,470.4c0,0.1,3.2,0.1,7-0.1c3.9-0.2,7-0.5,7-0.6c0-0.1-3.2-0.1-7,0.1
							C231.7,470,228.5,470.3,228.6,470.4z"/>
					</g>
				</g>
				<g>
					<g>
						<path class="st6" d="M226.9,465.5c0,0.1,3.4,0.9,7.7,1.7c4.3,0.8,7.8,1.3,7.8,1.2c0-0.1-3.4-0.9-7.7-1.7
							C230.4,465.8,226.9,465.3,226.9,465.5z"/>
					</g>
				</g>
				<g>
					<g>
						<path class="st6" d="M227.1,465.6c0,0.1,0.8,0,1.9-0.4c0.6-0.2,1.2-0.5,1.9-1c0.3-0.2,0.7-0.5,1-0.8c0.2-0.2,0.3-0.4,0.4-0.6
							c0.1-0.3,0.1-0.6-0.1-0.9c-0.2-0.3-0.6-0.4-0.8-0.4c-0.3,0-0.5,0.1-0.7,0.2c-0.4,0.2-0.8,0.4-1.1,0.6c-0.7,0.5-1.2,1-1.5,1.5
							c-0.7,1-0.7,1.8-0.7,1.8c0.1,0,0.3-0.7,1-1.6c0.3-0.5,0.8-1,1.4-1.4c0.3-0.2,0.7-0.4,1-0.5c0.4-0.2,0.8-0.2,0.9,0
							c0.2,0.2,0,0.6-0.3,0.9c-0.3,0.3-0.6,0.5-0.9,0.8c-0.6,0.4-1.2,0.8-1.7,1C227.8,465.4,227.1,465.6,227.1,465.6z"/>
					</g>
				</g>
				<g>
					<g>
						<path class="st6" d="M227.3,466c0,0,0.4-0.7,0.4-1.9c0-0.6-0.1-1.3-0.4-2c-0.2-0.4-0.4-0.7-0.6-1.1c-0.1-0.2-0.3-0.3-0.4-0.5
							c-0.2-0.2-0.4-0.4-0.7-0.4c-0.4,0-0.6,0.2-0.7,0.5c-0.1,0.3-0.1,0.5-0.1,0.7c0,0.4,0.1,0.9,0.2,1.2c0.2,0.8,0.6,1.4,1,1.9
							c0.8,0.9,1.5,1.2,1.5,1.2c0.1-0.1-0.6-0.5-1.2-1.4c-0.3-0.5-0.6-1.1-0.8-1.8c-0.1-0.4-0.1-0.7-0.2-1.1c0-0.4,0.1-0.7,0.4-0.7
							c0.2,0,0.5,0.4,0.8,0.7c0.2,0.3,0.4,0.7,0.6,1c0.3,0.7,0.5,1.3,0.5,1.9C227.4,465.3,227.2,466,227.3,466z"/>
					</g>
				</g>
				<g>
					<g>
						<path class="st6" d="M225.3,471.9c0.1,0.1,0.9-1.2,1.4-2.9c0.6-1.7,0.7-3.2,0.6-3.2c-0.1,0-0.5,1.4-1,3.1
							C225.8,470.5,225.2,471.8,225.3,471.9z"/>
					</g>
				</g>
				<g>
					<g>
						<path class="st6" d="M223.6,470.5c0.1,0.1,1.4-0.7,2.5-2.2c1.2-1.5,1.7-2.9,1.6-3c-0.1-0.1-0.8,1.3-2,2.7
							C224.6,469.4,223.5,470.4,223.6,470.5z"/>
					</g>
				</g>
			</g>
		</g>
		<g>
			<g>
				<polygon class="st2" points="185.8,437 156.5,460.3 149.6,450.1 175.8,421.5 				"/>
			</g>
			<g>
				<g>
					<path class="st2" d="M158.6,460.9c0,0,4.5,8.6,4.5,10.8l-14.2-20.9l1.6-1.6L158.6,460.9z"/>
				</g>
				<g>
					<polygon class="st6" points="163.1,471.6 162.2,472.2 147.5,450.7 148.4,450 					"/>
				</g>
				<g>
					<g>
						<path class="st6" d="M157.3,464.4c0,0.1,0.9,0,1.9,0.4c1,0.3,1.6,0.9,1.7,0.8c0.1-0.1-0.4-0.9-1.6-1.3
							C158.2,463.9,157.3,464.3,157.3,464.4z"/>
					</g>
				</g>
				<g>
					<g>
						<path class="st6" d="M150.8,448.4c-0.1,0.1,0.6,1.7,1,3.9c0.4,2.2,0.3,3.9,0.4,4c0.1,0,0.5-1.8,0.1-4
							C151.9,450,150.9,448.4,150.8,448.4z"/>
					</g>
				</g>
				<g>
					<g>
						<path class="st6" d="M151.6,447.9c-0.1,0.1,1.6,2.4,3.7,5.2c2.2,2.8,4,5,4.1,4.9c0.1-0.1-1.6-2.4-3.7-5.2
							C153.6,450,151.7,447.8,151.6,447.9z"/>
					</g>
				</g>
				<g>
					<g>
						<path class="st6" d="M154.8,444.3c-0.1,0.1,1.1,3,2.7,6.5c1.6,3.5,3,6.3,3.1,6.3c0.1-0.1-1.1-3-2.7-6.5
							C156.3,447.1,154.9,444.3,154.8,444.3z"/>
					</g>
				</g>
				<g>
					<g>
						<path class="st6" d="M154.8,444.6c0,0,0.4,0.6,1.4,1.3c0.5,0.3,1.1,0.7,1.9,1c0.4,0.1,0.8,0.3,1.2,0.4c0.2,0,0.5,0.1,0.8,0
							c0.3-0.1,0.5-0.3,0.7-0.6c0.1-0.3,0-0.7-0.2-0.9c-0.2-0.2-0.4-0.3-0.6-0.5c-0.4-0.2-0.8-0.4-1.1-0.6c-0.8-0.3-1.5-0.4-2.1-0.3
							c-1.2,0.1-1.9,0.5-1.9,0.5c0,0.1,0.7-0.2,1.9-0.1c0.6,0,1.3,0.1,2,0.4c0.3,0.1,0.7,0.3,1,0.5c0.3,0.2,0.6,0.5,0.5,0.7
							c-0.1,0.3-0.5,0.4-0.9,0.3c-0.4-0.1-0.8-0.2-1.1-0.3c-0.7-0.2-1.3-0.6-1.8-0.8C155.4,445.1,154.8,444.6,154.8,444.6z"/>
					</g>
				</g>
				<g>
					<g>
						<path class="st6" d="M154.6,444.9c0,0,0.8-0.1,1.7-0.8c0.5-0.4,1-0.9,1.4-1.5c0.2-0.3,0.4-0.7,0.6-1.1
							c0.1-0.2,0.1-0.4,0.2-0.6c0-0.2,0.1-0.5-0.1-0.8c-0.2-0.3-0.5-0.3-0.8-0.3c-0.3,0-0.5,0.2-0.7,0.3c-0.4,0.3-0.6,0.6-0.9,0.9
							c-0.5,0.6-0.8,1.3-1,1.9c-0.3,1.2-0.2,1.9-0.1,1.9c0.1,0,0-0.7,0.4-1.8c0.2-0.5,0.5-1.1,1-1.7c0.2-0.3,0.5-0.5,0.8-0.8
							c0.3-0.2,0.7-0.3,0.8-0.1c0.1,0.2,0,0.6-0.1,1c-0.1,0.4-0.3,0.7-0.5,1c-0.4,0.6-0.8,1.1-1.3,1.5
							C155.2,444.6,154.6,444.9,154.6,444.9z"/>
					</g>
				</g>
				<g>
					<g>
						<path class="st6" d="M148.6,446.7c0,0.1,1.5,0,3.2-0.5c1.7-0.5,3-1.3,3-1.4c-0.1-0.1-1.4,0.4-3.1,0.9
							C150,446.3,148.6,446.6,148.6,446.7z"/>
					</g>
				</g>
				<g>
					<g>
						<path class="st6" d="M148.8,444.6c0,0.1,1.4,0.7,3.3,0.8c1.9,0.1,3.4-0.3,3.3-0.4c0-0.1-1.5,0-3.3-0.1
							C150.3,444.8,148.8,444.4,148.8,444.6z"/>
					</g>
				</g>
			</g>
		</g>
		<g>
			<g>
				<g>
					<g>
						<g>
							<g>
								<path class="st6" d="M214.1,322.8c0,0,11.2,74.4,9.6,78c-1.6,3.6-37.9,40.7-37.9,40.7l-13.6-23.3c0,0,24-26.6,23.7-28
									c-0.3-1.4-17.3-73.4-17.3-73.4L214.1,322.8z"/>
							</g>
						</g>
					</g>
					<g>
						<path class="st6" d="M211.5,414.9l-9.6-21l-11.1-23.6c6.6,9.7,12.4,19.8,17,30.8C209.8,405.6,211,410.2,211.5,414.9z"/>
						<path class="st9" d="M211.5,414.9l-9.6-21l-11.1-23.6c6.6,9.7,12.4,19.8,17,30.8C209.8,405.6,211,410.2,211.5,414.9z"/>
					</g>
					<g>
						<path class="st6" d="M218.1,350.3c-0.1-0.8-9.1-21.1-9.1-21.1l4.4-6.2l0.8-0.2L218.1,350.3z"/>
						<path class="st9" d="M218.1,350.3c-0.1-0.8-9.1-21.1-9.1-21.1l4.4-6.2l0.8-0.2L218.1,350.3z"/>
					</g>
				</g>
				<g>
					<g>
						<g>
							<g>
								<path class="st6" d="M172.2,315.8l-0.7,2.8c-2,8.1-0.8,16.7,3.4,24l30.4,52.6c2.2,3.7,3.7,7.8,4.7,12l7.6,34
									c0,0,23.9,0.8,24.9,0c1-0.8-3.1-23.3-5.8-40.4c-2.1-12.9-19.3-52.8-27.6-71.6l5.2-6.4l-9-1.5L172.2,315.8z"/>
							</g>
						</g>
					</g>
				</g>
			</g>
			<g>
				<g>
					<path class="st0" d="M217.5,441.2c0,0,0.3,0.1,1,0.2c0.6,0.1,1.6,0.1,2.7,0.2c2.3,0.1,5.4,0.3,8.9,0.3c3.5,0,6.6-0.1,8.9-0.2
						c1.1-0.1,2.1-0.1,2.7-0.2c0.6-0.1,1-0.1,1-0.1c0,0-0.4-0.1-1-0.1c-0.7,0-1.6,0-2.7,0c-2.4,0-5.5,0-8.9,0.1
						c-3.5,0-6.6,0-8.9-0.1c-1,0-1.9,0-2.7-0.1C217.8,441.1,217.5,441.1,217.5,441.2z"/>
				</g>
			</g>
			<g>
				<g>
					<path class="st0" d="M216.2,434.8c0,0.1,5.7,0.2,12.8,0.2c7.1,0,12.8-0.2,12.8-0.3c0-0.1-5.7-0.2-12.8-0.2
						C221.9,434.5,216.2,434.6,216.2,434.8z"/>
				</g>
			</g>
			<g>
				<g>
					<path class="st0" d="M176.3,413.4c0,0,0.2,0.4,0.5,0.9c0.4,0.7,0.9,1.5,1.5,2.5c1.4,2.2,3.2,5,5.1,8.1c2,3.1,3.7,5.9,5.1,8.1
						c0.6,1,1.1,1.8,1.6,2.4c0.4,0.6,0.6,0.9,0.6,0.9c0,0-0.1-0.4-0.5-1c-0.3-0.6-0.8-1.5-1.4-2.5c-1.2-2.1-3-5-5-8.2
						c-2-3.2-3.9-6-5.3-8c-0.7-1-1.3-1.8-1.7-2.4C176.6,413.7,176.4,413.4,176.3,413.4z"/>
				</g>
			</g>
			<g>
				<g>
					<path class="st0" d="M187.2,439.5c0.1,0,0.7-1.4,1.2-3.1c0.5-1.8,0.8-3.2,0.7-3.3c-0.1,0-0.7,1.4-1.2,3.1
						C187.4,438,187.1,439.5,187.2,439.5z"/>
				</g>
			</g>
			<g>
				<g>
					<path class="st0" d="M185.1,439.5c0.1,0,0.6-2.3,1.1-5.2c0.5-2.9,0.8-5.3,0.6-5.3c-0.1,0-0.6,2.3-1.1,5.2
						C185.2,437.1,185,439.4,185.1,439.5z"/>
				</g>
			</g>
			<g>
				<g>
					<path class="st0" d="M182.3,435.5c0.1,0,0.6-2,1.3-4.6c0.6-2.5,1.1-4.6,1-4.6c-0.1,0-0.9,2-1.5,4.5
						C182.5,433.4,182.2,435.5,182.3,435.5z"/>
				</g>
			</g>
			<g>
				<g>
					<path class="st0" d="M180,430.1c0.1,0,0.6-1.9,1.1-4.4c0.5-2.5,0.8-4.5,0.6-4.5c-0.1,0-0.6,2-1.1,4.4
						C180.1,428,179.8,430,180,430.1z"/>
				</g>
			</g>
			<g>
				<g>
					<path class="st0" d="M176.9,425.5c0.1,0,0.5-2,1.1-4.4c0.6-2.4,1.1-4.3,1-4.4c-0.1,0-0.9,1.8-1.5,4.3
						C176.9,423.5,176.8,425.5,176.9,425.5z"/>
				</g>
			</g>
			<g>
				<g>
					<path class="st0" d="M174.2,421.7c0.1,0,0.6-1.6,1.1-3.6c0.5-2,0.8-3.6,0.7-3.7c-0.1,0-0.6,1.6-1.1,3.6
						C174.4,420,174.1,421.6,174.2,421.7z"/>
				</g>
			</g>
			<g>
				<g>
					<path class="st0" d="M229.9,434.5c-0.1,0.1,2.6,1.5,5.9,3.3c3.3,1.7,6,3.2,6,3.1c0-0.1-0.6-0.5-1.6-1.1c-1-0.6-2.5-1.5-4.2-2.4
						c-1.7-0.9-3.2-1.6-4.3-2.1C230.6,434.7,229.9,434.5,229.9,434.5z"/>
				</g>
			</g>
			<g>
				<g>
					<path class="st0" d="M222.6,434.6c0,0.1,0.7,0.5,1.9,1.2c1.2,0.7,2.9,1.6,4.8,2.5c1.9,0.9,3.6,1.7,4.9,2.2
						c1.3,0.5,2.1,0.8,2.1,0.7c0-0.1-0.7-0.5-2-1.1c-1.4-0.7-3-1.5-4.8-2.4c-1.8-0.9-3.4-1.7-4.8-2.4
						C223.4,434.9,222.6,434.6,222.6,434.6z"/>
				</g>
			</g>
			<g>
				<g>
					<path class="st0" d="M216.9,434.6c-0.1,0.1,2,1.9,4.7,3.9c2.7,2,5,3.4,5.1,3.3c0.1-0.1-2.1-1.7-4.8-3.7
						C219.2,436.1,217,434.5,216.9,434.6z"/>
				</g>
			</g>
			<g>
				<g>
					<path class="st0" d="M216.3,438.2c-0.1,0.1,0.8,1,2.1,1.9c1.2,0.9,2.3,1.6,2.4,1.5c0.1-0.1-0.8-1-2.1-1.9
						C217.5,438.7,216.4,438.1,216.3,438.2z"/>
				</g>
			</g>
			<g>
				<g>
					<path class="st0" d="M236.4,434.4c-0.1,0.1,1.3,1.1,3.1,2.1c1.8,1.1,3.3,1.8,3.3,1.7c0.1-0.1-1.3-1.1-3.1-2.1
						C238,435.1,236.5,434.3,236.4,434.4z"/>
				</g>
			</g>
			<g>
				<g>
					<path class="st0" d="M209.6,329c-0.1,0,0.4,1.3,1.3,3.3c0.8,2,2,4.8,3.2,8c1.2,3.1,2.3,6,3,8c0.8,2.1,1.2,3.3,1.3,3.3
						c0,0,0-0.3-0.2-0.9c-0.2-0.6-0.4-1.4-0.8-2.5c-0.7-2.1-1.7-5-2.9-8.1c-1.2-3.1-2.4-5.9-3.3-7.9c-0.5-1-0.8-1.8-1.1-2.4
						C209.8,329.3,209.6,329,209.6,329z"/>
				</g>
			</g>
			<g>
				<g>
					<path class="st0" d="M212.1,417.3c0,0,0-0.2,0-0.6c-0.1-0.4-0.1-1-0.2-1.7c-0.1-0.7-0.2-1.6-0.4-2.6c-0.2-1-0.4-2.2-0.8-3.5
						c-0.2-0.6-0.3-1.3-0.5-2c-0.2-0.7-0.4-1.4-0.7-2.1c-0.4-1.5-1.1-3-1.7-4.7c-1.3-3.2-2.9-6.7-4.8-10.3
						c-3.8-7.1-7.9-13.1-10.9-17.4c-1.5-2.2-2.7-3.9-3.6-5.1c-0.4-0.6-0.7-1-1-1.4c-0.2-0.3-0.4-0.5-0.4-0.5c0,0,0.1,0.2,0.3,0.5
						c0.2,0.4,0.6,0.8,0.9,1.4c0.9,1.3,2,3,3.5,5.2c2.9,4.4,6.9,10.4,10.7,17.5c1.9,3.5,3.5,7,4.8,10.2c0.6,1.6,1.2,3.1,1.7,4.6
						c0.2,0.7,0.5,1.4,0.7,2.1c0.2,0.7,0.4,1.3,0.6,2c0.4,1.3,0.6,2.4,0.8,3.4c0.3,1,0.4,1.9,0.5,2.6c0.1,0.7,0.2,1.2,0.3,1.7
						C212,417.1,212.1,417.3,212.1,417.3z"/>
				</g>
			</g>
		</g>
		<g>
			<path class="st10" d="M182.3,253.2l23.5,2c0,0,7,0.2,14.7,18l5.5,17.7l-9.9,2.1l0,1l-2,28.8l-42.4-6.9c-0.1-3.7,2-9,3.5-14
				c-1.6-4-8.3-21.2-8.3-29.5C167,254.7,182.3,253.2,182.3,253.2"/>
		</g>
		<g>
			<g>
				<path class="st0" d="M172.2,418.2c0,0,0.1,0.4,0.4,1c0.3,0.6,0.8,1.5,1.4,2.6c1.2,2.1,2.9,5.1,4.8,8.2c1.9,3.1,3.6,6,4.9,8.2
					c0.6,1,1.1,1.8,1.5,2.5c0.4,0.6,0.6,0.9,0.6,0.9c0,0-0.1-0.4-0.4-1c-0.3-0.6-0.8-1.5-1.4-2.6c-1.2-2.1-2.9-5.1-4.8-8.2
					c-1.9-3.1-3.6-6-4.9-8.2c-0.6-1-1.1-1.8-1.5-2.5C172.4,418.5,172.2,418.2,172.2,418.2z"/>
			</g>
		</g>
		<g>
			<g>
				<path class="st10" d="M177.7,295.6c0,0.1,1.4,0.6,3.3,0.9c1.9,0.3,3.4,0.2,3.4,0c0-0.1-1.5-0.3-3.4-0.5
					C179.3,295.7,177.8,295.4,177.7,295.6z"/>
			</g>
		</g>
		<g>
			<g>
				<path class="st1" d="M214,294.2l0.5,31.3l-12.7-71.3c4.2-0.7,12.1,2.6,15,6.8c2.1,2.5,3.3,8.3,9.2,25.8l3.6,11.8l14.7-16.1
					l9.9,8.9c0,0-17.1,27.9-24.2,29.4C220.3,323,214,294.2,214,294.2"/>
			</g>
			<g>
				<g>
					<path class="st0" d="M212,265.2c0,0,0,0.4,0.1,1.2c0.1,0.9,0.3,2,0.5,3.3c0.4,2.8,1,6.6,1.5,10.9c0.5,4.3,0.9,8.1,1.2,10.9
						c0.1,1.3,0.2,2.4,0.3,3.3c0.1,0.8,0.1,1.2,0.2,1.2c0,0,0-0.4,0-1.2c0-0.8-0.1-1.9-0.1-3.3c-0.2-2.8-0.5-6.7-1-11
						c-0.5-4.3-1.2-8.1-1.7-10.9c-0.3-1.4-0.5-2.5-0.7-3.3C212.1,265.6,212,265.2,212,265.2z"/>
				</g>
			</g>
			<g>
				<g>
					<path class="st10" d="M215.3,263.8c0.1-0.1-1.9-1-4.2-2.4c-2.2-1.4-3.9-2.8-4-2.6c-0.1,0.1,1.4,1.7,3.7,3.1
						C213.1,263.3,215.2,263.9,215.3,263.8z"/>
				</g>
			</g>
			<g>
				<g>
					<path class="st10" d="M219.3,284.5c0.1,0,0.6-1.6,1.2-3.6c0.6-2,1.2-3.6,1.1-3.6c-0.1-0.1-0.9,1.5-1.6,3.5
						C219.4,282.7,219.2,284.4,219.3,284.5z"/>
				</g>
			</g>
			<g>
				<g>
					<path class="st10" d="M209,273.2c-0.1,0-0.1,1.9,0.3,4.2c0.4,2.3,1.1,4,1.2,4c0.1,0-0.3-1.8-0.7-4.1
						C209.4,275,209.2,273.2,209,273.2z"/>
				</g>
			</g>
			<g>
				<g>
					<path class="st10" d="M223.3,300.5c-0.1,0,0.1,1.7,0.3,3.7c0.2,2,0.3,3.7,0.5,3.7c0.1,0,0.3-1.7,0-3.7
						C223.9,302.1,223.4,300.4,223.3,300.5z"/>
				</g>
			</g>
			<g>
				<g>
					<path class="st10" d="M242.1,300.2c0.1,0.1,1.4-1.6,2.7-4c1.2-2.4,1.9-4.4,1.8-4.5c-0.1-0.1-1,1.9-2.2,4.2
						C243.1,298.3,242,300.1,242.1,300.2z"/>
				</g>
			</g>
			<g>
				<g>
					<path class="st10" d="M231.3,301c-0.1,0.1,1.1,1,2.7,1.7c1.6,0.7,3.1,1.1,3.1,0.9c0-0.1-1.3-0.7-2.9-1.4
						C232.7,301.5,231.4,300.8,231.3,301z"/>
				</g>
			</g>
		</g>
		<g>
			<g>
				<polygon class="st1" points="180.5,310.9 173.1,398.2 151,396.2 172,304.4 169.4,279.8 				"/>
			</g>
			<g>
				<g>
					<path class="st0" d="M173.1,398.2c0.1,0,1.8-19.4,3.6-43.3c1.9-23.9,3.3-43.3,3.1-43.3c-0.1,0-1.8,19.4-3.6,43.3
						C174.4,378.8,173,398.2,173.1,398.2z"/>
				</g>
			</g>
			<g>
				<g>
					<path class="st10" d="M175.3,312.9c0.1-0.1-0.3-1.3-0.9-2.9c-0.6-1.5-1.3-2.7-1.4-2.7c-0.1,0.1,0.3,1.3,0.9,2.9
						C174.5,311.8,175.1,313,175.3,312.9z"/>
				</g>
			</g>
			<g>
				<g>
					<path class="st10" d="M169.2,325.9c0.1,0.1,1.2-1.2,2.8-2.6c1.5-1.4,2.9-2.3,2.8-2.5c-0.1-0.1-1.6,0.7-3.2,2.1
						C170,324.4,169.1,325.8,169.2,325.9z"/>
				</g>
			</g>
			<g>
				<g>
					<path class="st10" d="M170.5,343.4c0.1-0.1-0.6-1.4-1.4-3c-0.7-1.7-1.2-3.1-1.3-3.1c-0.1,0,0.1,1.5,0.9,3.3
						C169.4,342.3,170.4,343.5,170.5,343.4z"/>
				</g>
			</g>
			<g>
				<g>
					<path class="st10" d="M165.7,357.5c0.1,0.1,1.5-0.9,3.1-2.3c1.6-1.4,2.8-2.6,2.7-2.7c-0.1-0.1-1.5,0.9-3.1,2.3
						C166.9,356.2,165.7,357.4,165.7,357.5z"/>
				</g>
			</g>
			<g>
				<g>
					<path class="st10" d="M161.7,367.2c0.1,0,0.2-1.9,0.2-4.2c0-2.3-0.1-4.2-0.3-4.2c-0.1,0-0.2,1.9-0.2,4.2
						C161.5,365.3,161.6,367.2,161.7,367.2z"/>
				</g>
			</g>
			<g>
				<g>
					<path class="st10" d="M168.8,373.7c0.1,0,0.3-1.5,0.5-3.4c0.3-1.8,0.6-3.3,0.4-3.4c-0.1,0-0.7,1.4-0.9,3.3
						C168.6,372.2,168.7,373.7,168.8,373.7z"/>
				</g>
			</g>
			<g>
				<g>
					<path class="st10" d="M161.5,382.1c0,0.1,1.4,0,3.2-0.2c1.7-0.3,3.1-0.6,3.1-0.7c0-0.1-1.4,0-3.2,0.2
						C162.9,381.6,161.5,381.9,161.5,382.1z"/>
				</g>
			</g>
			<g>
				<g>
					<path class="st10" d="M162.7,393.2c0.1-0.1-0.7-1.5-1.8-3.2c-1.1-1.7-2.1-3-2.2-2.9c-0.1,0.1,0.7,1.5,1.8,3.2
						C161.6,392,162.6,393.3,162.7,393.2z"/>
				</g>
			</g>
		</g>
		<path class="st0" d="M214.1,328.2L214.1,328.2c2.1,1.6,5.1,1.1,6.7-1l37.6-51.2c6.6,3.3,13.8,5.2,21.4,5.5c1.9,0.1,3.7,0,5.5-0.1
			c25.8-1.9,46.6-23,47.4-49.4c0.5-13.7-4.4-26.7-13.8-36.7c-9.3-10-22-15.8-35.7-16.2c-13.7-0.5-26.7,4.4-36.7,13.8
			c-10,9.3-15.8,22-16.2,35.7c-0.5,13.7,4.4,26.7,13.8,36.7c1.9,2.1,4,3.9,6.2,5.6l-37.2,50.7C211.5,323.6,212,326.6,214.1,328.2z
			 M251.2,258.7c-7.6-8.1-11.6-18.7-11.2-29.8c0.4-11.1,5.1-21.4,13.2-29c7-6.6,15.9-10.4,25.3-11.1c1.5-0.1,3-0.1,4.5-0.1
			c22.9,0.8,41,20.1,40.2,43c-0.7,21.4-17.6,38.6-38.5,40.1c-1.5,0.1-3,0.1-4.5,0.1C269,271.5,258.7,266.8,251.2,258.7z"/>
		<g>
			<g>
				<path class="st1" d="M227.9,293.9l4.4,15c0,0-23.1,8.4-35.6,8.2c-11.7-0.1-15.1-1.5-19.2-10.9s-8.8-20.3-9.8-26.6
					c0,0-6.6-28.8,18.6-26.2L187,276c0,0,2.8,9.2,3,9.8c1.9,5,4.3,12.3,6.7,13.2C199.1,299.8,227.9,293.9,227.9,293.9z"/>
			</g>
			<g>
				<g>
					<path class="st0" d="M191.7,306c0.1,0.1,1.3-1.4,2.5-3.5c1.2-2,1.9-3.8,1.8-3.9c-0.1-0.1-1.1,1.6-2.3,3.6
						C192.5,304.3,191.5,305.9,191.7,306z"/>
				</g>
			</g>
			<g>
				<g>
					<path class="st0" d="M189.3,303.6c0.1,0.1,1.6-0.9,3.4-2.3c1.8-1.4,3.1-2.6,3-2.7c-0.1-0.1-1.6,0.9-3.4,2.3
						C190.6,302.3,189.2,303.5,189.3,303.6z"/>
				</g>
			</g>
			<g>
				<g>
					<path class="st0" d="M181.5,262.6c-0.1,0.1,1.1,3.2,2.7,7c1.6,3.8,3,6.9,3.1,6.9c0.1-0.1-1.1-3.2-2.7-7
						C183,265.6,181.6,262.5,181.5,262.6z"/>
				</g>
			</g>
			<g>
				<g>
					<path class="st0" d="M168.8,284c0,0,0.1,0.4,0.3,1.1c0.3,0.8,0.6,1.8,1.1,3.1c0.9,2.6,2.2,6.1,3.7,10c1.5,3.9,3,7.4,4.2,9.8
						c0.6,1.2,1.1,2.2,1.5,2.9c0.4,0.7,0.6,1,0.6,1c0,0-0.1-0.4-0.4-1.1c-0.4-0.8-0.8-1.8-1.3-3c-1.1-2.5-2.6-6-4.1-9.9
						c-1.5-3.8-2.8-7.3-3.9-10c-0.5-1.3-0.9-2.3-1.2-3C169,284.4,168.8,284,168.8,284z"/>
				</g>
			</g>
			<g>
				<g>
					<path class="st0" d="M205.8,298.3c0,0.1,5-0.7,11.2-1.8c6.2-1.1,11.2-2.1,11.1-2.3s-5,0.7-11.2,1.8
						C210.8,297.1,205.8,298.1,205.8,298.3z"/>
				</g>
			</g>
			<g>
				<g>
					<path class="st10" d="M179.7,284.5c0.1,0,0.2-1.8,0.2-4.1c0-2.2-0.2-4.1-0.3-4.1c-0.1,0-0.2,1.8-0.2,4.1
						C179.4,282.7,179.5,284.5,179.7,284.5z"/>
				</g>
			</g>
			<g>
				<g>
					<path class="st10" d="M188.6,312.2c0.1-0.1-0.6-1.4-1.3-3c-0.7-1.7-1.2-3.1-1.3-3.1c-0.1,0,0.1,1.5,0.9,3.3
						C187.6,311.1,188.5,312.3,188.6,312.2z"/>
				</g>
			</g>
			<g>
				<g>
					<path class="st10" d="M200.8,311.4c0.1,0.1,0.9-1.6,2-3.5c1.1-1.9,2-3.5,1.9-3.6c-0.1-0.1-1.2,1.4-2.3,3.3
						C201.3,309.6,200.7,311.4,200.8,311.4z"/>
				</g>
			</g>
			<g>
				<g>
					<path class="st10" d="M217.7,303.6c-0.1,0.1,1.4,0.8,3.3,1.6c1.9,0.7,3.4,1.2,3.5,1.1c0.1-0.1-1.4-0.8-3.3-1.6
						C219.3,304,217.8,303.5,217.7,303.6z"/>
				</g>
			</g>
			<g>
				<g>
					<path class="st10" d="M170.4,268.3c0.1,0.1,1.2-1,2.8-2.1c1.6-1.1,3.1-1.7,3-1.9c0-0.1-1.6,0.3-3.3,1.5
						C171.3,266.9,170.3,268.2,170.4,268.3z"/>
				</g>
			</g>
			<g>
				<g>
					<path class="st10" d="M177.6,293.2c0,0.1,1.7,0.7,4,1c2.2,0.3,4.1,0.2,4.1,0.1c0-0.1-1.8-0.3-4-0.6
						C179.4,293.3,177.6,293,177.6,293.2z"/>
				</g>
			</g>
		</g>
		<g>
			<g>
				<path class="st6" d="M179.9,216.1c-1.2-2.5-4.4-3.7-7.1-2.9c-2.7,0.8-4.7,3.1-5.6,5.8c-0.9,2.6-0.7,5.5-0.2,8.3
					c0.4,2,1,4.3-0.3,5.9c-1.2,1.4-3.5,1.4-4.9,2.6c-1.4,1.2-1.5,3.7-0.2,5c1.3,1.3,3.8,1.2,5-0.2c0,1.4-0.8,2.7-1.2,4
					c-0.4,1.3-0.5,3,0.6,3.9c0.8,0.7,2,0.7,2.9,0.3c1-0.4,1.7-1.1,2.5-1.8c-0.4,1.4-0.5,3,0.1,4.4c0.6,1.4,1.8,2.6,3.3,2.8
					c1.9,0.3,3.7-1,4.6-2.6c0.9-1.7,1-3.6,0.9-5.5c-0.2-2.9-1-5.8-1.3-8.7c-0.4-2.9-0.3-6,1.1-8.6"/>
			</g>
			<g>
				<g>
					<path class="st6" d="M163,233.1c0,0,0.1,0.1,0.4,0c0.2,0,0.6-0.2,0.9-0.6c0.3-0.4,0.2-1.2-0.4-1.6c-0.5-0.5-1.6-0.5-2.2,0.1
						c-0.7,0.6-1,1.7-0.7,2.7c0.1,0.5,0.4,1,0.8,1.4c0.4,0.4,1,0.6,1.6,0.7c0.6,0,1.2-0.1,1.7-0.4c0.5-0.3,1-0.8,1.3-1.3
						c0.7-1.1,0.8-2.4,0.6-3.7c-0.4-2.6-1.6-4.7-1.6-6.9c-0.1-2.1,0.7-4,1.5-5.4c0.9-1.4,1.9-2.3,2.6-2.8c0.7-0.5,1.2-0.7,1.2-0.8
						c0,0-0.1,0-0.4,0.1c-0.2,0.1-0.5,0.3-0.9,0.5c-0.8,0.5-1.9,1.4-2.8,2.8c-0.9,1.4-1.7,3.3-1.7,5.6c0,2.3,1.2,4.5,1.5,6.9
						c0.2,1.2,0,2.4-0.6,3.4c-0.6,1-1.6,1.5-2.6,1.5c-1,0-1.8-0.8-2-1.7c-0.3-0.9-0.1-1.8,0.5-2.3c0.6-0.5,1.4-0.6,1.8-0.2
						c0.5,0.4,0.6,1,0.4,1.3c-0.2,0.4-0.5,0.6-0.7,0.6C163.1,233.1,163,233.1,163,233.1z"/>
				</g>
			</g>
			<g>
				<g>
					<g>
						<g>
							<path class="st2" d="M186.1,254.1l-1.3-30.5l12.1-9.2l11,5.4c0,0,0.4,13.8,0,19.8c-0.4,6-6.4,6.6-6.4,6.6s0.1,3.5,0.3,7.2
								c0.2,4.5-3.4,8.2-7.9,8.1l0,0C189.7,261.5,186.3,258.2,186.1,254.1z"/>
						</g>
					</g>
				</g>
				<g>
					<g>
						<g>
							<g>
								<path class="st0" d="M206.7,229.8c0,0.4-0.3,0.8-0.8,0.8c-0.4,0-0.8-0.3-0.8-0.8s0.3-0.8,0.8-0.8
									C206.4,229.1,206.7,229.4,206.7,229.8z"/>
							</g>
						</g>
					</g>
					<g>
						<g>
							<g>
								<g>
									<path class="st0" d="M207.5,229c-0.1,0.1-0.7-0.4-1.5-0.4c-0.8-0.1-1.4,0.4-1.5,0.2c0,0,0.1-0.2,0.3-0.4
										c0.3-0.2,0.7-0.4,1.2-0.3c0.5,0,0.9,0.3,1.2,0.5C207.4,228.7,207.5,228.9,207.5,229z"/>
								</g>
							</g>
						</g>
					</g>
				</g>
				<g>
					<g>
						<g>
							<g>
								<path class="st0" d="M197.8,229.8c0,0.4-0.3,0.8-0.8,0.8c-0.4,0-0.8-0.3-0.8-0.8s0.3-0.8,0.8-0.8
									C197.5,229.1,197.8,229.4,197.8,229.8z"/>
							</g>
						</g>
					</g>
					<g>
						<g>
							<g>
								<g>
									<path class="st0" d="M198.3,229c-0.1,0.1-0.7-0.4-1.5-0.4c-0.8-0.1-1.4,0.4-1.5,0.2c0,0,0.1-0.2,0.3-0.4
										c0.3-0.2,0.7-0.4,1.2-0.3c0.5,0,0.9,0.3,1.2,0.5C198.3,228.7,198.4,228.9,198.3,229z"/>
								</g>
							</g>
						</g>
					</g>
				</g>
				<g>
					<g>
						<g>
							<path class="st10" d="M198.6,236.7c1,0.5,2.9,1.2,4,1.4c0,0-1,1.5-2.7,0.8C198,238.2,198.6,236.7,198.6,236.7z"/>
						</g>
					</g>
				</g>
				<g>
					<g>
						<g>
							<path class="st3" d="M201.5,246.2c0,0-4,0-7.9-2.7c0,0,1.8,4.4,7.8,4.2L201.5,246.2z"/>
						</g>
					</g>
				</g>
				<g>
					<g>
						<g>
							<path class="st6" d="M167.3,240.8c0.5,0,1.3-0.1,2.2-0.5c0.9-0.4,1.7-1.2,2.4-2.3c0.7-1.1,1.2-2.4,1.8-3.8
								c1.1-2.8,2-5.4,2.5-7.3c0.1-0.3,0.2-0.6,0.2-0.8c0.1-0.3,0.1-0.6,0.2-0.8c3.3-12.5,14.3-14.8,16.4-14.8
								c2.3,0,6.4-1.3,12.4,4.9c1,1,1.7,2.1,2.3,3.1c1.5,1.9,2.3,4,2.7,5.6c0.4,1.8,0.2,3,0.1,3c-0.1,0-0.1-1.1-0.6-2.9
								c-0.2-0.9-0.6-1.9-1.2-3c0.9,3.9-0.6,6.9-0.6,6.9l-2.1-0.6l-7.6-2.6c0.7-2.4-0.3-5.3-0.9-6.7l-0.1-0.1
								c-1.7,9-10.1,9.8-10.1,9.8l-1.4,19.6c-10.2-2.2-9.9-15.8-9.9-18.5c-0.5,1.6-1.1,3.3-1.8,5.2c-0.6,1.4-1.1,2.7-1.9,3.9
								c-0.7,1.1-1.7,2-2.6,2.4c-0.9,0.4-1.8,0.5-2.4,0.4c-0.6-0.1-0.8-0.3-0.8-0.3C166.5,240.6,166.8,240.7,167.3,240.8z"/>
						</g>
					</g>
				</g>
				<g>
					<g>
						<g>
							<g>
								<path class="st0" d="M201.3,236c0,0,0.5-0.1,1.4-0.2c0.2,0,0.4,0,0.5-0.2c0.1-0.2,0-0.4-0.1-0.7c-0.2-0.5-0.4-1.1-0.6-1.7
									c-0.4-1.2-0.7-2.3-1-3.1c-0.2-0.8-0.3-1.3-0.3-1.3c0,0,0.2,0.5,0.5,1.3c0.3,0.8,0.7,1.9,1.1,3.1c0.2,0.6,0.4,1.2,0.5,1.7
									c0.1,0.3,0.2,0.5,0.1,0.9c-0.1,0.2-0.2,0.3-0.4,0.3c-0.1,0-0.3,0-0.4,0C201.8,236,201.3,236,201.3,236z"/>
							</g>
						</g>
					</g>
				</g>
				<g>
					<g>
						<g>
							<g>
								<path class="st2" d="M184.2,235.7c0-1,0-2-0.3-3c-0.4-0.9-1.2-1.8-2.2-1.9c-1.1-0.1-2.3,0.8-2.4,2c-0.2,1.1,0.5,2.3,1.5,2.9
									c1,0.6,2.3,0.5,3.3,0.1"/>
							</g>
						</g>
					</g>
					<g>
						<g>
							<g>
								<g>
									<path class="st3" d="M182.4,234.8c0-0.1-0.3,0.1-0.7,0c-0.4-0.1-0.9-0.6-0.9-1.3c0-0.3,0-0.6,0.2-0.8
										c0.2-0.2,0.4-0.2,0.7-0.2c0.4,0,0.8,0.2,0.8,0.1c0-0.1-0.2-0.3-0.7-0.4c-0.3-0.1-0.7-0.1-1,0.2c-0.4,0.3-0.4,0.8-0.4,1.2
										c0,0.4,0.2,0.8,0.4,1.1c0.3,0.3,0.6,0.4,0.9,0.5C182.2,235.2,182.5,234.9,182.4,234.8z"/>
								</g>
							</g>
						</g>
					</g>
				</g>
				<g>
					<g>
						<path class="st0" d="M180.6,235.7c0,0-0.5,0.3-0.4,1.1c0,0.4,0.2,0.9,0.6,1.3c0.4,0.4,1,0.6,1.6,0.5c0.6-0.1,1.1-0.5,1.4-1
							c0.3-0.5,0.3-1,0.1-1.4c-0.3-0.8-0.8-1-0.8-0.9c-0.1,0.1,0.3,0.4,0.4,1c0.1,0.3,0,0.7-0.2,1.1c-0.2,0.3-0.6,0.7-1.1,0.7
							c-0.5,0.1-0.9-0.1-1.2-0.4c-0.3-0.3-0.5-0.6-0.5-0.9C180.4,236.1,180.7,235.7,180.6,235.7z"/>
					</g>
				</g>
				<g>
					<g>
						<path class="st6" d="M184.1,231.5c0,0,0.2,0.2,0.8,0.5c0.5,0.2,1.4,0.5,2.4,0.5c1.1,0,2.3-0.2,3.6-0.9c1.2-0.6,2.4-1.7,3.3-3
							c1.8-2.7,2.4-5.6,2.7-7.6c0.1-1,0.2-1.9,0.2-2.4c0-0.6,0-0.9,0-0.9c-0.1,0-0.3,1.3-0.6,3.3c-0.4,2-0.9,4.9-2.7,7.4
							c-0.9,1.3-2,2.3-3.1,2.9c-1.2,0.6-2.4,0.9-3.4,0.9C185.3,232.2,184.2,231.4,184.1,231.5z"/>
					</g>
				</g>
			</g>
			<g>
				<g>
					<path class="st0" d="M177.4,222.9c0.1,0,0.6-1.7,1.8-3.6c1.2-1.9,2.5-3.1,2.4-3.2c-0.1-0.1-1.7,1-2.9,2.9
						C177.5,221,177.3,222.9,177.4,222.9z"/>
				</g>
			</g>
		</g>
		<g>
			<g>
				<g>
					<path class="st2" d="M231.8,307.5l3.5,0c3.2-0.3,5-0.4,5.9-1.2c1.2-1.1-0.4-2.3-0.4-2.3s2.3-0.8,2.1-2.2
						c-0.1-1-1.2-1.1-1.2-1.1s2-0.8,2.5-1.7c0.6-1.2-0.9-1.8-0.9-1.8c2.8-1.7,2.5-3.4,1.9-3.6c-0.6-0.2-2.8,0.8-2.8,0.8
						c-1.8,0.5-6.9,2.1-5-0.7c1.9-2.8,2.2-5.6,1.8-6.4c-0.4-0.8-1.7-0.5-1.9,0.5c-0.1,0.8-0.8,2.1-1.3,3.1c-0.4,0.8-1,1.5-1.7,2.1
						c-0.8,0.7-1.5,1.3-2.1,1.7l-3.1,3L231.8,307.5z"/>
				</g>
			</g>
		</g>
		<path class="st2" d="M253.8,272.2c-0.3-0.8-0.9-1.3-1.6-0.9l0,0c-0.3,0.4-0.3,0.8-0.2,1.2l2.2,7.1l0,0l-2.1-5
			c-0.3-0.8-0.9-1.2-1.4-0.8c-0.3,0.2-0.3,0.8-0.2,1.2l1.9,5.9l-1.5-3.7c-0.3-0.8-0.7-1.1-1.1-0.9c-0.4,0.2-0.4,0.8-0.3,1.1l1.3,4.3
			c-0.3,0.8-1.2,3.5-0.3,4.9c0,0.1-0.1,0.3-0.1,0.4l-0.4,0.5l2.9,2.6c0,0,2.7-6.8,3.2-8.8c0.4-1.8,0-2.9-0.2-3.5L253.8,272.2z"/>
	</g>
</g>
</svg>
