<?xml version="1.0" encoding="utf-8"?>
<!-- Generator: Adobe Illustrator 24.2.0, SVG Export Plug-In . SVG Version: 6.00 Build 0)  -->
<svg version="1.1" id="Layer_1" xmlns="http://www.w3.org/2000/svg" xmlns:xlink="http://www.w3.org/1999/xlink" x="0px" y="0px"
	 viewBox="0 0 750 500" style="enable-background:new 0 0 750 500;" xml:space="preserve">
<style type="text/css">
	.st0{fill:#E0E0E0;}
	.st1{fill:#EBEBEB;}
	.st2{fill:#F5F5F5;}
	.st3{fill:#FF725E;}
	.st4{opacity:0.4;}
	.st5{fill:#FFFFFF;}
	.st6{opacity:0.8;}
	.st7{fill:#CECECE;}
	.st8{fill:#263238;}
	.st9{fill:#455A64;}
	.st10{opacity:0.2;}
	.st11{opacity:0.3;}
	.st12{fill:#FFBE9D;}
	.st13{fill:#EB996E;}
</style>
<g id="freepik--background-complete--inject-68">
	<path class="st0" d="M100.5,64.7c3.3-2,6.9-3.6,10.7-4.6l2.2-10.5l17.8-0.3l2.6,10.5c3.8,0.9,7.4,2.4,10.8,4.3l9-5.9l12.8,12.4
		l-5.6,9.2c2,3.3,3.6,6.9,4.6,10.7l10.6,2.2l0.3,17.8l-10.4,2.6c-0.9,3.8-2.4,7.4-4.3,10.8l5.9,9l-12.4,12.8l-9.2-5.6
		c-3.3,2-6.9,3.6-10.6,4.6L133,155l-17.8,0.3l-2.6-10.5c-3.8-0.9-7.4-2.4-10.8-4.3l-9,5.9l-12.8-12.4l5.6-9.1
		c-2-3.3-3.6-6.9-4.6-10.7l-10.5-2.2l-0.3-17.8l10.4-2.6c0.9-3.8,2.4-7.4,4.3-10.8l-5.9-9l12.4-12.8
		C91.3,59.1,100.5,64.7,100.5,64.7z M110,88.4c-7.4,7.6-7.2,19.7,0.4,27s19.7,7.2,27-0.4c7.4-7.6,7.2-19.7-0.4-27c0,0,0,0,0,0
		C129.4,80.7,117.3,80.9,110,88.4z"/>
	<path class="st1" d="M206.9,38.9c1.9-1.2,4-2.1,6.2-2.7l1.3-6.2l10.4-0.2l1.5,6.1c2.2,0.5,4.3,1.4,6.3,2.5l5.3-3.4l7.5,7.2
		l-3.3,5.4c1.2,1.9,2.1,4,2.7,6.2l6.1,1.3l0.2,10.4l-6.1,1.5c-0.5,2.2-1.4,4.3-2.5,6.3l3.4,5.3l-7.2,7.5l-5.4-3.3
		c-1.9,1.2-4,2.1-6.2,2.7l-1.3,6.2l-10.4,0.2l-1.5-6.1c-2.2-0.5-4.3-1.4-6.3-2.5l-5.3,3.4l-7.5-7.2l3.3-5.4c-1.2-1.9-2.1-4-2.7-6.2
		l-6.2-1.3l-0.2-10.4l6.1-1.5c0.5-2.2,1.4-4.3,2.5-6.3l-3.4-5.3l7.2-7.5L206.9,38.9L206.9,38.9z M212.5,52.8
		c-4.3,4.4-4.1,11.5,0.3,15.8c4.4,4.3,11.5,4.1,15.8-0.3c4.3-4.4,4.1-11.5-0.3-15.8C223.8,48.2,216.8,48.3,212.5,52.8
		C212.5,52.8,212.5,52.8,212.5,52.8z"/>
	<path class="st2" d="M95.9,174.1c1.2-0.7,2.5-1.3,3.8-1.7l0.8-3.8l6.4-0.1l0.9,3.8c1.4,0.3,2.7,0.9,3.9,1.5l3.3-2.1l4.6,4.5l-2,3.3
		c0.7,1.2,1.3,2.5,1.7,3.9l3.8,0.8l0.1,6.4l-3.8,0.9c-0.3,1.4-0.9,2.7-1.5,3.9l2.1,3.3l-4.5,4.6l-3.3-2c-1.2,0.7-2.5,1.3-3.8,1.7
		l-0.8,3.8l-6.4,0.1l-0.9-3.8c-1.4-0.3-2.7-0.8-3.9-1.5l-3.3,2.1l-4.6-4.5l2-3.3c-0.7-1.2-1.3-2.5-1.7-3.8l-3.8-0.8l-0.1-6.4
		l3.8-0.9c0.3-1.4,0.8-2.7,1.5-3.9l-2.1-3.3l4.5-4.6L95.9,174.1L95.9,174.1z M99.3,182.6c-2.7,2.7-2.6,7.1,0.2,9.8
		c2.7,2.7,7.1,2.6,9.8-0.2c2.7-2.7,2.6-7.1-0.2-9.8c0,0,0,0,0,0C106.3,179.8,102,179.9,99.3,182.6C99.3,182.6,99.3,182.6,99.3,182.6
		L99.3,182.6z"/>
	<path class="st1" d="M651.9,260.2c1.6-0.9,3.2-1.7,5-2.2l1-4.9l8.3-0.1l1.2,4.9c1.7,0.4,3.4,1.1,5,2l4.2-2.8l6,5.8l-2.6,4.3
		c0.9,1.6,1.7,3.2,2.2,5l4.9,1l0.2,8.3l-4.9,1.2c-0.4,1.7-1.1,3.4-2,5l2.8,4.2l-5.8,6l-4.3-2.6c-1.6,0.9-3.2,1.7-5,2.1l-1,4.9
		l-8.3,0.1l-1.2-4.9c-1.7-0.4-3.4-1.1-5-2l-4.2,2.8l-6-5.8l2.6-4.3c-0.9-1.6-1.7-3.2-2.2-5l-4.9-1l-0.1-8.3l4.9-1.2
		c0.4-1.7,1.1-3.4,2-5l-2.8-4.2l5.8-6L651.9,260.2L651.9,260.2z M656.3,271.3c-3.4,3.5-3.3,9.2,0.2,12.6c3.5,3.4,9.2,3.3,12.6-0.2
		c3.4-3.5,3.3-9.2-0.2-12.6C665.4,267.6,659.7,267.7,656.3,271.3C656.3,271.3,656.3,271.3,656.3,271.3z"/>
	<path class="st0" d="M307.1,454.3c-1.5,2.6-4.9,3.4-7.4,1.9s-3.4-4.9-1.9-7.4c1.5-2.6,4.8-3.4,7.4-1.9
		C307.8,448.4,308.7,451.7,307.1,454.3z"/>
	<path class="st0" d="M293.6,446.3c-1.6,2.7-5.2,3.6-7.9,2c-2.7-1.6-3.6-5.2-2-7.9c1.6-2.7,5.2-3.6,7.9-2c0,0,0,0,0,0
		C294.3,440,295.2,443.5,293.6,446.3C293.6,446.3,293.6,446.3,293.6,446.3z"/>
	<path class="st0" d="M288.5,431.3c-1.7,2.9-5.5,3.9-8.4,2.2s-3.9-5.5-2.2-8.4s5.5-3.9,8.4-2.2c0,0,0,0,0,0
		C289.2,424.6,290.2,428.4,288.5,431.3C288.5,431.3,288.5,431.3,288.5,431.3z"/>
	<path class="st0" d="M294.5,416.7c-1.8,3-5.7,4-8.8,2.2s-4-5.7-2.2-8.8c1.8-3,5.7-4,8.8-2.2C295.4,409.7,296.4,413.6,294.5,416.7z"
		/>
	<path class="st0" d="M308.5,408.9c-1.9,3.1-5.9,4.2-9.1,2.3c-3.1-1.9-4.2-5.9-2.3-9.1c1.9-3.1,5.9-4.2,9.1-2.3c0,0,0,0,0,0
		C309.3,401.7,310.4,405.8,308.5,408.9C308.5,408.9,308.5,408.9,308.5,408.9z"/>
	<path class="st0" d="M324.8,412.3c-2,3.4-6.5,4.6-9.9,2.5s-4.6-6.5-2.5-9.9c2-3.4,6.5-4.6,9.9-2.5
		C325.6,404.4,326.8,408.8,324.8,412.3C324.8,412.2,324.8,412.2,324.8,412.3z"/>
	<path class="st0" d="M322.6,451.4c-1.5,2.5-4.7,3.3-7.2,1.8s-3.3-4.7-1.8-7.2c1.5-2.5,4.7-3.3,7.2-1.8
		C323.2,445.7,324,448.9,322.6,451.4C322.6,451.4,322.6,451.4,322.6,451.4z"/>
	<path class="st0" d="M332.7,439.1c-1.4,2.3-4.4,3.1-6.7,1.7c-2.3-1.4-3.1-4.4-1.7-6.7s4.4-3.1,6.7-1.7c0,0,0,0,0,0
		C333.3,433.8,334.1,436.8,332.7,439.1z"/>
	<path class="st0" d="M332.4,422.9c-1.2,2.1-4,2.8-6.1,1.6c-2.1-1.2-2.8-4-1.6-6.1c1.2-2.1,4-2.8,6.1-1.6c0,0,0,0,0,0
		C332.9,418.1,333.6,420.8,332.4,422.9z"/>
	<path class="st2" d="M39.4,209.7c0,0-9.3,3.8,1.4,23.5s18,29.5,18,29.5s1.9,4.6-2,5.4s-12.5-0.3-14.1,4.5c-1.7,5,2,9.6,9.5,13.5
		S75.6,299.2,77,300s2.9,3,0.3,3.9s-21.9,3.5-20.1,12.6s24.2,16.6,26.6,17.5s3,1.9,2.9,3.2s-6.7,1.6-12.2,2.5s-11.6,3-10.2,8.1
		c1.5,5.1,14.9,15.7,47,18l14.9,0.1l7.8-12.8c15-28.4,13.1-45.4,9.5-49.4s-8.6,0.2-12.3,4.3s-7.4,9.6-8.6,9s-1.8-1.6-1.2-4.1
		s6-25.5-0.8-31.8s-19.1,8.8-21.3,10.4s-3.2-0.7-3.2-2.3s0.7-20,1.3-28.4s-1.3-14-6.5-15.2c-4.9-1.2-8.6,6.8-11.3,9.6
		s-5.6-1.2-5.6-1.2s-4.4-11.4-15.5-30.9s-19.4-13.4-19.4-13.4"/>
	<path class="st0" d="M127.1,369.5c-8.1-14.4-22-40.2-34.1-62.3s-23-42.1-31-56.5c-4-7.2-7.3-13-9.5-17.1c-1.1-2-2-3.6-2.6-4.6
		c-0.3-0.5-0.5-0.9-0.7-1.2s-0.2-0.4-0.2-0.4s0.1,0.1,0.3,0.4L50,229l2.7,4.6c2.3,4,5.6,9.8,9.6,17c8,14.4,19,34.3,31.1,56.4
		s26,47.9,34,62.3"/>
	<path class="st0" d="M54.8,274.6c0.4,0,0.7,0.1,1,0.3c0.7,0.2,1.6,0.5,2.8,0.9c2.3,0.8,5.6,2,9.1,3.3l9,3.5l2.7,1
		c0.3,0.1,0.7,0.2,1,0.4c-0.3,0-0.7-0.1-1-0.3c-0.7-0.2-1.6-0.5-2.8-0.9c-2.3-0.8-5.5-2-9.1-3.4l-9-3.5l-2.8-1
		C55.5,275,55.1,274.8,54.8,274.6z"/>
	<path class="st0" d="M81.5,283.2c-0.1,0,2-6.8,4.8-15s5.1-15,5.2-14.9s-2,6.8-4.8,15.1S81.6,283.2,81.5,283.2z"/>
	<path class="st0" d="M98.5,317.9c0.2-0.3,0.4-0.7,0.6-0.9c0.4-0.7,1-1.5,1.7-2.5c1.4-2.1,3.4-5,5.5-8.2s3.8-6.3,5.1-8.5
		c0.6-1,1.1-1.9,1.5-2.6c0.2-0.3,0.4-0.6,0.6-0.9c-0.1,0.3-0.3,0.7-0.4,1c-0.3,0.6-0.8,1.5-1.4,2.7c-1.2,2.2-2.9,5.3-5,8.5
		s-4.1,6.1-5.6,8.2c-0.8,1-1.4,1.8-1.8,2.4C99,317.4,98.8,317.7,98.5,317.9z"/>
	<path class="st0" d="M72.7,315.5c0.3,0,0.7,0,1,0l2.8,0.1c2.3,0.1,5.6,0.4,9.1,0.7s6.8,0.6,9.1,0.8l2.8,0.3c0.3,0,0.7,0.1,1,0.2
		c-0.3,0-0.7,0-1,0l-2.8-0.1c-2.3-0.1-5.6-0.4-9.1-0.7s-6.8-0.6-9.1-0.8l-2.8-0.3C73.3,315.7,73,315.6,72.7,315.5z"/>
	<path class="st0" d="M83.8,348.1c0.4,0,0.9,0,1.3,0l3.5,0.2c3,0.2,7.1,0.4,11.7,0.8s8.7,0.6,11.7,0.9l3.5,0.3
		c0.4,0,0.9,0.1,1.3,0.2c-0.4,0-0.9,0-1.3,0l-3.5-0.2c-3-0.2-7.1-0.4-11.7-0.8s-8.7-0.6-11.7-0.9l-3.5-0.3
		C84.6,348.3,84.2,348.2,83.8,348.1z"/>
	<path class="st0" d="M116.1,350.2c0.2-0.4,0.4-0.8,0.7-1.2l2-3.2c1.7-2.7,4.1-6.4,6.6-10.6s4.7-8.1,6.2-10.9l1.8-3.3
		c0.2-0.4,0.4-0.8,0.7-1.2c-0.1,0.4-0.3,0.9-0.6,1.3c-0.4,0.8-1,2-1.7,3.4c-1.5,2.9-3.6,6.8-6.1,11s-4.9,7.9-6.7,10.6
		c-0.9,1.3-1.6,2.4-2.2,3.1C116.6,349.5,116.3,349.8,116.1,350.2z"/>
</g>
<g id="freepik--Gears--inject-68">
	<path class="st3" d="M687.7,200.9l13.2-3.2l-0.4-22.4l-13.3-2.8c-1.3-4.7-3.3-9.2-5.8-13.4l7-11.6l-16.2-15.6l-11.3,7.4
		c-4.3-2.4-8.8-4.1-13.6-5.3l-3.2-13.2l-22.4,0.4l-2.8,13.3c-4.7,1.3-9.2,3.3-13.4,5.8l-11.6-7l-15.6,16.1l7.4,11.3
		c-2.4,4.3-4.2,8.9-5.3,13.6l-13.2,3.2l0.4,22.4l13.3,2.8c1.3,4.7,3.3,9.2,5.8,13.4l-7,11.6l16.2,15.6l11.3-7.4
		c4.3,2.4,8.9,4.2,13.6,5.4l3.3,13.2l22.5-0.4l2.8-13.3c4.7-1.3,9.2-3.3,13.4-5.8l11.6,7l15.6-16.1l-7.4-11.4
		C684.7,210.2,686.5,205.7,687.7,200.9z M652,203.6c-9.2,9.6-24.5,9.9-34,0.6c-9.6-9.2-9.9-24.5-0.6-34s24.5-9.9,34-0.6c0,0,0,0,0,0
		C661,178.9,661.3,194.1,652,203.6z"/>
	<g class="st4">
		<path class="st5" d="M687.7,200.9l13.2-3.2l-0.4-22.4l-13.3-2.8c-1.3-4.7-3.3-9.2-5.8-13.4l7-11.6l-16.2-15.6l-11.3,7.4
			c-4.3-2.4-8.8-4.1-13.6-5.3l-3.2-13.2l-22.4,0.4l-2.8,13.3c-4.7,1.3-9.2,3.3-13.4,5.8l-11.6-7l-15.6,16.1l7.4,11.3
			c-2.4,4.3-4.2,8.9-5.3,13.6l-13.2,3.2l0.4,22.4l13.3,2.8c1.3,4.7,3.3,9.2,5.8,13.4l-7,11.6l16.2,15.6l11.3-7.4
			c4.3,2.4,8.9,4.2,13.6,5.4l3.3,13.2l22.5-0.4l2.8-13.3c4.7-1.3,9.2-3.3,13.4-5.8l11.6,7l15.6-16.1l-7.4-11.4
			C684.7,210.2,686.5,205.7,687.7,200.9z M652,203.6c-9.2,9.6-24.5,9.9-34,0.6c-9.6-9.2-9.9-24.5-0.6-34s24.5-9.9,34-0.6
			c0,0,0,0,0,0C661,178.9,661.3,194.1,652,203.6z"/>
	</g>
	<path class="st3" d="M523.4,56.8c3-1.8,6.2-3.2,9.6-4.2l2-9.5l16.1-0.3l2.3,9.4c3.4,0.8,6.7,2.1,9.8,3.8l8.1-5.3l11.6,11.2l-5,8.3
		c1.8,3,3.2,6.2,4.2,9.6l9.5,2l0.3,16.1l-9.4,2.3c-0.8,3.4-2.1,6.7-3.8,9.8l5.3,8.1l-11.2,11.6l-8.3-5c-3,1.8-6.2,3.2-9.6,4.2
		l-2,9.5l-16.1,0.3l-2.3-9.4c-3.4-0.8-6.7-2.1-9.8-3.8l-8.1,5.3l-11.6-11.2l5-8.3c-1.8-3-3.2-6.2-4.2-9.6l-9.5-2L496,83.5l9.4-2.3
		c0.8-3.4,2.1-6.7,3.8-9.8l-5.3-8.1l11.2-11.6L523.4,56.8L523.4,56.8z M532,78.2c-6.6,6.9-6.4,17.8,0.4,24.4s17.8,6.4,24.4-0.4
		c6.6-6.9,6.4-17.8-0.4-24.4c0,0,0,0,0,0C549.5,71.1,538.6,71.3,532,78.2z"/>
	<g class="st6">
		<path class="st5" d="M523.4,56.8c3-1.8,6.2-3.2,9.6-4.2l2-9.5l16.1-0.3l2.3,9.4c3.4,0.8,6.7,2.1,9.8,3.8l8.1-5.3l11.6,11.2l-5,8.3
			c1.8,3,3.2,6.2,4.2,9.6l9.5,2l0.3,16.1l-9.4,2.3c-0.8,3.4-2.1,6.7-3.8,9.8l5.3,8.1l-11.2,11.6l-8.3-5c-3,1.8-6.2,3.2-9.6,4.2
			l-2,9.5l-16.1,0.3l-2.3-9.4c-3.4-0.8-6.7-2.1-9.8-3.8l-8.1,5.3l-11.6-11.2l5-8.3c-1.8-3-3.2-6.2-4.2-9.6l-9.5-2L496,83.5l9.4-2.3
			c0.8-3.4,2.1-6.7,3.8-9.8l-5.3-8.1l11.2-11.6L523.4,56.8L523.4,56.8z M532,78.2c-6.6,6.9-6.4,17.8,0.4,24.4s17.8,6.4,24.4-0.4
			c6.6-6.9,6.4-17.8-0.4-24.4c0,0,0,0,0,0C549.5,71.1,538.6,71.3,532,78.2z"/>
	</g>
	<path class="st5" d="M640.6,48.9c2.2-1.3,4.6-2.4,7.1-3.1l1.5-7l11.9-0.2l1.7,7c2.5,0.6,4.9,1.6,7.2,2.8l6-3.9l8.5,8.2l-3.7,6.1
		c1.3,2.2,2.4,4.6,3.1,7.1l7,1.5l0.2,11.8l-7,1.6c-0.6,2.5-1.6,4.9-2.9,7.2l3.9,6l-8.2,8.5l-6.1-3.7c-2.2,1.3-4.6,2.4-7.1,3.1
		l-1.5,7l-11.8,0.2l-1.7-6.9c-2.5-0.6-4.9-1.6-7.2-2.8l-6,3.9L627,95l3.7-6.1c-1.3-2.2-2.4-4.6-3.1-7.1l-7-1.5l-0.2-11.8l7-1.7
		c0.6-2.5,1.6-4.9,2.8-7.2l-3.9-6l8.2-8.5L640.6,48.9L640.6,48.9z M646.9,64.6c-4.9,5.1-4.7,13.1,0.4,18c5.1,4.9,13.1,4.7,18-0.4
		c4.8-5,4.7-13-0.3-17.9C659.9,59.4,651.8,59.5,646.9,64.6C646.9,64.6,646.9,64.6,646.9,64.6z"/>
	<path class="st3" d="M646.9,64.6c0.7-0.8,1.5-1.5,2.4-2.1c4.2-2.7,9.7-2.7,13.9,0c1.9,1.3,3.5,3,4.5,5.1c1.2,2.3,1.6,4.9,1.3,7.5
		c-0.7,5.7-5.1,10.2-10.7,11.1c-2.5,0.4-5.2,0.1-7.5-1c-2.1-0.9-4-2.4-5.3-4.3c-1.2-1.7-1.9-3.6-2.2-5.6c-0.4-2.9,0.2-5.8,1.7-8.3
		C645.4,66.2,646.1,65.4,646.9,64.6c0.1,0.1-0.8,0.9-1.7,2.6c-1.4,2.5-1.9,5.3-1.4,8.1c0.7,4.1,3.4,7.7,7.2,9.3
		c1.1,0.5,2.2,0.8,3.4,1c1.2,0.2,2.5,0.1,3.7-0.1c5.3-0.9,9.4-5.2,10.1-10.5c0.2-1.2,0.2-2.5,0-3.7c-0.2-1.2-0.6-2.4-1.1-3.4
		c-1.8-3.8-5.5-6.4-9.6-6.9c-2.8-0.4-5.6,0.2-8.1,1.7C647.7,63.8,647,64.7,646.9,64.6z"/>
	<path class="st3" d="M640.6,48.9c-0.1-0.1-0.3-0.1-0.4-0.2L639,48l-4.6-2.7h0.1l-8.2,8.6v-0.2l3.9,6l0.1,0.1l-0.1,0.1
		c-1.2,2.2-2.2,4.6-2.8,7.1v0.1h-0.1l-6.9,1.7l0.2-0.3c0.1,3.7,0.1,7.7,0.2,11.8l-0.2-0.3l7,1.4h0.2v0.2c0.7,2.5,1.7,4.8,3,7
		l0.1,0.2l-0.1,0.2l-3.7,6.1l-0.1-0.4l8.5,8.2h-0.4l6-3.9l0.2-0.1l0.2,0.1c2.2,1.2,4.6,2.2,7.1,2.8h0.2v0.2c0.5,2.2,1.1,4.6,1.7,7
		l-0.3-0.3l11.8-0.2l-0.3,0.3c0.5-2.2,1-4.6,1.5-7l0-0.2l0.2-0.1c2.5-0.7,4.8-1.7,7-3l0,0l0.2-0.1l0.2,0.1l6.1,3.7l-0.5,0.1l8.2-8.5
		v0.4l-3.9-6l-0.1-0.2l0.1-0.2c1.2-2.2,2.2-4.6,2.8-7.1v-0.2l0.2-0.1l7-1.7l-0.3,0.3c-0.1-4-0.1-8-0.2-11.8l0.3,0.3l-7-1.5h-0.2
		l0-0.2c-0.7-2.5-1.7-4.8-3-7l-0.1-0.2l0.1-0.2l3.7-6.1V53l-8.5-8.2h0.3l-6,3.9l-0.1,0.1l-0.1-0.1c-2.2-1.2-4.6-2.2-7.1-2.8h-0.1
		v-0.1c-0.6-2.5-1.2-4.8-1.7-7l0.2,0.2L649.1,39l0.2-0.1c-0.6,2.8-1.1,5.1-1.5,7v0.1h-0.1c-1.9,0.5-3.7,1.2-5.4,2.1l-1.3,0.7
		L640.6,48.9c0.1-0.1,0.3-0.2,0.4-0.3c0.3-0.2,0.7-0.4,1.3-0.7c1.7-0.9,3.5-1.7,5.4-2.2l-0.1,0.1c0.4-1.9,0.8-4.2,1.4-7v-0.1h0.1
		l11.9-0.3h0.2v0.2c0.5,2.2,1.1,4.4,1.7,6.9l-0.2-0.2c2.5,0.6,5,1.6,7.3,2.8h-0.3l6-3.9l0.2-0.1l0.2,0.2l8.5,8.2l0.2,0.2l-0.1,0.2
		l-3.7,6.1v-0.3c1.3,2.2,2.4,4.7,3.1,7.2l-0.2-0.2l7,1.4l0.2,0v0.3c0.1,3.8,0.1,7.8,0.2,11.8v0.3l-0.3,0.1l-7,1.7l0.3-0.3
		c-0.6,2.5-1.6,5-2.9,7.3v-0.4c1.3,2,2.6,4,3.9,6l0.2,0.2l-0.2,0.2l-8.2,8.5l-0.2,0.2l-0.3-0.2l-6.1-3.7h0.4
		c-2.2,1.4-4.6,2.4-7.2,3.1l0.3-0.2l-1.5,7v0.3h-0.3l-11.8,0.2h-0.3l-0.1-0.3c-0.6-2.4-1.2-4.8-1.7-7l0.3,0.3
		c-2.5-0.6-5-1.6-7.3-2.9h0.3l-6,3.9l-0.2,0.2l-0.2-0.2l-8.5-8.2l-0.2-0.2l0.1-0.2l3.7-6.1v0.3c-1.3-2.2-2.4-4.6-3.1-7.2l0.2,0.2
		l-7-1.5h-0.2v-0.2c-0.1-4.2-0.1-8.1-0.2-11.8v-0.2h0.2l7-1.7l-0.2,0.2c0.6-2.6,1.6-5,2.9-7.3v0.2l-3.9-6l-0.1-0.1l0.1-0.1l8.3-8.5
		l0.1-0.1h0.1l4.5,2.8l1.2,0.7L640.6,48.9z"/>
</g>
<rect x="143.5" y="106.8" class="st5" width="473.8" height="278.2"/>
<circle class="st5" cx="162.3" cy="122" r="5.2"/>
<path class="st5" d="M183.8,122c0,2.9-2.3,5.2-5.2,5.2s-5.2-2.3-5.2-5.2c0-2.9,2.3-5.2,5.2-5.2c0,0,0,0,0,0
	C181.4,116.8,183.8,119.1,183.8,122z"/>
<circle class="st5" cx="194.9" cy="122" r="5.2"/>
<image style="overflow:visible;" width="9613" height="5964" xlink:href="CXD Home page images-20201221T044156Z-001/CXD Home page images/Customer Journey Map - CX Deployer_1.png"  transform="matrix(5.127090e-02 0 0 5.127090e-02 133.5664 96.9962)">
</image>
<g>
	<path class="st7" d="M612.8,97c7.7,0,14,6.3,14,14v277.8c0,7.7-6.3,14-14,14H147.6c-7.7,0-14-6.3-14-14V111c0-7.7,6.3-14,14-14
		H612.8 M612.8,87H147.6c-13.2,0-24,10.8-24,24v277.8c0,13.2,10.8,24,24,24h465.2c13.2,0,24-10.8,24-24V111
		C636.8,97.8,626,87,612.8,87L612.8,87z"/>
</g>
<g id="freepik--Plant--inject-68">
	<rect x="578.5" y="406.1" class="st8" width="73.1" height="10"/>
	<path class="st8" d="M651.8,416.3h-73.4V406h73.4V416.3z M578.7,416h72.9v-9.8h-72.9V416z"/>
	<polygon class="st8" points="585.3,412.8 595.9,464.8 634.8,464.8 645,416.2 	"/>
	<polygon class="st9" points="585.3,459.9 591,467.6 638.3,467.6 645,459.9 	"/>
	<path class="st8" d="M612.4,414.3c-0.2,0-0.3-24.1-0.4-53.7s0-53.7,0.1-53.7s0.3,24,0.4,53.7S612.5,414.3,612.4,414.3z"/>
	<path class="st8" d="M628.7,354.1c0,0.2-0.1,0.4-0.2,0.6c-0.2,0.4-0.4,0.9-0.7,1.6l-0.5,1.1l-0.5,1.4l-0.6,1.6
		c-0.2,0.5-0.3,1.2-0.5,1.8c-0.9,3-1.5,6-2,9c-0.6,3.7-0.9,7.4-1.1,11.2c-0.3,6.8-0.1,13.7,0.6,20.5c0.2,2.6,0.5,4.7,0.7,6.2
		c0.1,0.7,0.1,1.2,0.2,1.7c0,0.2,0,0.4,0,0.6c-0.1-0.2-0.1-0.4-0.1-0.6c-0.1-0.4-0.2-1-0.3-1.7c-0.2-1.5-0.5-3.6-0.8-6.2
		c-0.8-6.8-1-13.7-0.7-20.5c0.2-3.8,0.6-7.5,1.2-11.2c0.5-3,1.2-6.1,2.2-9c0.2-0.6,0.4-1.2,0.6-1.8s0.4-1.1,0.6-1.6s0.4-0.9,0.5-1.4
		s0.4-0.8,0.5-1.1l0.7-1.5C628.5,354.5,628.6,354.3,628.7,354.1z"/>
	<path class="st8" d="M626.8,334.7c-0.1,0.3-0.1,0.5-0.2,0.8l-0.8,2.2c-0.2,0.5-0.4,1-0.6,1.6l-0.6,1.9c-0.4,1.4-0.9,3-1.4,4.8
		c-0.2,0.9-0.5,1.8-0.7,2.8s-0.5,2-0.7,3c-0.5,2.1-0.9,4.4-1.4,6.7c-0.8,4.8-1.5,10.1-2,15.6s-0.7,10.9-0.7,15.8s0,9.2,0.3,12.9
		c0.1,1.8,0.2,3.5,0.3,5s0.2,2.7,0.3,3.7s0.1,1.8,0.2,2.4c0,0.3,0,0.6,0,0.8c-0.1-0.3-0.1-0.5-0.1-0.8c-0.1-0.6-0.2-1.4-0.3-2.4
		s-0.2-2.3-0.3-3.7s-0.3-3.1-0.4-5c-0.2-3.7-0.3-8-0.4-12.9s0.2-10.2,0.7-15.8s1.2-10.9,2-15.7c0.5-2.4,0.9-4.7,1.4-6.8l0.7-3
		c0.3-1,0.5-1.9,0.8-2.8c0.5-1.8,1-3.4,1.4-4.8c0.2-0.7,0.4-1.3,0.6-1.9s0.4-1.1,0.6-1.6c0.3-0.9,0.6-1.7,0.8-2.2
		C626.5,335.2,626.6,334.9,626.8,334.7z"/>
	<path class="st8" d="M607.8,418.6c0-0.1,0-0.2,0-0.3c0-0.2,0-0.5-0.1-0.8c0-0.8-0.1-1.8-0.2-3.2c-0.2-2.8-0.4-6.8-0.7-11.7
		c-0.6-9.9-1.5-23.6-3.2-38.6c-0.8-7.5-1.8-14.6-2.9-21.1c-0.5-3.2-1-6.3-1.6-9.2s-1.1-5.5-1.6-8s-1-4.6-1.5-6.5s-0.8-3.6-1.2-4.9
		s-0.6-2.4-0.8-3.1c-0.1-0.3-0.1-0.6-0.2-0.8c0-0.1,0-0.2,0-0.3c0,0.1,0.1,0.2,0.1,0.3c0.1,0.2,0.1,0.5,0.2,0.8
		c0.2,0.7,0.5,1.8,0.8,3.1s0.8,3,1.3,4.9s1,4.1,1.5,6.5s1.1,5.1,1.7,7.9s1.1,5.9,1.7,9.2c1,6.5,2,13.6,2.9,21.1
		c1.7,15,2.5,28.7,3.1,38.6c0.3,5,0.5,9,0.6,11.7c0,1.4,0.1,2.4,0.1,3.2c0,0.3,0,0.6,0,0.8C607.8,418.4,607.8,418.5,607.8,418.6z"/>
	<path class="st3" d="M611.8,318.4c-0.3-3.4-3.8-6-7.2-6s-6.6,2-8.7,4.7c-2,2.8-3.4,6-4.2,9.3c-2.3,8-3.6,16.5-2.6,24.8
		s4.4,16.5,10.3,22.3c1,1,2.2,1.9,3.5,1.6c0.7-0.2,1.4-0.6,1.9-1.2c11.8-10.8,18.4-26.2,18-42.1c-0.1-3.2-0.5-6.4-2.3-9.1
		S614.8,317.4,611.8,318.4"/>
	<path class="st3" d="M586.2,291.1c-1.6,2.9-3.2,5.8-4.8,8.7c-0.1,0.2-0.3,0.4-0.5,0.5s-0.4-0.2-0.6-0.4l-12.8-19.6l2.9-1.7
		L586.2,291.1z"/>
	<g class="st10">
		<path d="M586.2,291.1c-1.6,2.9-3.2,5.8-4.8,8.7c-0.1,0.2-0.3,0.4-0.5,0.5s-0.4-0.2-0.6-0.4l-12.8-19.6l2.9-1.7L586.2,291.1z"/>
	</g>
	<path class="st3" d="M612.1,306.9l-43.5-25.7c-0.5-0.2-0.9-0.6-1.1-1.1c-0.1-0.7,0.2-1.3,0.8-1.7c6.1-6.3,14.5-9.6,23.2-9.1
		c8.7,0.6,16.6,5.5,21,13.1C616.7,289.8,616.9,299.7,612.1,306.9"/>
	<path class="st8" d="M574.9,273c0.2-0.1,0.4-0.1,0.6-0.1c0.4,0,0.9-0.1,1.6-0.1c2,0,4,0.1,6,0.5c3,0.5,5.9,1.4,8.6,2.6
		c9.6,4.3,16.8,12.7,19.5,22.9c0.5,2,0.9,4,1.1,6c0,0.4,0.1,0.8,0.1,1.3c0,0.4-0.1,0.7-0.3,1c0.1-0.7,0.2-1.5,0.1-2.2
		c-0.3-2-0.7-4-1.2-5.9c-3.7-13.1-14.5-22.9-27.9-25.3c-2-0.4-4-0.6-6-0.6C575.7,273,574.9,273,574.9,273z"/>
	<path class="st8" d="M606.2,289.1c-0.7,0.4-1.4,0.7-2.2,1c-1.4,0.5-3.3,1.2-5.5,1.9s-4.2,1.2-5.6,1.6c-0.8,0.2-1.6,0.4-2.4,0.5
		c0.7-0.4,1.5-0.6,2.3-0.8l5.5-1.7l5.5-1.8C604.6,289.5,605.4,289.3,606.2,289.1z"/>
	<path class="st8" d="M599.3,270.8c0.6,3.2,0.7,6.5,0.3,9.7c-0.2-1.6-0.3-3.2-0.3-4.9C599.2,274,599.2,272.4,599.3,270.8z"/>
	<path class="st8" d="M568.2,280.7c1-0.5,2.1-0.8,3.2-1.1c2-0.6,4.7-1.4,7.8-2.1s5.9-1.3,7.9-1.7c1.1-0.2,2.2-0.4,3.3-0.5
		c-1.1,0.3-2.1,0.6-3.3,0.8c-2,0.5-4.8,1.1-7.8,1.8s-5.8,1.5-7.8,2C570.4,280.3,569.3,280.5,568.2,280.7z"/>
	<path class="st3" d="M593.7,311c-3.7-2.8-7.7-3.4-12.4-3.2c-4.7,0.3-9.3,1.5-13.6,3.5c-7.3,3.2-14.2,7.9-18.6,14.6
		s-5.9,15.6-2.6,22.9c0.3,0.8,0.8,1.4,1.5,1.8c0.8,0.2,1.7,0.2,2.5-0.2c8.3-2.7,16.7-5.5,24.4-9.7s14.7-10.2,18.8-17.9
		c1.1-1.8,1.8-3.9,2-6C595.9,314.6,595.2,312.5,593.7,311"/>
	<path class="st8" d="M593.8,310.1c-0.2,0.1-0.4,0.2-0.6,0.2l-1.8,0.6l-1.3,0.4c-0.5,0.2-0.9,0.4-1.5,0.6c-1.1,0.4-2.3,0.9-3.6,1.5
		l-2,0.9c-0.7,0.3-1.4,0.7-2.2,1.1c-1.5,0.8-3,1.7-4.7,2.7c-7,4.3-13.2,9.8-18.4,16.2c-1.2,1.5-2.3,2.9-3.2,4.3
		c-0.5,0.7-1,1.3-1.4,2l-1.2,1.9c-0.8,1.2-1.4,2.4-1.9,3.4l-0.8,1.4l-0.6,1.2l-0.8,1.7c-0.1,0.2-0.2,0.4-0.3,0.6
		c0.1-0.2,0.1-0.4,0.2-0.6l0.7-1.7l0.5-1.2c0.2-0.4,0.5-0.9,0.7-1.4c0.5-1,1.1-2.2,1.9-3.4l1.2-1.9c0.4-0.7,0.9-1.3,1.4-2
		c0.9-1.4,2-2.8,3.2-4.4c5.2-6.5,11.4-12,18.5-16.3c1.7-1,3.2-1.9,4.7-2.6c0.8-0.4,1.5-0.8,2.2-1.1l2.1-0.9c1.3-0.6,2.5-1,3.6-1.4
		c0.5-0.2,1-0.4,1.5-0.5l1.3-0.4l1.8-0.5C593.4,310.2,593.6,310.2,593.8,310.1z"/>
	<path class="st8" d="M565.7,326c-6.4,2.1-12.9,3.9-19.5,5.4c3.2-1.1,6.4-2.1,9.7-2.9C559.1,327.5,562.4,326.6,565.7,326z"/>
	<path class="st8" d="M564.2,345.4c-0.2-0.9-0.2-1.8-0.2-2.7c0-1.7,0-4,0-6.6s0.2-4.9,0.4-6.6c0-0.9,0.1-1.8,0.3-2.7
		c0.1,0.9,0.1,1.8,0,2.8c0,1.9-0.1,4.1-0.2,6.6s-0.1,4.8-0.2,6.6C564.4,343.6,564.3,344.5,564.2,345.4z"/>
	<path class="st8" d="M581.6,336.4c-0.6-3.4-1-6.9-1.1-10.4c-0.4-3.4-0.6-6.9-0.6-10.4c0.6,3.4,0.9,6.9,1.1,10.4
		C581.4,329.4,581.6,332.9,581.6,336.4z"/>
	<path class="st8" d="M560.9,315c0.9-0.1,1.9-0.1,2.8-0.1c1.8,0,4.2,0,6.9,0.1s5.1,0.1,6.9,0.2c1,0,1.9,0.1,2.8,0.2
		c-1,0.1-1.9,0.1-2.9,0.1c-1.8,0-4.2,0-6.9-0.1s-5.1-0.1-6.9-0.2C562.8,315.2,561.8,315.1,560.9,315z"/>
	<path class="st8" d="M601.3,374.7c0-0.2-0.1-0.4-0.1-0.6c0-0.4,0-1-0.1-1.7c-0.1-1.5-0.1-3.6,0-6.2s0.2-5.7,0.5-9.1
		s0.8-7.2,1.5-11.1s1.6-7.6,2.5-10.9s1.8-6.3,2.7-8.7s1.6-4.4,2.2-5.8c0.3-0.6,0.5-1.1,0.7-1.5c0.1-0.2,0.2-0.4,0.3-0.5
		c0,0.2-0.1,0.4-0.2,0.6c-0.2,0.4-0.3,0.9-0.6,1.6c-0.5,1.4-1.2,3.3-2,5.8s-1.7,5.4-2.6,8.8s-1.7,7-2.4,10.9s-1.2,7.6-1.6,11
		s-0.6,6.5-0.7,9.1s-0.1,4.7-0.1,6.1c0,0.7,0,1.2,0,1.7C601.4,374.3,601.4,374.5,601.3,374.7z"/>
	<path class="st8" d="M603.6,346.2c-0.5,0.7-1.1,1.3-1.7,1.9c-1.1,1.1-2.7,2.6-4.5,4.2s-3.5,3-4.8,4c-0.6,0.6-1.4,1.1-2.1,1.5
		c0.6-0.6,1.2-1.2,1.9-1.8l4.7-4.1l4.6-4.1C602.2,347.3,602.9,346.7,603.6,346.2z"/>
	<path class="st8" d="M617.3,357.3c-0.7-0.8-1.3-1.7-1.8-2.6l-4.3-6.3l-4.4-6.2c-0.7-0.8-1.2-1.7-1.8-2.6c0.8,0.7,1.4,1.5,2.1,2.4
		c1.2,1.5,2.8,3.7,4.5,6.1s3.2,4.7,4.2,6.4C616.4,355.4,616.9,356.3,617.3,357.3z"/>
	<path class="st8" d="M610.1,322.4c0.1,0.1-4.5,3.2-10.2,6.9s-10.4,6.6-10.5,6.4s4.5-3.2,10.2-6.9S610,322.3,610.1,322.4z"/>
	<path class="st8" d="M623,336.3c-2.4-2-4.7-4.1-6.9-6.4c-2.3-2.1-4.5-4.4-6.5-6.8c2.4,2,4.7,4.1,6.9,6.4
		C618.7,331.7,620.9,334,623,336.3z"/>
	<path class="st3" d="M626.3,336.1l3.9-0.3c2.8-0.2,5.5-1.1,7.9-2.4c1.2-0.7,2.4-1.3,3.7-1.9c4.9-2,10.3-1.6,15.5-1.9
		c8.6-0.4,16.9-2.6,24.6-6.3c0.5-0.2,0.8-0.6,1.1-1c0.8-1.5-0.7-2.8-2-3.6c-6.6-4.1-13.3-8.2-20.8-10.2s-16-1.7-22.4,2.7
		C630.3,316.4,627.5,327,626.3,336.1"/>
	<path class="st8" d="M683.1,321.8c-0.2-0.1-0.5-0.2-0.7-0.3l-1.9-1c-1.6-0.9-3.9-2.1-6.9-3.5c-3.4-1.7-7-3-10.6-4.1
		c-4.5-1.3-9.2-1.7-13.8-1.1c-4.6,0.5-9,2.4-12.6,5.4c-2.8,2.6-5,5.7-6.5,9.2c-1.4,2.9-2.2,5.4-2.8,7.1l-0.7,2
		c-0.1,0.2-0.2,0.5-0.3,0.7c0-0.2,0.1-0.5,0.2-0.7l0.6-2c0.8-2.5,1.7-4.9,2.7-7.3c1.5-3.6,3.7-6.8,6.6-9.4c3.6-3.1,8.1-5,12.8-5.5
		c4.7-0.6,9.5-0.2,14,1.2c3.7,1.1,7.3,2.5,10.7,4.2c2.9,1.5,5.2,2.8,6.8,3.7l1.8,1.1C682.7,321.6,682.9,321.7,683.1,321.8z"/>
	<path class="st8" d="M673.7,326.9c-0.1,0.1-5.2-3.2-11.5-7.4s-11.2-7.7-11.2-7.8s5.2,3.2,11.5,7.4S673.8,326.8,673.7,326.9z"/>
	<path class="st8" d="M668.2,311.4c-1.2,0.4-2.5,0.7-3.7,0.7c-1.3,0.2-2.6,0.2-3.8,0c1.2-0.2,2.5-0.4,3.8-0.4
		C665.7,311.4,666.9,311.3,668.2,311.4z"/>
	<path class="st8" d="M645.7,308.4c-0.4,1-1,1.8-1.7,2.6c-0.6,0.9-1.3,1.7-2.1,2.4c0.4-1,1-1.8,1.7-2.6
		C644.2,310,644.9,309.1,645.7,308.4z"/>
	<path class="st8" d="M650.3,329.9c-0.9-0.4-1.7-0.8-2.5-1.3c-1.5-0.9-3.5-2.2-5.6-3.8s-4-3-5.4-4.1c-0.8-0.5-1.5-1.2-2.1-1.8
		c0.8,0.4,1.6,1,2.4,1.5l5.5,4c2.1,1.5,4.1,2.9,5.5,3.9C648.9,328.8,649.6,329.3,650.3,329.9z"/>
	<path class="st3" d="M632,352.7c-3.8-1-8.2,2.6-9,6.5s0.7,7.7,2.3,11.2c3.6,7.8,8.9,14.8,15.5,20.3c6.7,5.3,15.1,8.8,23.7,8.7
		c-1.6-7.4,0.4-15-0.5-22.5c-1.6-13.6-12.4-24.2-25.9-25.7C635.7,350.9,633,350.5,632,352.7"/>
	<path class="st8" d="M664.5,399.3c-0.2-0.1-0.4-0.1-0.5-0.3c-0.5-0.3-1-0.6-1.4-0.9c-1.6-1.4-2.8-3-3.7-4.9
		c-0.6-1.2-1.3-2.4-1.9-3.8l-2-4.5c-0.7-1.6-1.6-3.2-2.5-4.8c-1-1.6-2.2-3.2-3.4-4.6c-2.6-3-5.3-5.6-7.7-8.1c-2.2-2.2-4.1-4.5-5.9-7
		c-1.2-1.7-2.1-3.5-2.9-5.5c-0.2-0.7-0.4-1.2-0.5-1.6c-0.1-0.2-0.1-0.4-0.1-0.6c0,0,0.3,0.8,0.8,2.1c0.8,1.9,1.8,3.7,3,5.4
		c1.8,2.5,3.8,4.8,5.9,6.9c2.4,2.5,5.2,5.1,7.8,8.1c1.3,1.5,2.4,3.1,3.4,4.7c0.9,1.6,1.8,3.2,2.5,4.8l2,4.5c0.6,1.4,1.3,2.7,1.8,3.8
		c0.8,1.9,2,3.6,3.5,5C663.8,398.9,664.6,399.3,664.5,399.3z"/>
	<path class="st8" d="M645.2,393.2c0-0.9,0.1-1.7,0.3-2.5c0.3-1.5,0.8-3.7,1.4-6s1.3-4.4,1.9-5.8c0.2-0.8,0.6-1.6,1-2.3
		c-0.1,0.8-0.4,1.7-0.7,2.5c-0.5,1.5-1.1,3.6-1.7,5.9s-1.2,4.4-1.6,5.9C645.7,391.6,645.5,392.4,645.2,393.2z"/>
	<path class="st8" d="M663.8,375.2c-0.9-0.1-1.8-0.3-2.6-0.6c-1.6-0.4-3.8-1-6.3-1.6s-4.7-1-6.4-1.3c-0.9-0.1-1.8-0.3-2.7-0.6
		c0.9,0,1.8,0,2.7,0.2c1.7,0.2,3.9,0.6,6.4,1.2s4.7,1.2,6.3,1.7C662.2,374.4,663,374.8,663.8,375.2z"/>
	<path class="st8" d="M631.3,380.4c0-1,0.2-2,0.4-2.9c0.3-1.8,0.9-4.2,1.6-6.9s1.4-5.1,2-6.8c0.3-1,0.6-1.9,1.1-2.8
		c-0.2,1-0.4,1.9-0.7,2.9c-0.5,1.7-1.2,4.1-1.9,6.8s-1.3,5.1-1.7,6.9C631.8,378.5,631.6,379.5,631.3,380.4z"/>
	<path class="st8" d="M655.2,359.5c0,0.1-4.7-0.2-10.4-0.9s-10.4-1.2-10.4-1.4s4.7,0.2,10.4,0.8
		C648.3,358.4,651.8,358.8,655.2,359.5z"/>
	<path class="st9" d="M651.8,416.1c0,0.1-16.4,0.3-36.7,0.3s-36.7-0.1-36.7-0.3s16.4-0.3,36.7-0.3S651.8,416,651.8,416.1z"/>
	<path class="st9" d="M640.4,437.3c0,0.1-11.1,0.3-24.7,0.3s-24.7-0.1-24.7-0.3s11.1-0.3,24.7-0.3S640.4,437.1,640.4,437.3z"/>
	<path class="st9" d="M640,440.3c0,0.1-10.9,0.3-24.3,0.3s-24.3-0.1-24.3-0.3s10.9-0.3,24.3-0.3S640,440.1,640,440.3z"/>
	<path class="st9" d="M640.8,434.8c0,0.1-11.5,0.3-25.6,0.3s-25.6-0.1-25.6-0.3s11.4-0.3,25.6-0.3S640.8,434.6,640.8,434.8z"/>
</g>
<g id="freepik--Floor--inject-68">
	<path class="st8" d="M679.9,467.6c0,0.1-136.5,0.3-304.9,0.3s-304.9-0.1-304.9-0.3s136.5-0.3,304.9-0.3S679.9,467.4,679.9,467.6z"
		/>
</g>
<g id="freepik--Character--inject-68">
	<path class="st3" d="M207.1,302.1c0,0,13.3,3.3,15.5,30.7c1.3,16,2.9,32.4,2.9,32.4l29.3,6.9l5.1,16l-38.3,7.5
		c-10.6,0-22.3-9.2-22-19.8l-0.4-36.9L207.1,302.1z"/>
	<path class="st3" d="M136.8,302.3l-5.9,41.2c-0.9,6-0.4,12,1.3,17.8l7.3,25.1c0,0-9.9,12.8-1.7,17.7c1.6,1,45.6,3,45.6,3l21.3-1.5
		l2.9-61l-0.4-42.5c0,0-14.8-5.4-20.6-6c-10.8-0.7-21.6-0.6-32.3,0.3L136.8,302.3z"/>
	<path class="st5" d="M205,344.2c-0.5-0.1-1-0.1-1.6-0.1c-2.1,0-4-1.3-4.8-3.2c-0.3,1-0.7,2-1.4,2.8c-0.7,0.9-1.8,1.2-2.8,0.9
		c-1.1-0.4-1.6-1.6-2.4-2.4c-1.8-1.6-4.5-1.4-6,0.4c-0.3,0.3-0.6,0.7-0.7,1.2c-0.4,1.2-0.6,2.9-1.9,2.9c-1.4,0-1.4-2.3-2.5-3.2
		s-2.8,0-3.8,1.1s-2,2.5-3.5,2.4s-2.4-1.3-2.8-2.6s-0.4-2.7-0.9-4s-1.7-2.5-3-2.3c-1.7,0.3-2.3,2.3-2.7,3.9s-1.7,3.6-3.3,3.1
		c-2.4-0.6-1.4-4.8-3.5-6c-1.5-0.9-3.4,0.4-4.1,1.9s-1,3.3-1.9,4.8s-3.3,2.2-4.3,0.9c-0.4-0.5-0.5-1.1-0.9-1.5
		c-0.9-0.7-2.1-0.7-3-0.1c-1,0.5-1.8,1.3-2.8,1.8s-3.3,0-3.8-1l-3,5.3c-0.5,1.1-1.8,2.5-1,3c0.7,0.4,1.7,0.1,2-0.7
		c0-0.1,0.1-0.1,0.1-0.2c1.2,0.7,2.7,0.6,3.7-0.3c0.7-0.7,1.4-1.8,2.4-1.5c0.5,0.1,0.8,0.6,1.1,1c1.3,1.3,3.4,1.5,4.9,0.4
		c0.7-0.7,1.4-1.4,2-2.1c0.6-0.8,1.7-1.1,2.6-0.8c1.1,0.5,1.3,1.9,1.2,3s-0.3,2.4,0.3,3.4c0.8,1.3,2.8,1.3,4.1,0.5
		c1.2-0.9,2.3-1.9,3.3-3c1.1-1,2.5-2,4-1.7c1.7,0.4,3,2.3,4.8,2.1c1.2-0.1,2.1-1.3,3.4-1.4s2.4,1.2,3.7,1.6c2.9,0.9,5.6-2.7,8.6-2.5
		c2.8,0.3,5,3.7,7.6,2.8c2.3-0.9,2.3-4.4,4.4-5.8c1.2-0.9,2.9-0.7,4.3-0.5s3.1,0.3,4.3-0.5S206.4,344.7,205,344.2z"/>
	<path class="st5" d="M207.3,341.8c-0.4-0.8,0-1.8,0.8-2.2c0.6-0.3,1.2-0.2,1.7,0.2c0.6,0.6,0.9,1.4,0.9,2.3c0,0.8,0.1,1.7,0.4,2.4
		c0.3,0.7,1.2,1.1,2,0.7c0,0,0.1,0,0.1-0.1c0.5-0.4,0.5-1.2,0.6-1.8s0.4-1.4,1.1-1.5s1.1,0.7,1.2,1.4s0.2,1.4,0.7,1.8
		c0.7-0.2,0.9-1.1,1.1-1.9s0.9-1.6,1.5-1.2c0.3,0.2,0.4,0.6,0.6,0.9s0.5,0.7,0.9,0.5c0.6-0.2,0.3-1.4,0.9-1.6c0.4-0.1,0.8,0.3,1,0.6
		c0.5,0.6,0.7,1.3,0.8,2.1c0.1,0.8-0.5,1.5-1.3,1.6c-0.4-0.1-0.9-0.2-1.3-0.3c-1-0.1-1.9,0.4-2.4,1.2c-0.5,0.8-0.8,1.7-0.9,2.7
		c-1.2-1.1-3.1-1-4.2,0.2c0,0,0,0,0,0.1c-0.8,1.1-1.1,2.9-2.4,3.2c-0.9,0.1-1.8-0.5-2.1-1.4c-0.2-0.9-0.2-1.8,0-2.7l-1.9,1.5
		l-0.4-2.4"/>
	<g class="st11">
		<path d="M134.5,399.1l23.5-7.3l15-1.4c0,0,4.3,7.5,8.1,7.1c2.2-0.2,4.4-0.9,6.4-2c0,0,1.4,7.8,5.2,7.3s1.9-24,1.9-24l-39.7-8
			l-23.5,6.1L134.5,399.1z"/>
	</g>
	<path class="st3" d="M136.8,302.3c0,0-12.2,4.3-16.8,11.2c-6.1,9.1-23.2,35.4-31.3,55.9c-2.5,6.4-0.4,16.3,3.3,22.1l0,0
		c5,7.8,14.5,11.4,23.3,8.8l42.9-12.1l4-24.1l-37.4,1.6l10.5-17.2L136.8,302.3z"/>
	<path class="st5" d="M103.4,340.4c0.9-1,2.4-1.1,3.4-0.2c0.1,0.1,0.3,0.3,0.4,0.4c0.7,1,0.7,2.8,1.9,3c0.9,0.2,1.6-0.7,2.2-1.4
		s1.7-1.3,2.3-0.7s0.3,1.8,1,2.3s1.4-0.2,1.9-0.9s1-1.4,1.7-1.3c1.6,0.1,1.2,3.4,2.8,3.4c0.8,0,1.3-0.9,2-1.2c1-0.4,2,0.3,2.8,1
		c0.5,0.4,1,0.9,1.3,1.5c0.3,0.6,0.3,1.4-0.2,1.9c-0.7,0.8-1.9,0.4-2.8-0.1s-1.8-1.1-2.8-0.9c-1.7,0.4-2.3,3.2-4,3
		c-1.6-0.2-2-2.7-3.5-2.9s-2.8,2.4-4.3,1.8c-0.7-0.3-1-1.2-1.6-1.5c-0.7-0.3-1.4-0.3-2.1,0.1c-0.6,0.4-1.3,0.7-1.9,1
		c-0.7,0.3-1.5,0.1-2-0.5c-0.4-0.6,0.1-1.6,0.8-1.5l-1.7-0.3v-1.4"/>
	<path class="st8" d="M207,326.2c0.1,0.6,0.1,1.3,0.1,1.9c0,1.2,0.1,3,0.1,5.3c0,4.4-0.1,10.6-0.4,17.3s-0.9,12.9-1.3,17.3
		c-0.2,2.2-0.4,4-0.6,5.2c0.4,17.3-0.3,1.9-0.3,1.9c0-0.6,0-1.3,0.1-1.9c0.1-1.3,0.2-3.1,0.4-5.2c0.3-4.4,0.8-10.5,1.1-17.3
		s0.5-12.9,0.5-17.3c0-2.1,0.1-3.9,0.1-5.3C206.9,327.5,206.9,326.8,207,326.2z"/>
	<path class="st8" d="M209.4,303.4c0.1,0.1-1.6,2.3-2.7,5.5s-1.4,6-1.6,6c-0.1-2.1,0.2-4.2,1.1-6.2
		C206.7,306.7,207.9,304.9,209.4,303.4z"/>
	<path class="st8" d="M141.4,324.8c-0.1,0-0.2-1.1-0.6-2.9c-0.5-2.3-1.4-4.4-2.6-6.4c-1.2-2-2.7-3.8-4.4-5.4
		c-1.3-1.2-2.3-1.8-2.2-1.9c0.3,0.1,0.5,0.2,0.7,0.4c0.6,0.4,1.2,0.8,1.8,1.3c3.7,3.1,6.2,7.3,7.1,12c0.1,0.7,0.2,1.4,0.3,2.1
		C141.4,324.2,141.4,324.5,141.4,324.8z"/>
	<path class="st8" d="M124.4,365.9c-2.3,0.8-4.6,1.7-6.8,2.8c-2.1,1.3-4.1,2.7-6.1,4.2c0.4-0.6,0.9-1.2,1.5-1.6
		c1.3-1.2,2.8-2.2,4.3-3.1c1.6-0.9,3.2-1.5,4.9-2C123,366,123.7,365.9,124.4,365.9z"/>
	<path class="st8" d="M142.2,334.2c-0.1,0.5-0.3,0.9-0.5,1.3c-0.4,0.8-0.9,2-1.7,3.5c-1.4,2.9-3.5,6.9-5.9,11.1s-4.7,8.1-6.5,10.8
		c-0.9,1.4-1.6,2.5-2.1,3.2c-0.2,0.4-0.5,0.8-0.8,1.1c0.2-0.4,0.4-0.8,0.7-1.2l2-3.3c1.7-2.8,3.9-6.6,6.3-10.9s4.5-8.2,6.1-11.1
		c0.7-1.4,1.3-2.5,1.8-3.4C141.7,335,142,334.6,142.2,334.2z"/>
	<path class="st8" d="M111.5,401.1l0.2-0.1l0.7-0.2l2.7-0.8l9.9-2.8l33.2-9.2l-0.2,0.2c0.4-2.3,0.8-4.7,1.2-7.2
		c1-6,1.9-11.7,2.8-16.9l0.2,0.3c-9.2-0.2-18.5,0.2-27.6,1l-8,0.7l-2.1,0.2h-0.6h-0.2h0.2l0.5-0.1l2.1-0.2c1.8-0.2,4.5-0.5,8-0.8
		c9.2-1,18.5-1.4,27.7-1.2h0.3l-0.1,0.3c-0.9,5.3-1.8,11-2.8,16.9c-0.4,2.5-0.8,4.9-1.2,7.2v0.2h-0.2l-33.3,9l-9.9,2.6l-2.7,0.7
		l-0.7,0.2C111.7,401,111.6,401,111.5,401.1z"/>
	<path class="st3" d="M181.8,443.7c0,0,43.6,12.1,45.3,12.7c2.6,0.9,2.2,10.5-1.9,10.4c-1.9-0.1-33.5,1.2-37.5,0.9s-16-5-16-5
		L181.8,443.7z"/>
	<path class="st8" d="M199.9,460.4c0.2,0,0.5-2.3,1.9-4.7s3.2-3.8,3.1-4s-2.2,1.1-3.7,3.6S199.8,460.4,199.9,460.4z"/>
	<path class="st8" d="M195.4,458.3c0.2,0,0.6-2,1.8-4.3s2.5-3.9,2.4-4s-1.8,1.3-3,3.7S195.2,458.3,195.4,458.3z"/>
	<path class="st8" d="M191.1,457.2c0.2,0,0.1-2.2,1-4.6s2.5-3.9,2.4-4.1s-2,1.2-3.1,3.8S191,457.2,191.1,457.2z"/>
	<path class="st8" d="M191.9,451.5c0.4-1,0.5-2.1,0.5-3.2c0-1.2-0.2-2.4-0.4-3.6c-0.2-0.7-0.4-1.3-0.6-2c-0.1-0.4-0.4-0.8-0.7-1.1
		c-0.5-0.3-1.1-0.3-1.5,0.1c-0.3,0.3-0.5,0.8-0.6,1.2c0,0.4-0.1,0.8-0.1,1.1c0,0.7,0.1,1.4,0.3,2.1c0.3,1.2,0.7,2.3,1.3,3.3
		c0.5,1,1.2,1.9,2,2.6c0.1-0.1-0.6-1.1-1.5-2.9c-0.5-1-0.9-2.1-1.1-3.2c-0.1-0.7-0.2-1.3-0.2-2c0-0.7,0-1.5,0.4-1.8
		c0.2-0.2,0.4-0.2,0.6,0c0.2,0.2,0.4,0.5,0.5,0.8c0.3,0.6,0.5,1.3,0.7,1.9c0.3,1.1,0.5,2.3,0.6,3.4
		C192,450.3,191.8,451.5,191.9,451.5z"/>
	<path class="st8" d="M191.8,451.1c-0.9-0.4-1.9-0.5-2.8-0.5c-1,0-2.1,0.1-3.1,0.4c-0.6,0.1-1.2,0.4-1.8,0.7c-0.8,0.4-1.2,1.2-1,2
		c0.2,0.8,0.8,1.4,1.6,1.5c0.6,0.2,1.3,0.2,1.9,0c1-0.3,2-0.7,2.8-1.4c0.8-0.5,1.5-1.2,2-2c-0.8,0.5-1.6,1-2.3,1.6
		c-0.8,0.6-1.7,0.9-2.7,1.2c-0.5,0.1-1.1,0.1-1.6,0c-0.5-0.1-0.9-0.5-1.1-1c-0.1-0.5,0.2-1,0.6-1.2c0.5-0.3,1-0.5,1.6-0.6
		c1-0.3,1.9-0.4,2.9-0.5C190.8,451,191.8,451.2,191.8,451.1z"/>
	<path class="st8" d="M206.6,460.8c0.2,0,0-1.9,0.9-3.9s2.3-3.3,2.1-3.4s-1.9,0.9-2.8,3.1S206.4,460.9,206.6,460.8z"/>
	<path class="st8" d="M176.2,462.8c0.5,0.3,1.1,0.6,1.7,0.8c1.6,0.6,3.2,1.1,4.9,1.5c5.5,1.2,11,1.7,16.6,1.6
		c6.5-0.1,12.4-0.4,16.7-0.5l5.1-0.3c0.6,0,1.2-0.1,1.9-0.2c-0.6-0.1-1.2-0.1-1.9-0.1h-5.1l-16.7,0.3c-5.5,0.1-11.1-0.3-16.5-1.4
		C178.7,463.8,176.3,462.7,176.2,462.8z"/>
	<path class="st8" d="M174.9,463.8c0.1,0.1,1.3-0.6,3.3-1.5c2.6-1.2,5.4-1.7,8.2-1.4c3.3,0.5,5.6,2.7,7.1,4.2
		c0.8,0.9,1.6,1.8,2.5,2.6c-0.6-1.1-1.3-2-2.1-2.9c-0.9-1-1.8-1.9-2.9-2.7c-1.3-1-2.9-1.6-4.5-1.9c-3-0.4-6,0.2-8.6,1.6
		C176.9,462.4,175.8,463,174.9,463.8z"/>
	<g class="st11">
		<path d="M181.8,443.7c0,0,43.6,12.1,45.3,12.7c2.6,0.9,2.2,10.5-1.9,10.4c-1.9-0.1-33.5,1.2-37.5,0.9s-16-5-16-5L181.8,443.7z"/>
	</g>
	<path class="st8" d="M137.7,404.2l-8.8,18.1c0,0-47.2-14.3-59.1-13.7s-21.6,5.4-24,15.1s-2.6,23,11.3,32.3s83,14.4,83,14.4h27.3
		l44.6-58.8l-7.2-5.8L137.7,404.2z"/>
	<path class="st9" d="M152.6,444c-0.3,0-0.6,0-0.9,0c-0.6,0-1.5,0-2.6-0.2c-3.1-0.4-6.2-1-9.3-1.9c-4.5-1.4-8.8-3.1-13-5.1
		c-4.8-2.3-9.9-5-15.2-7.9c-5-2.7-10.2-5.2-15.4-7.4c-4.3-1.8-8.8-3.1-13.3-4c-3.1-0.6-6.2-0.9-9.3-0.8c-1.1,0-2,0.1-2.6,0.1
		c-0.3,0-0.6,0-0.9,0c0.3-0.1,0.6-0.1,0.9-0.1c0.6,0,1.4-0.2,2.6-0.2c3.2-0.1,6.3,0.1,9.4,0.6c4.6,0.8,9.1,2.2,13.4,3.9
		c5.3,2.2,10.5,4.6,15.5,7.4c5.3,2.9,10.4,5.6,15.2,7.9c4.2,2.1,8.5,3.8,12.9,5.2c3,0.9,6.1,1.6,9.2,2.1c1.1,0.2,2,0.2,2.5,0.3
		C152,443.9,152.3,443.9,152.6,444z"/>
	<path class="st8" d="M184.9,465.5c8.8-3.4,57-18.8,74.1-38.5c14.2-16.4-8.4-31.1-8.4-31.1s-15.9-0.5-21.1,0s-81,51.7-81,51.7
		s13.2,25.8,12.9,26.8L184.9,465.5z"/>
	<path class="st9" d="M208.6,408.3c0,0-0.1,0.1-0.2,0.2l-0.6,0.4l-2.5,1.6l-9.2,5.8l-30.3,19.1l-16.5,10.3l0.1-0.3l8.6,20.8
		c1,2.5,1.9,4.5,2.4,6l0.6,1.6c0.1,0.2,0.1,0.4,0.2,0.6c-0.1-0.2-0.2-0.3-0.3-0.5c-0.2-0.4-0.4-0.9-0.7-1.6l-2.6-5.9
		c-2.2-5.1-5.3-12.3-8.8-20.7l-0.1-0.2l0.2-0.1l16.5-10.3l30.4-19l9.3-5.7l2.5-1.5l0.7-0.4L208.6,408.3z"/>
	<path class="st9" d="M142,431.1c-0.8-0.2-1.5-0.4-2.2-0.8c-1.7-0.8-3.4-1.8-4.9-3c-1.6-1.1-3-2.4-4.3-3.8c-0.6-0.5-1.1-1.2-1.5-1.9
		c0.1-0.1,2.6,2.6,6.2,5.2S142.1,430.9,142,431.1z"/>
	<path class="st9" d="M168.2,409.7c0.1,1,0.2,2,0.1,3c0,1.9,0.1,4.4,0.4,7.3s0.6,5.4,1,7.2c0.2,1,0.4,2,0.4,3
		c-0.4-0.9-0.7-1.9-0.8-2.9c-0.5-2.4-0.9-4.8-1.1-7.2c-0.2-2.4-0.3-4.9-0.2-7.3C168,411.7,168,410.7,168.2,409.7z"/>
	<path class="st9" d="M173.9,409.1c0,0,0.2-0.1,0.6,0.1c0.5,0.2,1,0.6,1.3,1c0.5,0.7,0.6,1.6,0.4,2.4c-0.4,1-1.4,1.7-2.4,1.7
		c-1.1,0.1-2.1-0.5-2.6-1.5c-0.3-0.8-0.2-1.7,0.3-2.4c0.3-0.5,0.8-0.8,1.3-1c0.4-0.1,0.6,0,0.6,0c-0.7,0.2-1.2,0.6-1.6,1.2
		c-0.4,0.6-0.4,1.3-0.2,2c0.4,0.8,1.2,1.2,2.1,1.1c0.9,0,1.7-0.5,2-1.3c0.2-0.7,0.1-1.4-0.2-2C175,409.8,174.5,409.4,173.9,409.1z"
		/>
	<path class="st9" d="M150.6,407.1c0.2,0.3,0.3,0.6,0.4,0.9c0.3,0.9,0.4,1.8,0.4,2.7c0,1.4-0.3,2.7-0.9,3.9
		c-1.4,3.1-4.4,5.2-7.8,5.3c-1.4,0.1-2.7-0.2-4-0.7c-0.8-0.3-1.6-0.8-2.3-1.4c-0.3-0.2-0.5-0.4-0.7-0.7c1,0.7,2,1.3,3.1,1.7
		c1.2,0.4,2.5,0.6,3.8,0.5c3.2-0.1,6.1-2.1,7.4-5c0.6-1.2,0.9-2.4,0.9-3.7C150.9,409.5,150.8,408.3,150.6,407.1z"/>
	<path class="st9" d="M195.6,416.1c-0.6,0.1-1.2,0-1.8-0.3c-2.9-1-4.8-3.9-4.5-6.9c0-0.6,0.2-1.2,0.5-1.7c0,0.6,0,1.2-0.1,1.8
		c0,2.8,1.7,5.4,4.3,6.5C194.9,415.9,195.6,416,195.6,416.1z"/>
	<path class="st12" d="M255.1,373.3c0,0,10.4-7.7,12.2-8.1s15.6,1.4,16.5,2.2s13.7,10.5,11.2,11.3s-11.4-6-11.4-6h-1.7
		c0,0,7.8,5.7,9,7.7c1.1,1.8-0.5,3.5-1.9,2.5s-8.1-6.2-8.7-6.1s7,6.1,7.6,7.1c0.9,1.4-0.1,3.6-1.6,2.7c-0.9-0.5-7.8-6.7-7.8-6.7
		s5.1,5.7,5.4,6.5c0.5,1.4-1,2.4-2.2,1.4c-0.8-0.7-4.2-5.1-5.3-6c0,0-1.3-0.3-3.6,1.5s-13.1,3.9-13.1,3.9L255.1,373.3z"/>
	<path class="st12" d="M258.2,375.1c0.6,1.2,1.9,1.9,3.3,1.7c1.3-0.1,2.6-0.6,3.9-0.8c3.9-0.5,7.8,2.1,11.6,1.3
		c0.5-0.1,1.2-0.4,1.2-0.9s-0.5-0.8-1-1.1l-11.7-5.7"/>
	<path class="st13" d="M265.5,369.7c0.5,0.1,0.9,0.3,1.3,0.5c0.8,0.4,2,0.9,3.5,1.6l5.2,2.4l1.5,0.7c0.5,0.3,1.2,0.4,1.5,1.2
		c0.1,0.4,0,0.9-0.4,1.2c-0.3,0.2-0.6,0.4-1,0.5c-0.6,0.1-1.3,0.2-1.9,0.1c-2.6-0.1-4.8-1-6.9-1.4c-1-0.2-2-0.2-2.9-0.1
		c-0.9,0.1-1.8,0.4-2.6,0.5c-1.3,0.4-2.7,0.2-3.9-0.5c-0.8-0.6-0.8-1.2-0.8-1.2s0.2,0.5,1,1c1.1,0.6,2.4,0.7,3.6,0.3
		c0.8-0.2,1.6-0.5,2.6-0.6c1-0.1,2.1-0.1,3.1,0.1c2.2,0.3,4.4,1.2,6.8,1.3c0.6,0,1.1,0,1.7-0.2c0.5-0.1,0.9-0.4,0.8-0.7
		s-0.6-0.6-1.1-0.8l-1.5-0.7l-5.1-2.6c-1.4-0.7-2.6-1.4-3.4-1.8C266.3,370.2,265.9,370,265.5,369.7z"/>
	<path class="st13" d="M294.9,378.9c-1,0-2-0.2-2.9-0.6c-1-0.4-2-0.8-3-1.4c-1-0.7-2.1-1.5-3.3-2.3l-2.4-1.7l0.2,0.1
		c-4.1-0.6-7.1-1.1-7-1.2s3,0.1,7.1,0.5h0.1l0.1,0.1l2.4,1.7l3.2,2.3c0.9,0.6,1.8,1.1,2.8,1.5C293.8,378.5,294.9,378.8,294.9,378.9z
		"/>
	<path class="st3" d="M151.1,451c0,0-43.6,12.1-45.3,12.7c-2.6,0.9-2.2,10.5,1.9,10.4c1.9-0.1,33.5,1.2,37.4,0.9s14.7-4.5,14.7-4.5
		L151.1,451z"/>
	<path class="st8" d="M132.9,467.6c-0.2,0-0.5-2.3-1.9-4.7s-3.2-3.8-3.1-4s2.2,1.1,3.7,3.6S133.1,467.6,132.9,467.6z"/>
	<path class="st8" d="M137.4,465.6c-0.2,0-0.6-2-1.8-4.3s-2.5-3.9-2.4-4s1.8,1.3,3,3.7S137.6,465.5,137.4,465.6z"/>
	<path class="st8" d="M141.7,464.4c-0.2,0-0.1-2.2-1-4.6s-2.5-3.9-2.4-4.1s2,1.2,3.1,3.8S141.9,464.5,141.7,464.4z"/>
	<path class="st8" d="M140.9,458.8c-0.4-1-0.5-2.1-0.5-3.2c0-1.2,0.2-2.4,0.4-3.5c0.2-0.7,0.4-1.3,0.6-2c0.1-0.4,0.4-0.8,0.7-1.1
		c0.4-0.3,1.1-0.3,1.5,0.1c0.3,0.3,0.5,0.8,0.6,1.2c0,0.4,0,0.8,0,1.1c0,0.7-0.1,1.4-0.3,2.1c-0.3,1.2-0.8,2.3-1.4,3.3
		c-0.5,1-1.1,1.9-1.9,2.6c-0.1-0.1,0.6-1.1,1.5-2.9c0.5-1,0.9-2.1,1.1-3.2c0.1-0.7,0.2-1.3,0.2-2c0-0.7,0-1.5-0.4-1.8
		c-0.2-0.1-0.4-0.1-0.6,0c-0.2,0.2-0.4,0.5-0.5,0.8c-0.3,0.6-0.5,1.3-0.7,1.9c-0.3,1.1-0.5,2.3-0.6,3.4
		C140.9,457.5,141.1,458.8,140.9,458.8z"/>
	<path class="st8" d="M141,458.4c0.9-0.4,1.9-0.5,2.8-0.5c1,0,2.1,0.1,3.1,0.4c0.6,0.1,1.2,0.4,1.8,0.7c0.7,0.4,1.2,1.2,1,2
		c-0.2,0.8-0.8,1.4-1.6,1.6c-0.7,0.2-1.3,0.2-2,0c-1-0.3-2-0.7-2.8-1.4c-0.8-0.5-1.5-1.2-2-2c0.8,0.5,1.6,1,2.3,1.6
		c0.8,0.5,1.7,0.9,2.7,1.1c0.5,0.1,1.1,0.1,1.6,0c0.5-0.1,0.9-0.5,1.1-1c0.1-0.5-0.2-1-0.6-1.2c-0.5-0.3-1-0.5-1.6-0.6
		c-1-0.3-1.9-0.4-2.9-0.5C142.1,458.3,141,458.5,141,458.4z"/>
	<path class="st8" d="M126.2,468.1c-0.2,0,0-1.9-0.9-3.9s-2.3-3.2-2.1-3.4s1.9,0.9,2.8,3.1S126.4,468.2,126.2,468.1z"/>
	<path class="st8" d="M156.6,470.1c-0.5,0.3-1.1,0.6-1.7,0.8c-1.6,0.6-3.2,1.1-4.9,1.5c-5.5,1.2-11,1.7-16.6,1.6
		c-6.5-0.1-12.4-0.4-16.7-0.5l-5-0.3c-0.6,0-1.2-0.1-1.8-0.2c0.6-0.1,1.2-0.1,1.9-0.1h5l16.7,0.3c5.5,0.1,11.1-0.3,16.6-1.3
		C154.1,471,156.6,470,156.6,470.1z"/>
	<path class="st8" d="M157.9,471.1c-1.1-0.4-2.2-0.9-3.3-1.5c-2.6-1.2-5.4-1.7-8.2-1.4c-3.3,0.5-5.6,2.7-7.1,4.2
		c-0.8,0.9-1.6,1.8-2.5,2.6c0.6-1.1,1.3-2,2.1-2.9c0.9-1,1.8-1.9,2.9-2.7c1.3-1,2.9-1.6,4.5-1.9c3-0.4,6,0.2,8.6,1.6
		C156,469.6,157,470.3,157.9,471.1z"/>
	<path class="st8" d="M114.2,473c-0.1-0.1,0.3-0.6,0.6-1.6c0.9-2.7,0.4-5.6-1.4-7.8c-0.7-0.8-1.2-1.2-1.2-1.3c0.6,0.2,1.1,0.5,1.5,1
		c1,1.1,1.7,2.4,2,3.9c0.3,1.5,0.1,3-0.5,4.4C114.8,472.5,114.3,473,114.2,473z"/>
	<path class="st12" d="M196.2,376.4c-3.7-1.1-2-5.2-8.7-7.4c-5-1.7-10.4-4.8-25.2-3.1l-3.4,20.4l14.2-3.8l4.1,9.2
		c0.8,1.9,3,2.7,4.8,1.9c0,0,0.1,0,0.1,0l7.2-3.5c0,0,2,9.9,2.6,10.3c1,0.6,2.3,0.3,2.9-0.6c0.3-0.4,0.4-0.9,0.3-1.4
		c-0.3-1.3-1-18.5-1-18.5s5.5,1.5,5.1-0.6C199.3,379.2,199.8,377.5,196.2,376.4z"/>
	<path class="st13" d="M180.8,394.3c0.1-0.4,0.3-0.8,0.5-1.1c0.3-0.9,0.5-1.9,0.4-2.8c-0.1-1-0.4-1.9-0.9-2.7c-0.4-0.6-0.7-1-0.7-1
		c0.4,0.2,0.7,0.5,0.9,0.9c0.6,0.8,1,1.8,1.1,2.8c0.1,1-0.1,2.1-0.5,3C181.2,394,180.9,394.4,180.8,394.3z"/>
	<path class="st13" d="M185.3,391.9c0.6-2.3,0.1-4.7-1.2-6.6c0,0,0.4,0.2,0.7,0.8c0.5,0.7,0.8,1.5,1,2.4c0.2,0.8,0.1,1.7-0.1,2.5
		C185.7,391.3,185.6,391.6,185.3,391.9z"/>
	<path class="st13" d="M188.5,384c0,0,0.3,0.2,0.5,0.7c0.6,1.3,0.7,2.8,0.1,4.2c-0.2,0.5-0.4,0.8-0.5,0.8c0.3-0.9,0.4-1.9,0.4-2.8
		C189,385.8,188.8,384.9,188.5,384z"/>
	<path class="st9" d="M235.6,405.8l-73.4-1.8c-0.8,0-1.4-0.6-1.4-1.4l0,0c0-0.8,0.6-1.4,1.4-1.4c0,0,0,0,0,0l40.5-0.5l16-49.5
		c0.5-1.7,2.1-2.8,3.9-2.7l61.4,1.7c2.2,0.1,3.9,2,3.8,4.2c0,0.4-0.1,0.8-0.2,1.2l-19.3,51.2L235.6,405.8"/>
	<path class="st5" d="M251.6,376.1c-0.7-1.3-3.8-1.8-5.2-0.7c-0.9,0.5-1.6,1.4-1.9,2.5c-0.4,1.7,0.5,3.4,2.1,4.1
		c1.6,0.4,3.3-0.3,4.3-1.6C252,379.2,252.2,377.5,251.6,376.1z"/>
	<path class="st8" d="M192.3,226.2c0.8-1.1,2.5-0.1,3.1,1.1s0.8,2.7,2,3.3c1.6,0.8,3.9-0.6,4.9,0.8c0.7,1.1-0.4,2.6,0,3.9
		c0.6,2.3,4.5,1.8,5.7,3.8c0.7,1.3,0,2.8-0.6,4.1s-0.7,3.1,0.5,3.9s3-0.1,4,0.9c1.3,1.3-0.7,3.5-0.3,5.3c0.3,1.3,1.8,2,3.1,2.3
		s2.8,0.5,3.7,1.5c1.9,2.3-0.9,5.8-0.1,8.7c0.5,1.8,2.3,3.2,1.9,5c-0.5,2.3-4.2,2.6-4.7,4.8c-0.4,1.9,1.7,4.1,0.5,5.7
		s-3.8,0.1-5.5,1c-1.9,1.1-1.6,4.7-3.7,5.2c-1,0.2-2-0.3-2.9-0.2c-2.4,0.4-3,4.5-5.4,4.3c-1.4-0.1-2.5-1.8-3.9-1.4s-1.5,2.2-2.7,3
		c-1.8,1.1-3.9-1.2-6-1.3c-1.3-0.1-2.6,0.8-3.9,0.6c-1.3-0.4-2.2-1.4-2.4-2.7c-0.2-1.3-0.1-2.5,0.1-3.8c0.8-7-0.4-14.1-3.5-20.4"/>
	<path class="st12" d="M185.5,301l-0.2-11c0,0,10.9-1.6,13.4-15.7c1.2-7,1.1-18.6,0.7-28c-0.5-10.4-11.8-21.4-20.3-20.6l-25.1,9v4.6
		l0.8,62.3c0.1,8.4,7,15.2,15.4,15.2l0,0c8.5,0,15.4-6.9,15.4-15.4C185.5,301.2,185.5,301.1,185.5,301z"/>
	<path class="st8" d="M195,256.1c0,1-0.8,1.8-1.8,1.8c-1,0.1-1.8-0.7-1.8-1.6c0,0,0,0,0,0c0-1,0.8-1.8,1.8-1.8
		C194.1,254.4,194.9,255.1,195,256.1C195,256.1,195,256.1,195,256.1z"/>
	<path class="st8" d="M196.7,252.3c-0.2,0.2-1.6-0.8-3.5-0.8s-3.4,0.9-3.6,0.7s0.1-0.5,0.8-1c0.9-0.6,1.9-0.9,2.9-0.8
		c1,0,2,0.4,2.8,1C196.6,251.7,196.8,252.2,196.7,252.3z"/>
	<path class="st8" d="M177,255.6c0,1-0.8,1.8-1.8,1.8c-1,0.1-1.8-0.7-1.8-1.6c0,0,0,0,0-0.1c0-1,0.8-1.8,1.8-1.8
		C176.1,253.9,176.9,254.6,177,255.6C177,255.6,177,255.6,177,255.6z"/>
	<path class="st8" d="M177.5,252.3c-0.2,0.2-1.6-0.8-3.5-0.8s-3.4,0.9-3.6,0.7s0.1-0.5,0.8-1c0.9-0.6,1.9-0.9,2.9-0.8
		c1,0,2,0.4,2.8,1C177.4,251.8,177.6,252.2,177.5,252.3z"/>
	<path class="st8" d="M184.4,266.9c1-0.3,2.1-0.5,3.2-0.5c0.5,0,1-0.1,1.1-0.5c0-0.5-0.1-1-0.3-1.5c-0.4-1.2-0.9-2.5-1.4-3.8
		c-1.9-5.4-3.4-9.9-3.1-10s2,4.3,3.9,9.7l1.4,3.9c0.3,0.6,0.4,1.3,0.2,2c-0.2,0.4-0.5,0.6-0.8,0.7c-0.3,0.1-0.6,0.1-0.9,0.1
		C186.5,267.1,185.4,267.1,184.4,266.9z"/>
	<path class="st13" d="M185.3,290.1c-6.7,0-13.2-1.9-18.9-5.4c0,0,4.7,9.9,18.9,8.8L185.3,290.1z"/>
	<path class="st3" d="M183.4,271.6c-0.7-1-1.9-1.5-3.1-1.4c-0.9,0.1-1.7,0.5-2.2,1.1c-0.6,0.7-0.6,1.6-0.2,2.3
		c0.6,0.7,1.6,1,2.6,0.7c0.9-0.3,1.8-0.8,2.5-1.5c0.2-0.2,0.4-0.3,0.6-0.6C183.7,272.2,183.7,271.9,183.4,271.6"/>
	<path class="st8" d="M178.6,268.2c0.3,0,0.3,2.1,2.1,3.6s4,1.3,4.1,1.6c0,0.1-0.5,0.4-1.5,0.4c-1.2,0-2.4-0.4-3.4-1.3
		c-0.9-0.8-1.5-1.9-1.6-3C178.2,268.7,178.4,268.1,178.6,268.2z"/>
	<path class="st8" d="M178.2,244.6c-0.2,0.5-2.1,0.3-4.4,0.5s-4.2,0.8-4.4,0.4c-0.1-0.2,0.2-0.7,1-1.2c2-1.2,4.5-1.5,6.8-0.6
		C177.8,244,178.3,244.4,178.2,244.6z"/>
	<path class="st8" d="M196.1,246.6c-0.4,0.4-1.7-0.1-3.3-0.1s-3,0.3-3.3-0.2c-0.1-0.2,0.1-0.7,0.7-1.1c1.7-1,3.8-0.9,5.3,0.3
		C196.1,245.9,196.3,246.4,196.1,246.6z"/>
	<path class="st8" d="M191.6,228.4c0,0.2-0.5,0.3-1.1,0.3s-1.1-0.1-1.1-0.3s0.5-0.3,1.1-0.3S191.6,228.2,191.6,228.4z"/>
	<path class="st8" d="M190.7,231.1c3.6-7.2-4.6-13.3-8.6-15.3c-4-2.1-8.8-2-12.7,0.1c-1.7,1-3.3,2.5-5.2,3
		c-4.5,1.1-9.4-3.5-13.6-1.5c-3.5,1.6-4,6.8-7.5,8.4c-1.7,0.8-3.6,0.5-5.4,0.7s-3.9,1.2-4.1,3c-0.3,2,1.9,4.2,0.8,5.9
		c-1.3,2.1-5.3,0.1-7,2s0.3,5.3-1.7,6.6c-1.4,1-3.8-0.2-4.9,1.2s1,3.3,1.2,5.1s-1.6,3.3-3.1,4.5c-1.5,1.2-3.1,3-2.4,4.7
		c0.8,2,4.2,2.2,4.7,4.3s-2.3,4.6-1,6.4c0.9,1.2,2.9,0.9,4,1.9c1.9,1.7-0.4,4.9,0.5,7.2c1.3,3.2,6.8,1.8,8.9,4.5c1.2,1.5,1,4,2.7,5
		s3.8-0.5,5.8-0.3c3.2,0.4,5.2,5.2,8.2,4.3c1.6-0.5,2.7-2.5,4.3-2.1c1.4,0.3,1.9,2.3,3.3,2.5c1.9,0.3,2.4-2.5,3.6-4
		c1.5-2.1,4.8-2.2,6.2-4.3c1.3-1.9,0.4-4.5-0.8-6.5s-2.4-4.2-1.9-6.5c0.6-2.5,3.6-4.8,2.5-7.2c-1.1-2.6-6.1-2.4-6.4-5.2
		c-0.3-2.7,4.2-4.2,3.7-6.9c-0.3-1.8-2.8-2.5-3.3-4.3c-0.5-2,1.9-3.8,1.9-5.9c0-1.4-1.1-2.4-1.8-3.6s-1.1-2.8-0.1-3.7
		c1.6-1.4,4.1,1.1,6.2,0.5c1.4-0.4,2-2.1,2.5-3.6c0,0,3.8-5.8,10.6-5S190.7,231.1,190.7,231.1z"/>
	<path class="st8" d="M190.8,228.5c1.1,1.2,1,3.1-0.3,4.2c-0.2,0.2-0.5,0.4-0.8,0.5c-1.7,0.6-3.5-0.5-5-1.5s-3.4-2-5-1.3
		c-3,1.3-2.2,6.8-5.3,8c-1.3,0.5-2.7,0-4-0.3s-3-0.2-3.7,0.9c-1,1.5,0.4,4-1,5.2c-0.6,0.5-1.4,0.6-1.9,1.2c-0.8,0.9-0.2,2.4,0.7,3.2
		s2.1,1.5,2.5,2.6c0.7,1.8-0.8,3.7-2.4,4.9s-3.4,2.4-3.8,4.3c-0.5,3.1,3.3,6.1,2,8.9c-0.9,1.6-2.9,2.2-4.6,1.5
		c-1.6-0.7-2.9-2-3.7-3.6c-3.5-6.4-2.5-14.1-1.4-21.3c0.8-4.7,1.7-9.6,4.4-13.4s7.4-6.6,12.1-8.2c3.5-1.4,7.3-1.9,11.1-1.6
		c3.8,0.4,7.3,2.4,9.5,5.5"/>
	<path class="st9" d="M150.1,292.7c-0.1,0.1-0.2,0.1-0.3,0.1c-0.3,0.1-0.6,0.1-0.8-0.1c-0.4-0.2-0.7-0.6-0.9-1.1
		c-0.1-0.3-0.1-0.6-0.1-0.9c0.1-0.3,0.2-0.7,0.4-0.9c0.5-0.6,1.1-1.1,1.8-1.5c0.8-0.4,1.5-1,2.1-1.6c0.3-0.4,0.5-0.8,0.5-1.3
		c0-0.5-0.2-1-0.6-1.4c-0.4-0.4-0.8-0.8-1.2-1.2c-0.5-0.4-0.9-0.9-1.2-1.5c-0.3-0.7-0.2-1.4,0.2-2c0.4-0.6,1-1,1.6-1.3
		c0.6-0.3,1.2-0.6,1.8-1c0.6-0.3,1-0.9,1.2-1.5c0.1-0.7-0.1-1.4-0.7-1.8c-0.5-0.5-1.1-1-1.7-1.5c-0.7-0.5-1.2-1.1-1.6-1.9
		c-0.3-0.8-0.3-1.8,0.1-2.6c0.4-0.8,1-1.5,1.7-2c0.7-0.6,1.4-1,2-1.6c0.7-0.5,1.2-1.2,1.5-2c0.3-0.8,0.1-1.7-0.3-2.4
		c-0.5-0.7-1-1.4-1.7-2.1c-0.7-0.7-1.2-1.5-1.5-2.4c-0.1-0.5-0.1-1,0.1-1.5c0.2-0.5,0.5-0.9,0.9-1.2c0.8-0.6,1.6-1.1,2.4-1.6
		c0.8-0.4,1.5-1,2-1.8c0.3-0.8,0.3-1.7-0.2-2.4c-0.5-0.8-1-1.5-1.6-2.1c-0.6-0.7-1.1-1.6-1.3-2.5c-0.1-0.5-0.1-1,0.1-1.5
		c0.2-0.5,0.5-0.8,0.9-1.1c0.8-0.4,1.7-0.6,2.6-0.6c0.8,0,1.7-0.1,2.5-0.3c0.8-0.2,1.4-0.7,1.6-1.5c0.2-0.7,0.2-1.6,0.4-2.4
		c0.2-0.9,0.8-1.6,1.5-2c1.5-0.8,3.1-0.6,4.6-0.5c0.7,0,1.4,0,2.1-0.2c0.6-0.2,1.2-0.5,1.8-0.9c1-0.9,1.9-1.8,2.7-2.8
		c0.8-0.9,1.8-1.7,2.9-2.2c1-0.4,2.1-0.6,3.2-0.5c1.7,0.2,3.3,1,4.4,2.4c0.7,0.9,1.1,1.9,1.3,3c0,0.4,0,0.8,0,1.1c0,0,0-0.4-0.1-1.1
		c-0.2-1-0.7-2-1.3-2.9c-1-1.3-2.6-2.2-4.3-2.3c-1-0.1-2.1,0.1-3,0.5c-1.1,0.5-2,1.2-2.7,2.1c-0.8,1-1.8,2-2.7,2.8
		c-0.6,0.5-1.2,0.8-1.9,1c-0.7,0.2-1.5,0.3-2.2,0.2c-1.5,0-3-0.2-4.4,0.5c-0.7,0.3-1.1,1-1.3,1.7c-0.2,0.7-0.2,1.6-0.4,2.4
		c-0.3,0.9-1,1.6-1.9,1.8c-0.8,0.2-1.7,0.3-2.6,0.3c-0.8,0-1.7,0.2-2.4,0.6c-0.3,0.2-0.6,0.5-0.7,0.9c-0.1,0.4-0.2,0.8-0.1,1.2
		c0.2,0.8,0.6,1.6,1.2,2.3c0.6,0.7,1.2,1.4,1.7,2.2c0.2,0.4,0.4,0.9,0.5,1.4c0.1,0.5,0,1-0.3,1.5c-0.5,0.9-1.3,1.6-2.1,2
		c-0.8,0.4-1.6,1-2.3,1.6c-0.3,0.3-0.6,0.6-0.7,1c-0.1,0.4-0.2,0.8-0.1,1.2c0.3,0.8,0.7,1.6,1.4,2.2c0.6,0.7,1.2,1.4,1.7,2.1
		c0.5,0.8,0.7,1.8,0.4,2.8c-0.4,0.9-0.9,1.6-1.6,2.2c-0.7,0.6-1.4,1-2,1.6c-0.6,0.5-1.2,1.1-1.6,1.8c-0.4,0.6-0.4,1.4-0.1,2.1
		c0.4,0.7,0.9,1.3,1.5,1.7c0.6,0.5,1.2,1,1.8,1.5c0.6,0.6,0.9,1.4,0.8,2.2c-0.2,0.8-0.7,1.4-1.4,1.8c-0.6,0.4-1.2,0.7-1.8,1
		c-0.6,0.3-1.1,0.7-1.5,1.2c-0.3,0.5-0.4,1.1-0.2,1.6c0.5,1.1,1.6,1.7,2.3,2.6c0.4,0.4,0.6,1,0.6,1.6c0,0.5-0.2,1.1-0.6,1.5
		c-0.6,0.7-1.4,1.3-2.3,1.7c-0.7,0.3-1.3,0.8-1.8,1.4c-0.4,0.5-0.5,1.1-0.3,1.7c0.1,0.4,0.4,0.8,0.8,1c0.2,0.1,0.5,0.2,0.8,0.1
		C150,292.7,150.1,292.7,150.1,292.7z"/>
	<path class="st9" d="M126.2,280.3c0,0,0.1,0,0.3-0.1c0.3-0.1,0.5-0.4,0.5-0.7c0.1-0.5,0.1-1-0.1-1.5c-0.4-0.6-0.8-1.2-1.2-1.7
		c-0.3-0.4-0.4-0.8-0.5-1.2c-0.1-0.5,0.1-1,0.4-1.4c0.6-0.8,1.7-1.2,2.3-2.1c0.3-0.4,0.4-1,0.3-1.5c-0.2-0.6-0.5-1.1-0.9-1.5
		c-0.4-0.5-0.8-1-1.2-1.5c-0.5-0.6-0.7-1.3-0.7-2c0.1-0.8,0.5-1.5,1.2-1.9c0.7-0.4,1.4-0.7,2.2-0.8c0.8-0.1,1.6-0.2,2.3-0.4
		c0.8-0.1,1.4-0.5,2-1c0.5-0.6,0.7-1.4,0.6-2.2c-0.1-0.9-0.4-1.7-0.6-2.5c-0.3-0.9-0.5-1.8-0.5-2.7c0.1-1,0.7-1.9,1.6-2.4
		c1.8-0.9,3.9-0.5,5.5-1.6c0.4-0.2,0.7-0.6,0.9-1c0.2-0.4,0.2-0.9,0.1-1.3c-0.3-0.9-0.7-1.9-1.2-2.7c-0.2-0.5-0.4-1-0.4-1.6
		c0-0.6,0.2-1.2,0.6-1.6c0.9-0.7,1.9-1.1,3-1.2c1-0.2,2.1-0.5,2.3-1.5s-0.4-2-0.3-3.1c0.1-2.3,1.6-4.3,3.8-5.1
		c2.2-0.7,4.3,0.3,6.2-0.2c0.9-0.1,1.7-0.8,2.1-1.6c0.2-1,0.3-1.9,0.2-2.9c0-0.5,0.2-1.1,0.4-1.5c0.3-0.5,0.7-0.8,1.2-1
		c1-0.3,2-0.3,3,0c0.9,0.2,1.8,0.6,2.7,0.8c0.8,0.2,1.7,0.1,2.5-0.3c1.6-0.7,2.7-2.1,4-3.2c2.6-2,5.9-2.7,9-2c2.6,0.5,4.9,1.9,6.5,4
		c1.2,1.6,2,3.4,2.4,5.3c0.2,1.2,0.3,2.4,0.1,3.7c0,0.4-0.1,0.8-0.3,1.3c0,0,0.1-0.4,0.1-1.3c0.1-1.2,0-2.4-0.2-3.6
		c-0.4-1.9-1.2-3.7-2.4-5.2c-3.7-4.6-10.3-5.4-14.9-1.8c-1.3,1-2.4,2.4-4.1,3.2c-0.9,0.4-1.8,0.5-2.8,0.3c-0.9-0.2-1.8-0.5-2.7-0.8
		c-0.9-0.3-1.8-0.3-2.7,0c-0.4,0.1-0.8,0.4-1,0.8c-0.2,0.4-0.3,0.8-0.4,1.3c0.1,1,0,2-0.2,3c-0.4,1-1.4,1.8-2.5,1.9
		c-2.1,0.5-4.3-0.5-6.2,0.2c-2,0.7-3.3,2.5-3.4,4.6c0,0.5,0.1,1,0.2,1.5c0.2,0.6,0.2,1.1,0.1,1.7c-0.2,0.6-0.6,1.1-1.1,1.4
		c-0.5,0.2-1,0.4-1.6,0.5c-1,0.1-2,0.4-2.8,1c-0.3,0.3-0.5,0.8-0.4,1.2c0,0.5,0.2,0.9,0.4,1.4c0.5,0.9,0.9,1.9,1.2,2.8
		c0.1,0.5,0.1,1.1-0.1,1.6c-0.2,0.5-0.6,0.9-1,1.2c-0.9,0.5-1.9,0.8-2.9,0.9c-0.9,0.1-1.8,0.3-2.7,0.7c-0.8,0.4-1.3,1.1-1.4,2
		c0,0.9,0.1,1.7,0.4,2.6c0.3,0.8,0.5,1.7,0.6,2.6c0.1,0.9-0.1,1.8-0.7,2.5c-0.6,0.6-1.4,1-2.3,1.2c-0.8,0.2-1.6,0.2-2.4,0.4
		c-0.7,0.1-1.4,0.4-2.1,0.8c-0.6,0.3-1,0.9-1.1,1.6c0,0.7,0.2,1.3,0.6,1.8c0.4,0.5,0.8,1,1.2,1.5c0.4,0.5,0.7,1.1,0.9,1.7
		c0.2,0.6,0,1.3-0.3,1.8c-0.7,1-1.8,1.4-2.3,2.1c-0.3,0.3-0.4,0.8-0.4,1.2c0.1,0.4,0.2,0.8,0.4,1.1c0.4,0.5,0.9,1.1,1.2,1.7
		c0.2,0.5,0.2,1,0.1,1.6c-0.1,0.3-0.3,0.6-0.6,0.7C126.5,280.3,126.3,280.3,126.2,280.3z"/>
	<path class="st9" d="M209.4,281c0.2,0.1,0.4,0.2,0.6,0.2c0.6,0,1.2-0.4,1.5-1c0.4-0.7,0.2-1.8,0.1-3c0-0.7,0-1.3,0.3-2
		c0.3-0.7,0.5-1.3,0.6-2c0.2-0.7,0-1.5-0.6-2c-0.7-0.5-1.4-0.8-2.2-1c-0.9-0.2-1.8-0.6-2.6-1.3c-0.4-0.4-0.5-1-0.4-1.5
		c0.1-0.5,0.4-1,0.8-1.4c0.7-0.8,1.6-1.4,1.9-2.3c0.2-1-0.3-2-1.2-2.3c-0.9-0.5-2-0.6-3.1-1.1c-0.6-0.2-1.1-0.6-1.4-1.1
		c-0.4-0.5-0.5-1.1-0.5-1.8c0.1-1.2,0.4-2.3,1-3.4c0.5-0.9,0.9-1.9,1.1-3c0.1-1-0.3-2-1-2.7c-0.7-0.7-1.6-1.3-2.3-2
		c-0.8-0.7-1.3-1.6-1.6-2.6c-0.2-0.9-0.3-1.9-0.3-2.8c0.2-1.6,0-3.3-0.4-4.9c-0.4-1.3-1.2-2.4-2.2-3.3c-0.8-0.7-1.6-1.2-2.6-1.6
		c-0.8-0.3-1.7-0.5-2.6-0.5c0.2,0,0.5,0,0.7,0c0.7,0,1.3,0.2,1.9,0.4c2.3,0.8,4.2,2.6,5.1,4.9c0.4,1.6,0.6,3.3,0.4,5
		c0,0.9,0.1,1.8,0.3,2.7c0.2,0.9,0.8,1.7,1.5,2.3c0.7,0.7,1.6,1.2,2.3,2c0.8,0.8,1.2,2,1.1,3.1c-0.3,2.3-2.1,4.1-2.1,6.3
		c0,0.5,0.1,1,0.4,1.5c0.3,0.4,0.7,0.8,1.2,1c1,0.5,2.1,0.5,3.1,1.1c0.5,0.3,1,0.7,1.3,1.2c0.3,0.5,0.4,1.2,0.2,1.7
		c-0.5,0.9-1.2,1.7-2,2.4c-0.3,0.3-0.5,0.7-0.7,1.2c-0.1,0.4,0,0.8,0.3,1.2c0.7,0.6,1.5,1,2.3,1.1c0.9,0.2,1.7,0.6,2.4,1.1
		c0.3,0.3,0.6,0.7,0.7,1.1c0.1,0.4,0.1,0.8,0,1.2c-0.2,0.7-0.4,1.4-0.7,2.1c-0.2,0.6-0.3,1.2-0.3,1.8c0.1,1.2,0.3,2.3-0.2,3.1
		c-0.3,0.6-1,1-1.7,1C209.7,281.4,209.5,281.2,209.4,281z"/>
	<g class="st11">
		<polygon points="140.3,338.1 140.3,364.8 133.3,365.3 130.8,355.8 		"/>
	</g>
</g>
</svg>
