<?xml version="1.0" encoding="utf-8"?>
<!-- Generator: Adobe Illustrator 24.2.0, SVG Export Plug-In . SVG Version: 6.00 Build 0)  -->
<svg version="1.1" id="Layer_1" xmlns="http://www.w3.org/2000/svg" xmlns:xlink="http://www.w3.org/1999/xlink" x="0px" y="0px"
	 viewBox="0 0 2843 2000" style="enable-background:new 0 0 2843 2000;" xml:space="preserve">
<style type="text/css">
	.st0{fill:#F7CC7F;}
	.st1{fill:#50BFA5;}
	.st2{fill:#07345A;}
	.st3{fill:#355389;}
	.st4{fill:#F47458;}
	.st5{fill:#466EB6;}
	.st6{opacity:0.3;fill:#184655;}
	.st7{fill:#5184CE;}
	.st8{fill:#96D9C9;}
	.st9{fill:#9BC1F9;}
	.st10{fill:#A34B3D;}
	.st11{fill:#B75742;}
	.st12{fill:#F7A491;}
	.st13{fill:#E0973F;}
	.st14{fill:#DD513A;}
	.st15{fill:#184655;}
	.st16{fill:#FFFFFF;}
	.st17{fill:#0E2E35;}
	.st18{fill:#E25A44;}
	.st19{fill:#F38B80;}
	.st20{opacity:0.5;fill:#F47458;}
	.st21{fill:#13375B;}
	.st22{fill:#F48C7F;}
	.st23{opacity:9.000000e-02;fill:#C5DDF9;}
	.st24{opacity:0.5;fill:#50BFA5;}
	.st25{fill:#F8A492;}
</style>
<g>
	<path class="st0" d="M2059.2,488.8c-38.5,151.7,53.5,306.4,205.2,345c151.7,38.5,306.4-53.5,345-205.2
		c38.5-151.7-53.5-306.4-205.2-345C2252.5,245,2097.7,337.1,2059.2,488.8z M2129.3,497L2129.3,497
		c34.1-113.2,153.5-177.4,266.7-143.3l0,0c113.2,34.1,177.4,153.5,143.3,266.7v0c-34.1,113.2-153.5,177.4-266.7,143.3l0,0
		C2159.4,729.6,2095.2,610.2,2129.3,497z"/>
	<path class="st0" d="M1862.5,489.2c1.3,6.8,7.5,9.1,22.6,15.2c27.1,10.7,54.2,21.5,80.9,33.2c4.2,1.8,8.4,8.4,8.9,13.2
		c3.1,28.4,4.5,56.9,7.8,85.2c1,8.8,0.2,13.4-7.7,18.4c-31.5,19.8-62.5,40.5-93.3,60.6c7.7,33.1,46.5,107.4,67.3,128.1
		c32.7-13.8,66.3-27.3,99.3-42.1c10.3-4.6,15.5-3.7,24.1,4.5c19.9,19,41.5,36.2,63.4,53c8.9,6.8,13.6,12.1,10.7,24.3
		c-7.4,31.6-13,63.6-19.9,95.4c-1.9,8.5-0.2,13.9,8.2,16.5c39.6,12.3,79.2,24.5,118.9,36.7c9.7,3,11.2-5,13.7-10.7
		c12.3-29,24.8-58,36.1-87.4c4.3-11,10-14.7,21.9-15.1c31.8-1,63.4-4.1,97.6-6.5c20.2,30.7,42.5,64.5,65.4,99.3
		c46-15.2,87.5-38.1,126.7-68.2c-15.5-37.3-31.1-74.7-44.8-107.6c23.5-29.8,45.9-56.9,66.6-85.2c6-8.2,10.7-9.5,19.7-7.6
		c31.3,6.9,62.7,12.8,94,19.4c6.8,1.4,11.7,1.7,15.2-5.7c17.5-37.4,31.7-75.7,37.4-116.9c1.3-9.2-2-12.8-9.6-15.9
		c-30.5-12.6-60.7-25.7-91.2-38.2c-7.4-3-10.5-6.2-11.2-15.2c-2.3-31.3-6-62.5-10.5-93.5c-1.1-7.9,1.4-11,7-14.7
		c31.1-20.5,62-41.2,93.8-62.4c-16.1-45.3-36.7-87.3-66.2-126c-38.1,15.9-75.9,31.6-112.2,46.7c-30.5-25.3-60.1-49.8-91.7-76.1
		c5.6-28,12.3-60.1,18.4-92.4c5-26.5,8.8-23-17.8-34.2c-2.5-1.1-4.7-3.1-7-4.6c-23.8-7.2-47.6-14.3-71.4-21.5
		c-5.6-0.6-11.4-0.4-16.6-2.1c-13.6-4.3-21.3-1.2-26.7,13.4c-11.3,30.4-24.5,60.1-37.7,89.8c-1.7,3.9-7.4,7.9-11.6,8.5
		c-27.8,3.5-56.1,4.6-83.6,9.6c-13.5,2.4-19.2-1.3-25.8-11.8c-18.9-29.8-39-58.8-60.5-91.1c-42.7,22.4-84.3,44.3-126.4,66.4
		c3.3,8.4,5.1,13.2,7.1,18c12.3,29.5,24.3,59.2,37.2,88.5c3.6,8.3,1.8,13-3.9,19.8c-19.6,23.3-37.7,47.8-57.1,71.2
		c-3,3.6-10.5,6.2-15.2,5.4c-25.9-4.5-51.5-10.4-77.2-15.4c-20.9-4.1-28.6-5.5-35.2,1.3L1862.5,489.2z M2049.4,486.3
		c19.3-76.1,67.1-140.1,134.6-180.2c67.5-40.1,146.5-51.6,222.6-32.2c76.1,19.3,140.1,67.1,180.2,134.6
		c40.1,67.5,51.6,146.5,32.2,222.6c-19.3,76.1-67.1,140.1-134.6,180.2c-67.5,40.1-146.5,51.6-222.6,32.2
		c-76.1-19.3-140.1-67.1-180.2-134.6C2041.5,641.4,2030.1,562.4,2049.4,486.3z"/>
</g>
<path class="st1" d="M258.9,882c4.4,3.4,9.3,1.6,21.7-2.7c22.1-7.7,44.2-15.4,66.5-22.4c3.5-1.1,9.5,0.7,12.3,3.3
	c16.8,15.6,32.6,32.2,49.5,47.6c5.2,4.8,7.2,8.1,5,15.2c-8.7,28.6-16.7,57.4-24.8,85.9c22.1,16,84.7,40.7,108.2,42.4
	c12.6-25.5,25.9-51.4,38.2-77.8c3.8-8.2,7.5-10.4,17-10c22.1,1.1,44.3,0.2,66.4-1.2c8.9-0.6,14.6,0.2,19.3,9.1
	c12.1,23.1,25.6,45.5,38.1,68.4c3.4,6.2,7.1,8.5,13.6,5.7c30.5-13.4,61-26.8,91.5-40.2c7.5-3.3,4.2-8.9,2.7-13.7
	c-7.8-24.1-15.4-48.2-24-72.1c-3.2-8.9-1.7-14.1,5.4-20.7c18.8-17.3,36.4-35.8,55.9-55.2c28.4,8,59.7,16.8,91.9,25.9
	c19.9-33.4,33.1-69.1,41.1-108c-29.1-14.5-58.2-29-83.8-41.8c-1.4-30.4-2-58.7-4.3-86.8c-0.7-8.1,1.5-11.4,8-15
	c22.6-12.3,44.8-25.2,67.3-37.7c4.9-2.7,8-5.1,6.2-11.4c-9-31.9-20.6-62.6-38.8-90.6c-4.1-6.2-8-6.7-14.2-4.6
	c-25.1,8.4-50.4,16.3-75.4,24.7c-6.1,2.1-9.6,1.8-14.7-3.3c-17.9-17.8-36.5-34.8-55.5-51.3c-4.9-4.2-5-7.4-3.5-12.6
	c8.1-28.8,16-57.6,24.2-87.2c-33.6-19-68.2-33.7-106.4-41.7c-14.8,29.7-29.5,59.1-43.6,87.3c-31.8,0.7-62.7,1.3-95.7,2
	c-11.3-19.9-24.1-43-37.4-65.8c-10.9-18.7-6.7-18.6-28.7-11.4c-2.1,0.7-4.5,0.6-6.7,0.9c-18.2,8.2-36.4,16.3-54.6,24.5
	c-3.7,2.5-7.1,5.7-11.2,7.5c-10.5,4.5-13.6,10.5-9.2,22.2c9.1,24.4,16.7,49.4,24.3,74.3c1,3.3-0.3,8.7-2.6,11.3
	c-15.1,16.8-31.6,32.3-45.7,49.8c-6.9,8.6-12.3,9.3-21.9,6.4c-27.1-8.2-54.6-15.2-84.7-23.5c-14.1,36-27.9,71.2-41.9,106.8
	c6.4,3.4,10.1,5.3,13.8,7.2c23,11.5,45.9,23.2,69.1,34.2c6.6,3.1,7.9,7,8,14.1c0.3,24.4,2.3,48.8,2.8,73.2c0.1,3.8-3.1,9.2-6.4,11.2
	c-18.1,10.9-36.7,20.7-55,31.2c-14.8,8.5-20.3,11.7-20.7,19.3L258.9,882z M370.9,781.9c-28.3-56.4-32.9-120.4-13-180.2
	c19.9-59.8,61.9-108.3,118.2-136.6c56.4-28.3,120.4-32.9,180.2-13C716.1,472,764.7,514,792.9,570.4c28.3,56.4,32.9,120.4,13,180.2
	C786,810.4,744,858.9,687.7,887.2c-56.4,28.3-120.4,32.9-180.2,13C447.7,880.3,399.1,838.3,370.9,781.9z"/>
<path class="st0" d="M532.2,235.6l9-16.5l-8.4-16.8c-1-1.9,0.7-4.1,2.8-3.7l18.4,3.5l13.3-13.2c1.5-1.5,4.1-0.6,4.4,1.5L574,209
	l16.7,8.6c1.9,1,1.9,3.7-0.1,4.6l-16.9,8l-3,18.5c-0.3,2.1-2.9,2.9-4.4,1.4l-12.9-13.7l-18.5,2.9
	C532.8,239.7,531.2,237.4,532.2,235.6z"/>
<path class="st2" d="M1511.9,313.7l7.7-12.5l-6.2-2.5c-1.3-0.5-2-2.1-1.5-3.4l0,0c0.5-1.3,2.1-2,3.4-1.5l7.1,2.9l6.9-11.2l-6.6-2.7
	c-1.3-0.5-2-2.1-1.5-3.4l0,0c0.5-1.3,2.1-2,3.4-1.5l7.5,3l8-12.8c0.7-1.1,2-1.5,3.2-1l1.1,0.5c1.5,0.6,2.1,2.4,1.3,3.8l-7.4,12.1
	l10.9,4.4l8-12.8c0.7-1.1,2-1.5,3.2-1l1.3,0.5c1.5,0.6,2.1,2.4,1.3,3.8l-7.4,12.1l6.2,2.5c1.3,0.5,2,2.1,1.4,3.4l0,0
	c-0.5,1.3-2.1,2-3.4,1.5l-7.1-2.9l-6.7,11.2l6.6,2.7c1.3,0.5,2,2.1,1.5,3.4l0,0c-0.5,1.3-2.1,2-3.4,1.4l-7.5-3l-8.1,13.2
	c-0.7,1.1-2,1.5-3.2,1.1l-1.3-0.5c-1.5-0.6-2.1-2.4-1.3-3.8l7.7-12.5l-10.9-4.4l-8.1,13.2c-0.7,1.1-2,1.5-3.2,1.1l-1.3-0.5
	C1511.7,316.9,1511.1,315.1,1511.9,313.7z M1539.7,303.7l6.9-11.2l-10.9-4.4l-6.9,11.2L1539.7,303.7z"/>
<polygon class="st3" points="1102.1,228.1 1134.7,232 1120.8,206.6 "/>
<g>
	<path class="st4" d="M1222,509.5c-1,11,8.5,21.1,19,23c10.9,1.9,20.6-5.2,24.4-15.2c7.4-19.8-14.3-35.4-26-23.4
		c-11,11.2-7.5,27.8,4.3,27.8c4.5,0,11.7-3.7,8.8-9.2c-0.6-1.2-2.4-1.1-3.1,0c-1.4,2.4-1.3,2.5-2,3.1c-1.1,0.9-2.5,1.1-3.9,1.1
		c-12.1-0.2-4-27.8,10.2-21.1c7.8,3.7,10.1,12.6,7.4,20.3c-2.6,7.5-9.6,13.2-17.7,12.7c-9.7-0.6-17.8-9.5-18.4-19
		C1224.9,507.6,1222.2,507.7,1222,509.5L1222,509.5z"/>
</g>
<g>
	<g>
		<path class="st1" d="M1818.6,100.8l9.8,4.2c0,0,16.3-3.6,18.1-6.7c1.8-3.1,2.9-10.8,5.2-10.8c2.3,0,6.6,1.1,7.2,6.5
			c0.4,3.9-6.2,14.6-5.4,15.9c0.5,0.8,6,3.4,10.1,5.2c2.7,1.2,4.5,3.8,4.7,6.7l0,0c0.1,2-1.1,3.8-3.1,4.3l-3,0.8l0.7,3
			c0.5,2.3-0.9,4.5-3.1,5l-2.3,0.5l0.6,1.9c0.7,2.4-0.8,4.9-3.2,5.4l-2,0.4l0,0.5c0.2,2.2-1.4,4.1-3.5,4.5l-2,0.3l-26-11.2
			c-2.4-1-4.6-2.6-6.5-4.5l-8.5-5.4c-0.9-0.6-1.3-1.8-0.8-2.7l10.1-22.7C1816.3,100.8,1817.5,100.3,1818.6,100.8z"/>
	</g>
</g>
<polygon class="st5" points="1310.4,1780.8 1123.4,1867 1123.4,1886.1 1789.1,1886.1 1789.1,1867 1600.5,1780.8 "/>
<rect x="1310.4" y="1411.5" class="st5" width="290.3" height="369.4"/>
<path class="st5" d="M2333.8,1527.4V694.4c0-39.6-32.1-71.7-71.7-71.7H646.9c-39.6,0-71.7,32.1-71.7,71.7v833.1H2333.8z"/>
<rect x="1123.4" y="1867" class="st6" width="665.7" height="19.1"/>
<rect x="1310.4" y="1737.5" class="st6" width="290.2" height="43.4"/>
<path class="st7" d="M575.3,1527.4v133.5c0,27.8,18.4,50.3,41,50.3h1676.6c22.6,0,41-22.5,41-50.3v-133.5H575.3z"/>
<g>
	<defs>
		<path id="SVGID_1_" d="M2292.7,1491.3V696.6c0-20.8-17.5-37.7-39.1-37.7H655.5c-21.6,0-39.1,16.9-39.1,37.7v794.7H2292.7z"/>
	</defs>
	<clipPath id="SVGID_2_">
		<use xlink:href="#SVGID_1_"  style="overflow:visible;"/>
	</clipPath>
	<g style="clip-path:url(#SVGID_2_);">
		
			<image style="overflow:visible;" width="1905" height="953" xlink:href="CXD Home page images-20201221T044156Z-001/CXD Home page images/Execute Page - Image 1.PNG"  transform="matrix(0.871 0 0 0.871 621 660)">
		</image>
	</g>
	<g style="clip-path:url(#SVGID_2_);">
		
			<image style="overflow:visible;" width="871" height="743" xlink:href="Execute Page - Image 2.PNG"  transform="matrix(0.571 0 0 0.571 1796.509 836.4891)">
		</image>
	</g>
</g>
<g>
	<g>
		<g>
			<path class="st1" d="M1271.6,275l-10.2,39.7l31.2-17.5l93.2-34.4l-68.7-1.9c0,0-35.6,4.3-37.7,5.7
				C1277.3,268.2,1271.6,275,1271.6,275z"/>
			<polygon class="st8" points="1244.4,247 1385.7,262.9 1271.6,275 			"/>
			<polygon class="st8" points="1312.1,321.1 1278.7,286.9 1385.7,262.9 			"/>
		</g>
		<g>
			<g>
				<path class="st9" d="M1057.4,396.6c0.8-3.2,1.8-6.3,3-9.4c1.1-2.8,2.3-5.7,3.7-8.5l3,1.5c-1.3,2.7-2.5,5.4-3.6,8.2
					c-1.1,3-2.1,6-2.9,9.1c-0.2,0.9-0.4,1.8-0.6,2.7l-3.3-0.7C1057,398.5,1057.2,397.5,1057.4,396.6z M1075.9,360.2
					c4.4-5.5,9.4-10.9,15-15.9l2.2,2.5c-5.5,4.9-10.4,10.1-14.6,15.5L1075.9,360.2z M1182.1,366.2c-0.2-0.1-0.4-0.3-0.5-0.4l2.2-2.5
					c0.2,0.1,0.3,0.3,0.4,0.4c0,0,0.1,0.1,0.3,0.1c1.8,0.7,6.5,1.2,9.4,0c2.4-1.1,4.5-2.9,6.1-5.5l2.8,1.8c-2,3.1-4.6,5.4-7.6,6.7
					c-4,1.8-9.7,0.9-11.9,0.1C1182.8,366.7,1182.4,366.5,1182.1,366.2z M1108.2,331c5.9-3.9,12.3-7.6,18.9-10.9l1.5,3
					c-6.5,3.2-12.7,6.8-18.5,10.7L1108.2,331z M1171.9,338.7c0.4-3.2,1.2-6.4,2.4-9.6c0.6-1.7,1.4-3.4,2.3-5.2l3,1.5
					c-0.8,1.6-1.5,3.2-2.1,4.8c-1.1,2.9-1.8,5.9-2.2,8.8c-0.2,2.1-0.3,4.2-0.1,6.3l-3.3,0.3C1171.6,343.3,1171.7,341,1171.9,338.7z
					 M1189.9,323.7l-0.4-0.3l1.8-2.8l0.4,0.3c6.5,4.1,11.5,10.3,13.7,17l-3.2,1.1C1200.3,333,1195.8,327.4,1189.9,323.7z
					 M1148.3,314.1c3.8-0.7,10.8-1.8,14.3-1.5c2.8,0.2,5.3,0.5,7.7,0.8l-0.5,3.3c-2.3-0.4-4.8-0.6-7.4-0.8
					c-2.3-0.2-7.3,0.4-13.5,1.5L1148.3,314.1z M1190.2,306.5c5.4-5,11.5-9.2,18.2-12.4l1.5,3c-6.4,3.1-12.2,7.1-17.4,11.8
					L1190.2,306.5z"/>
			</g>
			<g>
				<path class="st9" d="M1230,290.9c3.6-0.5,7.2-0.8,10.7-0.7l0.1-3.3c-3.7-0.1-7.5,0.2-11.3,0.8L1230,290.9z"/>
			</g>
		</g>
	</g>
	<g>
		<path class="st10" d="M980.8,340.7c2,0.1,7.5,1.9,15.6,17.2c10.3,19.5,25.4,78.4,25.4,78.4l-45,16.8l-5.8-12.3l-9.5-94.6
			C961.5,346.1,980.3,340.7,980.8,340.7z"/>
		<path class="st11" d="M921.3,332.2c12.9,0,44.7,3.8,59.5,8.5c0,0,10.9,93.3-9.8,164.2c-4.6,15.9,3.8,65.8,3.8,65.8L841.5,569
			c0,0,15.8-120.7,9.8-140.2c-6-19.5-6.1-87.5-6.1-87.5s0.9-0.1,30-5.2C888.8,333.8,907.6,332.2,921.3,332.2z"/>
		<path class="st12" d="M905.8,744c0,0,3,34.1,8.4,43.5c5.4,9.4-0.3,25.5-0.6,27.7c-0.3,2.2-11.4,5.3-29.1,3.5
			c-17.7-1.9-17.4-6-16-12.6c1.4-6.6,10.9-15.1,11.4-21.4c0.6-6.3-5.4-28.9-5.4-28.9L905.8,744z"/>
		<path class="st13" d="M959.8,542.7c0,0,92.1-5.1,112.6,7.3c20.6,12.5-14.6,73.6-14.6,73.6s-64.1-3-189.5,4.3
			c-29.7,1.7-32.3-77.5-26.7-84C847.1,537.3,959.8,542.7,959.8,542.7z"/>
		<path class="st14" d="M882.3,821.3c-18.2-1.9-16-10.9-14.5-17.7c0.9-4.3,6.1-9.3,9.3-14c1.6,1.3,4.3,3.6,12.2,5.9
			c8.2,2.4,19.5-2.4,26.7-5.4c2.6,9.5,2.7,21.7,2.4,23.5C918,815.9,900.5,823.2,882.3,821.3z"/>
		<path class="st0" d="M892.3,608.5c3.7,27.8,21.9,166.4,21.9,166.4l-42.3,5.2c0,0-52-180.9-49.3-208.5c2.7-27.7,22.1-30,22.1-30
			S882.6,534.9,892.3,608.5z"/>
		<path class="st12" d="M843.8,351.7c12.5-4.7,18.6,107.7,20.3,153.9c22.1,2.1,60.6,0,70.2-0.7c4.5-0.3,14.9-4.1,19.4-4.7
			c4.6-0.6,8.8-0.9,11-0.5c0.8,0.1,23.8,9.6,25.8,11.6c2.4,2.6,9,9,7.9,11.8c-1.1,2.8-12.7-7.8-12.7-7.8l-5.7-3.2
			c7,6.9,20.5,16,18.6,19.3c-1.9,3.2-14-6-22.7-12.3c7.4,6.7,16.6,18.7,14.5,20.5c-1.9,1.7-12.4-12.2-23.6-16.2
			c-4.1-1.5-8.3,2.6-11.5,3.1c-2.4,0.4-6.1,1.1-8.5,0.5l-12.1-3.4c-4.1,0.4-4.2,2.8-8.4,3.7c-4.8,1-12.8,2.1-18.9,3.6
			c-35.5,8.7-47.3,12.7-58.2,12.7C816.3,543.7,814.3,362.8,843.8,351.7z"/>
		<path class="st10" d="M820.2,457.2c-2.3-47.4-2-105.8,24.6-115.7c10.5-3.9,28.9,19.7,25.6,116.7
			C856.2,459.3,835.4,460.3,820.2,457.2z"/>
		<path class="st12" d="M1033.8,777c0,0-6.1,10.8-1.3,19.8c4.8,9,30,22.3,32.6,27.2c2.6,4.9,1.6,8.4,1.6,8.4l-74.8-18.3l5.7-22.6
			l7-15.6L1033.8,777z"/>
		<path class="st14" d="M1036.3,801.7c0,0-21,3.6-29.4-3c-8.3-6.7-7.8-7.9-10.9-6.7c-2,0.7-5,9.7-6.9,16c-1,3.4,1,6.9,4.4,7.7
			l77.9,19.3c5.9,1.1,9.8-2.6,5.9-7.3c-2.7-3.3-6.2-5.8-8-7.5C1063.6,814.9,1036.3,801.7,1036.3,801.7z"/>
		<path class="st0" d="M1026.5,564.5c6-12.5,19.5-28.8,43.3-19c22.7,9.4,28.8,32.4,21.6,56c-7.2,23.6-54.3,162.2-56,181.2l-37.7,0.3
			c0,0,6.8-109.7,8.5-136.3C1007.9,621.1,1016.2,586.2,1026.5,564.5z"/>
		<path class="st15" d="M1087.6,436.9H961.7c-3.3,0-6.3,2-7.6,5.1l-38.8,94.9h-69.4c-1.9,0-3.5,1.6-3.5,3.5l0,0
			c0,1.9,1.6,3.5,3.5,3.5h197.6c5.4,0,10.4-3.2,12.6-8.2l39-87.3C1097.5,443,1093.6,436.9,1087.6,436.9z"/>
		<path class="st16" d="M1019.8,492.1c-0.9,4.3-4.6,7.1-8.3,6.4c-3.7-0.7-6-4.8-5.2-9.1c0.9-4.3,4.6-7.1,8.3-6.4
			C1018.3,483.8,1020.7,487.9,1019.8,492.1z"/>
		<g>
			<path class="st17" d="M951.3,218.2c-3.8-1.3-7.5-2.7-11.1-4.5c-4.1-2-9.4-4.3-12.7-4.8c-7-1.1-19.1-0.4-25.8,6.9
				c-8.3,9-23.1,1.6-20.1,48.8c3.4,53.4,33.1,47.6,33.8,46.6c0.7-0.9,26.5-34.2,26.5-34.2s9,19.7,9,19
				C950.9,295.5,996.9,233.6,951.3,218.2z"/>
			<path class="st12" d="M928.7,315.3l2.6,19.1c0,0,5.7,27.5-1.6,32.8c-7.4,5.3-31.4-33.6-31.4-33.6l2.5-48.4L928.7,315.3z"/>
			<path class="st4" d="M899.9,300.9c6.1,16.5,20.6,26.6,31,30.6l-2.2-16.2l-28-30.1L899.9,300.9z"/>
			<path class="st12" d="M927.2,232.6c15.7-2.5,29.7,10.1,29.3,25.7c-0.2,6.8-0.7,15.3-2.1,24.5c-3.4,22-18.4,41.4-28.4,39.7
				c-9.9-1.7-34.9-20.7-30.5-52.1C898.2,251.1,910.8,235.2,927.2,232.6z"/>
			<path class="st12" d="M902.3,274.2c-0.8,4.8-4.7,8.2-8.7,7.5c-3.9-0.7-6.5-5.2-5.6-10c0.8-4.8,4.7-8.2,8.7-7.5
				C900.7,264.8,903.2,269.3,902.3,274.2z"/>
			<path class="st17" d="M896.7,264.1c0,0,12,3,16.5-4.7c4.5-7.7,20.4-24.4,40.7-17.5c20.3,6.9-17.8-16.8-19.5-16.8
				c-1.6,0-21.1-0.1-21.1-0.1s-15,12.3-15.5,13.7c-0.5,1.4-4.9,16.1-4.9,16.1L896.7,264.1z"/>
		</g>
		<path class="st16" d="M918.7,296.4l21.9,4.2c0,0-2.1,8.2-11.8,6.7C917,305.3,918.7,296.4,918.7,296.4z"/>
	</g>
</g>
<g>
	<path class="st12" d="M1173.1,1802c0,0-4,27.9-10.9,36.9c-2.3,3-6.5,6.8-9.3,12.3c-4.3,8.5-1.9,21.2,1.3,28.1
		c1.6,3.6-0.1,3.6,3.6,4.7c11,3.4,22.7-2.3,27.4-12.9c2.6-5.9,4.9-13.8,5.4-23.8c1.2-25.3,9-38.2,9-38.2L1173.1,1802z"/>
	<path class="st12" d="M1293.5,1814.7c0,0,2.5,31.5,0.5,41.7c-1.1,5.5-7.1,16.8-4.3,21.9c2.7,5.2,5.9,6.4,5.9,6.4l71.1,1.2
		c3.9,0.1,1.3-2.4-1.8-4.8c-5.1-3.8-9.2-6.3-25.6-14.2c-1.1-0.5-4.9-3-6.3-3.9c-3.5-2.2-7.1-5.6-10.2-9c-5.1-5.7-5.6-33.4-5.6-33.4
		L1293.5,1814.7z"/>
	<path class="st18" d="M1349.1,1396.3c0,0,9,51.1,3.1,84.6c-5.9,33.5-34.1,344.1-34.1,344.1l-31.4,1.8c0,0-6.6-129.7-5.4-147.8
		c1.2-18,10.5-48.2,10.5-48.2l-3.1-104.8l39.6-137.6L1349.1,1396.3z"/>
	<path class="st4" d="M1257,1385.5c0,0-24.7,37.4-30.6,68.3s4.3,126-7,166.5c-6.1,21.9-29.3,55.8-32.9,84.2
		c-3.5,28.4-17.4,102.6-17.4,102.6l31.3,6.2l72.8-185.5l57.1-167.7l14.6-86.3L1257,1385.5z"/>
	<path class="st0" d="M1187.3,1865.6c-17.1,3.1-28.4-6.9-34.4-14.4c-4.3,8.5-6.5,21.2-3.3,28.2c2.8,6.2,11,6,17.5,6.2
		c6.8,0.3,12.1-3.6,15.5-9.6C1184.3,1873.2,1185.9,1869.7,1187.3,1865.6z"/>
	<path class="st0" d="M1333,1863.1c-18.8,4.9-32.7,1.6-40.5-1.6c-2,5.7-4.7,12.9-3.3,17c1.7,5.1,4.2,6.2,6.4,6.3
		c17.2,0.5,62.9,1.1,76,1.2c1.8,0,2.8-2.1,1.7-3.5C1370,1878.6,1334.4,1864,1333,1863.1z"/>
	<path class="st19" d="M1461.7,1308c1.3-2.8-12.5-6.6-12.9-9.6c-0.4-3,18.1-1.3,19-3.8c1.7-4.6-20.2-3.1-19.5-5.3
		c0.7-2.2,23.1-4.8,21.2-8.9c-2-4-23,5.2-23.4,2.6c-0.3-2.6,20.3-6.8,20.6-12.5c0.1-3-34.4,11.6-38.1,9.6s5.7-15.4,2.9-17.8
		c-2.8-2.4-14.9,25.5-17.1,26.4c-2.2,0.8-49.6,15.1-65.7,17.5c-1.4-5.5-13.5-35.5-14.7-40.6c-9.5,5.4-21.5-1.1-31.2,3.7
		c4.9,17.2,15.8,73.8,20.2,76.4c13.3,7.8,83.4-29.3,95-35.8c11.6-6.6,17.5-3.4,25.1-5.1C1450.6,1303,1460.4,1310.8,1461.7,1308z"/>
	<path class="st17" d="M1336.9,1141.1c3.5-16,7-32.2-2.3-49.8c-7.5-14.3-20.5-22.5-35.6-24.2c-42.6-5.1-33.5,34.8-93.1,43.4
		c-18.5,2.7-35.7,5.3-51.2,14.5c-27.9,16.6-38.5,43.3-19.9,86.8c45.3,106.4,153.8,13.9,170.4-4.9
		C1321.6,1188.2,1334.6,1151.4,1336.9,1141.1z"/>
	<path class="st0" d="M1269.8,1191.7c0,0-21.5,2.4-34.4,16.5c-12.9,14,20.8,126.6,23.2,144.5c2.3,17.8-22.4,67.2-22.4,67.2
		s84.1,16.7,106,2.3c0,0,1.9-137.8-0.4-150.6c-2.3-12.7-21.9-64.5-26.5-69.6C1310.4,1196.8,1269.8,1191.7,1269.8,1191.7z"/>
	<path class="st12" d="M1280.6,1148.3c0,0-0.2,1-0.5,2.6c-1.5,7.8-7,33.7-10.8,40.9c-4.6,8.6,15.6,36.1,35.1,32.7
		c5.8-1-4.9-25.2-4.4-27.8c1-4.9,2.3-11.6,3.7-18.5c0.8-3.9,1.5-7.8,2.3-11.5c2.1-10.5,3.8-19.1,3.8-19.1L1280.6,1148.3z"/>
	<path class="st20" d="M1280.2,1150.9c0.3-1.6,0.5-2.6,0.5-2.6l29.1-0.7c0,0-1.7,8.6-3.8,19.1c-0.7,3.7-1.5,7.6-2.3,11.4
		c-4.5-0.7-9.2-2.8-13.9-7c-5.1-4.5-8.5-9.9-10.5-15.6C1279.6,1153.7,1279.9,1152.1,1280.2,1150.9z"/>
	<path class="st12" d="M1298.1,1079.1c0,0-11.9,1.6-20.5,12.8c-8.6,11.1-17.9,45.4,3.5,64.1c21.4,18.7,42.5-2.5,45.6-24.9
		S1329.3,1078.3,1298.1,1079.1z"/>
	<path class="st12" d="M1333,1125.6c-1.3,5.4-4.9,9.1-7.9,8.2s-4.4-6-3-11.4c1.3-5.4,4.9-9.1,7.9-8.2
		C1333,1115,1334.4,1120.2,1333,1125.6z"/>
	<path class="st17" d="M1311.3,1079.2c0,0-27.9,32-41,33.5c-13.1,1.5-14.8,18.9-14.8,18.9s4.7-40,17.7-47.7
		C1286.1,1076.2,1311.3,1079.2,1311.3,1079.2z"/>
	<path class="st12" d="M1274.6,1120.5c1.1,5.8-1.1,11.1-4.8,11.9c-3.7,0.8-7.6-3.3-8.7-9.1c-1.1-5.8,1.1-11.1,4.8-11.9
		C1269.7,1110.6,1273.5,1114.7,1274.6,1120.5z"/>
	<path class="st15" d="M1274.2,1283.1l90.2,13.2c2.7,0.4,4.6,2.9,4.2,5.6l-17.6,120.3c-0.4,2.7-2.9,4.6-5.6,4.2l-90.2-13.2
		c-2.7-0.4-4.6-2.9-4.2-5.6l17.6-120.3C1269,1284.6,1271.5,1282.7,1274.2,1283.1z"/>
	<path class="st21" d="M1341.5,1289c0.1-0.5-0.3-1.1-0.8-1.1l-37.6-5.5c-0.5-0.1-1.1,0.3-1.1,0.8l-0.6,3.9l39.6,5.8L1341.5,1289z"/>
	<path class="st21" d="M1322.5,1280.3c-3.3-0.5-6.3,1.8-6.8,5.1c-0.5,3.3,1.8,6.3,5.1,6.8c3.3,0.5,6.3-1.8,6.8-5.1
		C1328,1283.9,1325.8,1280.8,1322.5,1280.3z M1321.1,1290.1c-2.1-0.3-3.6-2.3-3.2-4.4c0.3-2.1,2.3-3.6,4.4-3.2
		c2.1,0.3,3.6,2.3,3.2,4.4C1325.1,1288.9,1323.2,1290.4,1321.1,1290.1z"/>
	<path class="st3" d="M1341,1288c0.3,0.2,0.5,0.6,0.5,1l-0.6,3.9l-39.6-5.8c-0.4,2.7,1.5,5.2,4.2,5.6l29.8,4.4
		c2.7,0.4,5.2-1.5,5.6-4.2l0.6-3.9C1341.5,1288.6,1341.3,1288.2,1341,1288z"/>
	<path class="st16" d="M1313.4,1142.2l-20.3-0.1c0,0,0.4,7.7,9.3,8C1313.4,1150.5,1313.4,1142.2,1313.4,1142.2z"/>
	<path class="st12" d="M1210.9,1313.9l32.7,3.3c0,0-0.5,27.7,0,30.9c0,0,55.9,15.5,79.2,19.7c0,0,10.6-6,14.9-7.9
		c4.3-1.9,15.9-4,18.4-4.3c2.6-0.3,1.7,2.5-0.5,3.4s-7.9,3.7-9.5,6.9c0,0,4.6,0.5,7.1-0.6c2.4-1.1,5.8-3.4,5.9-4.6s0.6-4.1,1.4-3.9
		c0.2,0,0.5,1,0.8,2c0.3,0.9,0.5,1.9,0.8,2.8c0.4,1.7,0.9,4.2,1.1,5.3c0.4,2.5-1.1,9.6-1.4,12.1c-0.4,4.6-1.7,6.6-4.1,7.7
		c-3.9,1.4-8,2.2-14,2.8c-11.1,1.1-21.3-2-25.8-2.6c-4.5-0.5-75.6-7.6-75.6-7.6s-28.3-4.1-30.2-8.9
		C1210.2,1365.7,1210.9,1313.9,1210.9,1313.9z"/>
	<path class="st0" d="M1239.3,1204.1c0,0-10.3,4.9-19.4,26c-8.6,20.1-11.1,120.2-11.1,120.2l34.2-5.7l17.4-46.7
		c12.4-28,9.2-60.5-8.9-85.2C1246.7,1206.2,1242.3,1202.2,1239.3,1204.1z"/>
</g>
<g>
	<path class="st12" d="M2329.4,1204.5c-5.9-4.8-51.8,15.3-51.2,22.3c0.6,7-32,74.9-32,74.9l-56.3-44.9l0,0
		c-0.5-1.6-5.8-19.1-6.1-22.2c-0.3-3.3-9.8-9-14.2-8.2c-4.4,0.8,3.8,6.4,4.3,7.4c1.5,2.8-4.2,3.8-4.2,3.8s-16.1-5.2-16.4-10.4
		c-0.3-5.3-11.3,9.2-10,11.2c1.3,2,27.5,23.1,31.3,27.7c0,0,72.8,83.3,78,85.4c4.5,1.9,20.8-26.8,36.1-45.8
		C2303.9,1286.8,2347.9,1219.6,2329.4,1204.5z"/>
	<path class="st22" d="M2476.3,1816.7c0,0,10,9.8,10.2,13.3c0.2,3.6,0.9,42-3.2,45.6s-16.1,6.1-12.2,10.2c2.9,3,25.3,2.4,40.2,1.6
		c4.3-0.2,9.8-34.9,11.5-40c2.5-7.4,8.6-24,6.3-29.2c-1.1-2.5-6.4-7.7-13.9-12.5c-7.8-5.1-15.3-16.3-15.3-16.3L2476.3,1816.7z"/>
	<path class="st12" d="M2372.6,1839.4c0,0,9,25.3,9,25.4c0.7,4,3.3,13.9,3.3,17.6c0,13.7-61.7-11.6-47.9-17.7
		c1.3-0.5,5.2-4.9,5.6-9.6c0.6-7.2-5.2-16.2-5.2-16.2L2372.6,1839.4z"/>
	<g>
		<path class="st1" d="M2275.8,1368.3c0,0-4.5,45.4-4.5,46c0,73.4-14.5,216.7-11.8,230.5c6.7,33.6,79.4,205.3,79.4,205.3l39.2-4.7
			L2336,1638l9.8-80.8l26.6-163.5L2275.8,1368.3z"/>
		<path class="st8" d="M2407.5,1408.4l7.4,43l20.1,176.9l76.7,172.9c0,0-10.8,25.2-26.7,28.7L2363,1652.4l-75.9-227.2l2.7-50.5
			L2407.5,1408.4z"/>
	</g>
	<path class="st11" d="M2260.1,1260.3l54.4,5.6c0,0,2.5-44.6,2.5-65.9c0-25.8-2.2-59.1-5.3-58.4c-8.8,2-20.5,6.8-27.6,16.5
		C2259.9,1191.5,2260.1,1260.3,2260.1,1260.3z"/>
	<path class="st4" d="M2286.9,1195.4c-1.1,7.9-22.1,221.9-22.1,221.9c99.1,47.9,153.8,8.5,153.8,8.5s-3.2-150.3,0.6-170.7
		c2.6-13.5,5.8-103.5-3-106c-11.3-3.2-24.2-6.7-38.2-8.1c-12-1.2-58.6-2-67,0.8C2311,1141.8,2291.7,1162.3,2286.9,1195.4z"/>
	<path class="st4" d="M2514.8,1805.4c0,0-23.1,64.9-32.1,68.1c-2.4,0.8-13.9,2.9-16.1,8c-0.7,1.5,0,6.7,0,6.7h48.1
		c0,0,6.1-28.6,8.5-41.2c0,0,12.7-30.7,11.3-33.5C2533.1,1810.7,2514.8,1805.4,2514.8,1805.4z"/>
	<path class="st4" d="M2388.4,1886.9l-7.1-22.3c0,0-14.8,6.3-22.3,5.2c-7.4-1-21.9-5.2-21.9-5.2c-29.6,9.8-53.9,14.5-49.5,22.3l0,0
		H2388.4z"/>
	<g>
		<path class="st12" d="M2252.5,1351.6c-0.2-0.1-1-0.7-1.5-1.1c1.8-21,1.4-41.3-5.1-48.2c0.2-0.3,1.6-3.4,3.1-6.6
			c7.6,5.9,11.3,21.6,9.8,47c-0.1,1.7-0.6,3.1-1,5.3C2255.6,1350.5,2253.6,1352.1,2252.5,1351.6z"/>
	</g>
	<path class="st12" d="M2364.8,1099.6l6.4,42.1c0,0-23.3,50.1-37.3,45.8c-11.7-3.6-4.5-48-4.5-48s6.4-23.8,4.5-35.7
		S2364.8,1099.6,2364.8,1099.6z"/>
	<path class="st4" d="M2333.9,1103.8c-1.9-11.9,30.9-4.1,30.9-4.1l0.5,3.5c-1,2.3-2.1,4.3-3.6,5.9c-7.3,7.9-18.8,12.6-28.7,13
		C2334,1115.5,2334.6,1108.7,2333.9,1103.8z"/>
	<g>
		<path class="st12" d="M2370.2,1040.1c0.9-0.3,7.4,47.9-4.9,61.2s-36.4,17.6-45,7.2c-9.5-11.6-9.1-63.5,10.1-77.1
			C2349.5,1017.7,2370.2,1040.1,2370.2,1040.1z"/>
		<path class="st17" d="M2337.6,1005.5c14.8,3,24.4,12.1,28,16c6.7,0.8,15.9,4.5,25.3,20.2c11.6,19.3,3,40.6-10.5,51
			c-13.5,10.5-13.3,22.6-13.3,22.6l-2.1-6.3c-1.6-4.7-2.2-9.8-1.7-14.7c0.3-3,1-6.2,2.2-8.9c3.3-7-7-11.6-9.9-17.4
			c-2.2-4.5-2.3-14.7-5.8-22.1l-4.2-5.6c0,0-9.6-7.5-19-5.4C2317.3,1036.9,2318.6,1001.6,2337.6,1005.5z"/>
		<path class="st12" d="M2356.3,1076.5c-0.1,5.9,2.6,10.7,6,10.8c3.4,0.1,6.2-4.7,6.3-10.6s-2.6-10.7-6-10.8
			C2359.2,1065.9,2356.4,1070.7,2356.3,1076.5z"/>
	</g>
	<path class="st16" d="M2336.2,1090.2l-18.6-1c0,0,0.1,7.1,8.2,7.8C2335.8,1097.8,2336.2,1090.2,2336.2,1090.2z"/>
	<g>
		<path class="st17" d="M2183.9,1200.2c4.4-4.5,8.4-9.1,12.2-13.8l81.2,79.3c5,4.9,3.3,14.7-3.8,22c-7.1,7.3-16.9,9.2-21.9,4.4
			l-81.2-79.3C2175,1208.9,2179.5,1204.7,2183.9,1200.2z"/>
		
			<ellipse transform="matrix(0.6988 -0.7153 0.7153 0.6988 -141.5411 1773.186)" class="st23" cx="2034.9" cy="1054.7" rx="204.9" ry="206.1"/>
		<path class="st16" d="M2182.6,1196.5c-33.7,35.8-79.8,59.2-130.4,63.8l-222.2-225.9c0-0.4,0.1-0.9,0.1-1.3
			c5.5-51.6,29.5-96.7,64.6-129.3L2182.6,1196.5z"/>
		<path class="st16" d="M2033.1,848.9l205.5,208.9c-0.1,6.3-0.5,12.7-1.2,19.1c-3.1,29.2-12.2,56.3-25.8,80.3l-277.5-282.1
			C1963.7,858.5,1997.5,849.1,2033.1,848.9z"/>
		<path class="st15" d="M1873,1220.4c92.1,89.9,239.2,88.6,328.6-2.9c89.4-91.5,87.2-238.6-4.9-328.5
			c-92.1-89.9-239.2-88.6-328.6,2.9C1778.8,983.4,1781,1130.4,1873,1220.4z M1891.7,1201.2c-81.5-79.5-83.4-209.7-4.3-290.6
			c79.1-81,209.2-82.1,290.6-2.5c81.5,79.5,83.4,209.7,4.3,290.6C2103.3,1279.7,1973.2,1280.8,1891.7,1201.2z"/>
		<path class="st24" d="M1882.9,1210.3c86.5,84.5,224.7,83.3,308.6-2.7c84-86,81.9-224.1-4.6-308.6c-86.5-84.5-224.7-83.3-308.6,2.7
			C1794.3,987.7,1796.4,1125.8,1882.9,1210.3z M1891.7,1201.2c-81.5-79.5-83.4-209.7-4.3-290.6c79.1-81,209.2-82.1,290.6-2.5
			c81.5,79.5,83.4,209.7,4.3,290.6C2103.3,1279.7,1973.2,1280.8,1891.7,1201.2z"/>
		<path class="st15" d="M2529.7,1548.4l12.6-13.1c12.6-13.1,12.2-33.9-0.8-46.5l-234.5-227.4c-13.1-12.6-33.9-12.2-46.5,0.9
			l-12.6,13.1c-12.6,13.1-12.2,33.9,0.9,46.5l234.5,227.4C2496.2,1561.8,2517.1,1561.4,2529.7,1548.4z"/>
	</g>
	<path class="st25" d="M2516.7,1419.6c0.1-0.5,0.1-0.9,0-1.4c-1.5-14.8-13.8-139.3-15.8-144.6c-1.9-4.8-57.1-83.7-57.1-83.7
		l-27.1,37l53.1,70.8c1.2,4.5,20.3,88.5,20.3,88.5s3.9,15.3,5.7,24.5c-0.8,2.2-1.6,4.3-2.3,6c-1.8,3.7-3.8,6.7-5.7,9.2
		c-2.4,3.2-6.3,10.1-6.8,12c-0.6,2.2-1.6,6.7-2.1,9.4c-0.6,2.7-1.4,5.9-1.5,7.3c-0.1,0.9-1,2.7-1.7,3.9c-1.1,1.9,0.7,4.1,2.8,3.4
		c1.9-0.6,3.4-3.1,4.4-4.7c2.6-4.4,4-12.4,4.7-12c0.6,0.4,2.9,14,3.3,15.6c0.4,1.5,3.1,17.3,4.7,20.2c1.5,2.9,3.6,2.4,4.1,0.6
		c0.5-1.6-1.7-23.7-1.7-23.7s-0.3-2.8,1-1.9c1.2,0.9,3.3,20.9,4.1,23.9c0.9,2.9,2.8,4.5,4.5,2.1c2-2.9-1.5-24.1-1.5-24.1
		s-0.4-2.7,0.8-2.4s2.6,17.3,3.5,18.8c0.9,1.5,3.1,2,4.2-0.5c1.3-2.9-2-21.9-2-21.9s0.2-1.5,0.9-1c0.7,0.5,3,15,4.4,16.3
		c1.2,1.1,2.3,0,2.3,0c2.7-1.8-1.4-15.6-1.4-22.5c0-6.9-3.1-14.6-2.2-22.7C2516.5,1421.6,2516.6,1420.4,2516.7,1419.6z"/>
	<path class="st4" d="M2487,1239.9l-47.1,31.7c0,0-26.6-39.5-40.8-53.6c-17.9-17.6,6.5-71.7,18-68.6
		C2442.8,1156.2,2487,1239.9,2487,1239.9z"/>
</g>
<rect x="238" y="1883" class="st17" width="2346" height="14"/>
</svg>
