<svg id="Layer_1" data-name="Layer 1" xmlns="http://www.w3.org/2000/svg" xmlns:xlink="http://www.w3.org/1999/xlink" viewBox="0 0 552 336.63"><defs><style>.cls-1{fill:#f1f3f8;}.cls-2{fill:url(#linear-gradient);}.cls-3{fill:#a0accd;}.cls-4{fill:#475e9f;}.cls-5{fill:#354e95;}.cls-6{fill:#c4cce0;}.cls-7{fill:url(#linear-gradient-2);}.cls-8{fill:#808fbc;}.cls-9{fill:#6175ac;}.cls-10{fill:#edeff5;}.cls-11{fill:#e1e4ef;}.cls-12{fill:#455c9d;}.cls-13{fill:#231f20;}.cls-14{fill:#7485b6;}</style><linearGradient id="linear-gradient" x1="244.52" y1="327.86" x2="323.1" y2="471.12" gradientUnits="userSpaceOnUse"><stop offset="0" stop-color="#6175ac"/><stop offset="1" stop-color="#4f65a3"/></linearGradient><linearGradient id="linear-gradient-2" x1="548.2" y1="-473.78" x2="626.09" y2="-338.32" gradientTransform="translate(54.88 786.09)" xlink:href="#linear-gradient"/></defs><title>enterprise</title><path class="cls-1" d="M727.5,388.66c-9.23-18.55-33-25.65-60.57-22.51,4.6-15.4-3.22-34.33-25.69-40a107.83,107.83,0,0,0-16-2.8c10.76-19.5-6.79-39.61-33.68-45.2A48.83,48.83,0,0,0,579.38,276a89.72,89.72,0,0,0-42.22,6c0.59-6.86-1.7-13.61-7.61-19.37-15.83-15.42-49.83-21.2-76.1-8.15l-19,9.43c-9-6.89-18-9-32.16-7-34,4.87-68.55,14.22-101.43,22.87-26.59,7-52.66,17.24-80,22.15-25.06,4.49-41.26,27.43-33.81,42.41,8,16.14,28.7,22.32,52.71,19.59-1.24,4.15-44.42,24.85-43.53,29.15C187.63,410,198,429.2,220.64,436.29a79.86,79.86,0,0,0,13,2.86c5.13,8.3,15.64,15,28.71,17.67a42.58,42.58,0,0,0,10.58,1.85,87.34,87.34,0,0,0,9.49.3,26.9,26.9,0,0,0-1.81,5.61c-3.73,18.94,13.16,34.51,39.84,38.3,24.24,3.44,50.16-2.59,68.65-15.52,0.49-.35.94-0.74,1.42-1.09,1.58-.83,4.37-2.31,4.84-2.55,6.48-3.2,13.19-6.19,19.92-9.12,4.48-1.95,9-3.85,13.53-5.75,0.16,0.26.29,0.53,0.46,0.79,7.82,11.92,29.19,22.58,50.83,19.48,39.08-5.59,78.77-16.35,116.55-26.28,30.55-8,60.51-19.82,92-25.45C717.45,432.23,736.06,405.86,727.5,388.66Z" transform="translate(-177.6 -208.71)"/><path class="cls-2" d="M290.73,316.82a77.59,77.59,0,0,0-86.05,61.3,2.38,2.38,0,0,1-1.83-1.42l-3.05,22.37c2.63-.31,2.5.61,3.5,0.8A77.61,77.61,0,1,0,290.73,316.82Z" transform="translate(-177.6 -208.71)"/><ellipse class="cls-3" cx="255.73" cy="335.12" rx="17.57" ry="8.17" transform="translate(-323.28 -2.31) rotate(-34.87)"/><path class="cls-4" d="M259.71,340.83c-6.19,4.31-12.8,5.76-15.58,3.58a3.48,3.48,0,0,1-.69-0.73c-2.2-3.15,1.52-9.55,8.3-14.28s14.07-6,16.27-2.85c0.86,1.23.81,2.95,0,4.87C266.85,334.44,263.85,337.95,259.71,340.83Z" transform="translate(-177.6 -208.71)"/><path class="cls-5" d="M259.71,340.83c-6.19,4.31-12.8,5.76-15.58,3.58,1.21-3,4.21-6.53,8.35-9.41,6.19-4.31,12.79-5.75,15.56-3.58C266.85,334.44,263.85,337.95,259.71,340.83Z" transform="translate(-177.6 -208.71)"/><ellipse class="cls-3" cx="291.45" cy="355.31" rx="8.56" ry="13.58" transform="translate(-283.9 376.79) rotate(-80.7)"/><path class="cls-4" d="M290.27,362.52c-5.75-.94-10.09-4.4-10.3-8a4.62,4.62,0,0,1,.05-1c0.65-4,6.3-6.37,12.61-5.33s10.9,5.1,10.25,9.07a5.65,5.65,0,0,1-2.78,3.81A14.38,14.38,0,0,1,290.27,362.52Z" transform="translate(-177.6 -208.71)"/><path class="cls-5" d="M290.27,362.52c-5.75-.94-10.09-4.4-10.3-8a14.46,14.46,0,0,1,9.83-1.52c5.75,0.94,10.07,4.41,10.29,8A14.38,14.38,0,0,1,290.27,362.52Z" transform="translate(-177.6 -208.71)"/><ellipse class="cls-3" cx="201.33" cy="387.89" rx="11.29" ry="5.25" transform="translate(-387.82 326.22) rotate(-82.23)"/><path class="cls-4" d="M205.76,388.5c-0.66,4.8-2.85,8.56-5.09,8.92a2.18,2.18,0,0,1-.65,0c-2.45-.33-3.85-4.88-3.13-10.14s3.29-9.26,5.74-8.93a3.25,3.25,0,0,1,2.31,2.1A14.91,14.91,0,0,1,205.76,388.5Z" transform="translate(-177.6 -208.71)"/><path class="cls-5" d="M205.76,388.5c-0.66,4.8-2.85,8.56-5.09,8.92a15,15,0,0,1-.81-8c0.65-4.8,2.85-8.55,5.08-8.91A14.91,14.91,0,0,1,205.76,388.5Z" transform="translate(-177.6 -208.71)"/><ellipse class="cls-3" cx="334.72" cy="353.16" rx="5.25" ry="11.29" transform="translate(-318.25 40.62) rotate(-34.21)"/><path class="cls-4" d="M331,355.68c-2.72-4-3.61-8.26-2.19-10a2.15,2.15,0,0,1,.48-0.44c2-1.39,6.12,1,9.11,5.44s3.76,9.08,1.71,10.47a3.26,3.26,0,0,1-3.13,0A14.92,14.92,0,0,1,331,355.68Z" transform="translate(-177.6 -208.71)"/><path class="cls-5" d="M331,355.68c-2.72-4-3.61-8.26-2.19-10a15,15,0,0,1,6,5.44c2.73,4,3.6,8.26,2.18,10A14.92,14.92,0,0,1,331,355.68Z" transform="translate(-177.6 -208.71)"/><ellipse class="cls-3" cx="304.61" cy="331.79" rx="2.59" ry="5.57" transform="translate(-315.54 206.85) rotate(-58.16)"/><path class="cls-4" d="M303.45,333.67c-2-1.26-3.28-3-3-4.08a1.14,1.14,0,0,1,.13-0.29c0.64-1,3-.75,5.2.63s3.51,3.34,2.87,4.38a1.61,1.61,0,0,1-1.41.62A7.37,7.37,0,0,1,303.45,333.67Z" transform="translate(-177.6 -208.71)"/><path class="cls-5" d="M303.45,333.67c-2-1.26-3.28-3-3-4.08a7.37,7.37,0,0,1,3.79,1.25c2,1.26,3.28,3,3,4.08A7.37,7.37,0,0,1,303.45,333.67Z" transform="translate(-177.6 -208.71)"/><ellipse class="cls-3" cx="213.16" cy="417.44" rx="2.87" ry="6.18" transform="translate(-311.8 -105.96) rotate(-20.77)"/><path class="cls-4" d="M215.45,416.57c-0.94-2.48-2.58-4.22-3.81-4.14a1.32,1.32,0,0,0-.35.07c-1.27.48-1.46,3.08-.42,5.8s2.89,4.54,4.16,4.06a1.79,1.79,0,0,0,1-1.41A8.2,8.2,0,0,0,215.45,416.57Z" transform="translate(-177.6 -208.71)"/><path class="cls-5" d="M215.45,416.57c-0.94-2.48-2.58-4.22-3.81-4.14a8.18,8.18,0,0,0,.56,4.39c0.94,2.48,2.57,4.21,3.81,4.13A8.2,8.2,0,0,0,215.45,416.57Z" transform="translate(-177.6 -208.71)"/><ellipse class="cls-6" cx="216.11" cy="373.06" rx="3.45" ry="1.6" transform="translate(-373.68 290.72) rotate(-76.96)"/><path class="cls-4" d="M217.44,373.37c0.33-1.44.12-2.75-.48-3.1a0.62,0.62,0,0,0-.18-0.07c-0.74-.17-1.63,1-2,2.55s-0.07,3,.67,3.17a1,1,0,0,0,.89-0.35A4.53,4.53,0,0,0,217.44,373.37Z" transform="translate(-177.6 -208.71)"/><path class="cls-5" d="M217.44,373.37c0.33-1.44.12-2.75-.48-3.1a4.61,4.61,0,0,0-1.11,2.21c-0.33,1.44-.11,2.75.48,3.1A4.53,4.53,0,0,0,217.44,373.37Z" transform="translate(-177.6 -208.71)"/><ellipse class="cls-3" cx="347.45" cy="415.72" rx="6.18" ry="2.88" transform="translate(-342.04 384.52) rotate(-69.24)"/><path class="cls-4" d="M345.16,414.85c0.94-2.48,2.57-4.22,3.81-4.13a1.13,1.13,0,0,1,.35.07c1.27,0.48,1.45,3.08.42,5.8s-2.9,4.54-4.16,4.06a1.79,1.79,0,0,1-1-1.41A8.14,8.14,0,0,1,345.16,414.85Z" transform="translate(-177.6 -208.71)"/><path class="cls-5" d="M345.16,414.85c0.94-2.48,2.57-4.22,3.81-4.13a8.21,8.21,0,0,1-.56,4.39c-0.94,2.48-2.57,4.21-3.81,4.13A8.14,8.14,0,0,1,345.16,414.85Z" transform="translate(-177.6 -208.71)"/><ellipse class="cls-3" cx="346.07" cy="375.99" rx="1.6" ry="3.45" transform="translate(-197.92 -188.93) rotate(-3.18)"/><path class="cls-4" d="M344.71,376.07c-0.08-1.48.36-2.73,1-3a0.73,0.73,0,0,1,.19,0c0.75,0,1.44,1.24,1.53,2.86s-0.45,3-1.2,3a1,1,0,0,1-.82-0.5A4.54,4.54,0,0,1,344.71,376.07Z" transform="translate(-177.6 -208.71)"/><path class="cls-5" d="M344.71,376.07c-0.08-1.48.36-2.73,1-3a4.55,4.55,0,0,1,.71,2.36c0.08,1.48-.36,2.73-1,3A4.54,4.54,0,0,1,344.71,376.07Z" transform="translate(-177.6 -208.71)"/><ellipse class="cls-3" cx="229.24" cy="358.82" rx="5.57" ry="2.59" transform="translate(-334.94 -28.36) rotate(-32.65)"/><path class="cls-4" d="M230.43,360.67c-2,1.29-4.13,1.67-5,.94a1,1,0,0,1-.21-0.24c-0.66-1,.6-3,2.81-4.42s4.53-1.73,5.19-.7a1.61,1.61,0,0,1,0,1.54A7.37,7.37,0,0,1,230.43,360.67Z" transform="translate(-177.6 -208.71)"/><path class="cls-5" d="M230.43,360.67c-2,1.29-4.13,1.67-5,.94a7.42,7.42,0,0,1,2.76-2.88c2-1.29,4.12-1.66,5-.94A7.37,7.37,0,0,1,230.43,360.67Z" transform="translate(-177.6 -208.71)"/><ellipse class="cls-3" cx="255.73" cy="457.3" rx="8.17" ry="17.57" transform="translate(-443.26 196.92) rotate(-55.13)"/><path class="cls-4" d="M259.71,451.58c-6.19-4.31-12.8-5.76-15.58-3.58a3.56,3.56,0,0,0-.69.73c-2.2,3.16,1.52,9.55,8.3,14.28s14.07,6,16.27,2.85c0.86-1.23.81-2.95,0-4.87C266.85,458,263.85,454.47,259.71,451.58Z" transform="translate(-177.6 -208.71)"/><path class="cls-5" d="M259.71,451.58c-6.19-4.31-12.8-5.76-15.58-3.58,1.21,3,4.21,6.53,8.35,9.41,6.19,4.31,12.79,5.75,15.56,3.57C266.85,458,263.85,454.47,259.71,451.58Z" transform="translate(-177.6 -208.71)"/><ellipse class="cls-3" cx="291.45" cy="437.1" rx="13.58" ry="8.56" transform="translate(-244.42 -155.85) rotate(-9.3)"/><path class="cls-4" d="M290.27,429.9c-5.75.94-10.09,4.4-10.3,8a4.6,4.6,0,0,0,.05,1c0.65,4,6.3,6.37,12.61,5.34s10.9-5.1,10.25-9.08a5.65,5.65,0,0,0-2.78-3.81A14.42,14.42,0,0,0,290.27,429.9Z" transform="translate(-177.6 -208.71)"/><path class="cls-5" d="M290.27,429.9c-5.75.94-10.09,4.4-10.3,8a14.49,14.49,0,0,0,9.83,1.52c5.75-.94,10.07-4.41,10.29-8A14.42,14.42,0,0,0,290.27,429.9Z" transform="translate(-177.6 -208.71)"/><ellipse class="cls-3" cx="334.72" cy="439.25" rx="11.29" ry="5.25" transform="translate(-394.32 260.34) rotate(-55.79)"/><path class="cls-4" d="M331,436.74c-2.72,4-3.61,8.26-2.19,10a2.08,2.08,0,0,0,.48.44c2,1.39,6.12-1,9.11-5.44s3.76-9.08,1.71-10.47a3.26,3.26,0,0,0-3.13,0A14.93,14.93,0,0,0,331,436.74Z" transform="translate(-177.6 -208.71)"/><path class="cls-5" d="M331,436.74c-2.72,4-3.61,8.26-2.19,10a15,15,0,0,0,6-5.44c2.73-4,3.6-8.26,2.18-10A14.93,14.93,0,0,0,331,436.74Z" transform="translate(-177.6 -208.71)"/><ellipse class="cls-3" cx="304.61" cy="460.62" rx="5.57" ry="2.59" transform="translate(-374.75 21.27) rotate(-31.84)"/><path class="cls-4" d="M303.45,458.75c-2,1.26-3.28,3-3,4.09a1.12,1.12,0,0,0,.13.29c0.64,1,3,.75,5.2-0.63s3.51-3.34,2.87-4.38a1.61,1.61,0,0,0-1.41-.62A7.34,7.34,0,0,0,303.45,458.75Z" transform="translate(-177.6 -208.71)"/><path class="cls-5" d="M303.45,458.75c-2,1.26-3.28,3-3,4.09a7.38,7.38,0,0,0,3.79-1.25c2-1.26,3.28-3,3-4.08A7.34,7.34,0,0,0,303.45,458.75Z" transform="translate(-177.6 -208.71)"/><ellipse class="cls-3" cx="229.24" cy="433.6" rx="2.59" ry="5.57" transform="translate(-437.13 184.17) rotate(-57.37)"/><path class="cls-4" d="M230.43,431.74c-2-1.29-4.13-1.66-5-.94a1.11,1.11,0,0,0-.21.24c-0.66,1,.6,3,2.81,4.42s4.53,1.73,5.19.7a1.61,1.61,0,0,0,0-1.54A7.39,7.39,0,0,0,230.43,431.74Z" transform="translate(-177.6 -208.71)"/><path class="cls-5" d="M230.43,431.74c-2-1.29-4.13-1.66-5-.94a7.43,7.43,0,0,0,2.76,2.88c2,1.29,4.12,1.66,5,.94A7.39,7.39,0,0,0,230.43,431.74Z" transform="translate(-177.6 -208.71)"/><ellipse class="cls-3" cx="253.82" cy="430.97" rx="4.43" ry="9.52" transform="translate(-379.72 427.87) rotate(-83.78)"/><path class="cls-4" d="M254.23,427.22c4.06,0.44,7.28,2.2,7.64,4.08a1.81,1.81,0,0,1,0,.55c-0.22,2.07-4,3.36-8.48,2.87s-7.89-2.56-7.66-4.63a2.76,2.76,0,0,1,1.72-2A12.58,12.58,0,0,1,254.23,427.22Z" transform="translate(-177.6 -208.71)"/><path class="cls-5" d="M254.23,427.22c4.06,0.44,7.28,2.2,7.64,4.08a12.64,12.64,0,0,1-6.77.87c-4.06-.44-7.27-2.21-7.63-4.08A12.58,12.58,0,0,1,254.23,427.22Z" transform="translate(-177.6 -208.71)"/><ellipse class="cls-3" cx="246.42" cy="414.42" rx="4.64" ry="7.36" transform="translate(-385.2 43.47) rotate(-39.6)"/><path class="cls-4" d="M249.47,411.89c2,2.43,2.55,5.39,1.35,6.95a2.48,2.48,0,0,1-.39.41c-1.69,1.39-4.84.36-7.05-2.31s-2.63-6-1-7.36a3.07,3.07,0,0,1,2.49-.56A7.81,7.81,0,0,1,249.47,411.89Z" transform="translate(-177.6 -208.71)"/><path class="cls-5" d="M249.47,411.89c2,2.43,2.55,5.39,1.35,6.95a7.83,7.83,0,0,1-4.56-2.88c-2-2.43-2.54-5.39-1.35-6.94A7.81,7.81,0,0,1,249.47,411.89Z" transform="translate(-177.6 -208.71)"/><ellipse class="cls-3" cx="227.98" cy="395.46" rx="6.12" ry="2.84" transform="translate(-369.51 365.78) rotate(-83.13)"/><path class="cls-4" d="M230.39,395.75c-0.32,2.61-1.47,4.66-2.68,4.87a1.22,1.22,0,0,1-.35,0c-1.33-.16-2.13-2.61-1.78-5.47s1.7-5,3-4.89a1.77,1.77,0,0,1,1.27,1.12A8.13,8.13,0,0,1,230.39,395.75Z" transform="translate(-177.6 -208.71)"/><path class="cls-5" d="M230.39,395.75c-0.32,2.61-1.47,4.66-2.68,4.87a8.14,8.14,0,0,1-.51-4.35c0.32-2.61,1.47-4.66,2.68-4.87A8.13,8.13,0,0,1,230.39,395.75Z" transform="translate(-177.6 -208.71)"/><ellipse class="cls-3" cx="232.66" cy="414.91" rx="1.4" ry="3.02" transform="translate(-289.25 -122.02) rotate(-17.09)"/><path class="cls-4" d="M233.81,414.56c0.38,1.24.27,2.4-.23,2.73l-0.16.08c-0.63.19-1.48-.75-1.9-2.11s-0.25-2.61.39-2.81a0.89,0.89,0,0,1,.8.25A4,4,0,0,1,233.81,414.56Z" transform="translate(-177.6 -208.71)"/><path class="cls-5" d="M233.81,414.56c0.38,1.24.27,2.4-.23,2.73a4,4,0,0,1-1.1-1.86c-0.38-1.24-.27-2.39.23-2.73A4,4,0,0,1,233.81,414.56Z" transform="translate(-177.6 -208.71)"/><ellipse class="cls-3" cx="327.01" cy="419.24" rx="7.36" ry="4.64" transform="translate(-382.06 195.27) rotate(-50.4)"/><path class="cls-4" d="M324,416.72c-2,2.43-2.55,5.39-1.35,6.95a2.37,2.37,0,0,0,.4.41c1.68,1.39,4.84.36,7-2.31s2.63-6,1-7.36a3.07,3.07,0,0,0-2.49-.56A7.8,7.8,0,0,0,324,416.72Z" transform="translate(-177.6 -208.71)"/><path class="cls-5" d="M324,416.72c-2,2.43-2.55,5.39-1.35,6.95a7.85,7.85,0,0,0,4.56-2.88c2-2.43,2.54-5.39,1.35-6.94A7.8,7.8,0,0,0,324,416.72Z" transform="translate(-177.6 -208.71)"/><ellipse class="cls-3" cx="344.66" cy="387.87" rx="2.84" ry="6.12" transform="translate(-221.53 -164.68) rotate(-6.87)"/><path class="cls-4" d="M342.25,388.16c0.32,2.61,1.47,4.66,2.68,4.87a1.12,1.12,0,0,0,.35,0c1.33-.16,2.13-2.61,1.78-5.47s-1.7-5-3-4.89a1.78,1.78,0,0,0-1.27,1.12A8.09,8.09,0,0,0,342.25,388.16Z" transform="translate(-177.6 -208.71)"/><path class="cls-5" d="M342.25,388.16c0.32,2.61,1.47,4.66,2.68,4.87a8.13,8.13,0,0,0,.51-4.35c-0.31-2.61-1.47-4.66-2.68-4.87A8.09,8.09,0,0,0,342.25,388.16Z" transform="translate(-177.6 -208.71)"/><ellipse class="cls-3" cx="339.98" cy="407.32" rx="3.02" ry="1.4" transform="translate(-326.65 404.4) rotate(-72.97)"/><path class="cls-4" d="M338.83,407c-0.38,1.24-.27,2.39.23,2.73a0.52,0.52,0,0,0,.16.07c0.63,0.2,1.48-.75,1.9-2.11s0.24-2.62-.39-2.81a0.87,0.87,0,0,0-.8.25A4,4,0,0,0,338.83,407Z" transform="translate(-177.6 -208.71)"/><path class="cls-5" d="M338.83,407c-0.38,1.24-.27,2.39.23,2.73a4,4,0,0,0,1.1-1.86c0.38-1.24.27-2.39-.23-2.73A4,4,0,0,0,338.83,407Z" transform="translate(-177.6 -208.71)"/><ellipse class="cls-3" cx="311.81" cy="428.16" rx="1.4" ry="3.02" transform="translate(-335.23 464.75) rotate(-81.52)"/><path class="cls-4" d="M312,427c1.28,0.19,2.28.79,2.37,1.39a0.56,0.56,0,0,1,0,.17c-0.1.65-1.32,1-2.72,0.8s-2.46-.91-2.37-1.56a0.88,0.88,0,0,1,.57-0.61A4,4,0,0,1,312,427Z" transform="translate(-177.6 -208.71)"/><path class="cls-5" d="M312,427c1.28,0.19,2.28.79,2.37,1.39a4,4,0,0,1-2.15.19c-1.28-.19-2.27-0.79-2.37-1.39A4,4,0,0,1,312,427Z" transform="translate(-177.6 -208.71)"/><circle class="cls-7" cx="639.45" cy="375.57" r="42.36" transform="translate(-278.41 211.17) rotate(-33.85)"/><path class="cls-8" d="M684.54,346.07c2.69,4-15.23,20.77-40,37.42s-47.13,26.86-49.81,22.86c-0.92-1.38.52-4.15,3.78-7.94-0.68,1.36-.8,2.43-0.33,3.13,2.58,3.85,22.74-5.13,45-20.07s38.26-30.19,35.67-34c-0.45-.67-1.48-1-3-0.88C680.52,345,683.63,344.71,684.54,346.07Z" transform="translate(-177.6 -208.71)"/><path class="cls-9" d="M436.52,417.38c-20,14.75-66.7,43.57-87.93,56.26a661.63,661.63,0,0,1-65.72,34.9,356.91,356.91,0,0,1-35.1,14c-6.07,2-12.25,3.76-18.65,5.19A100.65,100.65,0,0,1,209,530.31a56.78,56.78,0,0,1-11.15-.93,32.58,32.58,0,0,1-11.88-4.66,19.15,19.15,0,0,1-6-6.63,20.05,20.05,0,0,1-2.19-7.46A31.13,31.13,0,0,1,179,498.72a62,62,0,0,1,9-17.93,69,69,0,0,1,13.19-14.14c-1.2,6.4-2.62,12.44-3.91,18.32a115.9,115.9,0,0,0-2.76,16.75A18.92,18.92,0,0,0,195,508a3.29,3.29,0,0,0,.61,1.22,0.34,0.34,0,0,0,.24,0c2.52,1.49,7.37,2,12.4,1.68,10.34-.88,21.65-4.31,32.55-8.39s21.88-9,32.69-14.13c21.6-10.39,42.81-22,63.92-34s68.1-39.89,88.84-52.27Z" transform="translate(-177.6 -208.71)"/><path class="cls-9" d="M379.68,476.19c-12.86,10.25-26.34,19.68-40.17,28.6-6.92,4.46-13.92,8.81-21.09,12.89s-14.38,8.14-21.85,11.75-15.06,7.07-23,10c-8,2.77-16.14,5.32-25.36,5.86a35.85,35.85,0,0,1-7.23-.39,20.65,20.65,0,0,1-7.69-2.8,12.1,12.1,0,0,1-3.83-4.11,12.89,12.89,0,0,1-1.47-4.73,20.52,20.52,0,0,1,.69-7.8,40.83,40.83,0,0,1,5.76-12,44.25,44.25,0,0,1,8.66-9.54c-0.83,4.27-1.84,8.28-2.78,12.19a84.84,84.84,0,0,0-2.14,11.19,14.31,14.31,0,0,0,.09,4.41,4,4,0,0,0,.4,1.08,1.57,1.57,0,0,0,.35.32c1.87,1.27,5.29,1.78,8.79,1.67,7.19-.3,14.92-2.45,22.39-5s15-5.52,22.41-8.79c14.8-6.52,29.34-13.91,43.82-21.45S365.28,484.1,379.68,476.19Z" transform="translate(-177.6 -208.71)"/><path class="cls-10" d="M602.4,334.39l-10.67,7.93-21.87,16.26-1.8,1.31c-39.68,28.82-68.65,49.32-68.65,49.32l-60.57-70.89s24.79-25.38,59.47-60l1.58-1.57,19.49-19,9.51-9.29c26.73-22.82,59.26-34.42,83.51-37.86,1.34-.2,2.66-0.36,4-0.52q3.21-.38,6.25-0.63c22.41-1.89,38,1,38,1s0.4,15.82-5,37.66q-0.74,3-1.61,6.08c-0.36,1.26-.74,2.55-1.14,3.84C645.68,281.3,629.12,311.58,602.4,334.39Z" transform="translate(-177.6 -208.71)"/><path class="cls-6" d="M602.4,334.39l-10.67,7.93-21.87,16.26-1.8,1.31c-39.68,28.82-68.65,49.32-68.65,49.32l-30.29-35.44L660.6,210.33S659.73,285.45,602.4,334.39Z" transform="translate(-177.6 -208.71)"/><rect class="cls-11" x="456.65" y="331.74" width="14.19" height="93.24" transform="translate(-312.22 182.9) rotate(-40.48)"/><polygon class="cls-12" points="263.57 257.85 195.47 178.15 213.67 165.14 218.74 161.51 227.21 155.46 232.27 151.84 250.46 138.82 311.04 209.71 295.33 225.64 290.96 230.07 283.65 237.48 279.28 241.92 263.57 257.85"/><polygon class="cls-13" points="279.28 241.92 213.67 165.14 218.74 161.51 227.21 155.46 232.27 151.84 295.33 225.64 290.96 230.07 283.65 237.48 279.28 241.92"/><path class="cls-9" d="M591.74,342.32l-21.87,16.26-1.8,1.31-69.74-81.61,1.58-1.57,19.49-19Z" transform="translate(-177.6 -208.71)"/><path class="cls-9" d="M565.42,328.87c12.92-11,15.15-29.63,5-41.54s-28.91-12.62-41.83-1.59-15.15,29.63-5,41.54S552.5,339.9,565.42,328.87Z" transform="translate(-177.6 -208.71)"/><path class="cls-14" d="M562.12,325c10.61-9.06,12.44-24.32,4.08-34.1s-23.72-10.36-34.33-1.3-12.43,24.32-4.08,34.09S551.51,334.05,562.12,325Z" transform="translate(-177.6 -208.71)"/><polygon class="cls-9" points="381.21 157.89 310.65 284.04 311.04 209.71 321.83 200.49 381.21 157.89"/><polygon class="cls-9" points="312.65 77.66 176.95 127.57 250.46 138.82 261.26 129.61 312.65 77.66"/><path class="cls-9" d="M463.82,387.49a344,344,0,0,1-56.7,39.22,339.88,339.88,0,0,1,104.33-89.06A344,344,0,0,1,463.82,387.49Z" transform="translate(-177.6 -208.71)"/><path class="cls-6" d="M560,289.86a2.54,2.54,0,0,0-1.09-.21,2.64,2.64,0,0,0-2.13,1.68,3,3,0,0,0-.1,2.71c3.26,4.61,5,9.26,4.85,14.63s-4.14,9.78-8.75,12.6c-3.34,2-8.54,1.85-11.5,4.72-3.44,3.33,5.81,3.26,7.33,2.94a26.09,26.09,0,0,0,13.71-7.83c8.44-9.23,9.24-24.72-1.67-30.91A6.37,6.37,0,0,0,560,289.86Z" transform="translate(-177.6 -208.71)"/><path class="cls-9" d="M655.62,248c-5.71-5.77-11.43-12-17.06-18.57s-11-13.42-15.92-20.06c22.41-1.89,38,1,38,1S661,226.14,655.62,248Z" transform="translate(-177.6 -208.71)"/><path class="cls-9" d="M653.46,256a2.58,2.58,0,0,0,.13-0.46L654,254c-0.28-.26-0.48-0.53-0.78-0.77l0,0c-6.33-6.32-12.64-13.1-18.74-20.29l-0.13-.18q-9.7-11.32-17.88-22.8l0,0c-0.67.08-1.31,0.17-2,.27s-1.32.17-2,.29c5.8,8.16,12.24,16.44,19.16,24.56l0,0,0.12,0.14c6.64,7.76,13.42,15.09,20.29,21.84l0,0c0.26,0.29.53,0.52,0.78,0.81l0,0C653.11,257.27,653.29,256.62,653.46,256Z" transform="translate(-177.6 -208.71)"/></svg>