<svg id="Layer_1" data-name="Layer 1" xmlns="http://www.w3.org/2000/svg" viewBox="0 0 552 242.09"><defs><style>.cls-1{fill:#f1f3f8;}.cls-2{fill:#bcc5dc;}.cls-3{fill:#576ca7;}.cls-4{fill:#8a98c2;}.cls-5{fill:#435a9c;}.cls-6{fill:#354e95;}.cls-7{fill:#fff;}.cls-8{fill:#6377ad;}</style></defs><title>growth</title><path class="cls-1" d="M-149.86,360.71c-8.22-16.51-29.37-22.84-53.93-20,4.1-13.71-2.86-30.56-22.88-35.61a96.37,96.37,0,0,0-14.26-2.49c9.58-17.36-6-35.27-30-40.24a43.48,43.48,0,0,0-10.83-1.89,84.38,84.38,0,0,0-21,.7,85.4,85.4,0,0,0-16.63,4.66c0.52-6.11-1.51-12.12-6.78-17.25-14.1-13.73-44.37-18.88-67.76-7.26l-16.91,8.4c-8-6.13-16-8-28.64-6.23-30.28,4.33-61,12.67-90.31,20.36-23.67,6.22-46.89,15.35-71.27,19.72-22.32,4-36.74,24.43-30.1,37.76,7.15,14.37,25.56,19.87,46.93,17.45-1.11,3.69-39.55,22.13-38.76,26-7.62,15,1.63,32.11,21.76,38.43a70.82,70.82,0,0,0,11.58,2.55C-585,413.07-575.67,419-564,421.42a37.91,37.91,0,0,0,9.42,1.64,77.77,77.77,0,0,0,8.45.26,24.17,24.17,0,0,0-1.61,5c-3.32,16.86,11.72,30.73,35.48,34.1,21.58,3.07,44.66-2.31,61.13-13.82,0.44-.31.84-0.66,1.26-1,1.41-.74,3.9-2.06,4.31-2.27,5.77-2.86,11.74-5.51,17.74-8.12,4-1.74,8-3.43,12-5.12,0.14,0.23.26,0.47,0.41,0.7,7,10.62,26,20.1,45.26,17.35,34.8-5,70.14-14.55,103.78-23.4,27.2-7.15,53.88-17.64,81.9-22.66C-158.81,399.52-142.24,376-149.86,360.71Z" transform="translate(645.32 -221.19)"/><path class="cls-2" d="M-93.32,350c0,4.41-4.37,8.62-9.77,9.41a10.62,10.62,0,0,1-5.3-.5,12.88,12.88,0,0,1-5.54,2.22,10.24,10.24,0,0,1-6.17-.88,12.72,12.72,0,0,1-4.48,2.33l-0.61.16V326.48c0.44,0,.87-0.06,1.29-0.07,7.32-.16,13,4.1,13.16,10.26,4.75-.15,8.39,2.64,8.39,6.66v0C-97.3,342.92-93.32,345.77-93.32,350Z" transform="translate(645.32 -221.19)"/><path class="cls-2" d="M-156.24,350.34c0,4.41,4.26,8.57,9.52,9.3a10.14,10.14,0,0,0,5.16-.56,12.17,12.17,0,0,0,5.39,2.15,9.77,9.77,0,0,0,6-1,12.08,12.08,0,0,0,4.36,2.28l0.6,0.15V326.48c-0.43,0-.85-0.05-1.26-0.06-7.13-.08-12.62,4.24-12.82,10.4-4.62-.1-8.18,2.74-8.18,6.76v0C-152.37,343.24-156.24,346.14-156.24,350.34Z" transform="translate(645.32 -221.19)"/><path class="cls-1" d="M-96.64,354.65a8.19,8.19,0,0,1-8.39,8,8.69,8.69,0,0,1-4.55-1.28,8.64,8.64,0,0,1-4.76,1.4,8.65,8.65,0,0,1-5.3-1.79,8.52,8.52,0,0,1-3.85,1.67l-0.53.07-0.69,0h-0.23a8.63,8.63,0,0,1-5.06-1.62,8.65,8.65,0,0,1-5.07,1.62,8.63,8.63,0,0,1-5.46-1.92,8.87,8.87,0,0,1-2.47.35,8.19,8.19,0,0,1-8.39-8,8.08,8.08,0,0,1,6.67-7.81,7.64,7.64,0,0,1-.16-1.56,8.11,8.11,0,0,1,7-7.87,13.21,13.21,0,0,1,12.57-9.52h0.35c0.31,0,.62,0,0.92,0s0.75,0.06,1.11.12a12.93,12.93,0,0,1,11.3,12.19,8.12,8.12,0,0,1,7.21,7.89v0A8.15,8.15,0,0,1-96.64,354.65Z" transform="translate(645.32 -221.19)"/><path class="cls-2" d="M-97.82,354.65a8.19,8.19,0,0,1-8.39,8,8.7,8.7,0,0,1-4.55-1.28,8.64,8.64,0,0,1-4.76,1.4,8.65,8.65,0,0,1-5.3-1.79,8.52,8.52,0,0,1-3.85,1.67l-0.53.07V326.48c0.38,0,.75.06,1.11,0.12a12.93,12.93,0,0,1,11.3,12.19,8.12,8.12,0,0,1,7.21,7.89v0A8.15,8.15,0,0,1-97.82,354.65Z" transform="translate(645.32 -221.19)"/><path class="cls-2" d="M-385.18,255.9c0,6.06,6,11.85,13.43,12.94a14.53,14.53,0,0,0,7.28-.69,17.66,17.66,0,0,0,7.61,3,14,14,0,0,0,8.48-1.21,17.44,17.44,0,0,0,6.16,3.2c0.28,0.08.56,0.16,0.85,0.22V223.6c-0.6-.05-1.2-0.09-1.78-0.1-10.06-.22-17.8,5.63-18.09,14.1-6.52-.21-11.54,3.63-11.54,9.16v0C-379.71,246.2-385.18,250.12-385.18,255.9Z" transform="translate(645.32 -221.19)"/><path class="cls-2" d="M-298.69,256.4c0,6.05-5.86,11.78-13.08,12.79a13.91,13.91,0,0,1-7.1-.77,16.72,16.72,0,0,1-7.42,3,13.45,13.45,0,0,1-8.26-1.31,16.57,16.57,0,0,1-6,3.13c-0.27.08-.55,0.15-0.82,0.21V223.6c0.59,0,1.17-.07,1.74-0.08,9.8-.1,17.34,5.84,17.63,14.3,6.35-.13,11.24,3.76,11.24,9.29v0C-304,246.64-298.69,250.63-298.69,256.4Z" transform="translate(645.32 -221.19)"/><path class="cls-1" d="M-380.62,262.33c0,6.05,5.16,11,11.53,11a11.93,11.93,0,0,0,6.26-1.76,11.86,11.86,0,0,0,6.53,1.93A11.88,11.88,0,0,0-349,271a11.67,11.67,0,0,0,5.29,2.3c0.24,0,.48.07,0.73,0.1s0.62,0.05.94,0.06h0.32a11.86,11.86,0,0,0,7-2.22,11.9,11.9,0,0,0,7,2.22,11.85,11.85,0,0,0,7.51-2.63,12.21,12.21,0,0,0,3.4.48c6.37,0,11.53-4.91,11.53-11a11.11,11.11,0,0,0-9.17-10.74,10.39,10.39,0,0,0,.22-2.15A11.15,11.15,0,0,0-324,236.66a18.16,18.16,0,0,0-17.28-13.09h-0.48c-0.42,0-.85,0-1.26,0s-1,.09-1.53.16c-8.64,1.26-15.29,8.24-15.54,16.75A11.16,11.16,0,0,0-370,251.36v0A11.21,11.21,0,0,0-380.62,262.33Z" transform="translate(645.32 -221.19)"/><path class="cls-2" d="M-379,262.33c0,6.05,5.16,11,11.54,11a11.93,11.93,0,0,0,6.26-1.76,11.88,11.88,0,0,0,6.54,1.93,11.87,11.87,0,0,0,7.28-2.46,11.69,11.69,0,0,0,5.29,2.3c0.24,0,.48.07,0.73,0.1V223.6q-0.77,0-1.53.16c-8.64,1.26-15.29,8.24-15.54,16.75a11.16,11.16,0,0,0-9.91,10.85v0A11.21,11.21,0,0,0-379,262.33Z" transform="translate(645.32 -221.19)"/><path class="cls-2" d="M-545.19,346.06c0,6.06-6,11.85-13.43,12.94a14.6,14.6,0,0,1-7.29-.69,17.63,17.63,0,0,1-7.61,3,14,14,0,0,1-8.48-1.21,17.4,17.4,0,0,1-6.16,3.2c-0.28.08-.56,0.16-0.85,0.22v-49.8c0.6-.05,1.2-0.09,1.78-0.1,10.06-.22,17.8,5.63,18.09,14.1,6.52-.21,11.54,3.63,11.54,9.16v0C-550.65,336.37-545.19,340.29-545.19,346.06Z" transform="translate(645.32 -221.19)"/><path class="cls-2" d="M-631.68,346.57c0,6.06,5.86,11.78,13.08,12.79a13.91,13.91,0,0,0,7.1-.77,16.75,16.75,0,0,0,7.41,3,13.45,13.45,0,0,0,8.27-1.31,16.61,16.61,0,0,0,6,3.13c0.27,0.08.54,0.15,0.82,0.21v-49.8q-0.88-.07-1.74-0.08c-9.8-.11-17.35,5.84-17.63,14.3-6.35-.14-11.24,3.76-11.24,9.29v0C-626.36,336.81-631.68,340.79-631.68,346.57Z" transform="translate(645.32 -221.19)"/><path class="cls-1" d="M-549.75,352.5c0,6.06-5.16,11-11.54,11a12,12,0,0,1-6.26-1.76,11.89,11.89,0,0,1-6.53,1.93,11.89,11.89,0,0,1-7.29-2.46,11.69,11.69,0,0,1-5.29,2.3c-0.24,0-.48.07-0.73,0.09s-0.62.05-.94,0.06h-0.32a11.84,11.84,0,0,1-7-2.23,11.88,11.88,0,0,1-7,2.23,11.84,11.84,0,0,1-7.51-2.64,12.11,12.11,0,0,1-3.4.48c-6.37,0-11.53-4.9-11.53-11a11.12,11.12,0,0,1,9.17-10.74,10.39,10.39,0,0,1-.22-2.15,11.15,11.15,0,0,1,9.66-10.81,18.16,18.16,0,0,1,17.28-13.09h0.48c0.42,0,.85,0,1.26,0s1,0.09,1.53.16c8.64,1.26,15.29,8.25,15.54,16.75a11.16,11.16,0,0,1,9.91,10.85v0A11.21,11.21,0,0,1-549.75,352.5Z" transform="translate(645.32 -221.19)"/><path class="cls-2" d="M-551.37,352.5c0,6.06-5.16,11-11.53,11a12,12,0,0,1-6.26-1.76,11.9,11.9,0,0,1-6.54,1.93,11.89,11.89,0,0,1-7.28-2.46,11.72,11.72,0,0,1-5.29,2.3c-0.24,0-.48.07-0.73,0.09v-49.8q0.77,0,1.53.16c8.64,1.26,15.29,8.25,15.54,16.75A11.16,11.16,0,0,1-562,341.53v0A11.21,11.21,0,0,1-551.37,352.5Z" transform="translate(645.32 -221.19)"/><path class="cls-3" d="M-460,383.27c-15,8.45-49.4,24.32-65,31.26A457.37,457.37,0,0,1-573,433a246.57,246.57,0,0,1-25.25,6.65c-4.33.85-8.72,1.56-13.23,2a69.69,69.69,0,0,1-14,.11,39.23,39.23,0,0,1-7.57-1.56,22.51,22.51,0,0,1-7.77-4.19,13.3,13.3,0,0,1-3.57-5.05,14,14,0,0,1-.88-5.3,21.52,21.52,0,0,1,1.88-8.07,42.87,42.87,0,0,1,7.7-11.55,47.69,47.69,0,0,1,10.23-8.6c-1.36,4.29-2.84,8.31-4.21,12.25A81,81,0,0,0-633,420.92a13.08,13.08,0,0,0-.26,4.37,2.26,2.26,0,0,0,.32.89,0.26,0.26,0,0,0,.17,0c1.61,1.23,4.88,2,8.37,2.19,7.17,0.26,15.21-1.15,23-3s15.76-4.34,23.61-7c15.69-5.32,31.22-11.55,46.69-18S-481,378.72-465.77,372Z" transform="translate(645.32 -221.19)"/><path class="cls-3" d="M-503.89,418.87a340.6,340.6,0,0,1-30,16.27c-5.12,2.48-10.28,4.88-15.55,7.08s-10.54,4.39-16,6.23-10.92,3.6-16.59,5-11.52,2.3-17.89,1.9a25,25,0,0,1-4.93-.87,14.29,14.29,0,0,1-5-2.56,8.35,8.35,0,0,1-2.28-3.14,8.9,8.9,0,0,1-.61-3.37,14.2,14.2,0,0,1,1.12-5.29,28.14,28.14,0,0,1,5-7.76,30.52,30.52,0,0,1,6.74-5.82c-0.93,2.86-2,5.52-2.92,8.13a58.6,58.6,0,0,0-2.4,7.5,9.85,9.85,0,0,0-.31,3,2.83,2.83,0,0,0,.19.78,1,1,0,0,0,.21.24c1.17,1,3.48,1.66,5.89,1.88,5,0.4,10.44-.44,15.78-1.55s10.77-2.53,16.11-4.16c10.7-3.23,21.29-7.09,31.86-11.06S-514.43,423.09-503.89,418.87Z" transform="translate(645.32 -221.19)"/><path class="cls-4" d="M-548.16,332.86l24.34,17.08h0l9.83,6.9,31.1,21.83L-425,336.25l3.88-2.84-79.44-31.18-47.53,30.59-0.07,0h0Z" transform="translate(645.32 -221.19)"/><path class="cls-2" d="M-548.08,332.82c1.94-1.16,42.85-25.5,46.1-26.21s77,29.64,77,29.64l3.88-2.84-79.44-31.18Z" transform="translate(645.32 -221.19)"/><path class="cls-5" d="M-523.81,349.94l9.83,6.9c8.54-7.14,23.55-23,23.55-23-1.65-5.33-31.17,15.36-33.27,16.07Z" transform="translate(645.32 -221.19)"/><path class="cls-2" d="M-490.75,399.9a25.77,25.77,0,0,0,3.5.39c6.77,0.32,17.14-1.18,30.1-4.14,5.44-1.24,11.33-2.74,17.61-4.47,14.07-3.87,30-8.86,46.95-14.67,60.67-20.78,133.55-51.56,182.83-78.3,0,0,85.66-41.91,94.64-71.06,0.79-2.56.4-4.44-1.14-5.4a4.52,4.52,0,0,0-1.43-.56c-7-1.54-23.12-.15-68.24,14.12h0a56.82,56.82,0,0,0-18.83-6.9h0a52.13,52.13,0,0,0-29.76,3.1C-261,243.06-446.18,335.3-491.47,386.93-498.11,394.5-497.29,398.62-490.75,399.9Z" transform="translate(645.32 -221.19)"/><path class="cls-4" d="M-490.75,399.9a25.77,25.77,0,0,0,3.5.39c6.77,0.32,17.14-1.18,30.1-4.14,5.44-1.24,11.33-2.74,17.61-4.47,14.07-3.87,30-8.86,46.95-14.67,60.67-20.78,133.55-51.56,182.83-78.3,0,0,85.66-41.91,94.64-71.06,0.79-2.56.4-4.44-1.14-5.4-9,6.43-30.28,18.24-48.29,27.4-23.5,12-43.18,18.44-54.5,18.06s-27.33-5.72-53.09,1.64c-26.25,7.5-106.3,52.91-137.35,73.46C-431.84,357.6-469.94,384.89-490.75,399.9Z" transform="translate(645.32 -221.19)"/><path class="cls-2" d="M-359.14,351.6c-3.63.55-6.48-.81-7.42-3.53L-374,326.62a8.12,8.12,0,0,1,1-6.56,15.18,15.18,0,0,1,6-5.78,13.36,13.36,0,0,1,4.51-1.52c3.63-.49,6.47.89,7.4,3.62l7.3,21.34a8.11,8.11,0,0,1-1,6.5,15.27,15.27,0,0,1-5.93,5.8A13.47,13.47,0,0,1-359.14,351.6Z" transform="translate(645.32 -221.19)"/><path class="cls-6" d="M-362.82,332.74c-1.29.19-2.28-.23-2.57-1.08l-2.73-7.92c-0.46-1.34.84-3.33,2.89-4.44a6,6,0,0,1,2-.68c1.29-.18,2.27.24,2.57,1.09l2.71,7.91a2.3,2.3,0,0,1-.16,1.65,6.16,6.16,0,0,1-2.72,2.78A5.89,5.89,0,0,1-362.82,332.74Z" transform="translate(645.32 -221.19)"/><path class="cls-7" d="M-363.28,319h0c1.13-.16,2,0.18,2.22.88l2.71,7.91c0.38,1.11-.82,2.89-2.63,3.87a5.56,5.56,0,0,1-1.83.63c-1.13.16-2-.17-2.22-0.87l-2.72-7.92c-0.38-1.12.82-2.89,2.64-3.87a5.56,5.56,0,0,1,1.83-.63m0-.83a6.36,6.36,0,0,0-2.12.72c-2.26,1.22-3.66,3.46-3.13,5l2.73,7.92c0.36,1,1.52,1.5,2.93,1.29a6.32,6.32,0,0,0,2.11-.73c2.25-1.23,3.64-3.46,3.11-5l-2.71-7.9c-0.36-1-1.51-1.5-2.92-1.31h0Z" transform="translate(645.32 -221.19)"/><path class="cls-3" d="M-439.54,391.68c14.07-3.87,30-8.86,46.95-14.67l8.84-4.93,10.44-5.85c3.46-1.95,6.94-3.82,10.4-5.72l20.59-11.28L-322,338.29l10.08-5.39,10-5.27,10-5.24,5-2.6,4.94-2.56,19.61-10.12,19.38-9.82c6.4-3.24,12.79-6.39,19.14-9.57,25.13-12.46,49.87-24.4,74.29-35.54-24.62,10.24-49.59,21.28-75,32.82-6.41,2.95-12.87,5.87-19.34,8.87l-19.6,9.13-19.84,9.41-5,2.38-5,2.43-10.08,4.88L-313.61,327l-10.22,5-20.64,10.22-20.89,10.57c-3.52,1.78-7,3.53-10.56,5.37l-10.61,5.49Q-412.81,377.2-439.54,391.68Z" transform="translate(645.32 -221.19)"/><path class="cls-3" d="M-487.25,400.29c6.77,0.32,17.14-1.18,30.1-4.14q2.17-1.29,4.35-2.54l11.77-6.66,11.67-6.62,5.8-3.28,2.9-1.64,2.9-1.59,23-12.57c30.23-16.23,60-31.69,89.4-46.06q43.13-21.21,84.91-40.14l20.53-9.19c6.79-3,13.54-6,20.27-8.87l10-4.32,10-4.23q9.91-4.18,19.75-8.17-9.9,3.65-19.88,7.49l-10,3.88-10.11,4c-6.78,2.66-13.58,5.44-20.43,8.18L-221,272.29q-42.15,17.5-85.78,37.3C-336.51,323-366.7,337.5-397.42,352.8l-23.43,11.87-3,1.49-2.95,1.55-5.91,3.12-11.9,6.27-12,6.32c-4,2.13-8,4.39-12,6.59Z" transform="translate(645.32 -221.19)"/><path class="cls-2" d="M-410,433.84l18.56,6.89,5.59,2.08c5.9-3.29,150.08-132.4,150.08-132.4-1.89-1.26-5.2-1.4-9.5-.72-24.78,3.91-83.21,35.52-85.42,37.06C-333.35,348.57-410,433.84-410,433.84Z" transform="translate(645.32 -221.19)"/><path class="cls-2" d="M-415.92,451c3.66-.21,21.26-5.5,27.66-7.45l2.36-.72-24.15-9c-18.4-6.83-32,2.65-32.94,3.63S-420.44,451.24-415.92,451Z" transform="translate(645.32 -221.19)"/><path class="cls-2" d="M-479.23,310.59l10.35,4.06,5.75,2.25s31.32-28,30.11-30.53S-460.78,299.09-479.23,310.59Z" transform="translate(645.32 -221.19)"/><path class="cls-2" d="M-551.93,372.17c21.51-4.81,70.91-45.93,70.91-45.93a8.89,8.89,0,0,0-3.43-1.32C-496.83,322.7-521.06,339-521.06,339s-29.09,23.41-33.16,31C-555.21,371.88-554.7,372.79-551.93,372.17Z" transform="translate(645.32 -221.19)"/><path class="cls-6" d="M-216.44,260a0.46,0.46,0,0,1-.18,0c-2.44-.79-13.72-7.77-12.71-10.43s9-11.53,11.64-11.84a0.63,0.63,0,0,1,.37,0c0.13,0.07,12.52,6.38,14,8.85a1.76,1.76,0,0,1-.24,1.39C-205.36,251.81-214.23,259.73-216.44,260Z" transform="translate(645.32 -221.19)"/><path class="cls-7" d="M-217.71,238.12h0a0.36,0.36,0,0,1,.21,0c3.47,1.76,12.69,6.74,13.91,8.74a1.47,1.47,0,0,1-.25,1c-1.86,3.87-10.7,11.52-12.64,11.75a42.4,42.4,0,0,1-7.49-4.41c-4.44-3.19-5.24-5-5-5.53,1.1-2.91,8.95-11.28,11.3-11.56m0-.79c-2.79.32-10.85,9.15-12,12.13-1.21,3.21,10.88,10.27,12.9,10.92a0.76,0.76,0,0,0,.3,0c2.78-.35,15-11.57,13.46-14s-14.14-9-14.14-9a0.89,0.89,0,0,0-.54-0.08h0Z" transform="translate(645.32 -221.19)"/><path class="cls-6" d="M-196.34,243c-2.23.26-14.3-8.22-15-10,0.55-1.41,4.34-3,6.6-3.67a58,58,0,0,1,18.19,6.62c-2.46,2.2-8,6.83-9.77,7.08h0Z" transform="translate(645.32 -221.19)"/><path class="cls-7" d="M-204.86,229.69A58.06,58.06,0,0,1-187.18,236c-3.08,2.71-7.67,6.39-9.14,6.6-2.13.25-14.07-8.22-14.71-9.78,0.23-.68,3.2-2.17,6.18-3.12m0.07-.8h0c-0.34.11-7.6,2.44-6.88,4.25s12.84,10.52,15.32,10.22h0c2.43-.35,10.39-7.56,10.39-7.56h0a56.82,56.82,0,0,0-18.83-6.9h0Z" transform="translate(645.32 -221.19)"/><path class="cls-6" d="M-316.14,311c-1.25.17-2.2-.24-2.49-1.08l-2.63-7.81c-0.44-1.32.81-3.27,2.79-4.35a5.68,5.68,0,0,1,1.91-.65c1.25-.17,2.2.26,2.48,1.1l2.62,7.8a2.67,2.67,0,0,1-.45,2.19,6.26,6.26,0,0,1-2.33,2.15A5.67,5.67,0,0,1-316.14,311Z" transform="translate(645.32 -221.19)"/><path class="cls-7" d="M-316.57,297.48c1.09-.14,1.91.19,2.14,0.88l2.62,7.8a2.33,2.33,0,0,1-.39,1.81,5.81,5.81,0,0,1-2.15,2,5.24,5.24,0,0,1-1.77.61c-1.09.15-1.91-.18-2.15-0.87l-2.63-7.81a2.34,2.34,0,0,1,.4-1.82,5.79,5.79,0,0,1,2.16-2,5.25,5.25,0,0,1,1.77-.6m0-.81a6,6,0,0,0-2,.69c-2.18,1.18-3.54,3.38-3,4.9l2.63,7.82c0.35,1,1.47,1.48,2.83,1.29a6,6,0,0,0,2-.7c2.18-1.19,3.52-3.38,3-4.9l-2.62-7.8c-0.34-1-1.46-1.49-2.82-1.31h0Z" transform="translate(645.32 -221.19)"/><path class="cls-6" d="M-289,299.13c-1.23.16-2.16-.25-2.44-1.09l-2.58-7.75c-0.43-1.31.8-3.24,2.74-4.29a5.54,5.54,0,0,1,1.87-.64c1.23-.16,2.16.26,2.43,1.09l2.56,7.73c0.43,1.3-.79,3.23-2.73,4.29A5.5,5.5,0,0,1-289,299.13Z" transform="translate(645.32 -221.19)"/><path class="cls-7" d="M-289.39,285.77h0c1.07-.14,1.87.2,2.1,0.88l2.57,7.73a2.34,2.34,0,0,1-.38,1.79,5.68,5.68,0,0,1-2.11,1.95,5.17,5.17,0,0,1-1.73.6c-1.07.14-1.88-.19-2.1-0.87l-2.58-7.75a2.31,2.31,0,0,1,.39-1.79,5.66,5.66,0,0,1,2.12-1.95,5,5,0,0,1,1.74-.59m0-.81a5.79,5.79,0,0,0-2,.68c-2.14,1.16-3.47,3.33-3,4.84l2.58,7.75c0.34,1,1.44,1.48,2.77,1.3a5.86,5.86,0,0,0,2-.69c2.13-1.17,3.45-3.33,3-4.84l-2.56-7.73c-0.34-1-1.43-1.48-2.77-1.31h0Z" transform="translate(645.32 -221.19)"/><path class="cls-6" d="M-338.31,322c-1.27.18-2.24-.23-2.53-1.08l-2.68-7.86c-0.45-1.33.82-3.3,2.84-4.39a5.88,5.88,0,0,1,1.94-.66c1.27-.17,2.24.25,2.52,1.09l2.66,7.85c0.45,1.33-.82,3.29-2.82,4.39A5.75,5.75,0,0,1-338.31,322Z" transform="translate(645.32 -221.19)"/><path class="cls-7" d="M-338.76,308.37c1.11-.15,1.94.19,2.18,0.88l2.66,7.85c0.37,1.1-.81,2.86-2.58,3.82a5.31,5.31,0,0,1-1.8.62c-1.11.16-1.94-.18-2.18-0.87l-2.68-7.86c-0.38-1.11.81-2.86,2.6-3.83a5.36,5.36,0,0,1,1.8-.62m0-.82a6.13,6.13,0,0,0-2.08.71c-2.22,1.2-3.6,3.42-3.08,5l2.68,7.86c0.35,1,1.49,1.49,2.87,1.29a6.19,6.19,0,0,0,2.07-.72c2.21-1.21,3.58-3.42,3.06-4.95l-2.66-7.85c-0.35-1-1.48-1.5-2.87-1.31h0Z" transform="translate(645.32 -221.19)"/><path class="cls-6" d="M-385.46,344.56c-1.31.19-2.31-.22-2.62-1.08l-2.77-8c-0.47-1.35.85-3.36,2.93-4.49a6.07,6.07,0,0,1,2-.69c1.31-.19,2.31.23,2.61,1.09l2.76,8a2.33,2.33,0,0,1-.16,1.66,6.31,6.31,0,0,1-2.76,2.82A6.17,6.17,0,0,1-385.46,344.56Z" transform="translate(645.32 -221.19)"/><path class="cls-7" d="M-385.93,330.76c1.14-.16,2,0.17,2.25.88l2.76,8a2.37,2.37,0,0,1-.41,1.86,6.15,6.15,0,0,1-2.26,2.05,5.68,5.68,0,0,1-1.86.65c-1.15.17-2-.16-2.25-0.87l-2.77-8a2.35,2.35,0,0,1,.41-1.86,6.15,6.15,0,0,1,2.27-2.05,5.66,5.66,0,0,1,1.86-.64m0-.84a6.46,6.46,0,0,0-2.15.74c-2.3,1.24-3.72,3.5-3.18,5.06l2.77,8c0.37,1.05,1.54,1.5,3,1.29a6.54,6.54,0,0,0,2.15-.75c2.28-1.24,3.7-3.51,3.16-5.05l-2.76-8c-0.36-1.05-1.54-1.51-3-1.3h0Z" transform="translate(645.32 -221.19)"/><path class="cls-8" d="M-391.49,440.73l5.59,2.08c5.9-3.29,150.08-132.4,150.08-132.4-1.89-1.26-5.2-1.4-9.5-.72C-259.14,322-374.37,424.57-391.49,440.73Z" transform="translate(645.32 -221.19)"/><path class="cls-8" d="M-415.92,451c3.66-.21,21.26-5.5,27.66-7.45-34.81-16.75-45.36-9.83-52.63-6.24C-442.68,438.18-415.92,451-415.92,451Z" transform="translate(645.32 -221.19)"/><path class="cls-8" d="M-551.93,372.17c21.51-4.81,70.91-45.93,70.91-45.93a8.89,8.89,0,0,0-3.43-1.32c-10.24,8.69-56.27,47-69.78,45.11C-555.21,371.88-554.7,372.79-551.93,372.17Z" transform="translate(645.32 -221.19)"/><path class="cls-8" d="M-468.87,314.66l5.75,2.25s31.32-28,30.11-30.53C-433,286.38-458.06,307.26-468.87,314.66Z" transform="translate(645.32 -221.19)"/><path class="cls-7" d="M-362.45,313.17h0c3.47-.47,6.17.83,7,3.41l7.3,21.35c1.28,3.73-1.71,9-6.69,11.74a12.88,12.88,0,0,1-4.34,1.53c-3.47.52-6.17-.75-7.06-3.32l-7.41-21.46c-1.3-3.78,1.74-9.07,6.78-11.78a12.89,12.89,0,0,1,4.37-1.47m0-.83a13.8,13.8,0,0,0-4.65,1.57c-5.45,2.93-8.71,8.72-7.27,12.91l7.41,21.46c1,3,4.12,4.29,7.77,3.74a13.89,13.89,0,0,0,4.62-1.62c5.38-3,8.58-8.74,7.17-12.88l-7.3-21.34c-1-3-4.1-4.33-7.75-3.84h0Z" transform="translate(645.32 -221.19)"/></svg>