<svg id="Layer_1" data-name="Layer 1" xmlns="http://www.w3.org/2000/svg" viewBox="0 0 552 262.8"><defs><style>.cls-1{fill:#f3f4f9;}.cls-2{fill:#7888b8;}.cls-3{fill:#41599b;}.cls-4{fill:#354e95;}.cls-5{fill:#5d71aa;}.cls-6{fill:#a2aece;}.cls-7{fill:#c6cde1;}</style></defs><title>free</title><path class="cls-1" d="M-140.87-108.18c-9.15-18.38-32.68-25.41-60-22.31,4.56-15.25-3.19-34-25.46-39.63a107.31,107.31,0,0,0-15.87-2.78c10.66-19.32-6.73-39.25-33.37-44.78a48.41,48.41,0,0,0-12-2.1A93.89,93.89,0,0,0-311-219a95,95,0,0,0-18.51,5.19c0.58-6.8-1.68-13.48-7.54-19.19-15.68-15.28-49.38-21-75.41-8.07l-18.81,9.35c-8.9-6.82-17.84-8.95-31.87-6.94-33.7,4.82-67.92,14.09-100.5,22.66-26.34,6.93-52.18,17.09-79.31,21.95-24.83,4.45-40.88,27.18-33.5,42,8,16,28.44,22.12,52.23,19.41-1.23,4.11-44,24.62-43.13,28.89C-675.8-87-665.5-68-643.1-61a78.73,78.73,0,0,0,12.89,2.83c5.08,8.23,15.5,14.82,28.44,17.51a42.19,42.19,0,0,0,10.49,1.83,86.54,86.54,0,0,0,9.41.29,26.71,26.71,0,0,0-1.8,5.56c-3.7,18.77,13,34.2,39.48,38,24,3.41,49.7-2.57,68-15.38,0.49-.34.93-0.73,1.41-1.08,1.57-.82,4.33-2.29,4.8-2.52,6.42-3.18,13.06-6.13,19.74-9,4.44-1.93,8.93-3.81,13.41-5.7,0.16,0.26.29,0.53,0.46,0.78,7.75,11.82,28.92,22.37,50.37,19.3,38.72-5.54,78.05-16.2,115.48-26,30.27-8,60-19.63,91.14-25.22C-150.83-65-132.38-91.12-140.87-108.18Z" transform="translate(690.79 252.77)"/><path class="cls-2" d="M-420.42-89.91c-22,11.75-72.5,33.58-95.41,43.11a664.35,664.35,0,0,1-70.27,25.12A359.33,359.33,0,0,1-623-12.9c-6.31,1.08-12.71,2-19.26,2.45a101.16,101.16,0,0,1-20.37-.32,56.55,56.55,0,0,1-10.93-2.53,32.66,32.66,0,0,1-11.12-6.35,19.28,19.28,0,0,1-5-7.45,20.21,20.21,0,0,1-1.1-7.72,31.25,31.25,0,0,1,3-11.64A62.18,62.18,0,0,1-676.19-63a69.23,69.23,0,0,1,15.13-12.12c-2.12,6.18-4.4,12-6.53,17.62a116.28,116.28,0,0,0-5.16,16.22,19,19,0,0,0-.53,6.33,3.23,3.23,0,0,0,.43,1.3,0.35,0.35,0,0,0,.24,0c2.29,1.84,7,3.1,12.07,3.46,10.39,0.63,22.11-1.14,33.52-3.61s23-5.75,34.49-9.29c22.94-7.18,45.69-15.69,68.35-24.46s73.37-29.74,95.74-39Z" transform="translate(690.79 252.77)"/><path class="cls-2" d="M-485.35-39.77c-14.25,8.31-29,15.72-44,22.57-7.51,3.42-15.09,6.73-22.8,9.74s-15.45,6-23.39,8.5-16,4.84-24.24,6.62c-8.32,1.6-16.79,2.94-26,2.14a36.22,36.22,0,0,1-7.12-1.44,20.7,20.7,0,0,1-7.23-3.89,12.1,12.1,0,0,1-3.21-4.63,12.89,12.89,0,0,1-.78-4.91,20.61,20.61,0,0,1,1.82-7.64,40.91,40.91,0,0,1,7.45-11.09,44.42,44.42,0,0,1,10-8.21c-1.45,4.11-3,7.95-4.52,11.69a84.83,84.83,0,0,0-3.74,10.8,14.22,14.22,0,0,0-.55,4.39A4.13,4.13,0,0,0-633.47-4a1.65,1.65,0,0,0,.3.36c1.67,1.52,5,2.53,8.48,2.93,7.18,0.75,15.17-.27,22.95-1.7S-586-5.7-578.22-7.88c15.64-4.33,31.14-9.56,46.6-14.95S-500.79-34-485.35-39.77Z" transform="translate(690.79 252.77)"/><polygon class="cls-3" points="259.82 180.66 255.18 137.19 507.5 40.89 259.82 180.66"/><polygon class="cls-4" points="261.2 143.61 264.15 185.57 457.04 77.68 261.2 143.61"/><polygon class="cls-2" points="261.2 143.61 507.5 40.89 347.49 182.78 261.2 143.61"/><polygon class="cls-2" points="255.18 137.19 202.65 121.27 507.5 40.89 255.18 137.19"/><polygon class="cls-5" points="202.65 121.27 199.47 103.1 385.37 73.09 202.65 121.27"/><polygon class="cls-5" points="347.49 182.78 349.14 155.2 483.48 62.19 347.49 182.78"/><path class="cls-6" d="M-198.75-73.11c0,4.9-4.87,9.6-10.87,10.48a11.78,11.78,0,0,1-5.9-.56,14.26,14.26,0,0,1-6.16,2.47,11.37,11.37,0,0,1-6.86-1,14.16,14.16,0,0,1-5,2.59l-0.68.18V-99.25c0.49,0,1-.07,1.44-0.08,8.14-.18,14.41,4.56,14.64,11.41,5.28-.17,9.34,2.94,9.34,7.41v0C-203.17-81-198.75-77.78-198.75-73.11Z" transform="translate(690.79 252.77)"/><path class="cls-6" d="M-268.76-72.7c0,4.9,4.74,9.54,10.59,10.35a11.25,11.25,0,0,0,5.74-.62,13.54,13.54,0,0,0,6,2.4,10.88,10.88,0,0,0,6.69-1.06,13.44,13.44,0,0,0,4.86,2.53l0.67,0.17V-99.25c-0.47,0-.94-0.06-1.4-0.07-7.93-.09-14,4.73-14.27,11.58-5.15-.11-9.1,3-9.1,7.52v0C-264.45-80.6-268.76-77.37-268.76-72.7Z" transform="translate(690.79 252.77)"/><path class="cls-7" d="M-202.44-67.9A9.11,9.11,0,0,1-211.77-59a9.67,9.67,0,0,1-5.07-1.42,9.61,9.61,0,0,1-5.29,1.56,9.62,9.62,0,0,1-5.9-2A9.48,9.48,0,0,1-232.31-59c-0.19,0-.39.06-0.59,0.08s-0.51,0-.76.05h-0.26a9.59,9.59,0,0,1-5.63-1.8,9.62,9.62,0,0,1-5.64,1.8A9.6,9.6,0,0,1-251.27-61a9.87,9.87,0,0,1-2.75.39,9.11,9.11,0,0,1-9.33-8.87,9,9,0,0,1,7.42-8.69,8.45,8.45,0,0,1-.18-1.74,9,9,0,0,1,7.82-8.75,14.7,14.7,0,0,1,14-10.6h0.39c0.34,0,.69,0,1,0s0.83,0.07,1.24.13a14.39,14.39,0,0,1,12.58,13.56,9,9,0,0,1,8,8.78v0A9.08,9.08,0,0,1-202.44-67.9Z" transform="translate(690.79 252.77)"/><path class="cls-6" d="M-203.75-67.9A9.12,9.12,0,0,1-213.09-59a9.68,9.68,0,0,1-5.07-1.42,9.61,9.61,0,0,1-5.29,1.56,9.62,9.62,0,0,1-5.9-2A9.48,9.48,0,0,1-233.62-59c-0.19,0-.39.06-0.59,0.08V-99.25c0.42,0,.83.07,1.24,0.13a14.39,14.39,0,0,1,12.58,13.56,9,9,0,0,1,8,8.78v0A9.08,9.08,0,0,1-203.75-67.9Z" transform="translate(690.79 252.77)"/><path class="cls-6" d="M-443.51-213.14c0,7.41,7.35,14.49,16.42,15.82a17.79,17.79,0,0,0,8.91-.84,21.53,21.53,0,0,0,9.31,3.73,17.16,17.16,0,0,0,10.37-1.48A21.26,21.26,0,0,0-391-192c0.34,0.1.68,0.19,1,.27v-60.9c-0.74-.07-1.46-0.11-2.18-0.12-12.3-.27-21.77,6.89-22.12,17.24-8-.26-14.11,4.44-14.11,11.2v0C-436.83-225-443.51-220.21-443.51-213.14Z" transform="translate(690.79 252.77)"/><path class="cls-6" d="M-337.74-212.53c0,7.41-7.16,14.41-16,15.63a17,17,0,0,1-8.68-.94,20.48,20.48,0,0,1-9.07,3.62,16.45,16.45,0,0,1-10.11-1.6,20.26,20.26,0,0,1-7.34,3.82c-0.33.09-.67,0.18-1,0.26v-60.9c0.72-.06,1.42-0.09,2.12-0.1,12-.13,21.21,7.14,21.55,17.49,7.77-.16,13.75,4.6,13.75,11.36v0C-344.25-224.46-337.74-219.59-337.74-212.53Z" transform="translate(690.79 252.77)"/><path class="cls-7" d="M-437.93-205.28c0,7.41,6.31,13.41,14.1,13.41a14.59,14.59,0,0,0,7.65-2.15,14.53,14.53,0,0,0,8,2.36,14.53,14.53,0,0,0,8.91-3,14.31,14.31,0,0,0,6.47,2.81c0.29,0,.59.09,0.89,0.12s0.76,0.06,1.15.08h0.39a14.5,14.5,0,0,0,8.51-2.72,14.54,14.54,0,0,0,8.52,2.72,14.48,14.48,0,0,0,9.18-3.22,14.87,14.87,0,0,0,4.16.59c7.79,0,14.1-6,14.1-13.4a13.59,13.59,0,0,0-11.21-13.13,12.77,12.77,0,0,0,.27-2.63,13.63,13.63,0,0,0-11.81-13.23c-2.43-9-10.93-15.76-21.14-16h-0.59c-0.52,0-1,0-1.54.05s-1.26.11-1.87,0.19c-10.56,1.54-18.7,10.08-19,20.49a13.65,13.65,0,0,0-12.12,13.27v0C-432.19-218.12-437.93-212.34-437.93-205.28Z" transform="translate(690.79 252.77)"/><path class="cls-6" d="M-436-205.28c0,7.41,6.31,13.41,14.11,13.41A14.59,14.59,0,0,0-414.2-194a14.51,14.51,0,0,0,8,2.36,14.54,14.54,0,0,0,8.91-3,14.29,14.29,0,0,0,6.47,2.81c0.29,0,.59.09,0.89,0.12v-60.9c-0.63,0-1.26.11-1.87,0.19-10.56,1.54-18.7,10.08-19,20.49a13.65,13.65,0,0,0-12.12,13.27v0C-430.21-218.12-436-212.34-436-205.28Z" transform="translate(690.79 252.77)"/><path class="cls-6" d="M-567.25-117.69c0,6.63-6.58,13-14.7,14.17a16,16,0,0,1-8-.75,19.3,19.3,0,0,1-8.33,3.34,15.38,15.38,0,0,1-9.29-1.33,19,19,0,0,1-6.74,3.5c-0.31.09-.61,0.17-0.93,0.24V-153c0.66-.06,1.31-0.09,1.95-0.11,11-.24,19.49,6.17,19.81,15.43,7.14-.23,12.63,4,12.63,10v0C-573.23-128.3-567.25-124-567.25-117.69Z" transform="translate(690.79 252.77)"/><path class="cls-6" d="M-661.93-117.14c0,6.63,6.41,12.9,14.33,14a15.24,15.24,0,0,0,7.77-.84,18.31,18.31,0,0,0,8.12,3.24,14.7,14.7,0,0,0,9-1.43,18.17,18.17,0,0,0,6.57,3.43c0.3,0.09.6,0.16,0.9,0.23V-153c-0.64-.05-1.28-0.08-1.9-0.09-10.73-.12-19,6.39-19.29,15.66-7-.15-12.31,4.12-12.31,10.17v0C-656.1-127.82-661.93-123.46-661.93-117.14Z" transform="translate(690.79 252.77)"/><path class="cls-7" d="M-572.24-110.65c0,6.63-5.65,12-12.63,12a13.07,13.07,0,0,1-6.85-1.93,13,13,0,0,1-7.16,2.11,13,13,0,0,1-8-2.69,12.82,12.82,0,0,1-5.79,2.51c-0.26,0-.53.08-0.79,0.1s-0.68.06-1,.07h-0.35a13,13,0,0,1-7.62-2.44,13,13,0,0,1-7.63,2.44,13,13,0,0,1-8.22-2.89,13.29,13.29,0,0,1-3.72.53c-7,0-12.62-5.37-12.62-12a12.17,12.17,0,0,1,10-11.76,11.39,11.39,0,0,1-.24-2.35,12.2,12.2,0,0,1,10.57-11.84,19.88,19.88,0,0,1,18.92-14.33h0.53c0.46,0,.92,0,1.38,0s1.12,0.1,1.67.18c9.45,1.38,16.74,9,17,18.34a12.21,12.21,0,0,1,10.85,11.88v0A12.27,12.27,0,0,1-572.24-110.65Z" transform="translate(690.79 252.77)"/><path class="cls-6" d="M-574-110.65c0,6.63-5.65,12-12.63,12a13.07,13.07,0,0,1-6.85-1.93,13,13,0,0,1-7.16,2.11,13,13,0,0,1-8-2.69,12.82,12.82,0,0,1-5.79,2.51c-0.26,0-.53.08-0.79,0.1V-153q0.85,0.06,1.67.18c9.46,1.38,16.74,9,17,18.34a12.21,12.21,0,0,1,10.85,11.88v0A12.27,12.27,0,0,1-574-110.65Z" transform="translate(690.79 252.77)"/></svg>