<svg id="Layer_1" data-name="Layer 1" xmlns="http://www.w3.org/2000/svg" viewBox="0 0 552 231.64"><defs><style>.cls-1{fill:#f1f3f8;}.cls-2{fill:#96a3c8;}.cls-3{fill:#5b70a9;}.cls-4{fill:#475e9f;}.cls-5{fill:#354e95;}.cls-6{fill:#8695bf;}.cls-7{opacity:0.1;}.cls-8{fill:#eff1f7;}.cls-9{fill:#98a5c9;}.cls-10{fill:#cad1e3;}.cls-11{fill:#7283b5;}.cls-12{fill:#5d71aa;}.cls-13{fill:#cfd5e6;}.cls-14{fill:#e5e8f1;}</style></defs><title>startup</title><path class="cls-1" d="M790.39-152.74c-8.33-16.74-29.78-23.15-54.68-20.32,4.16-13.9-2.9-31-23.19-36.11a97.38,97.38,0,0,0-14.46-2.53c9.71-17.61-6.13-35.76-30.4-40.8a44.25,44.25,0,0,0-11-1.91,85.67,85.67,0,0,0-21.25.71A86.48,86.48,0,0,0,618.57-249c0.53-6.19-1.53-12.28-6.87-17.49-14.29-13.92-45-19.14-68.7-7.36l-17.14,8.52c-8.11-6.22-16.26-8.15-29-6.32-30.7,4.39-61.88,12.84-91.56,20.64-24,6.31-47.53,15.57-72.26,20-22.63,4.05-37.25,24.76-30.52,38.28,7.25,14.57,25.91,20.15,47.58,17.69-1.12,3.74-40.1,22.43-39.29,26.32-7.73,15.23,1.65,32.55,22.06,39a71.49,71.49,0,0,0,11.74,2.58c4.63,7.49,14.12,13.51,25.92,16A38.56,38.56,0,0,0,380-89.54a78.81,78.81,0,0,0,8.57.27A24.45,24.45,0,0,0,387-84.2c-3.37,17.09,11.88,31.15,36,34.57,21.88,3.11,45.28-2.34,62-14,0.45-.31.85-0.66,1.28-1,1.43-.74,3.95-2.09,4.38-2.3,5.85-2.89,11.9-5.59,18-8.23,4-1.76,8.13-3.47,12.21-5.19,0.14,0.24.27,0.48,0.42,0.71,7.06,10.77,26.35,20.38,45.89,17.58,35.28-5,71.11-14.76,105.21-23.72,27.58-7.25,54.62-17.89,83-23C781.32-113.41,798.12-137.21,790.39-152.74Z" transform="translate(-268.53 280.41)"/><path class="cls-2" d="M460.22-127c-16,6.81-52.54,18.85-69.08,24.05a464.48,464.48,0,0,1-50.46,13.1A250.35,250.35,0,0,1,314.48-86c-4.46.36-9,.57-13.56,0.5A70.68,70.68,0,0,1,286.77-87a39.64,39.64,0,0,1-7.45-2.44A22.84,22.84,0,0,1,272-94.53a13.44,13.44,0,0,1-3-5.5,14,14,0,0,1-.28-5.44,21.85,21.85,0,0,1,2.81-7.92,43.41,43.41,0,0,1,9.08-10.75,48.28,48.28,0,0,1,11.29-7.49c-1.86,4.17-3.81,8.05-5.64,11.85a81.26,81.26,0,0,0-4.6,11,13.27,13.27,0,0,0-.77,4.37,2.27,2.27,0,0,0,.22.93,0.24,0.24,0,0,0,.17,0c1.48,1.42,4.69,2.59,8.18,3.16,7.19,1.08,15.45.59,23.55-.43s16.37-2.57,24.58-4.32c16.41-3.57,32.77-8.07,49.08-12.76s52.9-16.12,69.06-21.18Z" transform="translate(-268.53 280.41)"/><path class="cls-2" d="M411.92-96.11c-10.43,4.9-21.16,9.13-32,13-5.44,1.91-10.92,3.74-16.47,5.35s-11.12,3.21-16.8,4.46S335.2-71,329.33-70.24s-11.87,1-18.24-.13a25.37,25.37,0,0,1-4.87-1.44A14.49,14.49,0,0,1,301.43-75a8.46,8.46,0,0,1-1.94-3.42,9,9,0,0,1-.23-3.46,14.41,14.41,0,0,1,1.74-5.2,28.52,28.52,0,0,1,5.88-7.25,31,31,0,0,1,7.46-5.09c-1.26,2.77-2.6,5.34-3.88,7.85a60,60,0,0,0-3.28,7.28,10.07,10.07,0,0,0-.66,3,2.91,2.91,0,0,0,.1.8,1.11,1.11,0,0,0,.19.27c1.07,1.17,3.32,2.07,5.72,2.57,4.95,1,10.57.75,16.07,0.24s11.14-1.32,16.7-2.35c11.15-2,22.26-4.71,33.36-7.5S400.81-93.06,411.92-96.11Z" transform="translate(-268.53 280.41)"/><ellipse class="cls-3" cx="714.73" cy="-236.4" rx="15.44" ry="11.93" transform="translate(-82.61 579.81) rotate(-27.07)"/><path class="cls-4" d="M703-230.41c2.33,4.56,8.62,6.11,14.63,3.83a17.11,17.11,0,0,0,1.72-.76c6.48-3.31,9.65-10,7.1-15s-9.88-6.37-16.35-3.06a15.79,15.79,0,0,0-5.91,5.12C702-237.16,701.45-233.46,703-230.41Z" transform="translate(-268.53 280.41)"/><path class="cls-5" d="M703-230.41c2.33,4.56,8.62,6.11,14.63,3.83,2.16-3.17,2.74-6.88,1.18-9.93-2.33-4.56-8.63-6.1-14.62-3.82C702-237.16,701.45-233.46,703-230.41Z" transform="translate(-268.53 280.41)"/><path class="cls-4" d="M576-178.07s9.1,1.26,22.47-4.23,153.46-70.47,149.4-78.31C747.89-260.6,579.34-187.51,576-178.07Z" transform="translate(-268.53 280.41)"/><path class="cls-3" d="M631.1-222.17s102.33-40.69,116.79-38.43c2.93,0.46-127.7,70-169.67,82.1C559.08-173,631.1-222.17,631.1-222.17Z" transform="translate(-268.53 280.41)"/><path class="cls-3" d="M390-144.8l0.16,0.4c1.29,3.12,2.61,6.33,3.93,9.51,1.68,4,3.35,8,5,11.78,1,2.39,2,4.69,2.9,6.87,0.5,1.16,1,2.28,1.42,3.35l2.82,6.64c0.07,0.17.14,0.32,0.21,0.48,1.81,4.22,2.93,6.81,2.93,6.81-1,2.35,190-44.51,278.88-82.42q5.71-2.42,10.82-4.88l1-.5c1.25-.6,2.47-1.22,3.65-1.82a2.25,2.25,0,0,1,.37-0.19h0c3.82-2,7.3-3.94,10.4-5.89,15-9.48,21.14-18.79,13.57-27.34l-0.51-.55s-4.08-4.05-11-9.9c-2-1.67-4.2-3.49-6.6-5.4-0.53-.43-1.08-0.86-1.64-1.3-1.12-.87-2.28-1.78-3.48-2.68l-0.8-.61c-1.58-1.18-3.2-2.37-4.9-3.59-3.42-2.45-6.95-4.77-10.56-6.9-2.69-1.59-5.44-3.1-8.21-4.46-0.45-.24-0.91-0.46-1.38-0.68A96,96,0,0,0,663.59-264c-20-5.68-41-3.51-60.13,13.32-94,82.76-159.37,103.88-172.09,107.41l-0.45.12c-0.92.25-1.5,0.39-1.71,0.44l-0.1,0s-51.73-39.69-49.86-30.64a86.51,86.51,0,0,0,3.35,9.89C384.54-158.24,387.16-151.71,390-144.8Z" transform="translate(-268.53 280.41)"/><path class="cls-6" d="M431.36-143.22c92.95-24.11,164.69-106.31,194.72-117,28.32-10.07,45.94,2.07,62.51,7.29-2.69-1.59-5.44-3.1-8.21-4.46-0.45-.24-0.91-0.46-1.38-0.68-24.39-11.7-51.45-13.78-75.55,7.43C509.47-167.87,444.09-146.75,431.36-143.22Z" transform="translate(-268.53 280.41)"/><path class="cls-5" d="M550.63-194.16l119.91-.45L709-210l7.57-22.41c-2-1.67-4.2-3.49-6.6-5.4-0.53-.43-1.08-0.86-1.64-1.3-1.12-.87-2.28-1.78-3.48-2.68l-0.8-.61-1-.71c-0.25-.2-0.53-0.4-0.81-0.6-1-.75-2.06-1.51-3.13-2.28-3.42-2.45-6.95-4.77-10.56-6.9-2.69-1.59-5.44-3.1-8.21-4.46-0.45-.24-0.91-0.46-1.38-0.68-0.12,0-.23-0.12-0.36-0.16s-0.4-.2-0.59-0.29l-1.43-.66a93.38,93.38,0,0,0-13-4.78c-13.91,10.49-8.65,11.57-45.9,31.95C596.27-220.27,550.63-194.16,550.63-194.16Z" transform="translate(-268.53 280.41)"/><path class="cls-5" d="M399-123.12c1,2.39,2,4.69,2.9,6.87,0.5,1.16,1,2.28,1.42,3.35,1.35,0,2.7.06,4,.06,3.77,0,7.55-.12,11.3-0.45,1.89-.12,3.77-0.3,5.63-0.5s3.74-.41,5.61-0.69c7.46-1,14.83-2.43,22.11-4.13,1.83-.42,3.63-0.88,5.44-1.34s3.63-.92,5.42-1.42c3.6-1,7.15-2.06,10.72-3.15,28.4-8.84,55.37-21,81.35-33.86L574.24-168c0.83-.43,1.51-0.76,2.22-1.1l2.12-1c1.43-.61,2.83-1.31,4.25-1.87s2.84-1.16,4.27-1.67,2.84-1,4.26-1.48a82.21,82.21,0,0,1,17.22-3.46,104.63,104.63,0,0,1,18.53.15c6.64,0.49,13.91,1.57,22.25,1.82,1,0,2.11,0,3.17.05s2.16,0,3.26-.09,2.21-.12,3.35-0.25,2.26-.24,3.3-0.4a80.78,80.78,0,0,0,12.22-2.79,116,116,0,0,0,21.67-9.3q5.06-2.78,9.8-6a107.38,107.38,0,0,0,9.27-6.89l-5.59-9.9c-13.39,3.82-27.23,7.34-40,8.4a76.75,76.75,0,0,1-9.2.2c-0.74,0-1.42-.09-2.09-0.15s-1.38-.17-2.07-0.25l-2.14-.33-2.22-.4c-3-.56-6.23-1.38-9.66-2.17s-7.07-1.65-10.89-2.42a111.53,111.53,0,0,0-24.62-2.34,98.17,98.17,0,0,0-12.83,1.12,110.52,110.52,0,0,0-12.51,2.77,116.69,116.69,0,0,0-11.84,4.17c-1.93.77-3.79,1.63-5.67,2.48l-2.74,1.35c-0.91.45-1.86,0.91-2.63,1.32-6.51,3.4-12.88,6.82-19.19,10.26-25.23,13.75-49.95,27.49-75.27,39.83-12.67,6-25.44,11.93-38.55,16.81A238.93,238.93,0,0,1,399-123.12Z" transform="translate(-268.53 280.41)"/><path class="cls-7" d="M390-144.8l0.16,0.4c1.29,3.12,2.61,6.33,3.93,9.51,2.73,6.55,5.47,13,7.86,18.65,1.62,3.82,3.06,7.22,4.24,10,0.07,0.17.14,0.32,0.21,0.48,1.81,4.22,2.93,6.81,2.93,6.81-1,2.35,190-44.51,278.88-82.42q5.71-2.42,10.82-4.88l1-.5c1.25-.6,2.47-1.22,3.65-1.82a2.25,2.25,0,0,1,.37-0.19h0c3.82-2,7.3-3.94,10.4-5.89-1.22-8.15-3.06-15.42-3.06-15.42-1.6.73-38.77,17.57-77.6,15.45s-99.23,11.71-128.09,28.14-78.13,29.36-78.13,29.36l-45-26.24C384.54-158.24,387.16-151.71,390-144.8Z" transform="translate(-268.53 280.41)"/><path class="cls-4" d="M496.3-102.33s-30.39,13.76-44.66-1.43L487.07-117Z" transform="translate(-268.53 280.41)"/><path class="cls-4" d="M538.86-124s-25.17,12.19-37.16,2.68,21.06-21.61,21.06-21.61Z" transform="translate(-268.53 280.41)"/><ellipse class="cls-3" cx="531.96" cy="-138.44" rx="20.71" ry="16" transform="translate(-156.66 496.47) rotate(-25.57)"/><path class="cls-4" d="M516-130.82c3,6.19,11.34,8.49,19.47,5.65a23,23,0,0,0,2.34-1c8.79-4.21,13.29-13.13,10-19.92s-13-8.89-21.81-4.68a21.14,21.14,0,0,0-8.1,6.66C515-139.9,514.05-135,516-130.82Z" transform="translate(-268.53 280.41)"/><path class="cls-5" d="M516-130.82c3,6.19,11.34,8.49,19.47,5.65,3-4.18,3.92-9.13,1.93-13.27-3-6.19-11.35-8.48-19.47-5.64C515-139.9,514.05-135,516-130.82Z" transform="translate(-268.53 280.41)"/><ellipse class="cls-3" cx="489.4" cy="-116.76" rx="20.71" ry="16" transform="translate(-170.19 480.23) rotate(-25.57)"/><path class="cls-4" d="M473.48-109.14c3,6.19,11.34,8.49,19.47,5.65a22.92,22.92,0,0,0,2.33-1c8.79-4.21,13.29-13.13,10-19.93s-13-8.89-21.81-4.68a21.16,21.16,0,0,0-8.1,6.66C472.39-118.22,471.49-113.28,473.48-109.14Z" transform="translate(-268.53 280.41)"/><path class="cls-5" d="M473.48-109.14c3,6.19,11.34,8.49,19.47,5.65,3-4.18,3.91-9.13,1.93-13.27-3-6.19-11.35-8.48-19.47-5.64C472.39-118.22,471.49-113.28,473.48-109.14Z" transform="translate(-268.53 280.41)"/><path class="cls-4" d="M572.3-170.18s-4.52,8-17,15.29S406.18-75.66,402.42-83.63C402.42-83.63,562.79-173.27,572.3-170.18Z" transform="translate(-268.53 280.41)"/><path class="cls-3" d="M507.32-148.76S409.4-96.5,402.42-83.63C401-81,535.51-142.69,570.63-168.69,586.64-180.54,507.32-148.76,507.32-148.76Z" transform="translate(-268.53 280.41)"/><path class="cls-8" d="M672.37-254.32c6.36,5.25,22.13,17.75,25,15.23a42.57,42.57,0,0,1,5.71-4c-0.25-.2-0.53-0.4-0.81-0.6-1-.75-2.06-1.51-3.13-2.28-3.42-2.45-6.95-4.77-10.56-6.9-2.69-1.59-5.44-3.1-8.21-4.46-0.45-.24-0.91-0.46-1.38-0.68-0.12,0-.23-0.12-0.36-0.16s-0.4-.2-0.59-0.29l-1.43-.66a36,36,0,0,1-4,1.72C671.31-257,671.19-255.29,672.37-254.32Z" transform="translate(-268.53 280.41)"/><path class="cls-9" d="M674.71-254.33c4.53,3.74,14.29,11.51,19.62,13.67l0.13,0.06c1.46,0.59,2.58.73,3.14,0.22a35.66,35.66,0,0,1,4.67-3.35c-1-.75-2.06-1.51-3.13-2.28-3.42-2.45-6.95-4.77-10.56-6.9-2.69-1.59-5.44-3.1-8.21-4.46-0.45-.24-0.91-0.46-1.38-0.68-0.12,0-.23-0.12-0.36-0.16s-0.4-.2-0.59-0.29a31,31,0,0,1-3.16,1.31C673.74-256.81,673.64-255.22,674.71-254.33Z" transform="translate(-268.53 280.41)"/><path class="cls-10" d="M675.35-254.07c4.36,3.61,13.53,10.91,19,13.4l0.13,0.06c1.46,0.59,2.58.73,3.14,0.22a35.66,35.66,0,0,1,4.67-3.35c-1-.75-2.06-1.51-3.13-2.28-3.42-2.45-6.95-4.77-10.56-6.9-2.69-1.59-5.44-3.1-8.21-4.46-0.45-.24-0.91-0.46-1.38-0.68-0.12,0-.23-0.12-0.36-0.16a31.14,31.14,0,0,1-3.12,1.3C674.38-256.54,674.27-255,675.35-254.07Z" transform="translate(-268.53 280.41)"/><path class="cls-8" d="M668.89-250.51c1.4,1.21,22.05,15.66,19.5,18s-14.89,15-17.56,14.22-20-15-21-19.08C648.86-241.31,665.9-253.1,668.89-250.51Z" transform="translate(-268.53 280.41)"/><path class="cls-9" d="M670.69-219.72c2.25,0.68,11.85-9,15.28-12.25l0.79-.76c2.34-2.13-16.55-15.35-17.84-16.46-2.67-2.3-17.62,7.93-17.48,11.75a1,1,0,0,0,0,.27C652.42-233.42,668.24-220.47,670.69-219.72Z" transform="translate(-268.53 280.41)"/><path class="cls-10" d="M670.69-219.72c2.25,0.68,11.85-9,15.28-12.25-1.94-3.93-16.7-14.29-17.83-15.26-2.29-2-13.61,5.26-16.69,9.78a1,1,0,0,0,0,.27C652.42-233.42,668.24-220.47,670.69-219.72Z" transform="translate(-268.53 280.41)"/><path class="cls-11" d="M699-186.26l1-.5c1.25-.6,2.47-1.22,3.65-1.82a2.25,2.25,0,0,1,.37-0.19h0c22.32-11.5,33.1-22.91,24-33.23l-0.51-.55a233,233,0,0,0-17.6-15.3C692.62-239.69,672.85-197.86,699-186.26Z" transform="translate(-268.53 280.41)"/><path class="cls-12" d="M728.29-218s-9,13-23.2,20.38-13.59,2.29-13.59,2.29,2.11,5.07,7.35,5.81S734.8-207.62,728.29-218Z" transform="translate(-268.53 280.41)"/><path class="cls-13" d="M563.78-249c0,5.88-5.83,11.5-13,12.56a14.11,14.11,0,0,1-7.07-.67,17.13,17.13,0,0,1-7.39,3,13.64,13.64,0,0,1-8.23-1.18,17,17,0,0,1-6,3.11c-0.27.08-.54,0.15-0.82,0.21V-280.3c0.58-.05,1.16-0.08,1.73-0.1,9.76-.21,17.27,5.47,17.55,13.68,6.33-.2,11.19,3.52,11.19,8.88v0C558.48-258.37,563.78-254.57,563.78-249Z" transform="translate(-268.53 280.41)"/><path class="cls-13" d="M479.86-248.47c0,5.88,5.68,11.43,12.7,12.41a13.49,13.49,0,0,0,6.89-.75,16.22,16.22,0,0,0,7.19,2.87,13.07,13.07,0,0,0,8-1.27,16.11,16.11,0,0,0,5.82,3c0.26,0.07.53,0.14,0.8,0.2V-280.3q-0.86-.07-1.69-0.08c-9.51-.1-16.83,5.66-17.1,13.88-6.17-.13-10.91,3.65-10.91,9v0C485-257.94,479.86-254.08,479.86-248.47Z" transform="translate(-268.53 280.41)"/><path class="cls-14" d="M559.36-242.72a10.93,10.93,0,0,1-11.19,10.64,11.59,11.59,0,0,1-6.07-1.7,11.54,11.54,0,0,1-6.34,1.87,11.52,11.52,0,0,1-7.07-2.39,11.35,11.35,0,0,1-5.13,2.23c-0.23,0-.46.07-0.7,0.09s-0.61,0-.91.06h-0.31a11.5,11.5,0,0,1-6.76-2.16,11.52,11.52,0,0,1-6.76,2.16,11.49,11.49,0,0,1-7.28-2.56,11.76,11.76,0,0,1-3.3.47,10.92,10.92,0,0,1-11.19-10.64,10.78,10.78,0,0,1,8.89-10.42,10.23,10.23,0,0,1-.22-2.09,10.82,10.82,0,0,1,9.37-10.49,17.62,17.62,0,0,1,16.77-12.7h0.46c0.41,0,.82,0,1.23,0s1,0.09,1.48.16c8.38,1.22,14.84,8,15.08,16.25A10.83,10.83,0,0,1,549-253.36v0A10.87,10.87,0,0,1,559.36-242.72Z" transform="translate(-268.53 280.41)"/><path class="cls-13" d="M557.79-242.72a10.93,10.93,0,0,1-11.19,10.64,11.59,11.59,0,0,1-6.07-1.7,11.54,11.54,0,0,1-6.34,1.87,11.52,11.52,0,0,1-7.07-2.39,11.35,11.35,0,0,1-5.13,2.23c-0.23,0-.46.07-0.7,0.09V-280.3c0.5,0,1,.09,1.48.16,8.38,1.22,14.84,8,15.08,16.25a10.83,10.83,0,0,1,9.61,10.53v0A10.87,10.87,0,0,1,557.79-242.72Z" transform="translate(-268.53 280.41)"/><path class="cls-13" d="M736.6-153.21c0,5.88,5.83,11.5,13,12.56a14.14,14.14,0,0,0,7.07-.67,17.08,17.08,0,0,0,7.38,3,13.63,13.63,0,0,0,8.23-1.17,16.91,16.91,0,0,0,6,3.1c0.27,0.08.54,0.15,0.82,0.21v-48.33c-0.58-.05-1.16-0.09-1.73-0.1-9.76-.21-17.27,5.47-17.55,13.68-6.33-.2-11.19,3.52-11.19,8.89v0C741.91-162.63,736.6-158.82,736.6-153.21Z" transform="translate(-268.53 280.41)"/><path class="cls-13" d="M820.53-152.73c0,5.88-5.68,11.43-12.7,12.41a13.48,13.48,0,0,1-6.89-.75,16.24,16.24,0,0,1-7.2,2.87,13.06,13.06,0,0,1-8-1.27,16.14,16.14,0,0,1-5.82,3c-0.27.07-.53,0.14-0.8,0.2v-48.33q0.85-.07,1.68-0.08c9.51-.1,16.83,5.66,17.1,13.88,6.17-.13,10.91,3.65,10.91,9v0C815.37-162.2,820.53-158.33,820.53-152.73Z" transform="translate(-268.53 280.41)"/><path class="cls-14" d="M741-147a10.93,10.93,0,0,0,11.19,10.64,11.59,11.59,0,0,0,6.07-1.71,11.52,11.52,0,0,0,6.34,1.87,11.53,11.53,0,0,0,7.07-2.38,11.36,11.36,0,0,0,5.13,2.23l0.71,0.09c0.3,0,.6,0,0.91.06h0.31a11.51,11.51,0,0,0,6.76-2.16,11.54,11.54,0,0,0,6.76,2.16,11.49,11.49,0,0,0,7.28-2.56,11.76,11.76,0,0,0,3.3.47,10.92,10.92,0,0,0,11.19-10.64,10.78,10.78,0,0,0-8.89-10.42,10.25,10.25,0,0,0,.22-2.09A10.82,10.82,0,0,0,796-171.89a17.63,17.63,0,0,0-16.77-12.7h-0.46c-0.41,0-.82,0-1.22,0s-1,.09-1.49.15c-8.38,1.22-14.84,8-15.08,16.26a10.83,10.83,0,0,0-9.61,10.53v0A10.88,10.88,0,0,0,741-147Z" transform="translate(-268.53 280.41)"/><path class="cls-13" d="M742.6-147a10.93,10.93,0,0,0,11.19,10.64,11.59,11.59,0,0,0,6.07-1.71,11.52,11.52,0,0,0,6.34,1.87,11.53,11.53,0,0,0,7.07-2.38,11.36,11.36,0,0,0,5.13,2.23l0.71,0.09v-48.33c-0.5,0-1,.09-1.49.15-8.38,1.22-14.84,8-15.08,16.26a10.83,10.83,0,0,0-9.61,10.53v0A10.88,10.88,0,0,0,742.6-147Z" transform="translate(-268.53 280.41)"/><path class="cls-13" d="M296.34-163.64c0,4.47,4.43,8.74,9.9,9.54a10.73,10.73,0,0,0,5.37-.51,13,13,0,0,0,5.61,2.25,10.34,10.34,0,0,0,6.25-.89,12.86,12.86,0,0,0,4.54,2.36l0.62,0.16v-36.73c-0.44,0-.88-0.06-1.31-0.07-7.42-.16-13.13,4.15-13.34,10.39-4.81-.15-8.51,2.68-8.51,6.76v0C300.38-170.79,296.34-167.9,296.34-163.64Z" transform="translate(-268.53 280.41)"/><path class="cls-13" d="M360.13-163.27c0,4.46-4.32,8.69-9.65,9.43a10.22,10.22,0,0,1-5.23-.57,12.32,12.32,0,0,1-5.47,2.18,9.93,9.93,0,0,1-6.09-1,12.24,12.24,0,0,1-4.43,2.31l-0.61.15v-36.73c0.43,0,.86-0.05,1.28-0.06,7.23-.08,12.79,4.3,13,10.55,4.69-.1,8.29,2.77,8.29,6.85v0C356.21-170.47,360.13-167.53,360.13-163.27Z" transform="translate(-268.53 280.41)"/><path class="cls-14" d="M299.71-158.9a8.31,8.31,0,0,0,8.5,8.09,8.81,8.81,0,0,0,4.62-1.3,8.76,8.76,0,0,0,4.82,1.43,8.77,8.77,0,0,0,5.37-1.81,8.64,8.64,0,0,0,3.9,1.69l0.53,0.07c0.23,0,.46,0,0.69,0h0.24a8.75,8.75,0,0,0,5.13-1.64,8.77,8.77,0,0,0,5.14,1.64,8.72,8.72,0,0,0,5.53-1.95,8.91,8.91,0,0,0,2.51.35,8.3,8.3,0,0,0,8.5-8.08,8.2,8.2,0,0,0-6.76-7.92,7.73,7.73,0,0,0,.16-1.59,8.22,8.22,0,0,0-7.12-8,13.4,13.4,0,0,0-12.75-9.65h-0.35c-0.31,0-.63,0-0.93,0s-0.76.07-1.13,0.12A13.11,13.11,0,0,0,314.87-175a8.23,8.23,0,0,0-7.31,8v0A8.27,8.27,0,0,0,299.71-158.9Z" transform="translate(-268.53 280.41)"/><path class="cls-13" d="M300.9-158.9a8.31,8.31,0,0,0,8.51,8.09,8.82,8.82,0,0,0,4.62-1.3,8.76,8.76,0,0,0,4.82,1.43,8.77,8.77,0,0,0,5.37-1.81,8.64,8.64,0,0,0,3.9,1.69l0.54,0.07v-36.73c-0.38,0-.76.07-1.13,0.12A13.11,13.11,0,0,0,316.07-175a8.23,8.23,0,0,0-7.31,8v0A8.27,8.27,0,0,0,300.9-158.9Z" transform="translate(-268.53 280.41)"/></svg>